<?xml version="1.0" encoding="utf-8"?>
<!-- Generator: Adobe Illustrator 16.0.0, SVG Export Plug-In . SVG Version: 6.00 Build 0)  -->
<!DOCTYPE svg PUBLIC "-//W3C//DTD SVG 1.1//EN" "http://www.w3.org/Graphics/SVG/1.1/DTD/svg11.dtd">
<svg version="1.1" id="Layer_1" xmlns="http://www.w3.org/2000/svg" xmlns:xlink="http://www.w3.org/1999/xlink" x="0px" y="0px"
	 width="600px" height="450px" viewBox="0 75 600 450" enable-background="new 0 75 600 450" xml:space="preserve">
<g>
	<polygon fill="#80B786" points="197.469,306.31 297.388,420.359 258.026,465.311 158.114,351.236 149.948,360.562 142.016,351.509 
		42.346,465.311 2.985,420.359 102.802,306.392 108.644,313.104 259.238,141.159 266.915,180.658 300.682,188.471 	"/>
	<g>
		<polygon fill="#5F6C80" points="37.747,144.482 149.948,265.946 108.51,313.258 -0.163,182.392 		"/>
	</g>
	<path fill="#80B786" d="M490.375,361.404l93.109,56.271l-38.697,46.413l-218.51-125.765l21.004-25.055l21.334-25.458l13.299,8.037
		h103.793c26.74,0,48.42-21.686,48.42-48.429c0-26.737-21.68-48.428-48.42-48.428h-93.773v48.428h-65.656V198.99l65.656-65.641
		h93.773c63,0,114.064,51.06,114.064,114.069C599.771,308.857,551.221,358.944,490.375,361.404z"/>
	<path fill="#5F6C80" d="M390.543,375.314l-3.326,88.155h-56.328l-4.611-125.146L390.543,375.314z"/>
	<g>
		
			<linearGradient id="SVGID_1_" gradientUnits="userSpaceOnUse" x1="22.2202" y1="158.3301" x2="121.544" y2="270.4055" gradientTransform="matrix(1 0 0 -1 0 601)">
			<stop  offset="0" style="stop-color:#FFFFFF;stop-opacity:0.1"/>
			<stop  offset="0.1256" style="stop-color:#FBFBFB;stop-opacity:0.1251"/>
			<stop  offset="0.2559" style="stop-color:#EEEFF0;stop-opacity:0.1512"/>
			<stop  offset="0.3883" style="stop-color:#DADBDD;stop-opacity:0.1777"/>
			<stop  offset="0.5222" style="stop-color:#BDBEC2;stop-opacity:0.2044"/>
			<stop  offset="0.6573" style="stop-color:#979A9F;stop-opacity:0.2315"/>
			<stop  offset="0.7934" style="stop-color:#696E75;stop-opacity:0.2587"/>
			<stop  offset="0.9278" style="stop-color:#343A44;stop-opacity:0.2856"/>
			<stop  offset="1" style="stop-color:#141B27;stop-opacity:0.3"/>
		</linearGradient>
		<polygon fill="url(#SVGID_1_)" points="2.985,420.359 42.346,465.311 142.016,351.509 102.802,306.392 		"/>
	</g>
	<g>
		
			<linearGradient id="SVGID_2_" gradientUnits="userSpaceOnUse" x1="278.8057" y1="160.4116" x2="177.4654" y2="269.1343" gradientTransform="matrix(1 0 0 -1 0 601)">
			<stop  offset="0" style="stop-color:#FFFFFF;stop-opacity:0.1"/>
			<stop  offset="0.1256" style="stop-color:#FBFBFB;stop-opacity:0.1251"/>
			<stop  offset="0.2559" style="stop-color:#EEEFF0;stop-opacity:0.1512"/>
			<stop  offset="0.3883" style="stop-color:#DADBDD;stop-opacity:0.1777"/>
			<stop  offset="0.5222" style="stop-color:#BDBEC2;stop-opacity:0.2044"/>
			<stop  offset="0.6573" style="stop-color:#979A9F;stop-opacity:0.2315"/>
			<stop  offset="0.7934" style="stop-color:#696E75;stop-opacity:0.2587"/>
			<stop  offset="0.9278" style="stop-color:#343A44;stop-opacity:0.2856"/>
			<stop  offset="1" style="stop-color:#141B27;stop-opacity:0.3"/>
		</linearGradient>
		<polygon fill="url(#SVGID_2_)" points="258.026,465.311 297.395,420.359 197.469,306.31 158.121,351.236 		"/>
	</g>
	
		<linearGradient id="SVGID_3_" gradientUnits="userSpaceOnUse" x1="514.0703" y1="350.5332" x2="457.03" y2="258.5986" gradientTransform="matrix(1 0 0 -1 0 601)">
		<stop  offset="0" style="stop-color:#FFFFFF;stop-opacity:0.1"/>
		<stop  offset="0.1256" style="stop-color:#FBFBFB;stop-opacity:0.1251"/>
		<stop  offset="0.2559" style="stop-color:#EEEFF0;stop-opacity:0.1512"/>
		<stop  offset="0.3883" style="stop-color:#DADBDD;stop-opacity:0.1777"/>
		<stop  offset="0.5222" style="stop-color:#BDBEC2;stop-opacity:0.2044"/>
		<stop  offset="0.6573" style="stop-color:#979A9F;stop-opacity:0.2315"/>
		<stop  offset="0.7934" style="stop-color:#696E75;stop-opacity:0.2587"/>
		<stop  offset="0.9278" style="stop-color:#343A44;stop-opacity:0.2856"/>
		<stop  offset="1" style="stop-color:#141B27;stop-opacity:0.3"/>
	</linearGradient>
	<path fill="url(#SVGID_3_)" d="M490.381,361.404c60.84-2.46,109.392-52.547,109.392-113.986h-65.646
		c0,26.743-21.68,48.422-48.42,48.422H381.914"/>
	
		<linearGradient id="SVGID_4_" gradientUnits="userSpaceOnUse" x1="534.0449" y1="410.6201" x2="392.4353" y2="410.6201" gradientTransform="matrix(1 0 0 -1 0 601)">
		<stop  offset="0" style="stop-color:#FFFFFF;stop-opacity:0.1"/>
		<stop  offset="0.1256" style="stop-color:#FBFBFB;stop-opacity:0.1251"/>
		<stop  offset="0.2559" style="stop-color:#EEEFF0;stop-opacity:0.1512"/>
		<stop  offset="0.3883" style="stop-color:#DADBDD;stop-opacity:0.1777"/>
		<stop  offset="0.5222" style="stop-color:#BDBEC2;stop-opacity:0.2044"/>
		<stop  offset="0.6573" style="stop-color:#979A9F;stop-opacity:0.2315"/>
		<stop  offset="0.7934" style="stop-color:#696E75;stop-opacity:0.2587"/>
		<stop  offset="0.9278" style="stop-color:#343A44;stop-opacity:0.2856"/>
		<stop  offset="1" style="stop-color:#141B27;stop-opacity:0.3"/>
	</linearGradient>
	<path fill="url(#SVGID_4_)" d="M534.127,247.418c0-26.737-21.68-48.428-48.42-48.428h-93.762l-0.012-65.647h93.772
		c62.996,0,114.064,51.066,114.064,114.075"/>
	<g>
		
			<linearGradient id="SVGID_5_" gradientUnits="userSpaceOnUse" x1="329.6152" y1="128.7705" x2="371.2259" y2="238.1663" gradientTransform="matrix(1 0 0 -1 0 601)">
			<stop  offset="0" style="stop-color:#FFFFFF;stop-opacity:0.1"/>
			<stop  offset="0.1256" style="stop-color:#FBFBFB;stop-opacity:0.1251"/>
			<stop  offset="0.2559" style="stop-color:#EEEFF0;stop-opacity:0.1512"/>
			<stop  offset="0.3883" style="stop-color:#DADBDD;stop-opacity:0.1777"/>
			<stop  offset="0.5222" style="stop-color:#BDBEC2;stop-opacity:0.2044"/>
			<stop  offset="0.6573" style="stop-color:#979A9F;stop-opacity:0.2315"/>
			<stop  offset="0.7934" style="stop-color:#696E75;stop-opacity:0.2587"/>
			<stop  offset="0.9278" style="stop-color:#343A44;stop-opacity:0.2856"/>
			<stop  offset="1" style="stop-color:#141B27;stop-opacity:0.3"/>
		</linearGradient>
		<polygon fill="url(#SVGID_5_)" points="387.217,463.471 330.889,463.471 326.277,338.323 390.543,375.314 		"/>
	</g>
	<g>
		
			<linearGradient id="SVGID_6_" gradientUnits="userSpaceOnUse" x1="20.6938" y1="438.6875" x2="129.4073" y2="311.1842" gradientTransform="matrix(1 0 0 -1 0 601)">
			<stop  offset="0" style="stop-color:#FFFFFF;stop-opacity:0.1"/>
			<stop  offset="0.1256" style="stop-color:#FBFBFB;stop-opacity:0.1251"/>
			<stop  offset="0.2559" style="stop-color:#EEEFF0;stop-opacity:0.1512"/>
			<stop  offset="0.3883" style="stop-color:#DADBDD;stop-opacity:0.1777"/>
			<stop  offset="0.5222" style="stop-color:#BDBEC2;stop-opacity:0.2044"/>
			<stop  offset="0.6573" style="stop-color:#979A9F;stop-opacity:0.2315"/>
			<stop  offset="0.7934" style="stop-color:#696E75;stop-opacity:0.2587"/>
			<stop  offset="0.9278" style="stop-color:#343A44;stop-opacity:0.2856"/>
			<stop  offset="1" style="stop-color:#141B27;stop-opacity:0.3"/>
		</linearGradient>
		<polygon fill="url(#SVGID_6_)" points="37.747,144.482 -0.163,182.392 108.504,313.258 149.948,265.946 		"/>
	</g>
	<g>
		<path fill="#FFFFFF" d="M46.632,182.327c-1.577,1.418-2.83,2.34-4.238,3.192c-0.416,0.225-0.321,0.638,0.3,0.632
			c3.106-0.418,6.062,0.46,8.631,3.317c3.807,4.229,3.287,9.373-1.331,13.53l-11.019,9.918c-0.231,0.206-0.445,0.193-0.656-0.036
			l-1.627-1.811c-0.214-0.229-0.196-0.454,0.029-0.663l10.823-9.731c3.347-3.018,3.827-6.508,1.258-9.367
			c-3.985-4.419-9.058-2.787-13.18,0.933l-8.428,7.588c-0.238,0.201-0.443,0.196-0.657-0.036l-1.626-1.809
			c-0.211-0.237-0.2-0.451,0.022-0.656l26.523-23.886c0.237-0.208,0.463-0.196,0.662,0.041l1.628,1.809
			c0.208,0.225,0.202,0.443-0.029,0.657L46.632,182.327z"/>
		<path fill="#FFFFFF" d="M67.45,208.541c1.354,0.806,2.827,1.975,4.282,3.597c4.227,4.701,4.057,10.153-0.606,14.347l-11.003,9.91
			c-0.232,0.214-0.452,0.196-0.662-0.036l-1.073-1.187c-0.21-0.238-0.198-0.455,0-0.699l1.622-1.68
			c0.402-0.561,0.119-0.791-0.65-0.796c-2.827,0.174-5.446-1.03-8.013-3.87c-3.495-3.891-3.429-8.071,0-11.151
			c3.353-3.018,7.734-2.715,11.755,1.684l5.236,5.809l0.495-0.452c3.276-2.949,3.501-6.492,0.514-9.804
			c-1.211-1.349-2.44-2.408-3.613-3.083l-1.602-1.003c-0.284-0.16-0.338-0.386-0.184-0.669l1.122-1.775
			c0.167-0.289,0.387-0.354,0.668-0.187L67.45,208.541z M60.949,220.592c-2.637-2.919-5.191-3.055-7.195-1.259
			c-2.16,1.946-2.184,4.473,0.041,6.932c3.573,3.968,7.882,4.199,11.885,0.591l0.506-0.442L60.949,220.592z"/>
		<path fill="#FFFFFF" d="M78.857,257.441c-1.491-0.885-2.875-1.951-4.045-3.258c-5.058-5.619-4.141-12.022,1.791-17.368
			c5.885-5.3,12.318-5.577,17.454,0.104c1.075,1.203,1.879,2.493,2.643,4.105l0.728,1.514c0.172,0.262,0.089,0.481-0.213,0.609
			l-1.993,0.882c-0.267,0.101-0.467,0.012-0.616-0.214l-0.661-1.36c-0.622-1.46-1.396-2.566-2.16-3.412
			c-3.818-4.232-8.425-3.772-12.926,0.273c-4.583,4.128-5.412,8.705-1.732,12.785c0.861,0.965,2.093,1.939,3.478,2.791l1.289,0.799
			c0.283,0.161,0.335,0.378,0.181,0.669l-1.087,1.809c-0.16,0.292-0.39,0.356-0.674,0.184L78.857,257.441z"/>
		<path fill="#FFFFFF" d="M101.548,282.245c-0.089,0.365-0.356,0.461-0.638,0.155l-1.904-2.118c-0.165-0.19-0.202-0.38-0.184-0.597
			l1.408-7.335c0.567-3.008,1.122-5.876-1.102-8.347l-0.728-0.806l-7.81,7.039c-0.238,0.198-0.448,0.192-0.662-0.036l-1.628-1.812
			c-0.205-0.234-0.199-0.454,0.037-0.656l26.517-23.886c0.231-0.205,0.458-0.193,0.657,0.042l1.633,1.812
			c0.208,0.223,0.19,0.441-0.036,0.649l-16.399,14.772l0.656,0.733c1.939,2.148,5.333,1.88,8.273,1.75l6.956-0.479
			c0.216,0.006,0.394,0.054,0.578,0.249l1.903,2.116c0.274,0.309,0.156,0.558-0.213,0.618l-8.324,0.662
			c-2.726,0.217-5.366,0.158-6.937-0.656c-0.321-0.13-0.481-0.065-0.345,0.306c0.739,1.993,0.532,4.469,0.024,7.296L101.548,282.245
			z"/>
	</g>
</g>
</svg>
