<?xml version="1.0" encoding="utf-8"?>
<!-- Generator: Adobe Illustrator 16.0.0, SVG Export Plug-In . SVG Version: 6.00 Build 0)  -->
<!DOCTYPE svg PUBLIC "-//W3C//DTD SVG 1.1//EN" "http://www.w3.org/Graphics/SVG/1.1/DTD/svg11.dtd">
<svg version="1.1" id="Layer_1" xmlns="http://www.w3.org/2000/svg" xmlns:xlink="http://www.w3.org/1999/xlink" x="0px" y="0px"
	 width="691.5px" height="600px" viewBox="-91.5 0 691.5 600" enable-background="new -91.5 0 691.5 600" xml:space="preserve">
<g id="Layer_1_1_" display="none">
	<g display="inline">
		<g>
			<g>
				<defs>
					<rect id="SVGID_1_" x="230.37" y="-22.209" width="299.835" height="709.384"/>
				</defs>
				<clipPath id="SVGID_2_">
					<use xlink:href="#SVGID_1_"  overflow="visible"/>
				</clipPath>
				<g clip-path="url(#SVGID_2_)">
					
						<image overflow="visible" enable-background="new    " width="490" height="667" xlink:href="93A63ACB43E14819.jpeg"  transform="matrix(1.0635 0 0 1.0635 9.0679 -22.21)">
					</image>
				</g>
			</g>
		</g>
	</g>
	<g display="inline">
		<g>
			<g>
				<defs>
					<rect id="SVGID_3_" x="-72.857" y="-22.209" width="299.834" height="709.384"/>
				</defs>
				<clipPath id="SVGID_4_">
					<use xlink:href="#SVGID_3_"  overflow="visible"/>
				</clipPath>
				<g transform="matrix(1 0 0 1 3.051758e-05 0)" clip-path="url(#SVGID_4_)">
					
						<image overflow="visible" enable-background="new    " width="490" height="667" xlink:href="93A63ACB43E1481B.jpeg"  transform="matrix(-1.0635 0 0 1.0635 448.2793 -22.21)">
					</image>
				</g>
			</g>
		</g>
	</g>
</g>
<g id="Layer_6" display="none">
	
		<image display="inline" overflow="visible" enable-background="new    " width="600" height="600" xlink:href="93A63ACB43E14819.jpeg"  transform="matrix(0.6119 0 0 0.6119 45.7905 -115.4365)">
	</image>
</g>
<g id="Layer_2">
	<polygon fill="#F5CAA0" points="251.303,275.389 288.703,357.172 251.303,384.677 	"/>
	<polygon fill="#B5746B" points="309.233,426.848 251.303,384.677 251.303,422.266 	"/>
	<polygon fill="#CC8783" points="251.303,449.769 251.303,422.266 309.233,426.848 	"/>
	<polygon fill="#B87265" points="251.303,551.533 334.898,524.946 251.303,449.769 	"/>
	<polygon fill="#D18A70" points="309.233,426.848 251.303,449.769 334.898,524.946 	"/>
	<polygon fill="#DE9477" points="288.703,357.172 309.233,426.848 251.303,384.677 	"/>
	<polygon fill="#3F2531" points="251.303,275.389 326.832,225.153 373.768,268.243 	"/>
	<polygon fill="#D98E6E" points="288.703,357.172 373.768,268.243 251.303,275.389 	"/>
	<polygon fill="#C07367" points="309.233,426.848 411.898,303.081 288.703,357.172 	"/>
	<polygon fill="#CF816D" points="373.768,268.243 411.898,303.081 288.703,357.172 	"/>
	<polygon fill="#C98972" points="334.898,524.946 396.499,449.769 309.233,426.848 	"/>
	<polygon fill="#FBCB9F" points="411.898,303.081 396.499,449.769 309.233,426.848 	"/>
	<polygon fill="#CE8B73" points="373.768,268.243 396.499,218.734 411.898,303.081 	"/>
	<polygon fill="#AE6D69" points="326.832,225.153 251.303,158.226 251.303,275.389 	"/>
	<polygon fill="#CE836A" points="352.866,94.967 251.303,158.226 326.832,225.153 	"/>
	<polygon fill="#EFB18F" points="396.499,218.734 326.832,225.153 373.768,268.243 	"/>
	<polygon fill="#E29971" points="352.866,94.967 396.499,218.734 326.832,225.153 	"/>
	<polygon fill="#C37769" points="251.303,158.226 251.303,71.13 352.866,94.967 	"/>
	<polygon fill="#D8A17D" points="411.898,303.081 433.898,243.489 456.63,286.58 	"/>
	<polygon fill="#DF8C76" points="402.95,388.319 456.63,286.58 411.898,303.081 	"/>
	<polygon fill="#72534B" points="396.499,218.734 433.898,243.489 411.898,303.081 	"/>
	<polygon fill="#453129" points="352.866,94.967 433.898,114.677 396.499,218.734 	"/>
	<polygon fill="#6D594F" points="433.898,243.489 433.898,114.677 396.499,218.734 	"/>
	<polygon fill="#221611" points="352.866,94.967 367.165,47.293 433.898,114.677 	"/>
	<polygon fill="#362215" points="251.303,71.13 312.535,20.706 352.866,94.967 	"/>
	<polygon fill="#5B4536" points="367.165,47.293 312.535,20.706 352.866,94.967 	"/>
	<polygon fill="#453021" points="251.303,15.206 312.535,20.706 251.303,71.13 	"/>
	<polygon fill="#D09575" points="402.95,388.319 410.542,494.233 396.499,449.769 	"/>
	<polygon fill="#B57868" points="334.898,524.946 410.542,601.5 396.499,449.769 	"/>
	<polygon fill="#60414D" points="251.303,551.533 251.303,672.552 334.898,524.946 	"/>
	<polygon fill="#CE8869" points="410.542,494.233 410.542,601.5 396.499,449.769 	"/>
	<polygon fill="#824C51" points="343.7,661.55 251.303,672.552 334.898,524.946 	"/>
	<polygon fill="#AF6E60" points="410.542,601.5 334.898,524.946 343.7,661.55 	"/>
	<polygon fill="#D58869" points="410.542,494.233 448.38,522.653 410.542,601.5 	"/>
	<polygon fill="#231E32" points="437.38,621.669 410.542,601.5 448.38,522.653 	"/>
	<polygon fill="#565B72" points="343.7,661.55 350.301,699.139 410.542,601.5 	"/>
	<polygon fill="#566177" points="437.38,621.669 350.301,699.139 410.542,601.5 	"/>
	<polygon fill="#666E80" points="251.303,672.552 350.301,699.139 343.7,661.55 	"/>
	<polygon fill="#575F7A" points="251.303,711.974 350.301,699.139 251.303,672.552 	"/>
	<polygon fill="#EBC7A3" points="251.303,275.389 213.902,357.173 251.303,384.677 	"/>
	<polygon fill="#A5615A" points="193.373,426.849 251.303,384.677 251.303,422.266 	"/>
	<polygon fill="#C6807B" points="251.303,449.771 251.303,422.266 193.373,426.849 	"/>
	<polygon fill="#8F565A" points="251.303,551.533 167.706,524.946 251.303,449.771 	"/>
	<polygon fill="#B36E5C" points="193.373,426.849 251.303,449.771 167.706,524.946 	"/>
	<polygon fill="#D38F79" points="213.902,357.173 193.373,426.849 251.303,384.677 	"/>
	<polygon fill="#4D3845" points="251.303,275.389 175.772,225.153 128.84,268.243 	"/>
	<polygon fill="#F1AE8A" points="213.902,357.173 128.84,268.243 251.303,275.389 	"/>
	<polygon fill="#AF6661" points="193.373,426.849 90.708,303.082 213.902,357.173 	"/>
	<polygon fill="#CA7D67" points="128.84,268.243 90.708,303.082 213.902,357.173 	"/>
	<polygon fill="#E2A180" points="167.706,524.946 106.107,449.771 193.373,426.849 	"/>
	<polygon fill="#DC9675" points="90.708,303.082 106.107,449.771 193.373,426.849 	"/>
	<polygon fill="#B97766" points="128.84,268.243 106.107,218.734 90.708,303.082 	"/>
	<polygon fill="#A86766" points="175.772,225.153 251.303,158.227 251.303,275.389 	"/>
	<polygon fill="#C77B65" points="149.74,94.967 251.303,158.227 175.772,225.153 	"/>
	<polygon fill="#AA7259" points="106.107,218.734 175.772,225.153 128.84,268.243 	"/>
	<polygon fill="#DC926B" points="149.74,94.967 106.107,218.734 175.772,225.153 	"/>
	<polygon fill="#C17563" points="251.303,158.227 251.303,71.13 149.74,94.967 	"/>
	<polygon fill="#CB8D77" points="90.708,303.082 68.708,243.489 45.978,286.581 	"/>
	<polygon fill="#D6967D" points="99.655,388.319 45.978,286.581 90.708,303.082 	"/>
	<polygon fill="#84624C" points="106.107,218.734 68.708,243.489 90.708,303.082 	"/>
	<polygon fill="#352118" points="149.74,94.967 68.708,114.677 106.107,218.734 	"/>
	<polygon fill="#3F2E2B" points="68.708,243.489 68.708,114.677 106.107,218.734 	"/>
	<polygon fill="#381C12" points="149.74,94.967 135.44,47.294 68.708,114.677 	"/>
	<polygon fill="#432821" points="251.303,71.13 190.07,20.707 149.74,94.967 	"/>
	<polygon fill="#2E1B10" points="135.44,47.294 190.07,20.707 149.74,94.967 	"/>
	<polygon fill="#5A4534" points="251.303,15.206 190.07,20.707 251.303,71.13 	"/>
	<polygon fill="#E1A489" points="99.655,388.319 92.065,494.233 106.107,449.771 	"/>
	<polygon fill="#C58571" points="167.706,524.946 92.065,601.5 106.107,449.771 	"/>
	<polygon fill="#614250" points="251.303,551.533 251.303,672.552 167.706,524.946 	"/>
	<polygon fill="#EAAA91" points="92.065,494.233 92.065,601.5 106.107,449.771 	"/>
	<polygon fill="#603B48" points="158.908,661.55 251.303,672.552 167.706,524.946 	"/>
	<polygon fill="#AF6D64" points="92.065,601.5 167.706,524.946 158.908,661.55 	"/>
	<polygon fill="#EFA87E" points="92.065,494.233 54.227,522.654 92.065,601.5 	"/>
	<polygon fill="#1C172A" points="65.227,621.669 92.065,601.5 54.227,522.654 	"/>
	<polygon fill="#535A71" points="158.908,661.55 152.308,699.139 92.065,601.5 	"/>
	<polygon fill="#1C172A" points="65.227,621.669 152.308,699.139 92.065,601.5 	"/>
	<polygon fill="#707789" points="251.303,672.552 152.308,699.139 158.908,661.55 	"/>
	<polygon fill="#5C6274" points="251.303,711.974 152.308,699.139 251.303,672.552 	"/>
	<polygon fill="#251C31" points="448.38,522.653 482.182,530.446 437.38,621.669 	"/>
	<polygon fill="#251C31" points="65.227,621.669 54.227,522.653 20.424,530.446 	"/>
	<polyline fill="#308043" points="482.182,530.446 565.999,543.667 437.38,621.669 482.182,530.446 	"/>
	<polygon fill="#226A3A" points="565.999,543.667 611.42,621.669 437.38,621.669 	"/>
	<polyline fill="#296C25" points="20.424,530.446 -57.4,543.667 65.227,621.669 20.424,530.446 	"/>
	<polygon fill="#226A3A" points="-57.4,543.667 -103.4,621.669 65.227,621.669 	"/>
</g>
<g id="left_shade" display="none" opacity="0.1">
	<polygon display="inline" fill="#262223" points="239.834,275.389 202.434,357.172 239.834,384.677 	"/>
	<polygon display="inline" fill="#262223" points="181.903,426.849 239.834,384.677 239.834,422.266 	"/>
	<polygon display="inline" fill="#262223" points="239.834,449.771 239.834,422.266 181.903,426.849 	"/>
	<polygon display="inline" fill="#262223" points="239.834,551.532 156.235,524.946 239.834,449.771 	"/>
	<polygon display="inline" fill="#262223" points="181.903,426.849 239.834,449.771 156.235,524.946 	"/>
	<polygon display="inline" fill="#262223" points="202.434,357.172 181.903,426.849 239.834,384.677 	"/>
	<polygon display="inline" fill="#262223" points="239.834,275.389 164.303,225.153 117.371,268.242 	"/>
	<polygon display="inline" fill="#262223" points="202.434,357.172 117.371,268.242 239.834,275.389 	"/>
	<polygon display="inline" fill="#262223" points="181.903,426.849 79.237,303.081 202.434,357.172 	"/>
	<polygon display="inline" fill="#262223" points="117.371,268.242 79.237,303.081 202.434,357.172 	"/>
	<polygon display="inline" fill="#262223" points="156.235,524.946 94.638,449.771 181.903,426.849 	"/>
	<polygon display="inline" fill="#262223" points="79.237,303.081 94.638,449.771 181.903,426.849 	"/>
	<polygon display="inline" fill="#262223" points="117.371,268.242 94.638,218.734 79.237,303.081 	"/>
	<polygon display="inline" fill="#262223" points="164.303,225.153 239.834,158.226 239.834,275.389 	"/>
	<polygon display="inline" fill="#262223" points="138.271,94.967 239.834,158.226 164.303,225.153 	"/>
	<polygon display="inline" fill="#262223" points="94.638,218.734 164.303,225.153 117.371,268.242 	"/>
	<polygon display="inline" fill="#262223" points="138.271,94.967 94.638,218.734 164.303,225.153 	"/>
	<polygon display="inline" fill="#262223" points="239.834,158.226 239.834,71.13 138.271,94.967 	"/>
	<polygon display="inline" fill="#262223" points="79.237,303.081 57.237,243.489 34.507,286.58 	"/>
	<polygon display="inline" fill="#262223" points="88.187,388.318 34.507,286.58 79.237,303.081 	"/>
	<polygon display="inline" fill="#262223" points="94.638,218.734 57.237,243.489 79.237,303.081 	"/>
	<polygon display="inline" fill="#262223" points="138.271,94.967 57.237,114.677 94.638,218.734 	"/>
	<polygon display="inline" fill="#262223" points="57.237,243.489 57.237,114.677 94.638,218.734 	"/>
	<polygon display="inline" fill="#262223" points="138.271,94.967 123.97,47.293 57.237,114.677 	"/>
	<polygon display="inline" fill="#262223" points="239.834,71.13 178.603,20.706 138.271,94.967 	"/>
	<polygon display="inline" fill="#262223" points="123.97,47.293 178.603,20.706 138.271,94.967 	"/>
	<polygon display="inline" fill="#262223" points="239.834,15.205 178.603,20.706 239.834,71.13 	"/>
	<polygon display="inline" fill="#262223" points="88.187,388.318 80.597,494.232 94.638,449.771 	"/>
	<polygon display="inline" fill="#262223" points="156.235,524.946 80.597,601.499 94.638,449.771 	"/>
	<polygon display="inline" fill="#262223" points="239.834,551.532 239.834,672.551 156.235,524.946 	"/>
	<polygon display="inline" fill="#262223" points="80.597,494.232 80.597,601.499 94.638,449.771 	"/>
	<polygon display="inline" fill="#262223" points="147.438,661.548 239.834,672.551 156.235,524.946 	"/>
	<polygon display="inline" fill="#262223" points="80.597,601.499 156.235,524.946 147.438,661.548 	"/>
	<polygon display="inline" fill="#262223" points="80.597,494.232 42.756,522.653 80.597,601.499 	"/>
	<polygon display="inline" fill="#262223" points="53.756,621.667 80.597,601.499 42.756,522.653 	"/>
	<polygon display="inline" fill="#262223" points="147.438,661.548 140.838,699.138 80.597,601.499 	"/>
	<polygon display="inline" fill="#262223" points="53.756,621.667 140.838,699.138 80.597,601.499 	"/>
	<polygon display="inline" fill="#262223" points="239.834,672.551 140.838,699.138 147.438,661.548 	"/>
	<polygon display="inline" fill="#262223" points="239.834,711.974 140.838,699.138 239.834,672.551 	"/>
	<polygon display="inline" fill="#262223" points="53.756,621.667 42.756,522.653 8.955,530.446 	"/>
	<polyline display="inline" fill="#262223" points="8.955,530.446 -104.773,543.667 53.756,621.669 8.955,530.446 	"/>
	<polygon display="inline" fill="#262223" points="-104.773,543.667 -150.773,621.669 53.756,621.669 	"/>
</g>
<g id="right_light" display="none" opacity="0.1">
	<polygon display="inline" fill="#EDECD9" points="239.834,275.389 277.234,357.172 239.834,384.677 	"/>
	<polygon display="inline" fill="#EDECD9" points="297.765,426.848 239.834,384.677 239.834,422.266 	"/>
	<polygon display="inline" fill="#EDECD9" points="239.834,449.769 239.834,422.266 297.765,426.848 	"/>
	<polygon display="inline" fill="#EDECD9" points="239.834,551.533 323.43,524.946 239.834,449.769 	"/>
	<polygon display="inline" fill="#EDECD9" points="297.765,426.848 239.834,449.769 323.43,524.946 	"/>
	<polygon display="inline" fill="#EDECD9" points="277.234,357.172 297.765,426.848 239.834,384.677 	"/>
	<polygon display="inline" fill="#EDECD9" points="239.834,275.389 315.361,225.153 362.297,268.243 	"/>
	<polygon display="inline" fill="#EDECD9" points="277.234,357.172 362.297,268.243 239.834,275.389 	"/>
	<polygon display="inline" fill="#EDECD9" points="297.765,426.848 400.428,303.081 277.234,357.172 	"/>
	<polygon display="inline" fill="#EDECD9" points="362.297,268.243 400.428,303.081 277.234,357.172 	"/>
	<polygon display="inline" fill="#EDECD9" points="323.43,524.946 385.029,449.769 297.765,426.848 	"/>
	<polygon display="inline" fill="#EDECD9" points="400.428,303.081 385.029,449.769 297.765,426.848 	"/>
	<polygon display="inline" fill="#EDECD9" points="362.297,268.243 385.029,218.734 400.428,303.081 	"/>
	<polygon display="inline" fill="#EDECD9" points="315.361,225.153 239.834,158.226 239.834,275.389 	"/>
	<polygon display="inline" fill="#EDECD9" points="341.396,94.967 239.834,158.226 315.361,225.153 	"/>
	<polygon display="inline" fill="#EDECD9" points="385.029,218.734 315.361,225.153 362.297,268.243 	"/>
	<polygon display="inline" fill="#EDECD9" points="341.396,94.967 385.029,218.734 315.361,225.153 	"/>
	<polygon display="inline" fill="#EDECD9" points="239.834,158.226 239.834,71.13 341.396,94.967 	"/>
	<polygon display="inline" fill="#EDECD9" points="400.428,303.081 422.428,243.489 445.16,286.58 	"/>
	<polygon display="inline" fill="#EDECD9" points="391.479,388.319 445.16,286.58 400.428,303.081 	"/>
	<polygon display="inline" fill="#EDECD9" points="385.029,218.734 422.428,243.489 400.428,303.081 	"/>
	<polygon display="inline" fill="#EDECD9" points="341.396,94.967 422.428,114.677 385.029,218.734 	"/>
	<polygon display="inline" fill="#EDECD9" points="422.428,243.489 422.428,114.677 385.029,218.734 	"/>
	<polygon display="inline" fill="#EDECD9" points="341.396,94.967 355.696,47.293 422.428,114.677 	"/>
	<polygon display="inline" fill="#EDECD9" points="239.834,71.13 301.064,20.706 341.396,94.967 	"/>
	<polygon display="inline" fill="#EDECD9" points="355.696,47.293 301.064,20.706 341.396,94.967 	"/>
	<polygon display="inline" fill="#EDECD9" points="239.834,15.206 301.064,20.706 239.834,71.13 	"/>
	<polygon display="inline" fill="#EDECD9" points="391.479,388.319 399.072,494.233 385.029,449.769 	"/>
	<polygon display="inline" fill="#EDECD9" points="323.43,524.946 399.072,601.5 385.029,449.769 	"/>
	<polygon display="inline" fill="#EDECD9" points="239.834,551.533 239.834,672.552 323.43,524.946 	"/>
	<polygon display="inline" fill="#EDECD9" points="399.072,494.233 399.072,601.5 385.029,449.769 	"/>
	<polygon display="inline" fill="#EDECD9" points="332.23,661.55 239.834,672.552 323.43,524.946 	"/>
	<polygon display="inline" fill="#EDECD9" points="399.072,601.5 323.43,524.946 332.23,661.55 	"/>
	<polygon display="inline" fill="#EDECD9" points="399.072,494.233 436.911,522.653 399.072,601.5 	"/>
	<polygon display="inline" fill="#EDECD9" points="425.911,621.669 399.072,601.5 436.911,522.653 	"/>
	<polygon display="inline" fill="#EDECD9" points="332.23,661.55 338.831,699.139 399.072,601.5 	"/>
	<polygon display="inline" fill="#EDECD9" points="425.911,621.669 338.831,699.139 399.072,601.5 	"/>
	<polygon display="inline" fill="#EDECD9" points="239.834,672.552 338.831,699.139 332.23,661.55 	"/>
	<polygon display="inline" fill="#EDECD9" points="239.834,711.974 338.831,699.139 239.834,672.552 	"/>
	<polygon display="inline" fill="#EDECD9" points="436.911,522.653 470.712,530.446 425.911,621.669 	"/>
	<polyline display="inline" fill="#EDECD9" points="470.712,530.446 584.44,543.667 425.911,621.669 470.712,530.446 	"/>
	<polygon display="inline" fill="#EDECD9" points="584.44,543.667 630.44,621.669 425.911,621.669 	"/>
</g>
<g id="Layer_7" display="none">
	<polygon display="inline" fill="#1F273B" points="403.771,141.776 386.46,75.098 314.771,136.543 	"/>
	<polygon display="inline" fill="#222A3E" points="320.823,21.182 358.486,42.844 386.46,75.098 	"/>
	<polygon display="inline" fill="#252C3F" points="229.358,131.729 318.031,78.018 229.358,42.844 	"/>
	<polygon display="inline" fill="#293043" points="229.358,0 320.823,21.182 229.358,42.844 	"/>
	<polygon display="inline" fill="#2B3145" points="318.031,78.018 320.823,21.182 229.358,42.844 	"/>
	<polygon display="inline" fill="#272D41" points="314.771,136.543 318.031,78.018 229.358,131.729 	"/>
	<polygon display="inline" fill="#20283B" points="318.031,78.018 386.46,75.098 314.771,136.543 	"/>
	<polygon display="inline" fill="#262D40" points="320.823,21.182 386.46,75.098 318.031,78.018 	"/>
	<polygon display="inline" fill="#1F273B" points="55.048,141.775 72.258,75.098 143.948,136.543 	"/>
	<polygon display="inline" fill="#222A3E" points="137.895,21.182 100.233,42.844 72.258,75.098 	"/>
	<polygon display="inline" fill="#252C3F" points="229.359,131.729 140.686,78.018 229.358,42.844 	"/>
	<polygon display="inline" fill="#293043" points="229.359,0 137.895,21.182 229.358,42.844 	"/>
	<polygon display="inline" fill="#2B3145" points="140.686,78.018 137.895,21.182 229.358,42.844 	"/>
	<polygon display="inline" fill="#272D41" points="143.948,136.543 140.686,78.018 229.359,131.729 	"/>
	<polygon display="inline" fill="#20283B" points="140.686,78.018 72.258,75.098 143.948,136.543 	"/>
	<polygon display="inline" fill="#262D40" points="137.895,21.182 72.258,75.098 140.686,78.018 	"/>
</g>
<g id="Layer_11" display="none" opacity="0.1">
	<polygon display="inline" fill="#262223" points="403.565,141.776 386.256,75.098 314.566,136.543 	"/>
	<polygon display="inline" fill="#262223" points="320.619,21.182 358.28,42.844 386.256,75.098 	"/>
	<polygon display="inline" fill="#262223" points="229.152,131.729 317.826,78.018 229.154,42.844 	"/>
	<polygon display="inline" fill="#262223" points="229.152,0 320.619,21.182 229.154,42.844 	"/>
	<polygon display="inline" fill="#262223" points="317.826,78.018 320.619,21.182 229.154,42.844 	"/>
	<polygon display="inline" fill="#262223" points="314.566,136.543 317.826,78.018 229.152,131.729 	"/>
	<polygon display="inline" fill="#262223" points="317.826,78.018 386.256,75.098 314.566,136.543 	"/>
	<polygon display="inline" fill="#262223" points="320.619,21.182 386.256,75.098 317.826,78.018 	"/>
	<polygon display="inline" fill="#262223" points="54.844,141.775 72.052,75.098 143.742,136.543 	"/>
	<polygon display="inline" fill="#262223" points="137.689,21.182 100.027,42.844 72.052,75.098 	"/>
	<polygon display="inline" fill="#262223" points="229.154,131.729 140.48,78.018 229.152,42.844 	"/>
	<polygon display="inline" fill="#262223" points="229.154,0 137.689,21.182 229.152,42.844 	"/>
	<polygon display="inline" fill="#262223" points="140.48,78.018 137.689,21.182 229.152,42.844 	"/>
	<polygon display="inline" fill="#262223" points="143.742,136.543 140.48,78.018 229.154,131.729 	"/>
	<polygon display="inline" fill="#262223" points="140.48,78.018 72.052,75.098 143.742,136.543 	"/>
	<polygon display="inline" fill="#262223" points="137.689,21.182 72.052,75.098 140.48,78.018 	"/>
</g>
<g id="Layer_10" display="none">
	<polygon display="inline" fill="#1E2539" points="133.86,64.782 229.359,88.716 144.83,136.543 	"/>
	<polygon display="inline" fill="#222A3E" points="79.385,70.905 133.86,64.782 55.048,141.775 	"/>
	<polygon display="inline" fill="#242A3E" points="55.048,141.775 144.83,136.543 133.86,64.782 	"/>
	<polygon display="inline" fill="#222A3E" points="379.333,70.905 324.859,64.782 403.771,141.776 	"/>
	<polygon display="inline" fill="#242A3E" points="403.771,141.776 314.771,136.543 324.859,64.782 	"/>
	<polygon display="inline" fill="#1E2539" points="324.859,64.782 229.358,88.716 314.771,136.543 	"/>
	<polygon display="inline" fill="#20273A" points="229.766,130.938 229.358,88.716 314.771,136.543 	"/>
	<polygon display="inline" fill="#20273A" points="229.766,130.938 229.359,88.716 144.83,136.543 	"/>
	<polygon display="inline" fill="#1E2539" points="324.859,64.782 229.359,56.88 229.359,88.716 	"/>
	<polygon display="inline" fill="#1E2539" points="133.86,64.782 229.359,56.88 229.359,88.716 	"/>
</g>
<g id="Layer_8" display="none" opacity="0.1">
	<polygon display="inline" fill="#20273A" points="229.766,138.814 229.358,88.716 144.828,144.418 	"/>
	<polygon display="inline" fill="#1E2539" points="133.857,64.782 229.358,88.716 144.828,144.418 	"/>
	<polygon display="inline" fill="#242A3E" points="55.047,141.775 144.828,144.418 133.857,64.782 	"/>
	<polygon display="inline" fill="#222A3E" points="79.384,70.905 133.857,64.782 55.047,141.775 	"/>
	<polygon display="inline" fill="#1F273B" points="55.048,141.775 72.256,75.098 143.946,144.418 	"/>
	<polygon display="inline" fill="#222A3E" points="137.894,21.182 100.231,42.844 72.256,75.098 	"/>
	<polygon display="inline" fill="#252C3F" points="229.358,139.605 140.685,78.018 229.356,44.755 	"/>
	<polygon display="inline" fill="#293043" points="229.358,0 137.894,21.182 229.356,42.844 	"/>
	<polygon display="inline" fill="#2B3145" points="140.685,78.018 137.894,21.182 229.356,42.844 	"/>
	<polygon display="inline" fill="#272D41" points="143.946,144.418 140.685,78.018 229.358,139.605 	"/>
	<polygon display="inline" fill="#20283B" points="140.685,78.018 72.256,75.098 143.946,144.418 	"/>
	<polygon display="inline" fill="#262D40" points="137.894,21.182 72.256,75.098 140.685,78.018 	"/>
</g>
<g id="Layer_9" display="none" opacity="0.1">
	<polygon display="inline" fill="#20273A" points="228.947,138.814 228.54,88.716 313.953,144.418 	"/>
	<polygon display="inline" fill="#1E2539" points="324.041,64.782 228.54,88.716 313.953,144.418 	"/>
	<polygon display="inline" fill="#242A3E" points="403.26,141.776 313.953,144.418 324.041,64.782 	"/>
	<polygon display="inline" fill="#222A3E" points="378.516,70.905 324.041,64.782 403.26,141.776 	"/>
	<polygon display="inline" fill="#1F273B" points="403.26,141.776 385.643,75.098 313.953,144.418 	"/>
	<polygon display="inline" fill="#222A3E" points="320.006,21.182 357.668,42.844 385.643,75.098 	"/>
	<polygon display="inline" fill="#252C3F" points="228.54,139.605 317.215,78.018 228.541,42.844 	"/>
	<polygon display="inline" fill="#293043" points="228.54,0 320.006,21.182 228.541,42.844 	"/>
	<polygon display="inline" fill="#2B3145" points="317.215,78.018 320.006,21.182 228.541,42.844 	"/>
	<polygon display="inline" fill="#272D41" points="313.953,144.418 317.215,78.018 228.54,139.605 	"/>
	<polygon display="inline" fill="#20283B" points="317.215,78.018 385.643,75.098 313.953,144.418 	"/>
	<polygon display="inline" fill="#262D40" points="320.006,21.182 385.643,75.098 317.215,78.018 	"/>
</g>
<g id="lower_shade" opacity="0.1">
	<polygon fill="#262223" points="403.338,388.594 410.93,494.508 396.887,450.043 	"/>
	<polygon fill="#262223" points="335.285,525.221 410.93,601.774 396.887,450.043 	"/>
	<polygon fill="#262223" points="251.691,551.808 251.691,672.826 335.285,525.221 	"/>
	<polygon fill="#262223" points="410.93,494.508 410.93,601.774 396.887,450.043 	"/>
	<polygon fill="#262223" points="344.088,661.824 251.691,672.826 335.285,525.221 	"/>
	<polygon fill="#262223" points="410.93,601.774 335.285,525.221 344.088,661.824 	"/>
	<polygon fill="#262223" points="410.93,494.508 448.768,522.928 410.93,601.774 	"/>
	<polygon fill="#262223" points="437.768,621.943 410.93,601.774 448.768,522.928 	"/>
	<polygon fill="#262223" points="344.088,661.824 350.688,699.413 410.93,601.774 	"/>
	<polygon fill="#262223" points="437.768,621.943 350.688,699.413 410.93,601.774 	"/>
	<polygon fill="#262223" points="251.691,672.826 350.688,699.413 344.088,661.824 	"/>
	<polygon fill="#262223" points="251.691,712.248 350.688,699.413 251.691,672.826 	"/>
	<polygon fill="#262223" points="100.042,388.594 92.453,494.508 106.495,450.046 	"/>
	<polygon fill="#262223" points="168.093,525.221 92.453,601.774 106.495,450.046 	"/>
	<polygon fill="#262223" points="251.691,551.808 251.691,672.826 168.093,525.221 	"/>
	<polygon fill="#262223" points="92.453,494.508 92.453,601.774 106.495,450.046 	"/>
	<polygon fill="#262223" points="159.295,661.824 251.691,672.826 168.093,525.221 	"/>
	<polygon fill="#262223" points="92.453,601.774 168.093,525.221 159.295,661.824 	"/>
	<polygon fill="#262223" points="92.453,494.508 54.614,522.929 92.453,601.774 	"/>
	<polygon fill="#262223" points="65.614,621.943 92.453,601.774 54.614,522.929 	"/>
	<polygon fill="#262223" points="159.295,661.824 152.695,699.413 92.453,601.774 	"/>
	<polygon fill="#262223" points="65.614,621.943 152.695,699.413 92.453,601.774 	"/>
	<polygon fill="#262223" points="251.691,672.826 152.695,699.413 159.295,661.824 	"/>
	<polygon fill="#262223" points="251.691,712.248 152.695,699.413 251.691,672.826 	"/>
	<polygon fill="#262223" points="448.768,522.928 482.568,530.721 437.768,621.943 	"/>
	<polyline fill="#262223" points="65.614,621.943 54.614,522.928 20.812,530.721 	"/>
	<polyline fill="#262223" points="482.568,530.721 566.387,543.941 437.768,621.943 482.568,530.721 	"/>
	<polygon fill="#262223" points="566.387,543.941 611.807,621.943 437.768,621.943 	"/>
	<polyline fill="#262223" points="20.812,530.721 -57.013,543.941 65.614,621.943 20.812,530.721 	"/>
	<polygon fill="#262223" points="-57.013,543.941 -103.013,621.943 65.614,621.943 	"/>
</g>
</svg>
