<?xml version="1.0" encoding="utf-8"?>
<!-- Generator: Adobe Illustrator 16.0.0, SVG Export Plug-In . SVG Version: 6.00 Build 0)  -->
<!DOCTYPE svg PUBLIC "-//W3C//DTD SVG 1.1//EN" "http://www.w3.org/Graphics/SVG/1.1/DTD/svg11.dtd">
<svg version="1.1" id="Layer_1" xmlns="http://www.w3.org/2000/svg" xmlns:xlink="http://www.w3.org/1999/xlink" x="0px" y="0px"
	 width="600px" height="600px" viewBox="0 0 600 600" enable-background="new 0 0 600 600" xml:space="preserve">
<g id="Layer_1_1_" display="none">
	
		<image display="inline" overflow="visible" enable-background="new    " width="514" height="673" xlink:href="3D81A1CDC98C8A9C.jpeg"  transform="matrix(1.2811 0 0 1.2811 -1005.6543 -143.0322)">
	</image>
</g>
<g id="Layer_4">
	<g>
		<polygon fill="#5E5255" points="179.445,484.771 181.297,510.655 229.416,538.796 		"/>
		<polygon fill="#655B58" points="251.825,513.438 229.416,538.796 179.445,484.771 		"/>
		<polygon fill="#504542" points="303.086,567.497 229.416,538.796 251.825,513.438 		"/>
		<polygon fill="#7F7C7B" points="354.352,570.312 303.086,567.497 354.35,528.104 		"/>
		<polygon fill="#564444" points="251.825,513.438 354.35,528.104 303.086,567.497 		"/>
		<polygon fill="#5A575A" points="529.256,484.771 527.405,510.655 479.285,538.796 		"/>
		<polygon fill="#7B7679" points="456.878,513.438 479.285,538.796 529.256,484.771 		"/>
		<polygon fill="#897F7D" points="405.615,567.497 479.285,538.796 456.878,513.438 		"/>
		<polygon fill="#837978" points="354.35,570.312 405.615,567.497 354.352,528.104 		"/>
		<polygon fill="#B1A89E" points="456.878,513.438 354.352,528.104 405.615,567.497 		"/>
	</g>
</g>
<g id="Layer_9" opacity="0.5">
	<g>
		<polygon fill="#5CBA47" points="179.436,484.546 181.288,510.43 229.408,538.568 		"/>
		<polygon fill="#5CBA47" points="251.814,513.21 229.408,538.568 179.436,484.546 		"/>
		<polygon fill="#5CBA47" points="303.076,567.271 229.408,538.568 251.814,513.21 		"/>
		<polygon fill="#5CBA47" points="354.342,570.085 303.076,567.271 354.34,527.878 		"/>
		<polygon fill="#5CBA47" points="251.814,513.21 354.34,527.878 303.076,567.271 		"/>
		<polygon fill="#5CBA47" points="529.246,484.546 527.397,510.43 479.276,538.568 		"/>
		<polygon fill="#5CBA47" points="456.87,513.21 479.276,538.568 529.246,484.546 		"/>
		<polygon fill="#5CBA47" points="405.606,567.271 479.276,538.568 456.87,513.21 		"/>
		<polygon fill="#5CBA47" points="354.34,570.085 405.606,567.271 354.342,527.878 		"/>
		<polygon fill="#5CBA47" points="456.87,513.21 354.342,527.878 405.606,567.271 		"/>
	</g>
</g>
<g id="lower">
	<g>
		<polygon fill="#391C23" points="165.253,282.083 181.293,223.834 242.074,406.597 		"/>
		<polygon fill="#573033" points="139.929,371.845 165.253,282.083 242.074,406.597 		"/>
		<polygon fill="#80544C" points="179.441,484.966 139.929,371.845 242.074,406.597 		"/>
		<polygon fill="#744943" points="251.821,513.632 179.441,484.966 242.074,406.597 		"/>
		<polygon fill="#6D4847" points="298.633,446.271 251.821,513.632 242.074,406.597 		"/>
		<polygon fill="#4D333B" points="354.346,446.271 354.346,528.299 298.633,446.271 		"/>
		<polygon fill="#472D2F" points="354.346,528.299 251.821,513.632 298.633,446.271 		"/>
		<polygon fill="#593A38" points="543.44,282.083 527.401,223.834 466.623,406.597 		"/>
		<polygon fill="#C9A488" points="568.764,371.845 543.44,282.083 466.623,406.597 		"/>
		<polygon fill="#956761" points="529.252,484.771 568.764,371.845 466.623,406.597 		"/>
		<polygon fill="#825B59" points="456.875,513.632 529.252,484.771 466.623,406.597 		"/>
		<polygon fill="#593334" points="410.063,446.271 456.875,513.632 466.623,406.597 		"/>
		<polygon fill="#442C35" points="354.348,446.271 354.348,528.299 410.063,446.271 		"/>
		<polygon fill="#523338" points="354.348,528.299 456.875,513.632 410.063,446.271 		"/>
	</g>
</g>
<g id="Layer_10">
	<g>
		<polygon fill="#79595B" points="354.354,599.092 354.354,570.105 292.729,599.092 		"/>
		<polygon fill="#624647" points="354.354,570.105 292.729,599.092 303.087,567.294 		"/>
		<polygon fill="#4B3131" points="229.417,538.592 292.729,599.092 303.087,567.294 		"/>
		<polygon fill="#6E4B47" points="211.688,599.092 229.417,538.592 292.729,599.092 		"/>
		<polygon fill="#684239" points="181.298,510.45 229.417,538.592 211.688,599.092 		"/>
		<polygon fill="#91645A" points="181.298,510.45 141.622,599.092 211.688,599.092 		"/>
		<polygon fill="#5B3C41" points="354.355,599.092 354.355,570.105 415.979,599.092 		"/>
		<polygon fill="#93777C" points="354.355,570.105 415.979,599.092 405.62,567.294 		"/>
		<polygon fill="#5F4F54" points="479.29,538.592 415.979,599.092 405.62,567.294 		"/>
		<polygon fill="#895F59" points="497.017,599.092 479.29,538.592 415.979,599.092 		"/>
		<polygon fill="#9A7668" points="527.408,510.45 479.29,538.592 497.017,599.092 		"/>
		<polygon fill="#A5816A" points="527.408,510.45 567.084,599.092 497.017,599.092 		"/>
	</g>
</g>
<g id="right">
	<g>
		<polygon fill="#6B4847" points="354.344,313.316 410.06,350.459 354.344,350.459 		"/>
		<polygon fill="#2F1E28" points="354.342,418.416 410.06,350.459 354.344,350.459 		"/>
		<polygon fill="#1B0E12" points="354.342,446.271 410.058,446.271 354.342,418.416 		"/>
		<polygon fill="#AA927A" points="466.62,406.598 354.342,418.416 410.058,446.271 		"/>
		<polygon fill="#AF8C75" points="466.62,406.598 410.06,350.459 354.342,418.416 		"/>
		<polygon fill="#2A1A25" points="410.06,223.834 450.581,178.25 484.346,205.263 		"/>
		<polygon fill="#BD8B76" points="410.06,223.834 354.344,313.316 410.06,350.459 		"/>
		<polygon fill="#6A3F3B" points="484.346,205.263 410.06,350.459 410.06,223.834 		"/>
		<polygon fill="#AC8875" points="484.346,205.263 466.62,406.598 410.06,350.459 		"/>
		<polygon fill="#7C5455" points="484.346,205.263 527.401,223.834 466.62,406.598 		"/>
		<polygon fill="#87524B" points="410.06,223.834 354.344,163.055 354.344,313.316 		"/>
		<polygon fill="#754641" points="450.581,178.25 354.344,163.055 410.06,223.834 		"/>
		<polygon fill="#C48C65" points="354.344,163.055 354.344,63.652 450.581,178.25 		"/>
		<polygon fill="#784A44" points="450.581,178.25 503.764,129.289 484.346,205.263 		"/>
		<polygon fill="#814B44" points="503.764,129.289 466.62,56.689 450.581,178.25 		"/>
		<polygon fill="#CF956D" points="466.62,56.689 354.344,63.652 450.581,178.25 		"/>
		<polygon fill="#C09777" points="503.764,129.289 527.401,223.834 484.346,205.263 		"/>
		<polygon fill="#B68665" points="466.62,56.689 599.998,120.844 503.764,129.289 		"/>
		<polygon fill="#B08268" points="503.764,129.289 527.401,223.834 599.998,120.844 		"/>
		<polygon fill="#AF8668" points="574.674,296.432 527.401,223.834 599.998,120.844 		"/>
		<polygon fill="#6D403E" points="574.674,296.432 543.438,282.083 527.401,223.834 		"/>
	</g>
</g>
<g id="left">
	<g>
		<polygon fill="#6D4F55" points="354.342,313.316 298.628,350.459 354.342,350.459 		"/>
		<polygon fill="#1D131F" points="354.342,418.416 298.628,350.459 354.342,350.459 		"/>
		<polygon fill="#37272E" points="354.342,446.271 298.628,446.271 354.342,418.416 		"/>
		<polygon fill="#8A6158" points="242.069,406.598 354.342,418.416 298.628,446.271 		"/>
		<polygon fill="#916357" points="242.069,406.598 298.628,350.459 354.342,418.416 		"/>
		<polygon fill="#341F26" points="298.628,223.834 258.109,178.25 224.341,205.263 		"/>
		<polygon fill="#986250" points="298.628,223.834 354.342,313.316 298.628,350.459 		"/>
		<polygon fill="#7B4D45" points="224.341,205.263 298.628,350.459 298.628,223.834 		"/>
		<polygon fill="#96685C" points="224.341,205.263 242.069,406.598 298.628,350.459 		"/>
		<polygon fill="#8A6059" points="224.341,205.263 181.288,223.834 242.069,406.598 		"/>
		<polygon fill="#986053" points="298.628,223.834 354.342,163.055 354.342,313.316 		"/>
		<polygon fill="#7A423A" points="258.109,178.25 354.342,163.055 298.628,223.834 		"/>
		<polygon fill="#B3795A" points="354.342,163.055 354.344,63.652 258.109,178.25 		"/>
		<polygon fill="#966155" points="258.109,178.25 204.925,129.289 224.341,205.263 		"/>
		<polygon fill="#8C574C" points="204.925,129.289 242.07,56.689 258.109,178.25 		"/>
		<polygon fill="#A06653" points="242.07,56.689 354.344,63.652 258.109,178.25 		"/>
		<polygon fill="#84544B" points="204.925,129.289 181.288,223.834 224.341,205.263 		"/>
		<polygon fill="#824D44" points="242.07,56.689 108.691,120.844 204.925,129.289 		"/>
		<polygon fill="#8A5E52" points="204.925,129.289 181.288,223.834 108.691,120.844 		"/>
		<polygon fill="#765253" points="134.014,296.432 181.288,223.834 108.691,120.844 		"/>
		<polygon fill="#6D4A4F" points="134.014,296.432 165.249,282.083 181.288,223.834 		"/>
	</g>
</g>
<g id="lower_shade" opacity="0.2">
	<g>
		<polygon fill="#282425" points="165.262,282.223 181.301,223.976 242.08,406.736 		"/>
		<polygon fill="#282425" points="139.937,371.986 165.262,282.223 242.08,406.736 		"/>
		<polygon fill="#282425" points="179.45,485.106 139.937,371.986 242.08,406.736 		"/>
		<polygon fill="#282425" points="251.828,513.771 179.45,485.106 242.08,406.736 		"/>
		<polygon fill="#282425" points="298.641,446.413 251.828,513.771 242.08,406.736 		"/>
		<polygon fill="#282425" points="354.355,446.837 354.355,528.439 298.641,446.413 		"/>
		<polygon fill="#282425" points="354.355,528.439 251.828,513.771 298.641,446.413 		"/>
		<polygon fill="#282425" points="543.449,282.223 527.408,223.976 466.63,406.736 		"/>
		<polygon fill="#282425" points="568.774,371.986 543.449,282.223 466.63,406.736 		"/>
		<polygon fill="#282425" points="529.262,484.912 568.774,371.986 466.63,406.736 		"/>
		<polygon fill="#282425" points="456.882,513.771 529.262,484.912 466.63,406.736 		"/>
		<polygon fill="#282425" points="410.071,446.413 456.882,513.771 466.63,406.736 		"/>
		<polygon fill="#282425" points="354.355,446.837 354.355,528.439 410.071,446.413 		"/>
		<polygon fill="#282425" points="354.355,528.439 456.882,513.771 410.071,446.413 		"/>
		<polygon fill="#272324" points="354.359,600 354.359,571.014 292.736,600 		"/>
		<polygon fill="#272324" points="354.359,571.014 292.736,600 303.094,568.202 		"/>
		<polygon fill="#272324" points="229.424,539.5 292.736,600 303.094,568.202 		"/>
		<polygon fill="#272324" points="211.696,600 229.424,539.5 292.736,600 		"/>
		<polygon fill="#272324" points="181.304,511.358 229.424,539.5 211.696,600 		"/>
		<polygon fill="#272324" points="181.304,511.358 141.628,600 211.696,600 		"/>
		<polygon fill="#272324" points="354.361,600 354.361,571.014 415.985,600 		"/>
		<polygon fill="#272324" points="354.361,571.014 415.985,600 405.625,568.202 		"/>
		<polygon fill="#272324" points="479.297,539.5 415.985,600 405.625,568.202 		"/>
		<polygon fill="#272324" points="497.024,600 479.297,539.5 415.985,600 		"/>
		<polygon fill="#272324" points="527.414,511.358 479.297,539.5 497.024,600 		"/>
		<polygon fill="#272324" points="527.414,511.358 567.09,600 497.024,600 		"/>
	</g>
</g>
<g id="right_light" opacity="0.1">
	<g>
		<polygon fill="#EFEEDA" points="529.25,485.109 527.399,510.991 479.28,539.131 		"/>
		<polygon fill="#EFEEDA" points="456.874,513.773 479.28,539.131 529.25,485.109 		"/>
		<polygon fill="#EFEEDA" points="405.61,567.834 479.28,539.131 456.874,513.773 		"/>
		<polygon fill="#EFEEDA" points="354.344,570.647 405.61,567.834 354.348,528.442 		"/>
		<polygon fill="#EFEEDA" points="456.874,513.773 354.348,528.442 405.61,567.834 		"/>
		<polygon fill="#EFEEDA" points="543.44,282.223 527.399,223.976 466.622,406.739 		"/>
		<polygon fill="#EFEEDA" points="568.764,371.986 543.44,282.223 466.622,406.739 		"/>
		<polygon fill="#EFEEDA" points="529.252,484.914 568.764,371.986 466.622,406.739 		"/>
		<polygon fill="#EFEEDA" points="456.874,513.773 529.252,484.914 466.622,406.739 		"/>
		<polygon fill="#EFEEDA" points="410.062,446.416 456.874,513.773 466.622,406.739 		"/>
		<polygon fill="#EFEEDA" points="354.348,446.416 354.348,528.442 410.062,446.416 		"/>
		<polygon fill="#EFEEDA" points="354.348,528.442 456.874,513.773 410.062,446.416 		"/>
		<polygon fill="#EFEEDA" points="543.438,281.855 527.399,223.607 466.62,406.37 		"/>
		<polygon fill="#EFEEDA" points="568.762,371.617 543.438,281.855 466.62,406.37 		"/>
		<polygon fill="#EFEEDA" points="529.25,484.546 568.762,371.617 466.62,406.37 		"/>
		<polygon fill="#EFEEDA" points="456.872,513.405 529.25,484.546 466.62,406.37 		"/>
		<polygon fill="#EFEEDA" points="410.06,446.046 456.872,513.405 466.62,406.37 		"/>
		<polygon fill="#EFEEDA" points="354.344,446.468 354.344,528.072 410.06,446.046 		"/>
		<polygon fill="#EFEEDA" points="354.344,528.072 456.872,513.405 410.06,446.046 		"/>
		<polygon fill="#EFEEDA" points="354.348,313.459 410.062,350.603 354.348,350.603 		"/>
		<polygon fill="#EFEEDA" points="354.344,418.557 410.062,350.603 354.348,350.603 		"/>
		<polygon fill="#EFEEDA" points="354.344,446.416 410.06,446.416 354.344,418.557 		"/>
		<polygon fill="#EFEEDA" points="466.622,406.739 354.344,418.557 410.06,446.416 		"/>
		<polygon fill="#EFEEDA" points="466.622,406.739 410.062,350.603 354.344,418.557 		"/>
		<polygon fill="#EFEEDA" points="410.062,223.976 450.583,178.391 484.348,205.403 		"/>
		<polygon fill="#EFEEDA" points="410.062,223.976 354.348,313.459 410.062,350.603 		"/>
		<polygon fill="#EFEEDA" points="484.348,205.403 410.062,350.603 410.062,223.976 		"/>
		<polygon fill="#EFEEDA" points="484.348,205.403 466.622,406.739 410.062,350.603 		"/>
		<polygon fill="#EFEEDA" points="484.348,205.403 527.403,223.976 466.622,406.739 		"/>
		<polygon fill="#EFEEDA" points="410.062,223.976 354.348,163.194 354.348,313.459 		"/>
		<polygon fill="#EFEEDA" points="450.583,178.391 354.348,163.194 410.062,223.976 		"/>
		<polygon fill="#EFEEDA" points="354.348,163.194 354.348,63.795 450.583,178.391 		"/>
		<polygon fill="#EFEEDA" points="450.583,178.391 503.767,129.428 484.348,205.403 		"/>
		<polygon fill="#EFEEDA" points="503.767,129.428 466.622,56.831 450.583,178.391 		"/>
		<polygon fill="#EFEEDA" points="466.622,56.831 354.348,63.795 450.583,178.391 		"/>
		<polygon fill="#EFEEDA" points="503.767,129.428 527.403,223.976 484.348,205.403 		"/>
		<polygon fill="#EFEEDA" points="466.622,56.831 600,120.986 503.767,129.428 		"/>
		<polygon fill="#EFEEDA" points="503.767,129.428 527.403,223.976 600,120.986 		"/>
		<polygon fill="#EFEEDA" points="574.676,296.573 527.403,223.976 600,120.986 		"/>
		<polygon fill="#EFEEDA" points="574.676,296.573 543.44,282.223 527.403,223.976 		"/>
		<polygon fill="#EFEEDA" points="354.35,599.068 354.35,570.082 415.973,599.068 		"/>
		<polygon fill="#EFEEDA" points="354.35,570.082 415.973,599.068 405.615,567.271 		"/>
		<polygon fill="#EFEEDA" points="479.283,538.568 415.973,599.068 405.615,567.271 		"/>
		<polygon fill="#EFEEDA" points="497.01,599.068 479.283,538.568 415.973,599.068 		"/>
		<polygon fill="#EFEEDA" points="527.403,510.427 479.283,538.568 497.01,599.068 		"/>
		<polygon fill="#EFEEDA" points="527.403,510.427 567.078,599.068 497.01,599.068 		"/>
	</g>
</g>
<g id="left_shade" opacity="0.1">
	<g>
		<polygon fill="#272324" points="179.435,484.826 181.288,510.708 229.408,538.85 		"/>
		<polygon fill="#272324" points="251.817,513.492 229.408,538.85 179.435,484.826 		"/>
		<polygon fill="#272324" points="303.078,567.552 229.408,538.85 251.817,513.492 		"/>
		<polygon fill="#272324" points="354.342,570.363 303.078,567.552 354.34,528.159 		"/>
		<polygon fill="#272324" points="251.817,513.492 354.34,528.159 303.078,567.552 		"/>
		<polygon fill="#272324" points="165.249,281.941 181.288,223.693 242.069,406.457 		"/>
		<polygon fill="#272324" points="139.925,371.704 165.249,281.941 242.069,406.457 		"/>
		<polygon fill="#272324" points="179.435,484.826 139.925,371.704 242.069,406.457 		"/>
		<polygon fill="#272324" points="251.817,513.492 179.435,484.826 242.069,406.457 		"/>
		<polygon fill="#272324" points="298.628,446.132 251.817,513.492 242.069,406.457 		"/>
		<polygon fill="#272324" points="354.34,446.132 354.34,528.159 298.628,446.132 		"/>
		<polygon fill="#272324" points="354.34,528.159 251.817,513.492 298.628,446.132 		"/>
		<polygon fill="#272324" points="354.342,313.176 298.628,350.319 354.342,350.319 		"/>
		<polygon fill="#272324" points="354.342,418.275 298.628,350.319 354.342,350.319 		"/>
		<polygon fill="#272324" points="354.342,446.132 298.628,446.132 354.342,418.275 		"/>
		<polygon fill="#272324" points="242.069,406.457 354.342,418.275 298.628,446.132 		"/>
		<polygon fill="#272324" points="242.069,406.457 298.628,350.319 354.342,418.275 		"/>
		<polygon fill="#272324" points="298.628,223.693 258.109,178.109 224.341,205.124 		"/>
		<polygon fill="#272324" points="298.628,223.693 354.342,313.176 298.628,350.319 		"/>
		<polygon fill="#272324" points="224.341,205.124 298.628,350.319 298.628,223.693 		"/>
		<polygon fill="#272324" points="224.341,205.124 242.069,406.457 298.628,350.319 		"/>
		<polygon fill="#272324" points="224.341,205.124 181.288,223.693 242.069,406.457 		"/>
		<polygon fill="#272324" points="298.628,223.693 354.342,162.916 354.342,313.176 		"/>
		<polygon fill="#272324" points="258.109,178.109 354.342,162.916 298.628,223.693 		"/>
		<polygon fill="#272324" points="354.342,162.916 354.342,63.512 258.109,178.109 		"/>
		<polygon fill="#272324" points="258.109,178.109 204.925,129.148 224.341,205.124 		"/>
		<polygon fill="#272324" points="204.925,129.148 242.07,56.548 258.109,178.109 		"/>
		<polygon fill="#272324" points="242.07,56.548 354.342,63.512 258.109,178.109 		"/>
		<polygon fill="#272324" points="204.925,129.148 181.288,223.693 224.341,205.124 		"/>
		<polygon fill="#272324" points="242.07,56.548 108.691,120.706 204.925,129.148 		"/>
		<polygon fill="#272324" points="204.925,129.148 181.288,223.693 108.691,120.706 		"/>
		<polygon fill="#272324" points="134.014,296.293 181.288,223.693 108.691,120.706 		"/>
		<polygon fill="#272324" points="134.014,296.293 165.249,281.941 181.288,223.693 		"/>
		<polygon fill="#272324" points="354.342,599.35 354.342,570.363 292.719,599.35 		"/>
		<polygon fill="#272324" points="354.342,570.363 292.719,599.35 303.078,567.552 		"/>
		<polygon fill="#272324" points="229.408,538.85 292.719,599.35 303.078,567.552 		"/>
		<polygon fill="#272324" points="211.679,599.35 229.408,538.85 292.719,599.35 		"/>
		<polygon fill="#272324" points="181.288,510.708 229.408,538.85 211.679,599.35 		"/>
		<polygon fill="#272324" points="181.288,510.708 141.613,599.35 211.679,599.35 		"/>
	</g>
</g>
</svg>
