<?xml version="1.0" encoding="utf-8"?>
<!-- Generator: Adobe Illustrator 16.0.0, SVG Export Plug-In . SVG Version: 6.00 Build 0)  -->
<!DOCTYPE svg PUBLIC "-//W3C//DTD SVG 1.1//EN" "http://www.w3.org/Graphics/SVG/1.1/DTD/svg11.dtd">
<svg version="1.1" id="Layer_1" xmlns="http://www.w3.org/2000/svg" xmlns:xlink="http://www.w3.org/1999/xlink" x="0px" y="0px"
	 width="739.82px" height="173.948px" viewBox="0 0 739.82 173.948" enable-background="new 0 0 739.82 173.948"
	 xml:space="preserve">
<path d="M0,145.027c0-13.535,9.482-14.37,21.371-16.779c5.44-1.102,10.83-1.463,16.365-1.82c3.221-0.196,6.438-0.434,9.653-0.712
	c0.583-0.053,7.707-3.042,3.539-0.839c-3.242-4.413-12.759-12.248-10.206-18.107c1.322-3.034,4.251-4.909,5.575-7.936
	c1.353-3.091-0.485-6.728,0.577-10.149c2.473-7.969,8.098-11.647,0.022-17.728c-5.896-4.44-9.82-10.341-8.885-17.997
	c1.038-8.511-0.14-9.877,8.892-13.272c8.188-3.079,14.992-7.805,22.716-11.604c8.024-3.947,19.315-3.128,28.069-4.678
	c10.467-1.853,20.891-4.057,31.477-5.147c20.331-2.093,41.528,0.241,61.128-6.403c10.037-3.402,17.521-2.281,27.593-0.559
	c9.734,1.665,19.184-1.097,28.291-4.281c9.328-3.261,14.792,3.206,23.594,2.85c9.296-0.376,18.266-4.362,27.137-6.56
	c8.532-2.114,18.212-1.236,26.851-0.456c11.925,1.078,22.104-1.013,33.79-1.405c4.673-0.156,9.321-0.953,14.008-0.652
	c4.83,0.31,8.314,3.272,12.895,3.948c4.032,0.594,6.592-1.939,9.988-3.401c3.953-1.701,9.326-0.974,13.503-1.072
	c17.618-0.415,32.979,3.747,50.325,2.958c9.374-0.426,17.568-3.078,27.02-3.167c10.47-0.099,20.941-0.09,31.408,0.167
	c2.371,0.058,4.906-0.376,7.18,0.56c2.532,1.043,2.142,3.913,4.389,4.822c7.755,3.14,19.671,2.325,27.966,2.662
	c7.876,0.32,22.704-2.146,29.548,1.977c2.512,1.513,0.516,4.034,3.188,5.133c1.957,0.805,6.281,1.517,7.996,1.595
	c9.543,0.431,18.693-1.18,28.212,0.837c4.156,0.883,10.457-0.467,14.754-0.517c5.654-0.066,6.072,2.061,11.096,2.221
	c16.107,0.511,30.387-0.311,46.736,2.202c9.666,1.486,15.16,2.247,23.881-1.981c3.412-1.654,14.182,4.697,18.18,6.417
	c-1.826,0.539-3.652,1.079-5.479,1.618c7.381,4.711-2.471,3.531-5.486,2.398c-5.592-2.101-10.342-1.451-16.316-1.115
	c4.482,6.634,7.992-0.902,13.088,5.52c-5.92,1.024-21.137-0.324-16.885,9.138c-10.07,0-20.992-1.924-30.953-0.784
	c-4.482,0.513-8.143,4.136-12.504,1.688c-4.061-2.279-3.432-3.497-8.459-2.856c1.34,4.273,0.83,5.807,5.73,7.467
	c9.225,3.125,1.039,5.71,4.566,12.52c1.211,2.339,4.145,1.571,3.861,4.955c-0.361,4.33-12.451,2.784-16.289,3.108
	c-5.613,0.474-6.408,0.685-8.998,5.395c-3.307,6.019,5.748,4.044,6.371,10.063c3.914,1.059,7.83,2.118,11.746,3.175
	c0.023,3.812-8.957,5.966-12.256,7.469c1.008,4.37,7.818-1.538,7.051,5.438c-12.963,0.576-21.539-0.047-30.93,9.711
	c-9.287,9.631,25.074,10.572,26.107,10.534c26.805-0.979,54.432-6.629,81.051-0.94c-3.883,4.401-9.303,13.615-14.91,15.738
	c-9.826,3.713-19.932,6.991-29.539,11.247c-7.076,3.136-13.152,4.15-20.816,4.833c-9.684,0.862-16.768,6.835-25.955,9.224
	c-8.109,2.108-15.771,0.732-23.971,0.687c-10.536-0.057-19.076,1.76-29.401,3.133c-8.655,1.151-17.414,0.194-25.787-2.174
	c-5.094-1.441-18.104-1.85-23.164-0.556c-5.459,1.395-7.918,6.212-14.026,3.294c-7.275-3.477-10.579-5.94-19.438-5.661
	c-7.493,0.235-11.021,5.773-17.439,7.098c-4.809,0.992-5.635-7.465-11.476-7.924c-8.126-0.638-10.77,5.258-17.057,8.795
	c-3.546,1.994-7.562,2.751-11.599,2.308c-6.342-0.692-4.188-3.125-6.684-8.242c-7.221-14.8-26.503,8.671-38.307,2.889
	c-7.037-3.447-15.326-2.134-22.738-1.068c-10.272,1.476-20.392,1.585-30.746,1.867c-19.31,0.527-38.605,3.261-57.894,3.305
	c-17.023,0.039-37.466-7.451-53.356,0.486c-6.61,3.303-9.937,4.043-17.327,3.837c-4.063-0.114-8.127,0.405-12.186-0.006
	c-3.677-0.372-7.135-3.205-10.973-2.217c-1.257,2.017-2.783,2.765-4.578,2.245c-3.822-1.771-7.973-1.51-12.038-1.21
	c-9.625,0.709-19.081-1.15-28.667-1.578c-20.063-0.896-40.138-1.706-60.219-2.05c-16.988-0.29-35.337,2.266-52.096-0.804
	C26.617,165.247,11.6,155.615,0,145.027C0,142.361,1.998,146.851,0,145.027z M68.241,119.126c3.291,7.074,6.083,7.597,13.276,2.61
	C77.536,120.954,73.554,120.171,68.241,119.126z"/>
</svg>
