<?xml version="1.0" encoding="utf-8"?>
<!-- Generator: Adobe Illustrator 16.0.0, SVG Export Plug-In . SVG Version: 6.00 Build 0)  -->
<!DOCTYPE svg PUBLIC "-//W3C//DTD SVG 1.1//EN" "http://www.w3.org/Graphics/SVG/1.1/DTD/svg11.dtd">
<?xml-stylesheet type="text/css" href="../../css/portfolio_mk2.css"?>
<svg version="1.1" id="paint" xmlns="http://www.w3.org/2000/svg" xmlns:xlink="http://www.w3.org/1999/xlink" x="0px" y="0px"
	 width="845.988px" height="185.985px" viewBox="0 0 845.988 185.985" enable-background="new 0 0 845.988 185.985"
	 xml:space="preserve">
<path id="paint_path" fill-rule="evenodd" clip-rule="evenodd" fill="0b0b0b" d="M534.8,176.441c-3.025,2.949-12.699,1.292-16.608,1.323
	c-3.165,0.025-6.346-0.123-9.451-0.786c-1.867-0.399-3.803,1.365-5.555,1.635c-2.122,0.327-4.06-1.939-6.098-2.357
	c-2.155-0.441-4.36-0.296-6.535-0.535c-5.476-0.602-9.863,1.319-15.544,0.415c-5.629-0.896-11.201-2.416-16.938-2.392
	c-4.94,0.02-9.864,1.128-14.791,1c-4.824-0.125-6.969-2.741-11.776-2.202c-2.699,0.303-5.354-0.407-8.005-0.75
	c-2.989-0.387-5.962,0.931-8.865,0.3c-5.33-1.158-7.518-4.08-13.613-2.986c-4.352,0.78-9.472,2.884-13.385-0.274
	c-3.871-3.124-9.661-1.727-14.16-1.589c-7.408,0.226-14.819-0.019-22.223-0.292c-6.346-0.235-12.693-0.491-19.045-0.49
	c-4.038,0-12.422,2.059-15.598-1.298c-3.487-3.684-10.783-0.614-14.843,0.354c-6.142,1.465-12.923-0.814-18.168,0.785
	c-4.558,1.39-9.188-0.843-13.795-0.296c-4.982,0.592-9.547-0.057-14.604,0.172c-5.906,0.268-11.827,1.296-17.74,0.53
	c-5.251-0.683-9.561,4.328-14.169,1.868c-9.361-4.997-22.613,0.415-32.485,1.407c-4.534,0.456-12.536,2.313-16.652-0.261
	c-3.047-1.903-10.084,2.053-14.276,1.965c-5.306-0.11-10.132,2.082-15.502,2.331c-5.899,0.273-11.816-0.339-17.706,0.228
	c-11.969,1.152-24.527,1.934-36.354,3.895c-5.525,0.916-10.177,4.096-15.884,4.765c-5.688,0.667-11.474,0.513-17.188,0.802
	c-6.252,0.317-12.503,0.648-18.752,1.021c-6.482,0.387-14.315,2.208-20.683,0.616c-6.366-1.592-18.259-10.069-17.798-17.134
	c0.75-11.509,2.901-23.165,9.297-32.982c3.822-5.867,0.501-7.089,0.752-13.388c0.215-5.396,3.874-8.973,2.372-14.671
	c-1.521-5.772,1.127-10.766,0.499-16.353c-0.7-6.212-6.131-10.894-6.693-17.573c-0.472-5.613,1.213-11.106,3.973-15.946
	c3.452-6.053,3.308-6.954,0.244-12.989c-2.225-4.383,3-5.145,5.685-6.85c4.263-2.708,2.244-9.205,5.509-11.234
	c2.995-1.862,8.323,0.129,9.2,3.483c1.376,5.261-0.281,8.77-0.426,13.837c-0.251,8.766,21.511,1.977,25.749,1.027
	c25.494-5.717,51.444-9.625,77.033-15c25.409-5.336,51.487-10.6,77.479-11.679c5.287-0.22,10.082-2.004,15.359-2.295
	c6.304-0.347,12.612-0.646,18.924-0.795c6.313-0.149,12.632-0.147,18.943,0.104c5.286,2.092,7.295,5.249,13.534,5.344
	c5.585,0.085,10.553-2.502,15.813-3.942c5.561-1.522,7.576-1.985,13.236-1.321c1.875,0.22,3.816-1.881,5.722-2.27
	c2.333-0.476,4.722-0.2,7.03,0.25c4.429,0.863,10.252,3.192,14.3,0.083c3.116-2.393,8.096-1.003,10.637-4.123
	c2.007-2.465,3.096-6.81,7.346-5.114c4.069,1.623,6.544,4.943,11.143,5.846c4.906,0.964,9.94,0.087,14.765-0.901
	c3.879-0.794,7.913-1.49,11.45-3.362c2.864-1.516,5.939-5.83,8.345-1.127c1.915,3.743,1.12,5.417,6.27,5.527
	c5.547,0.119,9.203-3.914,14.426-5.072c3.341-0.741,7.381-1.814,10.359,0.534c2.729,2.152,4.419,5.089,8.376,2.936
	c3.029-1.647,2.948-5.699,6.144-7.405c4.691-2.505,7.52,1.519,10.556,4.321c5.456,5.036,15.546,4.156,22.454,3.792
	c5.094-0.269,6.773-3.513,10.822-5.674c4.417-2.357,4.818,1.524,7.677,3.928c6.287,5.287,12.807,1.981,18.291-2.187
	c10.494-7.976,15.633,0.483,24.899,4.745c3.705,1.704,7.555,1.082,10.857-1.198c2.657-1.834,5.307-5.683,8.591-2.464
	c1.427,1.398,5.527-1.386,7.171-1.685c4.225-0.768,3.964,4.161,7.24,5.207c1.774,0.566,6.799,2.825,8.367,1.833
	c2.782-1.759,2.137-5.881,6.568-4.06c8.221,3.378,17.612,8.55,26.792,8.494c4.57-0.028,9.216-1.288,13.729,0
	c0.751,0.93,0.813,1.901,0.188,2.913c0.763-0.19,2.514,1.306,2.883,2.178c0.1,2.123-1.657,8.708,2.261,8.741
	c1.692,0.014,3.269-0.943,4.741-1.619c2.646-1.214,4.572,0.041,7.237-0.321c-5.956-0.617-8.493-2.764-3.014-7.012
	c3.977-3.083,4.116-6.976,10.132-7.174c4.735-0.156,10.422-0.501,15.062,0.25c3.718,0.602,3.293,3.853,0.799,5.583
	c-2.236,1.55-4.982,1.438-7.55,1.141c2.952,1.081,6.48-0.655,9.569-0.238c3.53,0.478,6.269,2.677,8.535,5.284
	c1.317,1.515,4.308,4.041,3.974,6.194c-1.643,3.093,2.709,3.147,2.244,6.518c-0.511,3.701-16.616,7.681-19.986,7.928
	c-3.687,0.271-9.372,0.238-12.935-0.672c-3.748-0.958-6.61-4.035-10.516-4.547c-3.377-0.445-6.776-0.712-10.139-1.271
	c-2.427-1.636-4.2-4.602-7.558-3.041c-1.326,3.859,1.809,5.531-1.229,9.292c-2.961,3.666-7.061,4.343-11.628,3.832
	c-2.219-0.248-18.107-5.216-17.469,0.205c0.389,3.306,4.245,7.485,0.806,10.403c-2.424,2.322-4.585,5.037-8.027,2.378
	c2.406,1.83,8.07,0.374,8.682,4.475c0.535,3.587-0.939,7.909,4.821,4.649c3.368-1.905,7.223-3.036,10.426-5.01
	c1.664-1.025,2.681-2.637,3.117-4.525c0.774-3.344,6.302-3.146,8.695-3.16c3.538,1.122,5.393,2.837,5.337,6.686
	c-0.09,6.293-3.674,8.262,3.344,10.895c4.742,1.779,2.648,7.651-0.525,9.526c-1.841,1.087-3.993,1.937-6.17,1.418
	c-2.805-0.668-5.34-5.8-8.469-3.228c-0.06,0.959,2.747,1.036,3.279,1.368c2.492,1.553,0.793,5.69-0.927,7.014
	c-7.445,5.729-16.534,0.366-24.81,1.808c14.306,1.86,29.168,1.578,43.517,0.821c4.84-0.255,13.445,2.376,17.354-1.584
	c2.397-2.431,2.454-5.294,5.78-6.872c4.065-1.929,6.193,0.813,9.715,2.25c2.878,1.174,3.294-1.891,2.873-3.94
	c-0.605-2.944,1.762-5.621,1.104-7.966c-0.759-2.704-2.885-5.502,1.106-6.851c2.979-1.007,6.535-1.152,9.523-0.042
	c6.162,2.289,3.87,7.887,6.939,12.043c1.78,2.236,16.773,8.432,8.562,11.493c5.441-1.352,5.206,1.682,10.125,2.793
	c7.65,1.728,5.633-7.052,5.509-11.167c-0.155-5.146,2.072-8.596,4.115-13.179c1.181-2.65,2.277-5.342,3.175-8.104
	c0.916-2.822,0.653-6.535,1.832-9.106c1.689-3.686,8.168-2.091,11.158-4.399c2.148-1.657,0.058-4.758-0.712-6.579
	c-1.659-2.38-4.212,0.737-6.32,0.567c-3.443-0.74-6.915-1.921-6.761-6.038c0.062-1.662,3.21-9.36,3.233-9.296
	c-1.013-2.725-6.516-0.571-6.521-6.141c1.829-4.842,7.437-4.805,11.683-5.152c6.057-0.495,12.14-0.868,18.217-0.561
	c3.684,0.185,6.691,3.727,10.437,2.813c4.354-1.062,5.545-6.554,10.729-5.714c5.986,0.972,12.056,0.088,18.074,0.473
	c5.863,0.375,11.228,0.472,17.095-0.265c1.532-0.192,3.521-0.434,4.657,0.94c2.554,3.085,3.016,1.264,6.863,1.11
	c2.938-0.117,13.748,4.697,13.976,8.242c0.211,3.307-1.102,7.421-2.273,10.449c-2.073,5.354-4.302,5.424-9.475,6.168
	c-2.911,0.419-8.745-0.572-11.188,0.897c-4.074,2.448,2.917,8.289,4.261,9.581c3.979,3.828,11.225,3.26,16.664,4.351
	c4.157,0.834,12.664,0.779,15.662,4.176c-7.097,0.604-12.98,3.744-20.24,2.348c-6.91-1.329-6.823,4.923-12.679,6.678
	c-3.164,0.947-6.24-0.528-9.473,0.039c-1.306,0.229-8.084-0.212-8.48,0.289c-2.766,1.745-15.607,6.033-18.1,2.838
	c4.889,9.986,20.829-1.907,27.008,7.156c1.455,2.133-0.357,4.125-2.558,4.562c0.502,1.697,0.994,4.229-0.883,5.322
	c-2.033,1.185-9.542,2.843-11.575,2.604c3.104,0.888,6.077-1.904,9.235-1.339c4.332,0.775,3.238,8.568,7.233,4.69
	c3.248-3.151,9.476-2.538,13.546-1.615c8.54,1.935,3.358,6.601,1.688,11.117c-2.363,6.39-4.974,1.644-9.164,1.298
	c-2.883-0.238-0.744,10.441-4.214,12.407c-4.397,2.492-6.887-2.729-10.209-3.823c-1.902-0.627-4.078,1.169-6.203,0.955
	c-2.994-0.301-5.438-1.112-7.744,1.329c-3.619,2.001-5.496-2.302-8.812-2.086c-1.826,0.323-3.101,1.786-4.866,2.258
	c-0.617-0.076-7.669-1.438-7.341-2.129c-1.303,2.746-2.428,7.778-6.632,7.096c-2.761-0.448-11.115,0.087-12.12-3.377
	c-2.781-9.592-17.293-14.603-26.121-11.757c-3.155,1.018-13.588,1.531-12.858,5.851c0.435,2.577,7.377,9.128,2.681,10.466
	c11.099-3.229,22.892,2.953,34.302-0.913c5.597-1.896,8.221-0.11,13.716,0.942c6.09,1.208,11.452-2.726,17.635-1.633
	c11.938,2.11,23.982-1.792,35.89-2.846c2.616-0.231,5.274-0.455,7.878,0.049c4.068,0.787,7.416-0.104,11.562-0.765
	c6.985-1.112,14.002-2.028,21.044-2.697c1.163,4.584-4.618,5.906-7.36,8.196c-1.122,0.937-3.966,2.836-2.871,4.802
	c1.069,1.917,4.601,3.856,0.486,5.343c-5.437,1.968-9.835,3.125-14.072,7.285c-3.812,3.742-10.302,6.588-15.885,5.724
	c-5.057-0.783-7.605-7.26-13.187-4.449c-2.079,1.047-2.748,2.973-4.422,4.413c-1.884,1.621-5.62,1.896-7.954,3.037
	c-2.054,1.003-4.245,1.937-6.597,1.661c-3.604-0.423-4.692,1.149-8.314,2.117c-5.642,1.506-13.02,5.319-18.884,3.626
	c-2.118-0.61-2.93,1.809-4.719,2.195c-2.454,0.992-7.101,0.78-9.859,1.26c-6.629,1.152-11.876-0.074-16.003,5.882
	c-0.776,1.119-5.584,8.424-6.138,8.339c-6.402-0.979-7.561-0.863-11.188-6.326c-1.312-1.977-9.271-6.072-10.638-2.451
	c-1.384,3.67-3.364,6.956-7.737,6.637c-3.161-0.231-11.225-1.3-11.5-5.486c0.482-3.533,4.815-7.449,5.799-10.578
	c-2.841,0.226-6.125,1.619-8.884,2.338c-4.102,1.779-4.709-3.014-8.363-2.619c-2.679,0.289-6.272-0.756-8.686-0.139
	c-3.748,0.958-6.496,3.429-10.777,3.69c-7.803,0.478-12.562-5.026-19.777-5.018c-4.173,0.005-6.958,3.053-10.956,3.624
	c-1.686,0.19-3.377,0.27-5.073,0.239c-3.149,0.031-3.333,2.263-6.238,2.287c2.484-0.343,5.516,1.286,8.168,1.123
	c2.889-0.178,6.232-0.391,9.026,1.018c2.764,1.393-0.39,4.948-2.509,4.643c-3.952-0.579-7.91,0.1-11.783,0.862
	c-2.345,0.461-15.833,3.875-16.065-0.847c-0.056-1.145,2.072-4.603,1.15-5.41c-2.121-1.85-3.503,2.453-5.612,2.178
	c-4.645-0.605-4.854-8.014-11.32-6.693c-2.643,0.54-4.768,2.446-6.123,4.708c0.76,2.003,1.425,4.515-0.469,6.147
	c-4.683,4.034-1.557,8.262-8.913,8.124c-3.669-0.069-7.39-0.4-10.79-1.899C538.695,173.097,536.517,173.95,534.8,176.441
	C532.688,178.5,536.553,173.898,534.8,176.441z"/>
</svg>
