<?xml version="1.0" encoding="utf-8"?>
<!-- Generator: Adobe Illustrator 16.0.0, SVG Export Plug-In . SVG Version: 6.00 Build 0)  -->
<!DOCTYPE svg PUBLIC "-//W3C//DTD SVG 1.1//EN" "http://www.w3.org/Graphics/SVG/1.1/DTD/svg11.dtd">
<svg version="1.1" xmlns="http://www.w3.org/2000/svg" xmlns:xlink="http://www.w3.org/1999/xlink" x="0px" y="0px"
	 width="1166.4px" height="90px" viewBox="0 103.5 1166.4 90" enable-background="new 0 103.5 1166.4 90" xml:space="preserve">
	 <style type="text/css">
	    <![CDATA[
	    .path { 
	    	fill: #478cca;
	    	opacity: 1; 
	    }
	    ]]>
  	</style>
<g class="path" id="_x31_" display="none">
	<path display="inline" d="M23.658,188.396c-1.945-0.932-0.617-7.039-0.617-9.193c-1.29,0.469-0.265,2.949-2.237,2.604
		c-0.077-0.281-0.196-0.716-0.256-0.938c-2.175,1.705-2.736,3.653-4.225,6.046c-0.308,0.495-1.073,0.646-1.628,0.955
		c-0.154-0.153-0.308-0.305-0.461-0.458c0.417-0.916,0.833-1.831,1.222-2.687c-0.163,0.029-0.506,0.088-0.957,0.166
		c0.714-1.27,1.363-2.424,2.012-3.58c-0.094-0.092-0.188-0.184-0.281-0.276c-0.56,0.252-0.919,2.269-1.743-0.042
		c-0.406,0.878-1.195,3.751-2.253,4.083c-0.794,0.252-1.616,0.403-2.659,0.647c0.302-0.849,0.508-1.43,0.753-2.119
		c-0.343,0-0.65,0-1.374,0c1.375-2.652,2.61-5.033,3.846-7.416c-0.141-0.08-0.282-0.16-0.423-0.239
		c-2.024,3.058-3.848,6.3-6.304,8.958c-0.183-0.147-0.365-0.295-0.548-0.443c0.327-0.525,0.652-1.05,0.954-1.533
		c-0.747-7.636,1.771-15.022,3.005-22.512c1.266-7.686,2.665-16.744,4.788-24.102c0.145-0.01,0.289-0.02,0.433-0.029
		c0.485,2.447,1.55,3.949,1.3,6.418c2.002-1.876,3.119-4.105,1.183-7.069c-0.254,1.319-0.509,2.644-0.765,3.968
		c-0.174,0.015-0.349,0.028-0.524,0.043c-0.656-2.11-0.535-11.225,1.111-12.918c0.137-0.141,0.214-3.778,0.3-4.08
		c1.002-3.473,0.895-7.736,1.16-11.371c0.323-4.4-1.229-12.618,2.087-15.672c1.969,4.963-0.823,15.249-1.272,20.739
		c-0.456,5.539-1.411,10.947-2.024,16.471c0.138,0.041,0.274,0.086,0.411,0.129c0.181-0.389,0.478-0.762,0.527-1.168
		c0.887-7.367,1.474-14.818,2.677-22.133c0.193-1.176,0.86-2.256,1.19-3.076c-0.56-0.631-0.841-0.949-1.124-1.268
		c0.335-0.344,0.672-0.688,1.007-1.031c0.158,0.054,0.316,0.108,0.475,0.164c0-4.646-1.071-8.606,2.962-11.172
		c-0.044,3.463-0.319,6.621-1.58,9.688c0.14,0.197,0.327,0.462,0.512,0.725c-0.12-0.015-0.241-0.029-0.361-0.045
		c-0.223,1.082-0.446,2.165-0.654,3.174c0.428,0.33,0.775,0.598,1.121,0.863c-0.229,0.29-0.457,0.58-0.731,0.925
		c0.917,0.62,0.031,4.57-0.565,5.019c-0.097,0.817-0.217,1.836-0.329,2.783c0.29-0.295,0.574-0.584,0.858-0.875
		c0.062,0.347,0.201,0.7,0.174,1.039c-0.21,2.637-0.452,5.272-0.686,7.93c-1.466-0.678-0.607-3.146-0.972-4.52
		c-0.904,10.415-1.89,20.786-3.188,31.151c0.292-0.224,0.542-0.416,0.793-0.609c0.098,0.634,0.195,1.265,0.315,2.042
		c-0.537-0.033-0.862-0.053-1.26-0.074c-0.393,2.438-0.985,11.789-2.75,12.282c-0.037,0.712-0.076,1.466-0.116,2.22
		c0.076,0.018,0.152,0.033,0.228,0.051c0.973-1.562,1.945-3.122,3.128-5.019c-0.762,0.104-1.114,0.149-1.452,0.195
		c-0.063-0.156-0.149-0.279-0.125-0.319c1.521-2.492,0.462-3.535,1.055-5.947c0.124-0.024,0.248-0.051,0.372-0.075
		c0.163,0.538,0.326,1.077,0.546,1.802c1.132-1.619,1.392-5.111,1.709-6.848c0.276-0.655,0.552-1.312,0.828-1.967
		c-0.086-0.076-0.172-0.149-0.258-0.225c0.321-0.083,0.644-0.166,1.206-0.311c-0.453-0.342-0.731-0.549-1.134-0.854
		c4.458,0.214,1.243-28.113,5.696-31.027c-0.209,2.461-0.395,4.646-0.581,6.834c0.101,0.026,0.202,0.053,0.303,0.08
		c0.609-2.093,1.218-4.188,1.881-6.465c1.281,1.055,0.341,2.172-0.028,3.458c0.194,0.052,0.39,0.103,0.584,0.153
		c1.359-8.096,0.696-16.049,2.578-24.063c0.25-1.057,1.264-0.439,1.271,0.164c0.027,3.094-0.262,5.797-0.559,8.864
		c-0.576,5.954-1.427,12.003-2.06,17.82c-0.491,4.517-0.885,9.045-1.312,13.57c0.175,0.051,0.35,0.1,0.524,0.149
		c1.619-4.994,4.463-53.658,10.481-52.388c0.38-1.434,0.46-2.788,2.116-3.554c1.526-0.704,2.089-1.28,3.285-0.347
		c0.387-0.354,0.771-0.706,1.154-1.057c0.095,0.073,0.189,0.146,0.284,0.219c-0.394,2.896,0.178,4.289-1.252,6.932
		c-0.29-0.529-0.528-0.96-0.765-1.392c-0.116-0.002-0.231-0.005-0.348-0.008c-0.194,1.302-0.388,2.605-0.603,4.044
		c0.625-0.82,0.396-2.258,1.789-2.2c-0.754,4.553-1.499,9.054-2.271,13.712c0.667-0.223,1.03-0.345,1.438-0.481
		c-0.723-1.919,0.39-3.436,1.081-4.916c1.234-2.642,2.77-5.112,4.164-7.665c0.075-0.137,0.01-0.366-0.246-0.722
		c-0.524,0.773-1.048,1.547-1.573,2.321c-0.155-0.015-0.31-0.03-0.465-0.045c0.097-1.597,0.095-2.117-0.006-1.563
		c0.841-0.363,3.521-4.906,4.48-6.02c1.421,0.584,2.728,1.122,4.156,1.709c-0.691,1.172-2.167,1.337-1.497,3.026
		c0.574-0.483,1.085-0.912,1.63-1.37c0.727,0.571,1.1,1.138,1.631-0.501c2.479-7.67,6.881-14.65,10.508-21.635
		c3.532-6.804,6.147-17.146,11.152-23.022c1.046-1.226,0.796-2.402-0.878-3.027c1.135-3.022,2.287-5.993,3.936-8.688
		c0.173,0.086,0.347,0.172,0.521,0.259c-0.769,1.892-4.052,6.588-1.707,8.077c3.184-8.217,6.176-16.662,11.321-23.693
		c0.163,0.11,0.326,0.221,0.489,0.331c-1.453,3.054-2.897,5.803-3.977,9.061c-1.218,3.677-5.327,11.096-5.191,14.911
		c0.194-0.2,0.448-0.362,0.569-0.605c1.313-2.651,7.304-18.771,9.334-17.986c-0.734,1.823-1.456,3.615-2.237,5.557
		c0.801-0.85,1.468-1.556,2.135-2.262c0.134,0.108,0.269,0.217,0.402,0.325c-1.709,4.882-3.667,9.008-6.083,13.565
		c0.171,0.144,0.341,0.286,0.513,0.43c2.062-2.33,8.693-20.798,11.194-19.361c-0.541,1.405-1.017,2.836-1.427,4.294
		c-0.472,1.537,0.022,5.013-0.577,6.28c-1.938,4.099-4.063,8.083-5.943,12.216c-1.775,3.906-3.875,7.638-5.648,11.515
		c-0.781,1.71-3.708,6.577-3.821,8.308c-0.218,3.352-2.354,6.388-3.466,9.438c0.107,0.092,0.213,0.185,0.32,0.277
		c5.219-7.434,8.957-18.07,12.769-26.527c3.572-7.922,6.759-16.087,11.61-23.148c0.721-0.138,1.346,0.103,1.875,0.721
		c-0.894,2.065-2.269,4.25-2.436,6.562c0.191,0.078,0.381,0.155,0.573,0.233c2.221-3.645,5.167-11.692,8.51-14.051
		c0.101,0.259,0.186,0.376,0.161,0.43c-2.284,4.909-4.25,9.58-6.334,14.474c-1.596,3.748-5.793,7.95-4.626,12.297
		c0.099-3.478,7.266-17.136,9.665-17.574c-1.552,2.888-6.496,9.596-6.032,12.8c0.39,2.7,6.742-3.518,7.376-3.96
		c0.093,0.1,0.186,0.2,0.278,0.301c-0.579,0.959-1.213,1.884-1.719,2.887c-1.108,2.192-0.064,3.126-0.064,5.498
		c0.304,0,0.758,0,1.205,0c0.307-1.012,0.607-2.006,0.907-3c0.199,0.048,0.398,0.096,0.597,0.144
		c-0.039,0.923-0.077,1.846-0.12,2.873c0.48-0.387,0.883-0.712,1.285-1.037c0.087,0.077,0.173,0.155,0.26,0.231
		c-0.376,1.302-0.752,2.604-1.129,3.906c0.134,0.07,0.268,0.139,0.401,0.209c2.042-3.71,3.832-7.621,6.454-10.872
		c0.175,0.115,0.348,0.229,0.522,0.344c-1.003,2.21-2.006,4.42-3.089,6.805c0.472-0.052,0.786-0.087,1.17-0.129
		c-0.448,1.75-0.879,3.436-1.312,5.122c0.114,0.041,0.227,0.081,0.341,0.122c0.906-0.794,1.812-1.588,2.639-2.312
		c0.998,0.746,1.582,1.782,1.754,3.11c1.577,0.836,1.568,0.831,2.572-1.107c0.111-0.215,0.399-0.318,0.605-0.473
		c1.342,2.527,1.2,5.546,3.485,2.367c0.482,1,0.851,1.764,1.193,2.475c0.702-0.23,1.369-0.45,2.171-0.713
		c-0.146,1.351-0.246,2.292-0.352,3.275c1.933-0.005,0.3-2.804,2.004-2.895c0.515,2.102,1.746,3.356,3.069,3.338
		c0.259-0.535,0.467-0.968,0.677-1.403c0.497,0.455,0.994,0.911,1.491,1.366c-0.08,0.123-0.161,0.245-0.241,0.367
		c1.409,0.735,3.207,0.305,4.349,1.988c-1.345,1.779-1.243,2.433-0.37,4.557c0.798-0.604,0.921-0.512,1.188,1.337
		c1.044-0.567,1.707-2.206,3.302-1.427c-2.754,3.528,1.457,2.558,3.458,4.776c0.363-0.98,0.725-1.815,0.974-2.687
		c0.53-1.864-0.639-3.958,1.951-3.348c0.688,0.162,1.128,0.052,1.529-0.598c0.468-0.759,1.062-1.084,1.809-0.144
		c-0.316,0.808-1.271,1.82,0.666,2.637c-0.172-1.055-0.894-3.172-0.461-4.242c0.222-0.545,1.348-0.231,1.389,0.177
		c0.382,3.739,0.057,7.612,0.371,11.379c2.582-3.068,2.681-2.099,5.485,0.165c0.398-1.301,2.174-2.153,1.884-4.238
		c-0.584-4.192-0.359-3.873,2.241-6.227c0.175,0.708,0.442,1.366,0.801,1.974c0.708-2.845,1.332,0.189,2.845-2.457
		c0.118,0.571,0.4,1.172,0.32,1.709c-0.227,1.509-0.435,3.005-1.562,3.97c-0.118-0.294-0.3-0.579-0.337-0.883
		c0.248-0.762,0.098-1.382-0.449-1.863c-0.643,0.396-0.832,0.998-0.564,1.804c-0.073,1.132-1.535,0.61-1.821,2.689
		c-0.452,1.617-0.61,3.269-0.474,4.955c0.931-0.2,1.838-0.061,2.721,0.414c-0.656,1.712-2.919,2.908-1.839,4.586
		c0.147,0.229,0.021,0.669,0.021,1.203c0.6-0.423,1.063-0.75,1.526-1.077c-0.081-0.038-0.161-0.077-0.242-0.115
		c1.941-5.361,3.403-10.01,4.106-15.744c0.196-1.596,2.762,1.053,2.342,0.703c-0.196,0.44-0.446,1-0.695,1.562
		c0.126,0.079,0.252,0.159,0.379,0.239c0.433-0.329,0.854-0.678,1.26-1.045c0.155,0.413,0.427,0.823,0.443,1.244
		c0.109,2.631-1.208,3.202-1.604,5.483c-0.552,3.218-1.696,6.899-1.629,10.207c0.258-0.905,0.637-1.795,0.744-2.721
		c0.189-1.663,1.977-0.755,2.072-1.696c0.172-1.667,1.238-2.349,2.267-2.721c-0.1-0.819-0.46-1.764-0.194-2.084
		c0.402-0.487,1.239-0.54,1.892-0.776c0.117,0.125,0.234,0.25,0.352,0.375c0.094-1.358,0.412-2.646,0.951-3.867
		c0.327,0.478,0.735,0.915,0.956,1.444c0.035,0.969,0.229,1.896,0.583,2.781c0.127-0.017,0.254-0.033,0.381-0.05
		c0.087-0.406,0.125-0.835,0.278-1.21c0.597-0.815,1.333-1.453,2.21-1.911c2.862-4.425,6.313-16.779,11.929-17.45
		c-3.293,5.274-8.166,11.491-9.697,17.771c-1.923,0.854-2.732,2.917-4.068,4.75c0.583,0.099,0.918,0.156,1.34,0.228
		c-1.961,4.629-4.345,8.66-6.807,12.953c-1.273,2.22-1.525,4.629-1.335,7.142c0.119,0.063,0.237,0.126,0.354,0.189
		c5.31-10.008,11.027-28.634,21.665-32.354c-0.024,2.086-1.151,3.264-2.91,4.385c0.587,0.399,0.95,0.646,1.604,1.092
		c-0.767,0-1.166,0-1.564,0c-0.017,0.073-0.035,0.145-0.052,0.217c0.341,0.179,0.685,0.358,1.384,0.724
		c-0.823,0.135-1.276,0.209-1.637,0.269c-1.919,9.006-8.986,18.404-13.081,26.496c-0.223,0.438-0.7,0.723-0.974,0.993
		c-0.304,2.926-2.003,4.984-3.381,7.63c0.012,0.042,0.142,0.497,0.259,0.903c-0.63,0.388-1.206,0.739-1.781,1.09
		c0.04,0.121,0.08,0.238,0.119,0.357c0.323,0.051,0.646,0.104,0.97,0.154c0.021,0.078,0.041,0.157,0.062,0.234
		c-0.705,0.305-1.409,0.609-2.115,0.912c0.039,0.145,0.075,0.287,0.112,0.429c0.417-0.025,0.833-0.052,1.323-0.081
		c0,0.383,0,0.693,0,1.019c0.725-0.022,1.193-0.557,1.406-1.6c0.485-1.05,0.895-2.153,1.244-3.267
		c0.601-1.912,1.961-1.116,2.677-2.509c0.771-1.5,1.46-3.05,2.239-4.713c-0.527-0.104-0.936-0.185-1.549-0.308
		c1.154-1.396,0.989-3.884,3.394-3.896c-0.399-0.068-0.799-0.136-1.374-0.235c2.155-4.265,3.786-8.71,6.93-11.848
		c0.063-0.526,0.016-0.998,0.181-1.35c0.7-1.496,1.429-2.976,2.212-4.42c0.568-1.048,1.369-0.941,2.222,0.301
		c1.999-3.423,6.058-8.141,6.784-12.19c0.257-1.432,2.199-2.475,3.342-2.334c-0.802,2.004-1.641,4.1-2.48,6.196
		c0.149,0.105,0.299,0.209,0.45,0.315c1.675-1.082,2.516-3.423,4.423-4.154c0.128,0.15,0.258,0.299,0.386,0.449
		c-0.935,1.213-1.871,2.427-2.806,3.64c0.042,0.034,0.084,0.068,0.126,0.103c5.703-4.466,9.114-13.207,13.149-19.544
		c0.797-1.253,4.579-2.672,5.94-3.743c0.134,0.17,0.267,0.34,0.401,0.51c-2.317,3.133-8.016,9.211-7.93,13.233
		c1.604-1.23,2.122-1.84,4.156-1.84c0.783-1.628,2.294-7.657,4.587-5.224c-3.339,4.439-2.688,10.244-5.442,15.007
		c-0.443,0.764-0.563,5.466-0.511,6.336c-0.391,0.374-0.783,0.749-1.175,1.124c0.133,0.137,0.267,0.274,0.4,0.412
		c1.125-1.572,1.719-3.996,3.921-3.69c-0.331-0.462-0.484-0.678-0.49-0.687c0.369-1.895,0.532-3.798,0.838-5.704
		c0.02-0.123,0.528-0.151,1.159-0.313c1.177-4.672,1.016-9.488,2.483-14.102c0.934,1.389,0.13,4.323,0.175,5.868
		c0.134,4.612-0.685,10.729,0.403,15.164c0.549-4.277-0.862-13.222,1.699-16.362c0.162,0.344,0.443,0.68,0.464,1.033
		c0.062,1.073,0.023,2.152,0.023,3.264c0.345-0.493,0.662-0.946,0.978-1.398c0.187,0.058,0.374,0.116,0.561,0.173
		c-0.243,3.987-0.487,7.974-0.731,11.961c0.123,0.05,0.245,0.1,0.367,0.15c0.152-0.401,0.401-0.788,0.441-1.202
		c0.48-4.935,0.911-9.875,1.414-14.807c0.046-0.455,0.501-0.859,0.768-1.287c0.168,0.444,0.441,0.876,0.485,1.335
		c0.149,1.579,0.203,3.168,0.333,4.75c0.153,1.883,1.485,2.067,1.271,4.229c-0.388,3.936-1.083,7.91-1.083,11.871
		c3.594-3.026,2.401-15.885,3.447-20.495c1.374,0.238,1.971,0.84,1.616,2.468c-0.269,1.233-0.202,2.555-0.288,3.831
		c-0.287-0.379-0.57-0.753-0.765-1.01c-0.266,1.314-0.55,2.725-0.789,3.897c0.471,0.58,0.824,1.015,1.018,1.253
		c0.15-1.2,0.335-2.688,0.522-4.178c1.099,0.081,1.312-0.719,1.502-1.682c0.694-3.525,1.068-7.092,1.762-10.59
		c0.178,0.021,0.355,0.042,0.533,0.062c-0.312,4.804-0.624,9.609-0.936,14.413c0.077,0.018,0.153,0.036,0.229,0.054
		c0.608-2.184,1.216-4.37,1.824-6.554c0.198,0.045,0.396,0.091,0.596,0.138c-0.074,0.799-0.147,1.597-0.222,2.396
		c1.526-1.395,3.048-2.786,4.57-4.175c-1.016,1.645-2.03,3.29-3.116,5.051c1.513,0.087,2.841-2.124,3.33-5.088
		c0.338,0,0.677,0,1.065,0c0.85,5.238-6.089,10.676-7.147,15.913c3.799-6.934,7.669-11.466,12.036-17.761
		c0.123,0.072,0.247,0.144,0.371,0.216c0,0.249,0.083,0.545-0.013,0.737c-1.791,3.596-3.833,6.824-5.901,10.223
		c-1.473,2.421-1.675,3.573-1.352,6.905c0.291-0.252,0.572-0.394,0.714-0.636c1.559-2.629,4.091-5.718,4.757-8.784
		c-0.344-0.046-0.687-0.092-1.271-0.168c0.77-2.316,2.683-3.769,3.771-6.043c0.19,0.359,0.321,0.494,0.298,0.581
		c-1.313,5.121-3.675,8.832-5.513,13.609c-1.007,0.2-2.227,1.896-2.365,3.283c0.102,0.074,0.205,0.149,0.308,0.223
		c0.675-1.179,1.352-2.357,2.027-3.537c0.231,0.281,0.461,0.563,0.929,1.132c1.658-2.918,3.519-5.714,5.16-8.629
		c0.07-1.107,0.419-2.103,1.046-2.987c0.421-0.449,1.036-0.681,1.817-1.162c-0.357,1.32-0.641,2.366-0.925,3.412
		c0.063,0.039,0.126,0.077,0.189,0.117c0.954-1.343,1.91-2.685,2.864-4.026c0.064,0.076,0.126,0.152,0.19,0.228
		c-1.236,3.587-1.433,5.694-1.156,9.529c0.327-0.893,2.451-5.886,3.039-5.782c-0.146-0.521-0.253-0.909-0.45-1.609
		c0.716,0.165,1.225,0.281,1.822,0.418c0.113-0.423,0.242-0.905,0.371-1.387c0.119-0.015,0.239-0.028,0.359-0.041
		c0.842,2.556-0.42,5.611,1.233,8.017c1.408-1.949-0.151-5.845,0.873-8.736c0.297,0.159,0.593,0.319,0.868,0.468
		c0.968-1.474,1.991-2.899,3.068-4.278c0.148,0.1,0.296,0.2,0.444,0.301c-0.599,1.197-1.196,2.394-1.811,3.625
		c0.312,0.422,0.684,0.927,1.004,1.359c0.884,0.039,1.587-0.31,2.109-1.045c1.48-2.899,2.728-5.652,4.99-7.972
		c-1.657,3.47-3.493,6.803-3.987,10.693c0.183,0.098,0.366,0.194,0.548,0.292c0.94-1.906,1.797-4.082,2.88-5.917
		c1.719-2.907,1.655,3.698,1.587,4.44c0.159,0.029,0.317,0.057,0.476,0.087c0.601-2.451,0.949-4.284,2.326-6.359
		c0.13,0.087,0.26,0.176,0.39,0.263c-0.071,0.379-0.142,0.759-0.25,1.333c0.789-0.658,0.795-2.304,2.352-1.742
		c-1.024,2.875-1.525,5.776-0.892,8.515c1.368-1.983,2.809-4.091,4.289-6.164c0.622-0.2,1.214-0.108,1.778,0.275
		c0.548-0.808,0.941-1.387,1.333-1.966c0.449,0.506,0.899,1.013,1.322,1.489c0.975-1.927,1.966-3.591,3.126-5.366
		c0.114,0.079,0.227,0.159,0.341,0.238c-1.409,3.174-2.816,6.349-4.225,9.523c2.311-0.859,2.685-3.939,4.439-5.702
		c0.149,1.03,0.232,1.591,0.314,2.152c0.12-0.062,0.24-0.125,0.36-0.188c0.229,0.324,0.652,0.648,0.653,0.975
		c0.005,1.273-0.15,2.547-0.189,3.823c-0.019,0.634,0.087,1.274,0.395,1.853c0.485-2.756,0.971-5.512,1.457-8.268
		c0.167,0,0.333-0.001,0.5-0.001c0.11,0.259,0.345,0.538,0.312,0.772c-0.515,3.656-1.204,7.139-1.134,10.846
		c0.004,0.218-0.013,0.503-0.132,0.647c-0.635,0.766-0.886,1.368,0.106,2.133c-0.241-0.185-0.833,6.347,1.439,2.618
		c2.573-4.238,3.847-8.267,3.954-13.07c-3.129,0.209-0.385-3.558,0.117-4.257c1.998,0.706,3.481,4.83,3.237,6.619
		c-0.068,0.498-0.578,0.922-0.708,1.105c-0.219,1.516,0.043,6.312-1.919,5.774c-0.088,0.566-0.178,1.132-0.271,1.733
		c0.478,0.189,0.821,0.529,1.032,1.02c-0.231,0.903-0.954,0.682-1.154,1.889c0.141,0.04,0.282,0.08,0.423,0.12
		c0.39-0.667,0.759-1.349,1.179-1.992c0.141-0.215,0.409-0.331,0.619-0.493c0.071,0.276,0.247,0.577,0.198,0.824
		c-1.664,8.366-4.068,16.42-5.856,24.703c-1.095,0.117-1.541-0.079-1.14-1.264c1.296-3.831,4.991-12.79,3.676-16.756
		c-0.326,0.597-0.863,2.724-1.563,3.055c-0.148,0.07,0.094,1.137,0.164,1.826c-0.23,0-0.599,0-1.168,0
		c0.223,0.57,0.387,0.988,0.553,1.415c-2.024,1.813-3.643,9.542-2.749,14.675c0.256-0.782,0.512-1.565,0.823-2.512
		c0.585-0.041,1.223,0.197,0.965,1.207c-0.682,2.669-1.47,5.305-2.317,8.311c0.439-0.461,0.814-0.682,0.944-1.018
		c0.845-2.179,2.164-4.672,2.843-6.84c1.303-4.17,3.805-9.199,3.805-13.61c2.079-4.398,2.773-9.042,4.232-13.663
		c0.394-1.248,3.188-11.356,3.317-10.889c0.186,0.661,0.229,1.37,0.334,2.149c0.158,0.042,0.527,0.14,0.896,0.239
		c-1.176,0.852-1.71,1.718-1.146,3.037c0.151,0.05,0.304,0.099,0.455,0.148c0.316-1.395,0.592-2.804,0.972-4.176
		c0.128-0.463,0.521-0.836,0.793-1.25c0.244,0.354,0.551,0.676,0.717,1.07c0.345,0.82,0.616,1.679,1.011,2.785
		c0.33-0.633,0.441-1.052,0.696-1.272c0.708-0.516,1.253-0.358,1.636,0.472c0.037,0.854-0.083,1.719-0.148,2.646
		c1.412,0.375,1.304-1.7,1.591-2.696c0.122,0.053,0.244,0.104,0.367,0.159c0.297,1.211,0.594,2.423,0.927,3.777
		c-0.217-0.012-0.645-0.036-0.951-0.053c-0.153,0.926-0.307,1.853-0.459,2.778c0.221-0.025-1.888,0.326-1.989,0.5
		c-3.42,5.884-4.604,11.091-6.658,17.578c0.132,0.069,0.264,0.136,0.396,0.205c-0.203,0.234,1.714-1.354,1.437-0.316
		c-0.319,1.216-0.697,2.412-1.318,3.52c0.062,0.426,0.125,0.852,0.188,1.278c0.104,0.052,0.208,0.104,0.312,0.156
		c0.878-2.561,2.445-5.423,3.167-7.899c0.281-0.971,0.958-7.057,2.748-6.456c0.441,0.146,0.8,0.591,1.507,1.165
		c0.252-1.649,0.469-3.081,0.698-4.583c1.952-2.359,2.025-4.87,3.327-7.494c0.35,0.333,0.862,0.593,1.016,1.013
		c0.309,0.839,0.421,1.765,0.71,3.102c0.688-0.645,1.218-1.418,1.586-2.319c0.73,0.646,0.915,1.36,0.556,2.143
		c0.748,0.682,1.511,1.378,2.383,2.174c-0.625,0.285-1.15,0.526-1.677,0.768c0.031,0.075,0.062,0.151,0.095,0.227
		c0.901,0,1.802,0,2.703,0c0.095,0.153,0.188,0.306,0.283,0.459c-2.292,0.458-2.809,2.096-2.422,4.125
		c0.157,0.043,0.557,0.152,0.958,0.261c-0.108,0.452-0.217,0.904-0.359,1.495c1.225,0.012,2.453-1.475,3.618,0.077
		c-0.412,0.23-0.786,0.384-1.1,0.629c-0.337,0.262-0.904,0.673-0.862,0.906c0.285,1.574,2.756,2.54,3.44,4.264
		c1.126-0.507,3.197-5.631,3.819-5.47c0.474,0.123,4.349,1.82,4.389,1.974c-0.68,0.568-1.708,1.094-0.469,2.615
		c0.458-1.447,0.884-2.889,1.466-4.283c0.343,0.368,1.034,0.85,0.97,1.085c-0.45,1.666-1.257,3.237-1.798,4.873
		c0.119,0.041,0.237,0.082,0.355,0.122c0.378-0.367,0.757-0.734,1.136-1.103c0.099,0.064,0.197,0.129,0.295,0.194
		c-0.253,1.201-0.274,2.409-0.06,3.623c-0.119,1.087-0.381,2.156-0.597,3.302c0.472-0.104,1.078-0.236,1.87-0.409
		c-0.223,0.657-0.38,1.116-0.531,1.583c-0.427,0.227-0.859,0.445-1.287,0.662c1.634,0.518,0.084,2.38,0.792,3.461
		c0.061,0.094,0.496,0.067,0.561-0.046c0.742-1.285,1.445-2.598,2.158-3.902c-0.081-0.055-0.161-0.108-0.243-0.163
		c-0.459,0.53-0.918,1.06-1.57,1.812c-0.184-0.791-0.307-1.324-0.431-1.857c1.652-1.373,3.295-4.212,4.719-6.037
		c0.892-1.144,3.59-0.677,4.659-0.214c0.373,0.162,0.525,0.93,0.774,1.414c0.121-0.021,0.222-0.008,0.282-0.056
		c0.423-0.343,0.836-0.697,1.252-1.048c-0.238,1.933-0.833,3.786-0.989,5.73c0.686-1.473,1.167-2.854,2.289-3.98
		c0.157,0.299,0.28,0.631,0.481,0.888c0.287,0.366,0.632,0.675,1.009,1.07c-0.451,0.421-0.894,0.834-1.468,1.371
		c0.646,0.383,1.321,0.361,2.023-0.065c-0.098,0.546-0.059,1.194-0.322,1.617c-1.358,2.182-3.865,4.02-3.997,6.838
		c0.524-0.058,0.981-0.108,1.438-0.159c0.021,0.204,0.042,0.409,0.063,0.613c-0.653,0.052-1.307,0.104-2.074,0.166
		c-1.136,1.496,0.263,3.04,0.237,4.433c0.602-0.104,1.229-0.212,1.857-0.318c-0.25,0.788-0.377,1.67-0.79,2.338
		c-0.359,0.58-1.045,0.917-1.724,1.476c-0.019-0.016-0.309-0.262-0.697-0.59c-0.346,7.17-2.402,15.396-2.77,22.886
		c-0.132,2.718-0.255,5.448-0.134,8.166c-3.006,3.372-0.496,13.612-2.143,18.26c0.337,0.787,2.304,1.155,0.235,1.878
		c1.136,3.314-3.899,10.646-1.913,13.821c0.173-0.981,0.347-1.964,0.521-2.947c0.211,0.044,0.422,0.088,0.635,0.13
		c-0.147,1.314-0.293,2.63-0.452,4.055c-0.393-0.037-0.718-0.065-1.038-0.096c0.206,6.878-1.091,13.375-3.882,19.674
		c-0.57-0.408-1.104-0.787-1.555-1.107c0.248-1.221,3.197-12.812,2.611-13.199c-1.176-0.793-0.749-1.947-0.587-3.034
		c1.021-6.894,3-13.743,2.794-20.702c-0.096-3.246,1.007-5.971,0.528-9.113c-0.131,0.019-0.263,0.037-0.394,0.055
		c-1.201,6.331-1.01,12.763-2.041,19.111c-1.155,7.117-2.023,14.133-2.693,21.307c-0.176,1.879-1.064,3.997-1.396,5.915
		c-0.965-0.804-1.785-1.485-2.776-2.312c0.176-1.604,0.352-3.209,0.527-4.813c-1.394-0.875,0.102-4.239,0.182-5.931
		c0.283-5.982,2.48-11.656,2.51-17.67c-0.159-0.02-0.318-0.041-0.478-0.061c-0.638,4.201-2.521,7.746-3.255,11.516
		c-1.264,6.528-2.229,13.121-3.613,19.623c-0.094,0.438-0.677,0.75-1.203,1.014c0.582-6.803,2.428-13.226,3.307-20.019
		c0.474-3.663,4.905-18.215,2.195-21.091c-0.373,3.363-0.715,6.454-1.056,9.544c-0.146,1.319-0.149,2.71-1.154,3.078
		c-0.327,4.956,0.062,16.506-3.233,20.095c-0.213,0.232-0.066,0.864-0.101,1.665c-0.52-0.394-0.945-0.718-1.487-1.132
		c-0.981,5.173-0.374,10.682-5.678,6.459c0.594-2.422,1.25-5.097,1.922-7.835c0.213-0.015,0.51-0.033,0.792-0.051
		c0.271-1.72-0.039-5.601,1.03-6.246c0.223-0.134,0.414-0.492,0.468-0.782c0.781-4.172,1.535-8.352,2.121-12.566
		c-0.591,2.535-1.181,5.069-1.79,7.679c-0.313,0-0.646,0-1.36,0c-1.101,6.356-2.043,11.614-5.037,17.168
		c-0.301-0.404-0.603-0.808-0.952-1.275c-0.717,1.083-1.671,2.526-2.835,4.284c0.153-1.896,0.208-3.796,0.163-5.699
		c0.244-0.186,0.562-0.427,0.987-0.751c-1.743-0.958-0.459-2.428-0.923-3.743c-0.229,0.709-0.382,1.467-0.713,2.112
		c-0.274,0.534-0.759,0.937-1.408,1.272c0.54-4.646-0.52-9.37,1.667-13.747c-1.084-0.306-1.363-0.038-1.728,0.751
		c-1.893,4.085-2.212,8.578-3.422,12.906c-0.211,0.76-0.7,1.424-1.222,2.445c-0.798-1.232,0.432-2.226,0.175-3.228
		c-0.453,0.319-0.851,0.603-1.25,0.885c-0.029-0.697-0.183-1.42-0.061-2.083c0.634-1.537,1.003-3.145,1.104-4.82
		c-1.891,1.609-2.884,3.227-3.125,5.678c-0.223,2.273-1.146,4.472-1.814,6.684c-0.392,1.289-1.791,0.461-2.825,1.135
		c-0.325,0.21-0.499,0.684-0.78,0.995c-1.31,1.448-1.495,1.431-2.822-0.185c0.356-0.478,0.711-0.957,1.078-1.451
		c-0.408-0.338-0.73-0.605-1.054-0.872c0.034-0.099,0.066-0.195,0.101-0.293c0.415,0.054,0.831,0.108,1.245,0.161
		c0.021-0.071,0.043-0.141,0.063-0.213c-0.343-0.242-0.686-0.483-1.166-0.821c0.53-0.338,0.928-0.593,1.458-0.931
		c-0.387-0.524-0.726-0.986-1.18-1.601c-0.346,0.989-0.901,1.8-1.664,2.433c-0.106-0.451-0.214-0.903-0.312-1.312
		c-0.437,0.411-0.998,0.882-1.5,1.419c-1.273,1.366-1.204,4.688-3.238,4.712c0.123-1.47,0.246-2.933,0.368-4.396
		c-0.202-0.024-0.403-0.049-0.604-0.074c-0.083,0.662-0.277,1.333-0.231,1.982c0.183,2.582,0.162,2.547-2.131,2.549
		c-1.326,0.002-2.476-0.178-3.431-1.272c-1.198-1.377-8.667,2.192-10.813,1.156c-1.467-0.708-2.494-3.028-3.347-4.406
		c-1.108,0.713-1.86,1.753-2.256,3.12c-1.632-0.559-2.126-1.438-2.009-3.379c0.032-0.542,0.097-1.087,0.061-1.625
		c-0.033-0.486-0.182-0.963-0.323-1.663c-0.559,0.479-1,0.942-1.514,1.269c-0.9,0.651-1.472,0.426-1.713-0.672
		c-0.174-0.588-0.255-1.21-0.375-1.818c-0.173,0.023-0.347,0.048-0.519,0.072c0,1.088,0,2.174,0,3.264
		c-0.192,0.011-0.384,0.021-0.576,0.031c-0.106-0.881-0.212-1.763-0.318-2.646c-0.074-0.021-0.15-0.04-0.226-0.06
		c-1.312,3.408-2.94,2.959-5.27,5.127c-0.144-0.144-0.286-0.289-0.429-0.433c0.863-1.137,1.654-2.329,2.373-3.579
		c0.169-2.359,0.343-4.736,0.241-7.093c-0.055-1.258-0.789-2.463-0.985-3.735c-0.282-1.841-0.071-3.642,0.286-5.438
		c-1.581,1.338-1.817,2.831-1.729,4.576c0.187,3.705,0.248,7.417,0.35,11.126c0.007,0.229-0.074,0.464-0.463,0.864
		c-0.279-0.623-0.804-1.25-0.799-1.871c0.036-4.35,0.184-8.695,0.275-13.043c0.002-0.135-0.208-0.276-0.527-0.676
		c-0.641,1.864-1.303,5.881-3.282,6.812c-0.272,0.756-0.458,1.539-0.557,2.348c-0.115-0.003-0.229-0.005-0.343-0.009
		c-0.247-1.041-0.494-2.082-0.799-3.372c-2.751,4.252,0.727,8.988-1.238,13.16c-0.74-1.783-0.956-3.795-1.332-5.699
		c-0.775,1.602-1.498,3.09-2.343,4.833c-0.279-1.187-0.339-2.388-0.179-3.601c-0.472-1.438,0.332-1.658,1.201-1.781
		c0.224-0.911,0.429-1.744,0.726-2.955c-0.902,1.02-1.597,1.805-2.334,2.637c0,2.099,0.022,4.401-0.007,6.703
		c-0.023,1.82-0.052,1.82-1.579,2.666c-0.182-0.312-0.367-0.633-0.501-0.865c-1.793,0.235-4.023,2.002-5.551,1.722
		c-0.197-1.519-0.401-3.103-0.638-4.931c-0.39,0.862-0.973,1.594-1.018,2.362c-0.086,1.505-0.669,1.093-1.487,0.597
		c-0.241,0.754-0.476,1.492-0.719,2.252c-1.392-1.039-2.609-1.951-4.143-3.098c-1.19,0.559-2.803,1.305-4.404,2.077
		c-1.405,0.677-4.475-1.463-5.776-2.171c-1.058,1.533-2.577,1.854-4.472,1.372c0.329-0.681,0.612-1.271,0.894-1.858
		c-0.104-0.096-0.21-0.195-0.315-0.293c-0.377,0.533-0.823,1.024-1.116,1.607c-0.629,1.255-1.247,2.479-2.813,2.273
		c-0.3-0.041-0.578-0.291-0.99-0.511c-0.872,0.8-2.103,0.868-3.065,0.108c-0.793-0.627-1.235-1.79-1.878-2.787
		c-0.252,0.59,0.107,1.943-1.226,1.387c0.112-0.625,0.225-1.26,0.388-2.177c-1.101,0.872-1.974,1.563-2.847,2.255
		c-0.158-0.145-0.316-0.287-0.474-0.432c0.249-0.692,0.498-1.385,0.768-2.131c-0.025-0.006-0.307-0.06-0.816-0.156
		c2.474-2.274,3.413-5.313,4.433-8.366c-2.461,2.84-6.569,13.17-9.841,12.72c0.48-1.693,0.958-3.373,1.466-5.164
		c-0.024-0.011-0.284-0.125-0.616-0.273c0.479-1.16,0.947-2.293,1.416-3.426c-0.144-0.078-0.287-0.158-0.43-0.236
		c-1.787,2.537-5.028,5.205-5.052,8.666c-1.806-1.182-3.181-2.084-4.557-2.983c0.051-0.133,0.103-0.271,0.154-0.401
		c0.339,0,0.677,0,1.31,0c-0.624-0.326-0.992-0.519-1.618-0.848c0.599-0.167,0.944-0.265,1.077-0.302
		c0.592-2.651,1.159-5.197,1.728-7.741c-0.061-0.104-0.122-0.207-0.182-0.31c-0.693,0.29-1.134,0.812-1.321,1.567
		c-0.612,1.815-1.064,1.92-2.433,0.399c-0.82,2.121-1.609,4.187-2.415,6.243c-0.573,1.464-1.003,3.062-2.586,3.722
		c-1.355-4.147-5.289-1.603-7.736,0.291c-1.27,0.979-1.763,0.817-2.063-0.846c-0.078-0.433-0.188-0.855-0.363-1.642
		c-1.062,0.291-2.069,0.566-3.077,0.842c-0.044,0.183-0.088,0.363-0.133,0.543c-1.051-1.521-1.792-3.885-3.523-4.66
		c-0.47-0.21-0.561-1.607-0.698-2.488c-0.108-0.684-0.022-1.404-0.022-2.367c0.053-0.042,0.334-0.263,0.358-0.283
		c-0.07-3.309,3.267-9.607,2.157-12.473c-1.133,4.491-2.095,9.057-3.309,13.52c-0.979,3.588-1.694-1.328-1.427-2.725
		c0.692-3.622,2.799-6.953,2.291-10.685c-2.478,4.573-5.167,8.899-7.384,13.649c-1.708,3.655-3.97,4.797-4.617,8.767
		c-0.064,0.394-0.109,0.788-0.164,1.185c-0.159-0.001-0.317-0.001-0.475-0.002c0-1.423,0-2.845,0-4.408
		c-3.812,0.982-1.988-3.505-5.349,0.459c-2.976,3.508-5.547,0.483-8.399,2.61c-1.301,0.969-2.476,0.874-3.543-0.313
		c-1.079,0.43-2.406,0.701-3.236,1.465c-0.869,0.801-3.501-0.108-4.161-1.168c-1.374-2.209-3.828,1.481-4.752,2.42
		c-0.368-1.709-0.644-2.992-0.92-4.277c0.095-0.004,0.189-0.006,0.284-0.012c-0.588-0.559-1.175-1.119-1.709-1.629
		c-0.221,0.521-0.482,1.438-0.976,2.166c-0.237,0.352-0.91,0.347-1.386,0.502c0.045-0.406,0.02-0.842,0.148-1.215
		c1.25-3.651,2.311-7.181,3.217-10.961c-0.109-0.045-0.219-0.092-0.327-0.138c-0.695,0.951-1.39,1.902-2.084,2.853
		c-0.126-0.078-0.253-0.158-0.38-0.238c-0.06,1.479-0.076,2.964-0.204,4.438c-0.044,0.51-0.364,0.989-0.558,1.483
		c-0.308-0.433-0.616-0.864-0.792-1.112c-0.946,1.986-1.258,4.657-2.919,6.559c-0.15-0.047-0.3-0.094-0.45-0.141
		c0-3.691,1.064-7.47,1.55-11.131c0.457-3.439-1.383-7.199-1.574-11.15c-0.343,3.819-0.991,7.865-2.63,11.277
		c-0.379-0.619-1.151-1.308-1.071-1.841c0.39-2.58,0.762-5.224,1.633-7.627c0.581-1.601,1.215-3.447,2.864-4.409
		c0.29-0.168,0.355-1.113,0.28-1.658c-0.183-1.296-0.513-2.566-0.746-3.671c-1.457,2.667-1.933,8.652-3.925,10.237
		c-0.149-0.355-0.464-0.74-0.42-1.064c0.413-3.043,0.95-6.008,1.234-9.072c-4.246,2.695-2.926,13.16-5.313,17.32
		c-1.014-1.998-1.997-4.918-1.649-7.254c-0.132-0.015-0.264-0.027-0.396-0.043c-0.214,0.391-0.519,0.754-0.626,1.178
		c-1.531,6.022-3.176,8.399-6.684,12.047c0.515-0.039,0.762-0.059,1.499-0.115c-0.528,1.033-0.862,1.841-1.345,2.523
		c-0.131,0.187-0.705-0.006-0.985-0.02c-1.335,1.902-2.69,3.832-4.045,5.763c-0.158-0.114-0.317-0.231-0.475-0.346
		c0.932-1.625,1.863-3.251,2.86-4.99c-0.465-0.235-0.765-0.389-1.189-0.606c0.763-1.457,1.514-2.889,2.317-4.42
		c-0.147-0.104-0.41-0.291-1.014-0.719c0.746-0.146,1.157-0.226,1.748-0.343c-0.397-0.252-0.674-0.428-1.09-0.694
		c0.523-0.41,0.969-0.76,1.486-1.166c-0.281-0.438-0.522-0.813-0.879-1.367c-0.5,0.875-1.195,3.377-2.492,2.392
		c-0.829,0.919-1.801,1.731-2.45,2.784c-1.171,1.902-2.032,5.906-4.234,6.564c-0.066-1.908,2.453-5.556,3.172-7.39
		c-1.203-0.801-1.242,2.248-2.844,0.303c-0.34,3.229-1.406,6.015-3.135,8.73c-0.18,0.284-0.631,0.356-0.957,0.528
		c-0.078-1.072,0.238-2.006,0.948-2.809c-0.35-0.305-0.722-0.629-1.144-0.996c0.112-0.949,0.316-1.767,1.586-1.079
		c0.343-1.95,1.021-3.426,0.066-5.209c-0.142,0.122-0.285,0.243-0.428,0.365c0.25,0.315,0.498,0.631,0.924,1.172
		c-0.532,0.097-0.91,0.165-1.008,0.181c-1.272,2.406-1.504,3.972-4.006,4.348c-0.898,1.232-1.687,3.427-3.376,2.361
		c-0.904,0.595-1.809,1.19-2.713,1.785c-0.044-0.048-0.088-0.097-0.131-0.145c0.35-0.456,0.699-0.912,1.049-1.369
		c-0.065-0.089-0.129-0.178-0.194-0.266c-1.104,0.848-2.209,1.695-3.313,2.541c-0.127-0.148-0.252-0.297-0.379-0.444
		c0.41-0.806,0.82-1.61,1.258-2.472c-1.005-0.209-1.096,2.108-2.394,0.728c0.354-0.753,0.716-1.519,1.073-2.274
		c-1.384-1.31-5.178,2.771-6.596,3.883c-0.222-2.826,1.817-4.854,1.383-7.389c-0.907,0.68-1.822,1.365-2.729,2.043
		c-1.523-0.688-0.716-1.742-0.256-3.078c-1.478,0.797-2.223,1.945-3.172,3.412c-0.869,1.34-2.295,2.012-3.354,3.412
		c-0.15-0.125-0.3-0.248-0.45-0.375c3.93-5.816,7.676-8.957,7.676-16.709c-0.644,0.756-1.09,1.277-1.535,1.801
		c-0.121-0.054-0.241-0.107-0.362-0.16c0.279-2.695,1.026-4.959,1.613-7.569c0.138-0.612-0.056-1.315-0.099-1.978
		c-0.115-0.059-0.228-0.119-0.343-0.179c-0.35,0.66-0.872,1.277-1.015,1.986c-0.297,1.476-0.359,3.006-0.598,4.499
		c-0.067,0.417-0.418,0.779-0.639,1.167c-0.197-0.396-0.395-0.791-0.764-1.528c-0.888,3.332-2.088,6.549-2.956,9.883
		c-0.401,1.543-0.825,2.065-1.77,1.812c0.51-2.199,1.018-4.401,1.557-6.738c-0.329,0.226-0.624,0.429-0.918,0.628
		c-0.14-0.08-0.281-0.16-0.421-0.238c2.435-2.193,2.604-5.275,3.067-8.285c-0.593,1.246-2.423,0.896-2.649,2.637
		c-0.116,0.891-0.312,1.793-0.632,2.613c-0.177,0.453-0.688,0.748-1.047,1.115c-0.17-0.496-0.339-0.988-0.549-1.6
		c-0.647,2.48-1.346,5.154-1.948,7.488c-0.516,1.082-1.038,2.16-1.565,3.234c-0.614,1.24-3.345,4.672-4.28,5.584
		c-0.11-0.095-0.221-0.188-0.332-0.281c0.703-1.657,1.405-3.312,2.018-4.76c-0.88,0.248-1.805,0.455-2.695,0.781
		c-0.306,0.113-0.585,0.475-0.774,0.794c-1.371,2.313-2.538,4.64-4.263,6.657c-0.116-1.146-0.194-1.92-0.272-2.693
		c-0.095-0.037-0.191-0.076-0.287-0.115c-0.338,0.592-0.674,1.186-1.015,1.773c-0.574,0.995-1.096,0.996-1.648,0.01
		c-0.25-0.445-0.25-0.445-2.248-1.16c-0.229,0.424-0.453,0.843-0.74,1.373c-0.964-0.864-2.167-1.381-1.75-2.95
		c-0.568,0.087-1.137,0.174-1.707,0.261c0-0.577,0-1.154,0-1.871c-0.262,0.021-0.72,0.061-1.172,0.098
		c-0.318,1.646-0.626,3.234-0.935,4.824c-0.17-0.025-0.339-0.053-0.509-0.078c-0.909-2.07,0.17-4.207,0.065-6.143
		c-2.571,2.923-3.505,4.33-7.321,4.525c-0.091,0.002-0.205-0.559-0.336-0.939c-1.297,0.809-1.923,2.74-3.773,2.592
		c0.657-1.208,1.282-2.357,1.907-3.507c-0.129-0.114-0.259-0.229-0.387-0.342c-0.722,1.717-1.636,3.192-3.276,3.75
		c-0.104-0.097-0.207-0.193-0.31-0.289c1.125-1.664,2.259-3.321,3.394-4.976c-0.092-0.071-0.185-0.142-0.278-0.209
		C24.606,185.852,23.22,186.484,23.658,188.396C23.35,188.25,23.22,186.484,23.658,188.396z M75.687,79.574
		c-1.539,1.315-3.999,6.782-4.011,8.899c2.022-3.982,3.607-8.143,5.499-12.196c-0.135-0.065-0.27-0.131-0.405-0.197
		C76.55,77.31,74.937,77.908,75.687,79.574C74.309,80.752,74.937,77.908,75.687,79.574z M177.897,108.357
		c-0.985,0.865-1.541,2.185-1.809,2.308c0.721-0.494,1.442-0.99,2.241-1.539c-0.087-0.149-0.276-0.476-0.465-0.802
		c0.739-1.094,2.047-1.867,1.499-3.686C178.875,105.878,178.386,107.118,177.897,108.357
		C176.912,109.223,178.386,107.118,177.897,108.357z M66.863,141.579c0.979-0.576,1.764-1.302,1.851-2.649
		c0.036-0.552,0.065-1.171,0.305-1.629c3.479-6.652,6.577-12.943,8.463-20.377c-0.115-0.042-0.23-0.085-0.346-0.128
		c-5.658,12.167-10.373,24.629-15.757,36.922c0.113,0.07,0.226,0.14,0.338,0.208C64.012,150.122,65.302,145.796,66.863,141.579
		C67.842,141.002,65.858,144.295,66.863,141.579z M14.224,168.497c-0.353,0.36-0.669,0.685-0.985,1.008
		c-0.093-0.535-0.186-1.069-0.303-1.735c0.755,0.078,1.184,0.123,1.642,0.172c0.094-0.545,0.182-1.049,0.235-1.353
		c-2.904-2.522,2.382-7.19,0.936-9.901c0.376-0.271,0.703-0.509,0.708-0.513c0.137-2.012,0.255-3.728,0.372-5.44
		c-0.013,1.931-2.183,2.824-3.562,2.824c0.361,0.963,0.661,1.76,0.876,2.334c-0.695,0.446-1.215,0.78-1.735,1.114
		c0.065,0.147,0.13,0.295,0.195,0.443c0.669-0.144,1.321-0.052,1.953,0.274c-0.827,0.469-1.668,0.907-2.521,1.314
		c0.049,0.107,0.098,0.218,0.147,0.326c0.39-0.094,0.781-0.187,1.224-0.291c0.111,2.244-0.556,3.313-0.595,5.402
		c-0.483-0.107-0.965-0.218-1.628-0.365c-0.193,0.806-0.405,1.687-0.634,2.641c0.352-0.432,0.621-0.762,0.98-1.205
		c0.486,1.791,0.207,2.401-1.022,2.48c-0.868,0.057-1.247,0.455-1.396,1.42c-0.462,2.984-1.356,5.94-1.649,8.941
		c0.149,0.024,0.298,0.049,0.447,0.074c0.373-2.041,0.124-5.222,2.493-5.404c0.885-0.062-0.114,2.858-0.105,2.836
		c-0.24-0.472-0.367-0.721-0.636-1.25c0,1.084,0,1.814,0,2.549c0.142,0.047,0.285,0.093,0.428,0.139
		c0.722-1.093,1.444-2.186,2.162-3.271c-0.486-0.73-0.311-3.446,0.029-3.332c1.237,0.41,1.795-0.574,2.578-1.123
		c0.037-0.026,0.067-0.065,0.104-0.103C14.7,169.148,14.44,168.794,14.224,168.497C13.871,168.857,14.44,168.794,14.224,168.497z
		 M226.809,80.163c0.493-0.37,1-0.543,1.06-0.832c0.47-2.211,2.831-12.575,0.485-13.903c-0.626-0.354-1.222,0.054-1.401,1.02
		c-0.123,0.657-0.518,1.254-0.808,1.87c-2.111,4.472,1.001,10.697,0.306,15.692c-0.314,2.268-0.92,7.249-2.815,8.591
		c-0.115,0.082,0.09,0.713,0.147,1.089c1.048-1.193,1.78-2.27,2.332-3.447c1.309-2.789,0.499-4.743,1.138-7.641
		c0.134-0.605,0.595-1.124,0.954-1.758C227.636,80.566,227.325,80.414,226.809,80.163
		C227.302,79.793,227.325,80.414,226.809,80.163z M171.938,104.166c0.179,0.023,0.358,0.045,0.537,0.068
		c1.398-2.678,2.815-5.342,4.17-8.047c0.037-0.836-0.057-1.654-0.281-2.453c0.871,0.001,1.583-0.393,2.138-1.183
		c0.761-1.41-1.043-2.188-0.785-3.583c-0.334,1.247-1.958,1.88-1.246,3.407c-1.245,1.745-2.474,3.468-3.767,5.28
		c0.522,0.145,0.897,0.249,1.445,0.4c-0.762,0.311-1.749,0.459-1.797,0.777C172.088,100.587,172.053,102.382,171.938,104.166
		C172.118,104.188,172.053,102.382,171.938,104.166z M216.345,155.729c-0.621-0.199-1.059-0.34-1.663-0.533
		c2.162-0.704,2.432-1.158,1.685-2.661c2.12-0.917-0.234-1.369-0.245-2.14c-1.785,3.642-4.51,6.844-4.441,11.386
		C214.16,160.531,214.92,157.962,216.345,155.729C215.724,155.529,214.92,157.962,216.345,155.729z M111.818,65.701
		c-1.512,6.183-2.978,12.184-4.445,18.184c0.182,0.067,0.363,0.134,0.544,0.201c1.911-5.817,3.579-10.798,5.378-16.786
		c0.334-1.115,0.763-2.248,0.337-3.441c-0.144,0.957-0.389,1.876-0.738,2.761C112.647,66.408,112.4,66.197,111.818,65.701
		C110.307,71.883,112.4,66.197,111.818,65.701z M266.751,166.848c0.687-0.945,0.51-1.5-0.158-2.063
		c-0.333-0.282-0.801-0.786-0.753-1.107c0.281-1.893,3.11-3.327,1.018-4.911c-0.238,2.162-1.53,5.803-2.998,7.262
		c-1.777,1.773-2.457,5.228-1.385,7.962c0.868-3.236,1.898-6.185,3.972-8.876C266.579,165.867,266.646,166.252,266.751,166.848
		C267.438,165.902,266.646,166.252,266.751,166.848z M132.616,56.065c-0.792,1.394-1.952,2.687-2.258,4.19
		c-0.298,1.463-0.771,3.241-0.38,4.089c1.059-0.775,2.098-0.747,3.116,0.084c0.656-1.979,0.894-2.592-0.423-4.138
		C133.317,58.473,133.955,57.489,132.616,56.065C131.825,57.458,133.746,57.267,132.616,56.065z M324.75,97.001
		c0.153,0.039,0.306,0.078,0.458,0.117c0.916-1.369,0.93-3.45,2.675-4.185c-0.002-0.593,0.02-1.186,0.065-1.777
		c1.02-2.397,2.578-7.848,4.155-9.764c-0.592,0.091-1.126,0.282-1.309,0.673c-1.024,2.188-2.117,7.921-3.705,9.522
		c-0.292-0.149-0.601-0.308-1.215-0.623C325.481,93.074,325.115,95.038,324.75,97.001C324.902,97.04,325.115,95.038,324.75,97.001z
		 M213.631,163.505c-1.362-0.358-2,0.431-2.421,1.642c-0.441,1.274-0.629,3.25-1.476,4.141c-0.229,0.238-0.566,0.463-0.638,0.757
		c-0.361,1.5-0.653,3.022-0.969,4.535c0.114,0.067,0.228,0.135,0.341,0.201c1.218-2.152,2.892-4.314,3.867-6.621
		C212.951,166.703,213.213,165.066,213.631,163.505C212.27,163.146,213.213,165.066,213.631,163.505z M332.401,153.789
		c-0.127-0.05-0.253-0.1-0.38-0.148c-1.726,7.604-3.458,15.233-4.97,22.891c-0.059,0.302,0.226,0.686,0.459,1.328
		c0.095-0.963,0.063-1.524,0.218-2.017C329.996,168.684,331.487,161.316,332.401,153.789
		C332.274,153.739,332.181,155.607,332.401,153.789z M109.624,85.227c-0.247-0.062-0.493-0.123-0.738-0.184
		c-0.164,0.898-0.142,1.912-0.531,2.672c-2.359,4.614-5.125,9.757-5.512,15.143c0.761-1.819,2.054-3.61,2.759-5.365
		C107.198,93.518,108.362,89.337,109.624,85.227C109.376,85.166,108.972,87.352,109.624,85.227z M266.786,133.943
		c-3.636,3.55-5.922,11-7.428,15.936c0.143,0.076,0.285,0.15,0.427,0.225c0.31-0.543,0.692-1.054,0.909-1.638
		C262.542,143.502,265.944,139.427,266.786,133.943C264.823,135.861,266.629,134.966,266.786,133.943z M299.981,100.782
		c2.153-1.12,1.655-2.539,2.607-4.436c0.882-1.759,0.127-5.486,0.127-7.482c-0.164-0.001-0.326-0.001-0.488-0.002
		c0.05,1.293-0.124,2.56-0.522,3.8c-0.367,1.035-1.189,1.923-1.384,2.971C300.021,97.267,300.082,98.982,299.981,100.782
		C301.604,99.938,300.082,98.982,299.981,100.782z M176.594,180.393c0.177-0.002,0.354-0.004,0.531-0.007
		c1.497-6.219,2.994-12.438,4.492-18.653c-0.146-0.055-0.293-0.104-0.439-0.158C179.394,167.163,176.346,174.407,176.594,180.393
		C176.771,180.391,176.566,179.729,176.594,180.393z M262.407,165.525c1.716-3.484,3.25-6.854,2.933-10.854
		c-0.952,1.411-1.684,2.914-2.391,4.431C262.719,159.602,262.111,164.85,262.407,165.525
		C264.124,162.041,261.627,163.747,262.407,165.525z M309.01,66.107c-0.065,1.205-0.528,1.837-1.571,1.078
		c-1.247,2.062-2.399,4.038-3.618,5.965c-0.744,1.177-0.611,2.097,0.325,2.851c0.611-1.755,1.193-3.496,1.835-5.21
		c0.137-0.368,0.49-0.64,0.743-0.956c0.272,0.342,0.545,0.683,0.798,1.001c0.773-1.219,1.573-2.479,2.412-3.801
		C309.798,66.431,309.49,66.122,309.01,66.107C308.944,67.312,309.208,66.147,309.01,66.107z M177.826,76.271
		c-2.877,2.788-3.223,6.815-4.722,10.801c0.888-0.338,1.387-0.529,1.596-0.608c0.412-1.652,1.557-6.825,2.911-7.412
		C177.686,78.086,177.754,77.199,177.826,76.271C174.949,79.058,177.754,77.199,177.826,76.271z M122.841,55.006
		c-0.141-0.02-0.283-0.04-0.425-0.061c-0.478,2.884-2.034,7.043-0.73,9.709c0.173-0.055,0.345-0.111,0.518-0.166
		C122.971,61.386,123.255,58.233,122.841,55.006C122.7,54.986,123.255,58.233,122.841,55.006z M263.972,63.085
		c-0.082-1.115-0.164-1.792-0.172-2.472c-0.018-1.536,0.551-2.976,0.731-4.615c-0.507,2.966-2.74,4.748-4.067,7.168
		c0.625,0.112,1.09,0.197,1.56,0.281c0.261-0.439,0.523-0.88,0.841-1.416C263.178,62.33,263.423,62.564,263.972,63.085
		C263.89,61.971,263.423,62.564,263.972,63.085z M100.125,170.955c-2.441,0.646-5.076,7.316-3.93,8.746
		C97.457,176.893,98.753,174.01,100.125,170.955z M173.09,115.629c-0.027-0.107-0.056-0.217-0.085-0.324
		c0.483-0.223,0.967-0.445,1.224-0.563c0.177-0.979,0.333-1.847,0.488-2.716c-2.174,2.64-2.929,5.742-2.907,9.554
		c1.015-2.174,1.867-3.997,2.779-5.95C173.905,115.629,173.498,115.629,173.09,115.629
		C173.063,115.521,173.498,115.629,173.09,115.629z M71.78,64.376c0.224,0.138,0.447,0.275,0.67,0.414
		c1.71-3.3,3.215-6.713,4.271-10.38C74.635,57.48,73.387,61.03,71.78,64.376C72.004,64.514,73.387,61.03,71.78,64.376z
		 M317.285,75.551c-0.226-0.117-0.452-0.235-0.679-0.354c-0.889,2.132-2.477,3.875-2.619,6.414
		c-0.021,0.369,0.248,0.756,0.383,1.136c0.118-0.017,0.235-0.033,0.352-0.048C315.309,80.207,317.233,78.265,317.285,75.551
		C317.059,75.434,317.233,78.265,317.285,75.551z M77.564,52.5c2.27-2.908,3.981-6.193,5.4-9.878
		C82.185,42.847,77.604,51.176,77.564,52.5z M63.662,81.909c0.16,0.112,0.319,0.224,0.479,0.336
		c1.553-2.696,3.406-5.225,3.734-8.599c-0.125-0.07-0.25-0.142-0.375-0.211C66.22,76.26,64.941,79.084,63.662,81.909
		C63.822,82.021,64.941,79.084,63.662,81.909z M30.157,140.018c-1.069,2.279-1.213,5.849-1.664,8.506
		C30.554,145.93,31.282,142.118,30.157,140.018C29.914,140.539,31.282,142.118,30.157,140.018z M126.653,149.755
		c-0.233-0.075-0.466-0.151-0.699-0.228c-1.213,2.353-0.924,5.277-2.198,7.715c1.284,0.152,1.617-0.588,1.729-1.627
		C125.643,153.607,126.032,151.655,126.653,149.755C126.42,149.68,126.379,150.805,126.653,149.755z M114.869,55.749
		c-0.215-0.049-0.431-0.099-0.646-0.149c-0.257,2.741-2.123,5.009-1.641,8.087c0.233-0.099,0.391-0.157,0.543-0.231
		c1.161-0.565,1.149-0.557,0.416-1.625C113.256,61.417,114.812,56.078,114.869,55.749
		C114.653,55.699,114.688,56.801,114.869,55.749z M297.1,62.892c0.918-2.38,2.126-4.957,1.301-7.929
		C297.242,56.054,296.794,58.931,297.1,62.892z M302.402,81.139c-0.297-0.213-0.603-0.433-1.247-0.896
		c-0.429,1.905-0.801,3.558-1.196,5.308c2.391,0.659-0.684,2.023,0.435,3.036C301.542,85.961,301.044,83.223,302.402,81.139
		C302.105,80.926,301.666,82.269,302.402,81.139z M224.798,97.636c-0.955-0.271-1.841-0.458-2.115,1.221
		c-0.301,1.84-1.557,4.23-2.118,5.903c0.066,0.026,0.134,0.053,0.2,0.078C222.111,102.434,223.458,100.027,224.798,97.636
		C223.843,97.364,223.458,100.027,224.798,97.636z M314.928,83.568c-0.145-0.097-0.289-0.194-0.433-0.292
		c-1.538,1.352-2.979,6.225-2.687,8.229c0.631-0.581,1.199-1.219,1.145-1.785C312.749,87.605,314.21,85.434,314.928,83.568
		C314.783,83.471,314.81,83.874,314.928,83.568z M321.079,58.735c0,1.469,0,2.871,0,4.559c0.001,0-0.312,0.216-0.635,0.44
		c0.481,0.617,0.902,1.156,1.425,1.826c0.336-0.45,0.685-0.915,1.117-1.494c-0.502-0.188-0.856-0.322-1.316-0.495
		c0.25-1.442,0.488-2.816,0.729-4.2C322.046,59.202,321.619,58.996,321.079,58.735C321.079,60.205,321.619,58.996,321.079,58.735z
		 M300.383,107.508c1.143-2.592,2.75-4.999,2.848-8.22C301.201,101.748,300.965,104.7,300.383,107.508z M215.464,148.534
		c1.262-2.149,2.521-4.295,3.937-6.706c-0.553,0.129-1.133,0.076-1.28,0.328C216.972,144.121,215.474,145.91,215.464,148.534
		C216.726,146.385,215.474,145.91,215.464,148.534z M52.304,168.938c-0.128-0.014-0.257-0.029-0.385-0.045
		c-0.623,2.271-1.246,4.543-1.868,6.815c0.158,0.062,0.315,0.124,0.472,0.185C51.791,175.066,52.79,170.208,52.304,168.938
		C52.175,168.924,52.39,169.166,52.304,168.938z M33.47,166.159c-0.237,1.5-0.634,2.95-1.188,4.348
		c-1.322-0.618-1.792,1.728-1.459,2.898C33.157,170.357,33.593,169.296,33.47,166.159C33.317,166.887,33.593,169.296,33.47,166.159
		z M219.896,188.041c0.18,0.077,0.359,0.154,0.539,0.23c1.635-1.436,1.331-3.607,1.894-5.451c-0.206-0.081-0.412-0.163-0.618-0.244
		C221.106,184.398,220.501,186.22,219.896,188.041C220.076,188.118,220.501,186.22,219.896,188.041z M62.049,110.907
		c-0.143-0.07-0.283-0.14-0.424-0.208c-1.139,2.859-2.588,5.582-3.361,8.605c0.158,0.071,0.315,0.144,0.473,0.213
		C59.841,116.648,60.945,113.777,62.049,110.907C61.907,110.837,60.945,113.777,62.049,110.907z M72.432,182.891
		c1.813-1.564,3.255-2.971,3.433-5.412c-0.895,1.068-1.789,2.137-2.681,3.205c-0.106-0.086-0.212-0.17-0.316-0.254
		C72.742,181.139,72.616,181.85,72.432,182.891C74.245,181.326,72.616,181.85,72.432,182.891z M179.118,73.559
		c1.198-0.977,2.343-1.512,2.883-2.461c0.541-0.952,0.479-2.319,0.68-3.504c-0.145-0.021-0.288-0.045-0.433-0.067
		c-0.079,0.645-0.158,1.288-0.238,1.941C180.296,70.075,180.047,71.883,179.118,73.559
		C180.316,72.583,180.047,71.883,179.118,73.559z M21.407,172.212c-0.167-0.103-0.335-0.204-0.503-0.305
		c-0.666,0.983-1.502,1.883-1.951,2.975c-0.478,1.161-0.589,2.504-0.86,3.769c0.035,0.031,0.071,0.06,0.106,0.09
		C19.268,176.562,20.338,174.389,21.407,172.212C21.24,172.109,20.338,174.389,21.407,172.212z M103.358,25.573
		c-1.034,1.655-1.974,3.158-2.95,4.723c0.552,0.186,0.975,0.328,1.604,0.54C101.904,28.866,104.012,27.745,103.358,25.573
		C102.324,27.229,104.012,27.745,103.358,25.573z M294.957,50.296c-0.361,0.736-2.518,3.909-1.924,4.833
		C293.911,56.484,295.254,51.171,294.957,50.296C294.2,51.84,295.584,52.14,294.957,50.296z M60.465,91.006
		c0.122,0.088,0.242,0.175,0.363,0.262c0.905-2.165,1.809-4.33,2.738-6.554C62.473,85.037,60.699,88.712,60.465,91.006
		C60.586,91.094,60.699,88.712,60.465,91.006z M275.626,181.741c0.163,0.075,0.325,0.151,0.488,0.225
		c2.272-1.342,1.211-4.239,2.58-6.003c-0.157-0.074-0.312-0.15-0.469-0.227C277.359,177.739,276.493,179.74,275.626,181.741
		C275.79,181.816,276.493,179.74,275.626,181.741z M58.134,156.402c-0.189-0.09-0.377-0.178-0.566-0.269
		c-0.969,3.121-1.937,6.241-2.904,9.36c0.117,0.043,0.234,0.086,0.351,0.128C56.054,162.55,57.094,159.475,58.134,156.402
		C57.945,156.312,57.094,159.475,58.134,156.402z M42.308,170.184c-0.09-0.043-0.18-0.088-0.269-0.131
		c-0.715,0.926-1.428,1.854-2.383,3.09c0.741-0.289,1.062-0.414,1.589-0.621c-0.244,0.721-0.369,1.465-0.375,2.232
		C42.129,173.493,42.026,171.962,42.308,170.184C42.218,170.141,42.11,171.424,42.308,170.184z M68.439,70.928
		c0.57,0.899,1.006,0.794,1.39,0.069c0.68-1.438,1.287-2.912,1.822-4.421c-0.131-0.077-0.261-0.154-0.392-0.231
		C69.734,67.424,69.973,69.853,68.439,70.928C69.01,71.827,69.973,69.853,68.439,70.928z M257.159,174.234
		c-0.418,0.674-0.905,1.201-1.096,1.838c-0.161,0.535,0.021,1.197,0.068,2.137C258.356,175.773,258.536,174.854,257.159,174.234
		C256.741,174.908,258.536,174.854,257.159,174.234z M200.182,175.952c0.116,0.013,0.232,0.024,0.348,0.039
		c1.169-2.315,2.338-4.632,3.507-6.945c-0.114-0.063-0.228-0.128-0.342-0.19c-0.99,1.746-2.009,3.474-2.953,5.248
		C200.45,174.652,200.363,175.332,200.182,175.952C200.297,175.964,200.363,175.332,200.182,175.952z M252.191,62.031
		c-0.165-0.045-0.329-0.091-0.492-0.136c-0.805,1.588-1.808,4.571-0.839,6.194C251.303,66.07,251.748,64.05,252.191,62.031
		C252.026,61.985,251.748,64.05,252.191,62.031z M55.254,127.718c0.735-2.147,1.396-4.079,2.057-6.01
		c-0.108-0.044-0.215-0.088-0.323-0.133C55.641,123.557,54.63,126.623,55.254,127.718C55.989,125.568,54.63,126.623,55.254,127.718
		z M216.246,64.979c-0.093-0.088-0.186-0.177-0.279-0.266c-1.049,1.539-2.098,3.077-3.264,4.788
		C214.241,69.752,214.481,69.4,216.246,64.979C216.153,64.891,214.481,69.4,216.246,64.979z M36.909,101.559
		c0.77-3.027,0.782-4.097,0.06-5.095C35.776,100.709,35.776,100.709,36.909,101.559z M222.86,63.651
		c-0.1-0.051-0.199-0.103-0.299-0.154c-0.882,1.8-1.764,3.598-2.723,5.554c0.537,0.067,0.988,0.189,1.015,0.118
		C221.549,67.341,222.201,65.494,222.86,63.651C222.761,63.6,222.201,65.494,222.86,63.651z M318.899,60.25
		c-1.442,0.284-2.471,4.053-1.639,5.666C317.791,64.08,318.33,62.217,318.899,60.25z M275.088,52.241
		c-0.146-0.031-0.292-0.062-0.438-0.093c-0.218,1.44-0.437,2.879-0.668,4.412C275.45,55.879,275.912,53.863,275.088,52.241
		C274.942,52.21,275.912,53.863,275.088,52.241z M271.815,179.521c0.145,0.015,0.291,0.026,0.436,0.041
		c0.141-1,1.632-5.666-0.436-5.414C271.815,176.009,271.815,177.766,271.815,179.521
		C271.959,179.536,271.815,177.766,271.815,179.521z M52.808,97.383c0.218,0.059,0.436,0.118,0.654,0.177
		c0.381-1.935,0.763-3.87,1.143-5.805c-0.196-0.048-0.391-0.097-0.587-0.146C53.615,93.535,53.212,95.459,52.808,97.383
		C53.026,97.442,53.212,95.459,52.808,97.383z M291.689,67.459c-0.436-0.308-0.649-0.458-1.062-0.75
		c0.533-0.115,0.815-0.175,0.992-0.214c0-1.012,0-1.997,0-2.981c-0.603,1.564-1.179,3.142-1.725,4.731
		c0.073,0.091,0.147,0.184,0.221,0.275C290.588,68.202,291.061,67.882,291.689,67.459
		C291.253,67.151,291.061,67.882,291.689,67.459z M134.839,58.538c1.074-0.964,1.26-4.806,0.359-6.211
		c0.323,0.998-1.411,2.095,0.176,3.049C135.126,56.414,134.948,57.468,134.839,58.538
		C135.913,57.574,135.009,57.472,134.839,58.538z M260.643,163.775c-0.629,1.996-0.162,3.664,0.112,5.711
		c0.264-0.735,0.674-1.873,1.119-3.106C259.632,166.438,261.425,164.671,260.643,163.775
		C260.491,164.26,261.425,164.671,260.643,163.775z M78.702,161.186c1.246-1.644,1.153-3.324,1.465-5.035
		C79.113,156.712,78.503,158.807,78.702,161.186z M187.852,163.743c0.535-1.718,1.069-3.435,1.648-5.292
		C188.436,158.876,187.444,161.958,187.852,163.743z M228.827,64.511c0.243-0.046,0.487-0.09,0.73-0.136c0-0.986,0-1.974,0-2.96
		c-0.107-0.067-0.213-0.134-0.319-0.202c-0.327,0.486-0.872,0.945-0.925,1.465C228.253,63.261,228.636,63.897,228.827,64.511
		C229.07,64.465,228.636,63.897,228.827,64.511z M59.54,173.857c-0.708,1.611-1.416,3.221-2.124,4.83
		c0.118,0.062,0.235,0.123,0.352,0.187C59.418,177.74,59.207,175.617,59.54,173.857C58.831,175.469,59.207,175.617,59.54,173.857z
		 M354.435,135.227c-0.177-0.017-0.354-0.033-0.531-0.051c-0.138,1.788-0.277,3.575-0.416,5.359
		c0.241,0.021,0.48,0.044,0.722,0.064C354.285,138.811,354.359,137.018,354.435,135.227
		C354.258,135.21,354.359,137.018,354.435,135.227z M183.835,152.363c-0.099-0.043-0.197-0.083-0.296-0.125
		c-0.653,2.543-1.307,5.088-1.96,7.631c0.144,0.041,0.288,0.084,0.432,0.125C182.619,157.45,183.227,154.906,183.835,152.363
		C183.736,152.32,183.227,154.906,183.835,152.363z M340.747,92.267c-0.213-0.172-0.426-0.345-0.639-0.519
		c-0.731,1.3-1.461,2.598-2.19,3.897c0.152,0.11,0.305,0.219,0.458,0.329C339.165,94.739,339.956,93.503,340.747,92.267
		C340.534,92.095,339.956,93.503,340.747,92.267z M219.551,58.771c-1.45-1.75,0.445-1.485,0.623-1.806c0-1.066,0-1.755,0-2.782
		c-0.771,1.72-1.421,3.168-2.201,4.905C218.662,58.95,218.952,58.892,219.551,58.771C218.101,57.021,218.952,58.892,219.551,58.771
		z M302.958,176.592c-0.161-0.033-0.32-0.066-0.479-0.099c-0.335,0.692-0.713,1.366-0.969,2.093
		c-0.048,0.141,0.381,0.482,0.59,0.73c0.422-0.655,0.875-1.293,1.236-1.986C303.401,177.204,303.093,176.844,302.958,176.592
		C302.797,176.559,303.093,176.844,302.958,176.592z M298.446,189.156c0.151,0.021,0.302,0.043,0.454,0.062
		c0.463-2.006-0.358-4.025-0.061-6.035c-0.131,0-0.262,0-0.393-0.002C298.446,185.172,298.446,187.164,298.446,189.156
		C298.597,189.177,298.446,187.164,298.446,189.156z M231.469,73.787c0.108-1.411,0.216-2.824,0.344-4.48
		C230.827,70.19,230.597,72.683,231.469,73.787z M199.234,70.222c-0.565,0.292-0.85,0.439-1.135,0.586
		c0.395,0.55-1.157,2.515-1.276,2.754C198.703,73.314,198.798,71.896,199.234,70.222C198.668,70.514,198.798,71.896,199.234,70.222
		z M77.271,74.676c0.196,0.106,0.391,0.213,0.586,0.318c0.664-1.589,1.327-3.179,1.99-4.769c-0.114-0.059-0.228-0.116-0.342-0.175
		C78.761,71.593,78.017,73.134,77.271,74.676C77.467,74.783,78.017,73.134,77.271,74.676z M293.829,66.605
		c0.156-1.185,0.273-2.074,0.39-2.962c-0.138-0.053-0.277-0.105-0.416-0.158c-0.44,0.622-0.882,1.245-1.369,1.93
		C292.89,65.804,293.194,66.062,293.829,66.605C293.985,65.42,293.194,66.062,293.829,66.605z M84.197,137.123
		c-0.169-0.068-0.339-0.137-0.508-0.205c-0.439,2.057-0.878,4.112-1.317,6.168c0.115,0.032,0.229,0.062,0.344,0.094
		C83.079,141.123,83.573,139.104,84.197,137.123C84.028,137.055,83.916,138.121,84.197,137.123z M297.652,67.767
		c-0.211-0.035-0.421-0.07-0.632-0.107c-0.186,1.633-0.371,3.267-0.556,4.9c0.13,0.021,0.258,0.044,0.388,0.067
		C297.12,71.007,297.386,69.387,297.652,67.767C297.441,67.732,297.386,69.387,297.652,67.767z M160.139,74.163
		c0.229,0.06,0.458,0.119,0.686,0.179c0.31-1.241,0.62-2.482,0.929-3.723c-0.181-0.056-0.361-0.111-0.541-0.167
		C160.854,71.689,160.497,72.926,160.139,74.163C160.368,74.223,160.497,72.926,160.139,74.163z M261.488,82.038
		c-1.316,2.756-1.312,2.848,0,3.284C261.488,84.204,261.488,83.121,261.488,82.038z M253.123,187.075
		c0.062,0.004,0.124,0.01,0.186,0.015c0.248-1.579,0.494-3.158,0.74-4.738c-0.22-0.031-0.438-0.061-0.658-0.092
		C253.302,183.866,253.212,185.471,253.123,187.075C253.185,187.079,253.212,185.471,253.123,187.075z M354.481,128.6
		c-0.18,2.172-0.338,4.077-0.495,5.982c0.165,0.008,0.331,0.02,0.495,0.029C354.481,132.701,354.481,130.791,354.481,128.6
		C354.302,130.771,354.481,130.791,354.481,128.6z M340.169,79.713c-1.184,1.512-1.063,1.948,0.596,2.664
		C340.532,81.337,340.35,80.525,340.169,79.713z M333.728,76.634c-0.147-0.014-0.296-0.028-0.445-0.043
		c-1.044,1.417-1.145,2.209-0.232,3.208C333.296,78.654,333.512,77.644,333.728,76.634C333.58,76.62,333.512,77.644,333.728,76.634
		z M68.248,82.045c-0.109-0.046-0.218-0.094-0.327-0.141c-0.868,2.004-1.734,4.007-2.601,6.01c0.094,0.048,0.188,0.096,0.282,0.144
		C66.484,86.054,67.366,84.05,68.248,82.045C68.139,81.999,67.366,84.05,68.248,82.045z M238.506,72.709
		c0.202,0.083,0.403,0.167,0.605,0.25c0.381-1.116,0.762-2.23,1.144-3.345c-0.198-0.082-0.395-0.163-0.593-0.244
		C239.277,70.483,238.892,71.597,238.506,72.709C238.708,72.792,238.892,71.597,238.506,72.709z M322.494,164.514
		c-0.135-0.108-0.272-0.218-0.408-0.326c-1.022,1.049-1.798,2.282-2.328,3.705c0.067,0.031,0.134,0.062,0.201,0.094
		C320.805,166.83,321.649,165.673,322.494,164.514C322.359,164.405,321.649,165.673,322.494,164.514z M303.713,183.534
		c0.695-0.82,1.391-1.64,2.086-2.461c-0.124-0.118-0.246-0.236-0.369-0.354C303.935,180.816,304.026,182.361,303.713,183.534
		C304.408,182.714,304.026,182.361,303.713,183.534z M311.752,94.408c-0.111-0.051-0.221-0.102-0.332-0.153
		c-0.705,1.593-1.409,3.185-2.113,4.778c0.102,0.051,0.202,0.103,0.303,0.154C310.324,97.593,311.039,96.001,311.752,94.408
		C311.642,94.357,311.039,96.001,311.752,94.408z M156.418,74.775c-0.18-0.045-0.36-0.091-0.541-0.139
		c-0.253,1.142-0.506,2.284-0.757,3.425c0.2,0.051,0.4,0.103,0.601,0.154C155.954,77.069,156.187,75.922,156.418,74.775
		C156.238,74.73,156.187,75.922,156.418,74.775z M16.472,149.218c0.243,0.04,0.484,0.081,0.727,0.122
		c0.144-1.27,0.29-2.539,0.434-3.809c-0.106-0.018-0.212-0.034-0.318-0.053C17.034,146.725,16.752,147.971,16.472,149.218
		C16.714,149.257,16.752,147.971,16.472,149.218z M46.709,175.343c-0.57,0.812-1.113,1.587-1.657,2.36
		C46.841,177.177,47.231,176.495,46.709,175.343z M119.453,80.072c0.204,0.099,0.407,0.198,0.61,0.296
		c0.386-0.853,0.772-1.707,1.157-2.559c-0.167-0.097-0.335-0.194-0.503-0.291C120.296,78.369,119.874,79.221,119.453,80.072
		C119.657,80.171,119.874,79.221,119.453,80.072z M154.954,60.752c0.182,0.033,0.364,0.065,0.547,0.099
		c0.12-0.873,0.241-1.746,0.36-2.619C154.574,58.819,154.715,59.772,154.954,60.752C155.136,60.786,154.715,59.772,154.954,60.752z
		 M53.514,161.729c-0.607,1.164-1.125,2.157-1.642,3.148C52.777,164.122,54.095,163.645,53.514,161.729z M346.234,76.425
		c-0.13-0.108-0.259-0.216-0.389-0.324c-0.91,0.394-1.366,1.133-1.307,2.263c0.128,0.097,0.256,0.194,0.385,0.291
		C345.359,77.912,345.797,77.168,346.234,76.425C346.104,76.317,345.797,77.168,346.234,76.425z M15.055,171.297
		c0.767-0.324,1.431-0.605,2.365-0.998c-0.21-0.314-0.47-0.703-0.764-1.142C16.034,169.986,15.559,170.622,15.055,171.297
		C15.821,170.973,15.559,170.622,15.055,171.297z M76.217,64.471c0.083,0.045,0.167,0.091,0.251,0.136
		c0.747-1.637,1.495-3.275,2.243-4.912c-0.084-0.046-0.169-0.091-0.253-0.136C77.711,61.196,76.964,62.833,76.217,64.471
		C76.301,64.516,76.964,62.833,76.217,64.471z M218.885,59.808c-0.06-0.143-0.119-0.286-0.179-0.428
		c-1.041,0.14-1.409,0.835-1.102,2.085C218.343,61.26,218.77,60.708,218.885,59.808C218.825,59.666,218.69,60.239,218.885,59.808z
		 M74.415,155.329c0.191,0.063,0.383,0.128,0.574,0.19c0.316-1.058,0.631-2.113,0.947-3.172c-0.165-0.062-0.33-0.123-0.495-0.185
		C75.099,153.219,74.757,154.273,74.415,155.329C74.606,155.393,74.757,154.273,74.415,155.329z M261.377,158.746
		c0.105,0.082,0.21,0.164,0.316,0.245c0.485-1.189,0.969-2.375,1.453-3.564c-0.14-0.067-0.281-0.136-0.421-0.204
		C262.275,156.396,261.827,157.572,261.377,158.746C261.482,158.828,261.827,157.572,261.377,158.746z M292.729,61.764
		c0.18,0.078,0.36,0.154,0.54,0.231c0.377-0.966,0.755-1.933,1.132-2.899c-0.209-0.095-0.419-0.188-0.628-0.283
		C293.425,59.797,293.078,60.78,292.729,61.764C292.91,61.841,293.078,60.78,292.729,61.764z M39.2,183.508
		c0.115,0.036,0.23,0.072,0.344,0.109c0.334-1.123,0.669-2.246,1.003-3.368c-0.207-0.062-0.414-0.125-0.622-0.187
		C39.684,181.211,39.442,182.359,39.2,183.508C39.315,183.544,39.442,182.359,39.2,183.508z M252.535,76.404
		c1.171-0.957,1.662-2.148,1.272-3.604C253.382,74.007,252.958,75.206,252.535,76.404z M234.581,71.625
		c-0.093-0.039-0.186-0.079-0.279-0.119c-0.208,1.646-0.416,3.291-0.623,4.936c0.083,0.014,0.167,0.029,0.25,0.042
		C234.146,74.864,234.363,73.246,234.581,71.625C234.488,71.586,234.363,73.246,234.581,71.625z M359.201,86.131
		c0.17,0.152,0.34,0.305,0.51,0.457c0.542-0.736,1.083-1.473,1.624-2.208c-0.153-0.142-0.306-0.282-0.458-0.424
		C360.317,84.681,359.76,85.406,359.201,86.131C359.371,86.283,359.76,85.406,359.201,86.131z M246.696,173.066
		c-0.125-0.109-0.252-0.221-0.378-0.33c-0.248,0.238-0.674,0.451-0.706,0.722c-0.063,0.522,0.096,1.078,0.163,1.618
		c0.158,0,0.316-0.002,0.474-0.003C246.398,174.404,246.547,173.736,246.696,173.066
		C246.57,172.957,246.547,173.736,246.696,173.066z M223.848,172.361c-0.133-0.045-0.267-0.092-0.4-0.137
		c-0.365,1.278-0.73,2.559-1.096,3.84c0.146,0.049,0.291,0.099,0.436,0.148C223.141,174.93,223.495,173.646,223.848,172.361
		C223.715,172.316,223.495,173.646,223.848,172.361z M44.946,183.261c0.134,0.063,0.268,0.13,0.401,0.191
		c0.295-0.979,0.59-1.962,0.886-2.943c-0.196-0.065-0.393-0.128-0.589-0.192C45.412,181.298,45.179,182.279,44.946,183.261
		C45.08,183.324,45.179,182.279,44.946,183.261z M251.291,132.408c-0.212-0.077-0.423-0.155-0.636-0.232
		c-0.268,0.899-0.533,1.799-0.8,2.696c0.15,0.056,0.303,0.108,0.454,0.164C250.636,134.161,250.964,133.283,251.291,132.408
		C251.079,132.331,250.964,133.283,251.291,132.408z M143.155,83.582c0.521-1.076,0.917-1.895,1.39-2.871
		C143.123,81.286,142.704,82.092,143.155,83.582z M56.285,175.534c0.412-0.705,0.823-1.411,1.362-2.333
		C56.354,173.456,56.205,173.695,56.285,175.534z M239.596,77.545c-0.153-0.054-0.306-0.109-0.459-0.165
		c-0.356,0.866-0.711,1.733-1.067,2.599c0.167,0.076,0.334,0.152,0.501,0.228C238.912,79.32,239.254,78.433,239.596,77.545
		C239.442,77.491,239.254,78.433,239.596,77.545z M290.997,56.079c-0.505,0.582-1.009,1.164-1.725,1.99
		C290.928,58.228,291.213,57.417,290.997,56.079z"/>
	<path display="inline" d="M353.071,182.336c0.358-1.055,0.803-2.084,1.055-3.167c0.567-2.433,1.087-4.877,1.537-7.337
		c0.751-4.105,1.478-8.218,2.123-12.344c0.364-2.338,0.584-4.705,0.802-7.067c0.377-4.093,0.737-8.188,1.042-12.289
		c0.255-3.438,0.408-6.885,0.628-10.325c0.248-3.861,0.521-7.725,0.782-11.584c0.206-0.048,0.41-0.096,0.615-0.143
		c0.144,0.365,0.424,0.736,0.409,1.094c-0.105,2.607-0.245,5.213-0.42,7.815c-0.259,3.858-0.571,7.713-0.834,11.571
		c-0.193,2.84-0.464,5.681-0.492,8.524c-0.068,6.801-1.164,13.463-2.089,20.147c-0.362,2.623-0.801,5.27-1.533,7.789
		c-0.756,2.604-1.913,5.066-2.894,7.592C353.558,182.52,353.315,182.43,353.071,182.336z"/>
	<path display="inline" d="M366.474,103.398c-0.845,1.035-1.684,2.074-2.539,3.094c-0.134,0.16-0.347,0.238-0.523,0.354
		c0.001-0.25-0.073-0.539,0.014-0.746c1.416-3.322,2.798-6.664,4.311-9.932c0.555-1.197,1.412-2.231,2.174-3.302
		c0.187-0.261,0.545-0.377,0.826-0.559c0.116,0.294,0.363,0.608,0.328,0.881c-0.191,1.518-0.451,3.028-0.447,4.66
		c0.336-0.616,0.639-1.258,1.024-1.833c0.149-0.223,0.484-0.296,0.735-0.438c0.052,0.305,0.197,0.631,0.142,0.911
		c-0.33,1.67-1.471,2.594-2.734,3.54c-0.244-0.424-0.446-0.773-0.757-1.314c-1.512,1.225-1.851,3.113-2.582,4.725L366.474,103.398z
		"/>
	<path display="inline" d="M65.438,49.715c-0.461-0.575-0.647-0.807-0.92-1.146c-0.18,0.358-0.246,0.636-0.421,0.798
		c-0.189,0.176-0.48,0.244-0.726,0.358c-0.095-0.254-0.345-0.585-0.261-0.752c0.751-1.501,1.559-2.975,2.359-4.453
		c0.062-0.113,0.196-0.271,0.294-0.269c1.723,0.039,2.294-1.153,2.8-2.479c0.097-0.254,0.498-0.395,0.758-0.588
		c0.131,0.1,0.262,0.199,0.394,0.299C68.328,44.156,66.939,46.827,65.438,49.715z"/>
	<path display="inline" d="M78.391,24.171c-0.008,1.291-4.412,8.852-5.29,9.211C72.93,31.778,76.566,25.358,78.391,24.171z"/>
	<path display="inline" d="M176.701,63.6c0.428-0.847,0.808-1.723,1.296-2.534c0.479-0.794,0.812-1.915,2.265-1.463
		c-0.774,1.321-1.483,2.585-2.253,3.812c-0.201,0.318-0.565,0.678-0.902,0.736c-0.673,0.115-1.379,0.033-2.072,0.033
		c0.082-1.119,0.153-2.239,0.265-3.355c0.008-0.08,0.391-0.228,0.444-0.178c0.181,0.167,0.395,0.401,0.41,0.623
		c0.051,0.712,0.02,1.431,0.02,2.146C176.349,63.48,176.525,63.539,176.701,63.6z"/>
	<path display="inline" d="M315.049,51.89c-0.246,1.152-0.373,1.911-0.591,2.636c-0.049,0.161-0.535,0.351-0.631,0.266
		c-0.191-0.167-0.312-0.504-0.351-0.79c-0.085-0.603-0.097-1.217-0.138-1.827c-0.135-0.007-0.269-0.014-0.404-0.021
		c0.211-0.511,0.422-1.023,0.626-1.518c0.927,0.25,1.788,0.412,2.595,0.739c0.306,0.125,0.676,0.629,0.68,0.966
		c0.012,0.832-0.169,1.669-0.273,2.503c-0.294-0.205-0.729-0.335-0.853-0.626C315.427,53.554,315.297,52.812,315.049,51.89z"/>
	<path display="inline" d="M197.484,66.033c-0.827,0.913-1.711,1.783-2.461,2.754c-0.581,0.75-0.735,1.901-2.032,1.924
		c-0.039-2.015,3.619-6.733,5.044-6.574c-0.198,0.647-0.396,1.294-0.594,1.941L197.484,66.033z"/>
	<path display="inline" d="M188.305,180.32c0.721-1.704,1.412-3.42,2.19-5.098c0.126-0.271,0.635-0.369,0.967-0.546
		c0.078,0.31,0.288,0.661,0.208,0.927c-0.394,1.308-0.316,2.85-1.767,3.679c-0.18,0.104-0.16,0.513-0.328,0.692
		c-0.273,0.295-0.625,0.517-0.943,0.77C188.522,180.604,188.414,180.461,188.305,180.32z"/>
	<path display="inline" d="M16.645,107.434c0.106,0.369,0.319,0.746,0.299,1.108c-0.071,1.294-0.212,2.585-0.353,3.875
		c-0.014,0.132-0.18,0.293-0.316,0.36c-0.839,0.406-0.512,0.871-0.12,1.386c0.157,0.207,0.247,0.483,0.287,0.742
		c0.008,0.05-0.392,0.261-0.548,0.214c-0.259-0.079-0.653-0.285-0.675-0.475c-0.098-0.83-0.509-1.566,0.131-2.537
		c0.543-0.82,0.358-2.11,0.515-3.19c0.069-0.479,0.185-0.954,0.28-1.431C16.312,107.469,16.478,107.451,16.645,107.434z"/>
	<path display="inline" d="M326.507,62.853c2.083-0.151,0.823,1.68,0.861,2.296c0.058,0.945-0.692,1.964-1.157,2.919
		c-0.086,0.177-0.491,0.326-0.66,0.25c-0.165-0.074-0.35-0.491-0.299-0.691c0.399-1.613,0.853-3.209,1.29-4.811
		C326.543,62.816,326.507,62.853,326.507,62.853z"/>
	<path display="inline" d="M60.375,58.68c-0.223,1.965-1.051,2.878-2.812,3.338c-0.338,0.089-0.602,0.491-0.877,0.771
		c-0.254,0.258-0.477,0.547-0.811,0.937c-0.376-1.532,0.274-2.343,1.48-2.499c0.47-0.061,0.866-0.652,1.304-0.991
		C59.254,59.775,59.156,58.521,60.375,58.68z"/>
	<path display="inline" d="M165.847,177.165c-0.297,1.2-0.524,2.351-0.892,3.452c-0.104,0.31-0.625,0.479-0.956,0.714
		c-0.106-0.336-0.271-0.665-0.308-1.008c-0.076-0.714-0.036-1.443-0.133-2.152C163.433,177.249,164.295,176.783,165.847,177.165z"
		/>
	<path display="inline" d="M7.008,115.742c-0.223,1.555-0.431,3.008-0.645,4.5c-1.071,0.012-1.404-0.527-1.275-1.374
		C5.529,115.984,5.177,115.617,7.008,115.742z"/>
	<path display="inline" d="M51.046,172.827c0.499-1.229,0.924-2.496,1.531-3.671c0.253-0.488,0.894-0.778,1.359-1.157
		c0.143,0.096,0.287,0.194,0.43,0.292c-0.875,1.814-1.75,3.63-2.625,5.445c-0.12-0.025-0.239-0.049-0.358-0.074
		c-0.105-0.296-0.209-0.594-0.317-0.882C51.063,172.784,51.046,172.827,51.046,172.827z"/>
	<path display="inline" d="M18.073,104.225c0.351,0.277,1.016,0.575,1,0.83c-0.075,1.188-0.287,2.377-0.565,3.538
		c-0.086,0.358-0.538,0.63-0.895,1.021c-1.321-1.858,1.086-3.337,0.071-4.982C17.813,104.495,17.943,104.359,18.073,104.225z"/>
	<path display="inline" d="M214.75,46.068c1.313-1.343,1.448-3.902,4.101-3.783C216.959,43.029,217.546,46.302,214.75,46.068z"/>
	<path display="inline" d="M4.294,131.289c-1.404-0.982-1.217-2.969,0.5-4.225C4.608,128.637,4.46,129.891,4.294,131.289z"/>
	<path display="inline" d="M369.644,91.107c-0.251-0.589-0.698-1.146-0.584-1.461c0.37-1.035,0.937-1.987,1.456-2.951
		c0.036-0.064,0.446-0.003,0.459,0.057c0.066,0.306,0.156,0.675,0.059,0.941C370.632,88.784,370.165,89.845,369.644,91.107z"/>
	<path display="inline" d="M54.243,69.024c-0.021-1.752,1.098-2.433,2.372-3.147C56.59,67.637,55.676,68.865,54.243,69.024z"/>
	<path display="inline" d="M50.898,75.54c0.464-2.378,1.158-3.156,2.393-2.68C52.908,74.432,51.931,75.526,50.898,75.54z"/>
	<path display="inline" d="M367.311,94.414c0.089,0.417,0.312,0.834,0.215,1.123c-0.242,0.722-0.592,1.412-0.982,2.054
		c-0.1,0.165-0.504,0.109-0.77,0.154c0.081-0.951,0.107-1.914,0.284-2.842C366.096,94.707,366.692,94.642,367.311,94.414z"/>
	<path display="inline" d="M366.446,103.436c0.664-0.707,1.302-1.449,2.006-2.102c0.232-0.215,0.641-0.201,0.967-0.292
		c-0.099,0.39-0.122,0.836-0.315,1.158c-0.37,0.616-0.807,1.194-1.271,1.729c-0.782,0.903-1.008-0.027-1.354-0.535
		C366.474,103.398,366.446,103.436,366.446,103.436z"/>
	<path display="inline" d="M92.744,176.496c-0.482,2.107-1.515,3.434-2.537,3.259C91.229,177.28,91.851,176.48,92.744,176.496z"/>
	<path display="inline" d="M171.734,61.357c0.496-0.308,0.931-0.789,1.259-0.726c0.391,0.076,0.861,0.569,0.98,0.973
		c0.11,0.373-0.199,0.867-0.324,1.309c-0.254-0.245-0.494-0.506-0.764-0.729C172.592,61.944,172.269,61.738,171.734,61.357z"/>
	<path display="inline" d="M46.797,80.31c0.507-1.024,0.896-1.853,1.335-2.654c0.075-0.138,0.4-0.258,0.545-0.207
		c0.144,0.051,0.318,0.352,0.286,0.503C48.733,79.041,48.357,80.037,46.797,80.31z"/>
	<path display="inline" d="M11.702,146.794c-0.239,0.292-0.479,0.586-0.719,0.878c-0.108-0.02-0.216-0.038-0.324-0.058
		c0.114-1.255,0.228-2.511,0.342-3.767c0.206-0.014,0.411-0.029,0.616-0.041c0.467,0.943-0.018,2.029,0.055,3.029
		C11.672,146.834,11.702,146.794,11.702,146.794z"/>
	<path display="inline" d="M367.271,85.61c0.452,0.056,1.309-0.026,1.389,0.208c0.201,0.591,0.076,1.328,0.014,1.999
		c-0.01,0.115-0.375,0.298-0.538,0.257c-0.16-0.04-0.331-0.299-0.393-0.501C367.583,87.05,367.481,86.506,367.271,85.61z"/>
	<path display="inline" d="M182.716,58.85c0.424-1.146,0.658-2.131,2.173-1.985C184.457,57.859,184.278,58.866,182.716,58.85z"/>
	<path display="inline" d="M115.455,174.128c0.197-0.955,0.358-1.737,0.537-2.606C117.27,172.343,117.076,173.242,115.455,174.128z
		"/>
	<path display="inline" d="M165.45,67.826c-0.396,0.456-0.703,0.807-1.009,1.16c-0.176-0.25-0.542-0.553-0.491-0.742
		c0.132-0.487,0.451-0.926,0.694-1.384C164.867,67.126,165.09,67.394,165.45,67.826z"/>
	<path display="inline" d="M133.839,53.699c0.405,0.27,0.881,0.479,1.188,0.832c0.185,0.212,0.164,0.655,0.124,0.979
		c-0.016,0.127-0.47,0.338-0.501,0.305c-0.216-0.23-0.392-0.505-0.544-0.786c-0.179-0.331-0.319-0.683-0.476-1.026
		C133.7,53.903,133.77,53.8,133.839,53.699z"/>
	<path display="inline" d="M335.79,62.306c0.246,0.601,0.554,1.186,0.697,1.814c0.038,0.165-0.435,0.468-0.674,0.708
		c-0.142-0.288-0.373-0.565-0.406-0.868c-0.053-0.481,0.025-0.98,0.047-1.471C335.566,62.429,335.677,62.368,335.79,62.306z"/>
	<path display="inline" d="M226.45,48.125c-0.389-1.465,0.197-1.847,1.561-1.331C227.491,47.238,226.97,47.681,226.45,48.125z"/>
	<path display="inline" d="M176.152,66.191c-0.288,0.521-0.576,1.042-0.864,1.563c-0.215-0.234-0.656-0.554-0.605-0.685
		c0.186-0.472,0.536-0.881,0.825-1.314C175.723,65.901,175.938,66.047,176.152,66.191z"/>
	<path display="inline" d="M369.418,92.263c-0.674,0.596-1.136,1.004-1.598,1.413c-0.123-0.28-0.395-0.604-0.339-0.832
		C367.692,91.984,368.208,91.648,369.418,92.263z"/>
	<path display="inline" d="M39.421,88.823c-0.321,0.245-0.642,0.491-1.056,0.809c-0.272-1.83-0.062-2.124,1.154-1.988
		c-0.037,0.408-0.074,0.815-0.107,1.216C39.415,88.853,39.421,88.823,39.421,88.823z"/>
	<path display="inline" d="M250.291,61.484c-0.53,0.714-1.06,1.429-1.59,2.143c-0.123-0.082-0.246-0.164-0.368-0.246
		c0.461-0.755,0.923-1.511,1.384-2.267C249.909,61.238,250.101,61.36,250.291,61.484z"/>
</g>
<g class="path" id="_x32_">
	<path d="M9.477,178.66c2.193-4.263,15.695-2.658,20.201-3.609c1.286-0.272,2.8-3.309,3.23-3.956
		c-0.73-0.322-1.488-0.919-2.293-0.974c-3.944-0.26-10.397-1.651-13.826,0.533c-0.843,0.538-1.414,0.802-1.98-0.234
		c-0.167-0.304-0.614-0.629-0.983-0.684c-1.894-0.286-6.785,0.53-8.182-1.2c-1.319-1.639-2.966-3.059-4.638-4.416
		c0.915-2.222,3.203-2.306,4.715-3.881c0.97-1.011-0.064-2,1.273-2.953c2.662-1.891,5.414-3.686,8.063-5.592
		c3.053-2.199-4.723-4.95-6.652-5.615c-0.783-0.272,0.088-2.704,1.1-3.358c11.601-7.485,27.251-10.521,41.239-11.925
		c6.866-0.689,13.739-1.032,20.366-2.846c5.856-1.6,12.688-4.718,18.879-4.662c0.035,0.148,0.073,0.3,0.109,0.45
		c-2.691,0.641-5.384,1.28-8.075,1.922c0.004,0.118,0.009,0.238,0.013,0.357c0.364,0.024,0.74,0.116,1.089,0.065
		c25.167-3.624,48.833-3.854,74.245-4.005c14.347-0.088,50.063,0.105,64.398-0.476c13.925-0.565,28.805-2.984,42.656-2.182
		c0.007-0.125,0.013-0.248,0.019-0.375c-3.337-0.247-6.678-0.496-10.016-0.744c-0.028-0.099-0.053-0.198-0.081-0.296
		c4.8-1.058,10.411-0.41,15.358-0.453c1.129-0.01,1.698,0.283,0.77,1.773c3.272-1.011,5.35-2.509,9.03-2.085
		c0.076,0.008,0.133,0.147,0.325,0.376c-0.837,0.241-1.618,0.465-2.397,0.689c0.015,0.182,0.026,0.364,0.041,0.547
		c5.756,0.053,11.637-1.142,17.374-0.495c1.919,0.217,2.615-1.568,4.196-1.708c1.693-0.062,3.337,0.146,4.929,0.627
		c6.032,0.799,12.518-0.267,18.558-0.647c0.173,0.154,0.346,0.307,0.521,0.46c-0.597,0.224-1.192,0.446-1.787,0.671
		c1.24,2.16,3.174,2.901,5.604,2.89c27.28-0.132,73.43-0.509,100.704-0.965c2.102-0.034,3.327-1.875,4.897-2.92
		c0.346,0.551,0.885,1.074,0.998,1.66c0.208,1.095,0.974,1.173,1.964,1.165c68.525-0.516,174.832,2.078,243.32,2.694
		c34.625,0.313,90.705,0.383,125.312,1.006c17.618,0.319,55.42-0.09,73.042-0.377c8.533-0.141,17.657,0.382,26.075-0.849
		c3.996-0.584,12.101,2.478,15.229-0.31c0.712-0.63,9.418,0.778,10.755,0.757c5.396-0.086,32.402-0.57,37.787-0.229
		c1.439,0.09,2.849,0.547,4.652,0.924c1.445-1.214,3.688-0.478,5.807-0.589c0.036,0.148,0.07,0.297,0.101,0.444
		c-0.873,0.168-1.754,0.335-2.875,0.549c7.763,2.836,21.386,0.776,29.78,0.798c9.916,0.027,36.104-0.222,46.009-0.109
		c10.036,0.111,19.99,0.297,30.019,0.704c10.569,0.429,22.152-0.299,32.569,1.245c0.525,0.078,0.979,0.504,1.609,0.852
		c3.954-1.504,13.59,1.262,17.888,1.601c3.867,0.307,13.127-0.861,16.257,1.238c0.45,0.302,0.294,1.293,0.435,2.124
		c-6.252-0.055-12.32,0.256-18.541-0.495c-5.459-0.656-13.105-2.275-18.153-0.03c0.058,0.201,0.116,0.402,0.17,0.604
		c17.684,1.216,35.688-0.067,53.253,2.336c0.667,0.092,1.292,0.425,1.934,0.646c-0.01,0.147-0.021,0.294-0.029,0.442
		c-0.434,0.088-0.869,0.26-1.296,0.251c-7.468-0.152-14.899-0.645-22.357-0.881c-0.979-0.03-1.974,0.4-2.959,0.619
		c0.024,0.154,0.051,0.306,0.074,0.459c6.476,1.2,14.957,1.533,21.589,1.222c1.713-0.08,10.978,5.155,11.98,3.247
		c1.027-1.938,2.562,0.011,3.771-0.389c0.363,1.28,1.558,0.661,2.375,0.737c7.78,0.698,15.781,1.642,23.565,1.418
		c5.674-0.168,13.874,0.521,18.78,3.44c-6.346,0.724-14.018-0.126-20.453-0.57c-6.05-0.417-12.146,1.126-18.224,1.271
		c-14.11,0.338-28.143-0.303-42.268,0.012c0.031,1.476-0.469,2.236-2.161,1.335c-0.846-0.451-9.222,1.096-10.806,1.097
		c-4.79,0.005-9.574,0.335-14.355,0.51c-10.522,0.387-21.142-0.226-31.637,0.443c-0.004,0.187-0.008,0.372-0.014,0.56
		c5.302,0.158,10.074,1.026,15.216,2.154c-0.016,0.207-0.033,0.415-0.053,0.621c-13.259-0.116-27.018,0.714-39.483,0.797
		c-13.661,0.093-47.276-4.111-60.39,0.174c-1.266-0.261-2.515-0.555-3.786-0.742c-0.223-0.033-0.722,0.357-0.765,0.6
		c-0.215,1.188-0.955,0.783-1.934,0.826c-3.771,0.163-7.013,0.424-10.649,0.466c-16.34,0.181-54.062,0.456-70.403,0.729
		c-3.823,0.066-7.6,1.273-11.743,1.237c-0.023,0.193-0.047,0.387-0.071,0.579c11.854,2.088,48.93,1.237,61.058,0.633
		c1.022-0.052,2.032-0.486,3.013-0.832c0.618-0.22,1.164-0.597,1.742-0.904c0.174,0.581,0.351,1.162,0.645,2.135
		c1.241,0.205,2.785,0.458,4.33,0.711c0.025,0.107,0.055,0.217,0.078,0.324c-0.697,0.26-1.394,0.518-2.383,0.883
		c8.956,2.756,20.713,0.714,30.024,0.575c12.145-0.181,40.853-0.47,52.97,0.247c0.082-0.731,0.145-1.315,0.244-2.227
		c-0.404,0.051-6.018,0.947-6.103,0.797c-0.726-1.206-21.729-1.646-23.189-1.899c4.455-3.076,26.231,0.765,31.083-0.896
		c1.455-0.494,1.444-0.521,3.016,0.448c0.131-0.305,0.294-0.673,0.454-1.039c0.086,0.167,0.174,0.331,0.261,0.495
		c15.146,0.134,30.151,1.127,45.29,1.724c13.725,0.539,30.299-2.466,43.595,0.807c-0.023,0.195-0.047,0.389-0.071,0.584
		c-7.643-0.066-16.427-0.737-23.857,0.82c0.003,0.186,0.01,0.371,0.017,0.558c0.831,0.328,1.668,0.657,2.502,0.987
		c-0.012,0.133-0.024,0.264-0.041,0.394c-2.854-0.254-5.714-0.509-8.572-0.762c-0.021,0.119-0.039,0.238-0.059,0.357
		c0.578,0.184,1.152,0.366,1.727,0.549c-0.02,0.146-0.042,0.293-0.067,0.439c-3.327-0.225-6.651-0.449-9.978-0.674
		c-0.008-0.18-0.018-0.355-0.024-0.533c0.399-0.209,0.81-0.415,1.209-0.623c-0.002-0.104-0.001-0.209-0.003-0.314
		c-2.392-0.167-4.784-0.338-7.175-0.506c-0.017,0.096-0.03,0.191-0.041,0.289c1.395,0.26,2.789,0.518,4.183,0.779
		c0.006,0.182,0.012,0.363,0.017,0.543c-7.365,1.638-17.096-0.86-24.894-0.51c0.404,0.219,0.664,0.482,0.918,0.48
		c5.292-0.073,10.273,0.487,15.53,1.041c0.358,0.04,0.757-0.079,1.108-0.185c1.923-0.574,1.715,0.943,3.306,1.56
		c0.477,0.186,1.023,0.229,1.529,0.542c-4.039,1.325-8.245-0.4-12.344,0.865c4.124,0.512,8.688-0.206,12.663,0.577
		c2.577,0.51,0.958-0.473,2.535-1.301c0.771,0.486,1.229,1.001,1.763,1.076c7.042,0.982,14.627,1.439,21.647,0.213
		c-1.141-0.702-1.841-1.136-2.99-1.846c5.098-0.351,9.826-0.245,14.936,0.217c2.713,0.246,4.12,1.898,7.109,1.88
		c9.087-0.062,18.869,0.31,27.798,1.646c2.488-1.569,8.852-0.357,11.622-0.512c5.183-0.291,13.39-0.62,18.234,0.815
		c0.496,0.15,0.862,0.645,1.285,0.986c-4.413,3.199-17.398,1.104-23.159,1.319c-8.188,0.304-16.861-0.883-24.851-0.27
		c0.443,0.422,0.886,0.842,1.334,1.262c-0.361,0.188-0.721,0.544-1.078,0.538c-8.396-0.104-16.31-1.129-24.676-0.257
		c0.003,0.133,0.006,0.266,0.01,0.398c2.252,0.576,4.506,1.154,7.166,1.836c-2.457,1.095-6.195,0.633-8.753,0.114
		c-2.58-0.529-3.837,0.757-6.729,0.097c1.042-0.261,2.084-0.524,3.13-0.785c0-0.125,0.002-0.25,0.003-0.373
		c-10.263,0.809-21.881-1.283-32.37-1.635c-10.985-0.37-22.054-0.392-33.049-0.351c-12.563,0.047-41.492-0.027-54.047,0.458
		c-8.581,0.338-17.704-0.181-26.189,0.429c-15.618,1.095-52.704,1.812-68.304,2.456c-6.328,0.262-12.84-1.211-19.586-0.911
		c-6.576,0.29-13.972,0.17-20.342,1.7c-5.574,1.343-31.396-0.154-37.052,0.482c-6.824,0.766-14.771,1.111-21.791,0.864
		c0.115-0.493,0.207-0.885,0.235-1.002c-7.035-0.063-18.984-1.466-25.479,1.167c-2.405,0.974-5.178,0.171-7.685,0.029
		c-0.033,0.222-0.071,0.444-0.111,0.667c9.4,1.912,20.618,0.771,30.268,0.683c10.8-0.097,41.734-0.248,52.535-0.458
		c17.544-0.339,37.032,1.103,54.318-1.685c16.026-2.583,54.971-0.465,71.148-1.133c20.06-0.828,56.6-0.204,76.677-0.027
		c-0.067,0.246-0.077,0.324-0.095,0.327c-18.365,1.895-53.291,1.092-71.74,1.66c-19.701,0.606-60.798,1.439-80.525,1.918
		c-39.676,0.961-99.438,3.712-139.188,3.131c-0.682-0.01-1.353-0.414-2.409-0.762c-0.388,0.34-6.339,0.702-7.35,0.775
		c-2.701,0.191-31.915-1.674-33.785-0.826c-6.187,2.785-17.798,0.604-24.514,0.45c-8.221-0.183-16.44-0.373-24.663-0.522
		c-18.733-0.343-37.379-1.335-56.088-1.906c-40.566-1.237-118.896-3.861-159.485-4.219c-0.013,0.191-0.024,0.385-0.036,0.58
		c5.016,0.751,10,0.218,14.916,1.744c0.375,0.115,0.964-0.025,1.327-0.223c1.459-0.785,2.166-0.61,2.923,0.722
		c0.192,0.34,0.669,0.562,1.351,1.104c-5.366-0.047-10.733-0.107-16.1-0.092c-1.156,0.005-1.869-0.272-1.655-1.432
		c-1.664-0.014-3.179-0.026-4.762-0.041c-0.218,0.918-0.624,1.536-1.738,0.679c-0.083-0.063-0.228-0.156-0.293-0.131
		c-3.223,1.114-10.36-0.58-14.111-0.459c-7.041,0.228-14.079,0.513-21.121,0.743c-13.963,0.456-46.965-0.443-60.986-0.392
		c-12.616,0.048-25.321,0.972-37.889,0.823c-10.54-0.125-21.429-0.962-31.913,0.221c-13.176,1.489-27.259-0.004-40.596,0.553
		c-14.106,0.588-28.332,0.311-42.443-0.063c-29.708-0.785-81.036-0.564-110.765-0.495c-1.062,0.303-2.136,0.567-3.222,0.797
		c-4.795-1.898-14.068,0.445-19.446,0.232c-8.628-0.337-17.268,0.514-25.9,0.259C40.935,180.517,24.369,183.84,9.477,178.66
		C10.979,175.739,10.214,178.916,9.477,178.66z M336.294,172.458c0.07,0.271,0.139,0.543,0.211,0.815
		c36.535,0.324,92.077-0.608,128.609-0.068c15.828,0.236,31.835,0.902,47.609,0.714c16.085-0.191,50.701,2.105,66.837,1.214
		c0.009-0.129,0.019-0.258,0.028-0.387c-14.871-2.261-49.86-1.192-64.917-1.816c-18.344-0.758-36.688-1.285-55.042-1.79
		c-34.296-0.94-87.112-0.618-121.383,0.635C337.587,171.799,336.945,172.22,336.294,172.458
		C336.365,172.729,336.945,172.22,336.294,172.458z M402.534,174.743c-0.031,0.154-0.063,0.309-0.091,0.463
		c-0.252,1.135-1.019,1.368-2.302,0.698c-0.474-0.17-0.839-0.774-1.271-0.79c-4.154-0.165-26.485-0.064-30.569-0.246
		c-4.905-0.216-11.926,1.379-16.327,0.736c-5.483-0.8-10.792-0.741-16.356-0.619c-0.688,0.015-1.364,0.416-2.393,0.751
		c-3.625-1.902-10.76-0.439-14.763-0.191c-5.709,0.35-11.116-0.165-16.841,0.638c-9.101,1.274-19.043-0.485-28.309,1.011
		c0.035,0.127,0.072,0.255,0.11,0.383c14.025,0.123,28.14,0.721,42.149,0.351c13.587-0.36,27.938-1.984,41.438-0.603
		c1.333,0.137,1.816-0.377,1.529-1.493c0.304,0.001,0.604-0.032,0.617,0.009c0.747,2.12,2.766,1.551,4.438,1.558
		c10.574,0.047,41.479,1.126,51.866-0.649c1.098-0.187,1.805-0.096,1.43,0.874c-0.376,0.066,10.863-0.623,8.436-1.776
		c-0.7-0.331-1.602-0.845-2.221-0.682c-2.022,0.53-6.557,0.558-8.654,0.069c-1.202-0.277-2.741,0.8-4.177,0.987
		c-1.22,0.156-2.546,0.037-3.759-0.208C405.149,175.737,403.859,175.179,402.534,174.743
		C402.503,174.897,403.859,175.179,402.534,174.743z M702.267,160.911c0.053,0.18,0.103,0.359,0.153,0.539
		c2.596,0.023,5.184,0.088,7.774,0.052c3.439-0.05,6.91-1.561,10.588-0.977c4.014,0.637,7.927,1.963,12.08,1.835
		c3.049-0.09,27.516-1.184,31.036-1.152c0.008,0.127,0.012,0.254,0.021,0.381c-0.487,0.146-0.975,0.289-1.459,0.435
		c0.016,0.123,0.029,0.244,0.041,0.367c4.475-0.058,8.976,0.362,13.398-0.845c-9.478-1.136-40.415-1.099-49.926-1.338
		c0.004-0.162,0.005-0.32,0.007-0.479c2.162-0.161,4.329-0.32,6.488-0.481c-1.034-0.113-8.406-1.388-8.266,0.571
		c-0.497,0.025-1.37,0.192-1.438,0.055c-0.815-1.65-14.404-0.241-17.362-0.52c-0.504,0.663-0.757,1-1.011,1.339
		c-0.357-0.235-0.72-0.47-1.21-0.791C702.938,160.173,702.601,160.541,702.267,160.911
		C702.319,161.089,702.601,160.541,702.267,160.911z M662.797,177.248c0.006-0.256,0.011-0.512,0.016-0.768
		c-15.293-0.4-49.466-0.968-64.757-1.367c-0.021,0.193-0.045,0.391-0.068,0.588C612.62,178.852,647.849,177.626,662.797,177.248
		C662.803,176.992,659.985,177.319,662.797,177.248z M685.411,159.523c-13.465-1.097-27.032-0.735-40.614-0.196
		c3.453,0.562,6.911,1.062,10.374,1.091c2.551,0.022,5.104-0.62,7.669-0.863c1.7-0.158,2.518,1.958,4.136,0.845
		c0.555-0.38,1.233-0.622,1.895-0.944c0.785,1.472,2.124,1.782,3.607,1.762c2.639-0.039,5.302-0.361,7.896-0.11
		C682.573,161.318,684.342,161.317,685.411,159.523C671.946,158.427,684.342,161.317,685.411,159.523z M467.531,176.132
		c-12.398-1.303-24.841-1.194-37.378-0.776c0.429,0.49,0.941,0.922,1.468,0.938c5.885,0.184,11.614-0.18,17.499,0.026
		C454.893,176.525,461.97,177.221,467.531,176.132C455.131,174.829,465.643,176.502,467.531,176.132z M1072.387,163.934
		c-0.282-0.17-0.532-0.444-0.805-0.463c-10.716-0.652-37.823-0.05-48.557-0.144C1027.979,164.71,1071.022,164.986,1072.387,163.934
		C1072.104,163.764,1071.022,164.986,1072.387,163.934z M1104.154,132.299c0.022-0.15,0.04-0.298,0.061-0.448
		c-0.246-0.06-0.492-0.151-0.745-0.171c-12.085-0.972-24.272-0.348-36.385-0.369c-1.678-0.001-3.032,0.354-3.312,2.218
		C1077.063,131.019,1090.447,132.178,1104.154,132.299C1104.177,132.148,1103.151,132.291,1104.154,132.299z M1057.238,148.792
		c0.028,0.164,0.055,0.326,0.085,0.489c3.832-0.291,8.643-1.686,12.4-0.711c0.355,0.103,5.002-0.133,5.161-0.162
		c1.995-0.367,3.66-0.964,5.714-1.147c-1.584-0.625-9.317-2.243-11.035-1.209c-0.559,0.338-1.127,0.821-1.752,0.905
		C1064.145,147.461,1060.724,147.493,1057.238,148.792C1057.267,148.956,1057.633,148.644,1057.238,148.792z M187.116,177.024
		c-0.02,0.199-0.039,0.396-0.061,0.596c0.654,0.123,1.313,0.366,1.96,0.346c8.033-0.268,37.347,0.093,45.39,0.283
		c1.18,0.028,2.402-0.039,3.16-1.536C228.585,178.811,196.497,175.466,187.116,177.024
		C187.096,177.224,187.524,176.956,187.116,177.024z M486.681,157.702c6.244,0.055,12.493,0.111,18.737,0.165
		c0.022-0.252,0.041-0.502,0.062-0.754C499.501,156.45,492.439,155.921,486.681,157.702
		C492.924,157.757,490.042,156.662,486.681,157.702z M998.351,132.991c-1.295-2.008-2.187-1.831-4.617,0.846
		c4.294,1.098,8.36,0.734,12.934-0.441c-1.329-0.215-6.238-1.619-7.043-1.241C999.202,132.354,998.842,132.66,998.351,132.991
		C997.056,130.983,998.842,132.66,998.351,132.991z M1124.431,138.765c-0.001-0.108-0.002-0.22-0.002-0.328
		c-9.295-0.082-18.593-0.165-27.893-0.247c0.007,0.109,0.008,0.219,0.01,0.328C1105.838,138.6,1115.135,138.683,1124.431,138.765
		C1124.43,138.656,1115.135,138.683,1124.431,138.765z M1011.907,132.592c0.095,0.107,0.193,0.214,0.283,0.32
		c-1.575,0.094-3.152,0.19-5.185,0.312c0.598,0.35,0.691,0.45,0.778,0.448c4.086-0.083,8.171-0.161,12.248-0.301
		c0.264-0.011,0.76-0.566,0.698-0.75c-0.105-0.305-0.539-0.646-0.904-0.729c-2.067-0.474-4.956-0.096-7.055,0.007
		C1012.472,131.915,1012.196,132.352,1011.907,132.592C1012.002,132.7,1012.196,132.352,1011.907,132.592z M933.688,166.856
		c-3.319-1.205-12.063-0.84-14.555,0.558C924.295,167.065,929.024,167.581,933.688,166.856z M775.943,159.13
		c-2.497-1.327-38.382-0.968-39.507,0.151C742.471,159.168,769.91,159.243,775.943,159.13z M1016.217,138.718
		c0.112-0.103,0.227-0.201,0.342-0.301c-1.99-0.438-1.582-1.562-1.102-2.719c-1.103,0.246-1.536,2.129-2.773,1.604
		c-1.186-0.501-3.041-2.977-4.46-1.011c0.547,0.601,2.701-0.127,1.706,1.695C1012.114,138.241,1014.165,138.48,1016.217,138.718
		C1016.329,138.615,1014.165,138.48,1016.217,138.718z M596.968,175.696c-0.005-0.223-0.009-0.445-0.012-0.668
		c-5.35-0.047-10.696-0.094-16.045-0.142C586.257,175.366,591.599,175.968,596.968,175.696
		C596.963,175.474,591.599,175.968,596.968,175.696z M965.826,160.766c0.017-0.174,0.034-0.35,0.052-0.523
		c-5.068-0.357-31.517-0.083-36.571-0.037c0.003,0.227,0.006,0.457,0.01,0.686C934.353,160.784,960.788,160.869,965.826,160.766
		C965.843,160.59,960.788,160.869,965.826,160.766z M672.955,176.913c-0.001,0.186-0.006,0.371-0.007,0.557
		c4.124,0.035,8.25,0.071,12.378,0.108c0.003-0.139,0.006-0.273,0.013-0.412C681.218,176.813,677.101,176.438,672.955,176.913
		C672.954,177.099,677.101,176.438,672.955,176.913z M248.873,176.928c-3.208-0.028-6.346-0.056-9.929-0.088
		C240.753,178.167,247.654,178.24,248.873,176.928C245.666,176.899,247.953,177.921,248.873,176.928z M777.965,158.941
		c4.106,0.035,8.211,0.071,12.322,0.107C788.767,158.192,779.847,158.062,777.965,158.941z M1103.286,134.763
		c-0.007,0.109-0.013,0.219-0.02,0.327c4.739,0.043,9.48,0.084,14.22,0.126c0.004-0.108,0.007-0.218,0.012-0.327
		C1112.761,134.846,1108.021,134.805,1103.286,134.763C1103.279,134.873,1108.021,134.805,1103.286,134.763z M249.925,178.463
		c2.037-0.89,4.423,0.171,6.118-1.776c-2.12-0.021-3.949-0.034-5.821-0.052C250.133,177.175,250.065,177.593,249.925,178.463
		C251.962,177.573,250.065,177.593,249.925,178.463z M692.137,160.6c1.663,0.129,3.545,0.987,3.801-0.979
		c-2.335-0.019-4.544-0.04-6.683-0.059C690.161,159.889,691.135,160.236,692.137,160.6
		C692.778,160.646,691.135,160.236,692.137,160.6z M1009.946,166.935c-0.004-0.17-0.006-0.338-0.012-0.508
		c-2.338-0.123-4.688-0.994-7.016,0.444C1005.262,166.894,1007.604,166.913,1009.946,166.935
		C1009.942,166.765,1007.604,166.913,1009.946,166.935z M977.598,166.547c0.004,0.086,0.003,0.17,0.003,0.256
		c3.098,0.298,5.877,0.348,8.984,0.162c-0.01-0.113-0.018-0.227-0.028-0.338C983.569,166.601,980.584,166.575,977.598,166.547
		C977.602,166.633,980.584,166.575,977.598,166.547z M1043.467,132.247c1.648,1.724,0.728,1.151,4.745,0.656
		c-0.028-0.206-0.064-0.411-0.1-0.614C1046.675,132.276,1045.232,132.264,1043.467,132.247
		C1043.901,132.699,1045.232,132.264,1043.467,132.247z M1042.084,166.274c-0.009,0.137-0.014,0.273-0.022,0.412
		c2.03,0.688,3.729,0.608,5.071-0.583C1045.163,166.171,1043.623,166.222,1042.084,166.274
		C1042.075,166.411,1043.623,166.222,1042.084,166.274z M987.296,136.329c-0.019,0.156-0.035,0.312-0.053,0.469
		c2.613-0.183,5.221-0.363,7.838-0.545c-0.021-0.162-0.033-0.325-0.047-0.485C992.454,135.954,989.873,136.142,987.296,136.329
		C987.277,136.485,989.873,136.142,987.296,136.329z M1100.3,142.884c0.013,0.172,0.024,0.344,0.042,0.517
		c1.593-0.069,3.185-0.14,4.776-0.209c-0.019-0.188-0.032-0.38-0.047-0.567C1103.416,141.988,1101.863,142.482,1100.3,142.884
		C1100.312,143.056,1101.863,142.482,1100.3,142.884z M669.965,177.169c0.001-0.082,0.001-0.166,0.002-0.25
		c-2.028-0.018-4.056-0.035-6.084-0.053c0.009,0.201,0.015,0.402,0.021,0.604C665.921,177.368,667.945,177.269,669.965,177.169
		C669.966,177.085,667.945,177.269,669.965,177.169z M786.353,161.695c-0.007-0.137-0.013-0.27-0.022-0.404
		c-1.587-0.013-3.175-0.029-4.768-0.042c0.007,0.135,0.012,0.27,0.019,0.404C783.169,161.668,784.76,161.683,786.353,161.695
		C786.346,161.559,784.76,161.683,786.353,161.695z M1061.991,132.026c0.02-0.26,0.037-0.52,0.057-0.779
		c-1.063-0.009-2.125-0.018-3.188-0.027c-0.015,0.168-0.028,0.336-0.045,0.504C1059.875,131.823,1060.935,131.924,1061.991,132.026
		C1062.011,131.767,1060.935,131.924,1061.991,132.026z M1015.024,166.462c0.01,0.148,0.023,0.297,0.033,0.445
		c1.521-0.087,3.044-0.173,4.562-0.262c-0.021-0.191-0.037-0.383-0.051-0.574C1018.051,166.201,1016.54,166.332,1015.024,166.462
		C1015.034,166.61,1016.54,166.332,1015.024,166.462z M975.249,167.077c0.001-0.127,0.003-0.254,0.004-0.381
		c-1.421-0.015-2.84-0.026-4.26-0.039c-0.001,0.127-0.003,0.256-0.003,0.383C972.408,167.053,973.829,167.064,975.249,167.077
		C975.25,166.95,973.829,167.064,975.249,167.077z M700.053,159.605c-0.678,0.45-1.355,0.903-2.271,1.516
		C700.114,161.064,700.114,161.064,700.053,159.605z M1053.497,166.689c0.007-0.066,0.007-0.135,0.008-0.203
		c-1.404-0.092-2.806-0.186-4.208-0.282c-0.003,0.148-0.011,0.297-0.016,0.447C1050.688,166.666,1052.094,166.678,1053.497,166.689
		C1053.502,166.623,1052.094,166.678,1053.497,166.689z M1073.278,163.294c-0.012,0.213-0.02,0.426-0.028,0.639
		c2.217,0.419,1.712,0.375,2.166-1.167C1074.439,163.008,1073.858,163.15,1073.278,163.294
		C1073.267,163.507,1073.858,163.15,1073.278,163.294z M998.549,136.02c0.047,0.252,0.084,0.502,0.127,0.755
		c1.009-0.123,2.014-0.246,3.018-0.368c-0.035-0.203-0.071-0.404-0.101-0.607C1000.577,135.873,999.564,135.947,998.549,136.02
		C998.596,136.271,999.564,135.947,998.549,136.02z M1042.118,135.823c-0.003,0.213-0.007,0.428-0.016,0.641
		c0.934-0.106,1.864-0.211,2.795-0.319c-0.029-0.225-0.061-0.448-0.093-0.671C1043.913,135.593,1043.018,135.707,1042.118,135.823
		C1042.115,136.036,1043.018,135.707,1042.118,135.823z"/>
	<path d="M759.689,179.814c-26.833-0.237-75.291-1.971-102.355-3.239c-8.38-0.394-16.576,0.783-25.152-0.03
		c-5.225-0.497-38.173-3.416-42.771-0.849c-2.547,1.423-9.819,0.069-12.632-0.026c-5.206-0.18-10.413-0.36-15.617-0.596
		c-9.927-0.451-38.96-0.443-48.777-1.708c-0.046-0.145-0.093-0.292-0.136-0.437c0.463-0.202,0.944-0.601,1.384-0.572
		c21.89,1.369,62.288,0.85,84.508,1.709c26.086,1.008,71.513,2.798,97.483,3.155c13.644,0.195,27.632-0.023,41.197,1.008
		C737.276,178.265,759.05,179.183,759.689,179.814C755.252,179.775,759.05,179.183,759.689,179.814z"/>
	<path d="M1178.794,125.456c-2.215,2.004-22.592,0.534-26.351-0.09c-0.323-0.056-0.596-0.342-0.888-0.521
		c1.337-1.053,8.612-1.354,10.482-1.185C1167.644,124.176,1173.243,124.632,1178.794,125.456
		C1178.362,125.846,1177.185,125.217,1178.794,125.456z"/>
	<path d="M997.796,154.813c-3.906-0.575-9.513-1.769-13.365-1.027c-1.945,0.374-1.945-0.542-1.896-1.517
		c5.572,0.049,11.054,0.098,16.534,0.146c0.018,0.137,0.034,0.271,0.051,0.408c-0.382,0.117-0.761,0.234-1.1,0.34
		c0.273,0.148,0.631,0.339,0.98,0.526C998.45,154.205,997.98,154.643,997.796,154.813
		C996.196,154.58,997.98,154.643,997.796,154.813z"/>
	<path d="M1047.161,153.223c-1.677-0.314-3.154-0.122-4.435,0.576c0.188,0.241,0.338,0.655,0.574,0.688
		c1.483,0.028,2.96,0.123,4.431,0.284c-0.929,0.792-6.425,1.136-7.251,0.604c-0.35-0.229-16.881-0.804-17.069-1.161
		c-0.694-1.298-1.824-1.495-3.583-1.33c-2.265,0.212-4.588,0.015-6.903-0.166c2.037-1.681,26.494-0.795,29.204-0.809
		c1.656-0.005,3.381,0.494,4.943,0.877C1047.102,152.932,1047.132,153.078,1047.161,153.223
		C1045.957,153.286,1047.132,153.078,1047.161,153.223z"/>
	<path d="M1121.981,159.395c5.818,0.271,11.524,0.542,17.602,0.829c-1.951,0.952-3.9,1.081-5.764,1.057
		c-3.252-0.047-6.501-0.423-9.755-0.474C1122.704,160.787,1122.235,160.388,1121.981,159.395
		C1127.8,159.666,1122.235,160.388,1121.981,159.395z"/>
	<path d="M1168.642,170.961c-3.922,0.595-7.758-0.188-11.632-0.344c-0.036-0.178-0.075-0.354-0.109-0.528
		c0.554-0.253,1.142-0.759,1.659-0.717c3.388,0.271,6.76,0.659,10.141,1.011C1168.68,170.576,1168.66,170.77,1168.642,170.961
		C1164.72,171.558,1168.66,170.77,1168.642,170.961z"/>
	<path d="M796.352,114.787c-6.666-0.059-13.328-0.118-19.995-0.177c0.001-0.184,0.003-0.369,0.004-0.553
		c6.669,0.059,13.338,0.117,20.01,0.176C796.363,114.418,796.358,114.603,796.352,114.787
		C789.686,114.729,796.358,114.603,796.352,114.787z"/>
	<path d="M1191.073,135.166c1.995-1.045,8.568-0.533,10.148,0.791C1197.591,136.272,1194.313,135.922,1191.073,135.166z"/>
	<path d="M1182.728,128.074c-3.986-0.035-8.368-1.035-12.273-0.65c-0.438,0.042-0.948-0.387-1.426-0.596
		c0.465-0.172,0.946-0.516,1.383-0.482c4.063,0.307,8.498,0.532,12.426,1.493C1182.801,127.917,1182.765,127.995,1182.728,128.074
		C1180.93,128.058,1182.765,127.995,1182.728,128.074z"/>
	<path d="M1109.578,170.563c3.968-1.287,5.515-0.985,9.467,0.046c-3.144,0.111-6.288,0.223-9.432,0.336
		C1109.603,170.818,1109.589,170.691,1109.578,170.563C1110.833,170.157,1109.589,170.691,1109.578,170.563z"/>
	<path d="M768.204,179.792c-2.256,0.091-4.505,0.2-6.76,0.241c-0.26,0.005-0.533-0.36-0.796-0.553
		c0.312-0.193,0.624-0.554,0.934-0.552c2.203,0.011,4.407,0.097,6.609,0.158C768.195,179.323,768.2,179.558,768.204,179.792
		C765.948,179.885,768.2,179.558,768.204,179.792z"/>
	<path d="M451.875,111.53c3.558,0.031,7.116,0.062,10.673,0.095c0.008,0.145,0.014,0.289,0.021,0.434
		c-3.559-0.032-7.116-0.062-10.676-0.095C451.887,111.819,451.881,111.675,451.875,111.53
		C455.433,111.562,451.881,111.675,451.875,111.53z"/>
	<path d="M1047.902,175.288c2.868-0.128,5.735-0.258,8.979-0.404c-1.155,1.093-7.147,1.427-8.947,0.811
		C1047.923,175.56,1047.913,175.425,1047.902,175.288C1050.771,175.16,1047.913,175.425,1047.902,175.288z"/>
	<path d="M973.344,152.837c-3.197-0.028-6.398-0.058-9.596-0.085c-0.002-0.168-0.005-0.334-0.005-0.5
		c3.201,0.32,6.396-0.871,9.602,0.071C973.346,152.495,973.344,152.665,973.344,152.837
		C970.146,152.809,973.344,152.665,973.344,152.837z"/>
	<path d="M551.077,111.219c-2.527,0.514-23.035,0.22-25.588,0.029C525.601,110.147,548.759,109.813,551.077,111.219
		C550.238,111.39,548.759,109.813,551.077,111.219z"/>
	<path d="M1111.02,171.955c2.987,0.027,5.972,0.052,8.96,0.08c0.009,0.109,0.018,0.217,0.029,0.324
		c-2.985,0.109-5.969,0.217-8.953,0.324C1111.043,172.441,1111.028,172.197,1111.02,171.955
		C1114.007,171.982,1111.028,172.197,1111.02,171.955z"/>
	<path d="M1110.076,174.254c0.706-0.556,7.589-0.729,8.629,0.077C1115.847,174.303,1112.989,174.278,1110.076,174.254z"/>
	<path d="M771.795,179.776c0.905-1.173,3.922-1.335,5.489-0.294C776.199,180.337,773.512,180.481,771.795,179.776z"/>
	<path d="M723.659,113.931c-2.374-0.286-4.802,1.272-7.231-0.604c2.487,0.022,4.867,0.042,7.244,0.064
		C723.668,113.569,723.663,113.749,723.659,113.931C721.285,113.645,723.663,113.749,723.659,113.931z"/>
	<path d="M1088.078,172.57c1.899-0.655,3.75-0.585,5.546,0.215c-0.038,0.142-0.073,0.282-0.109,0.423
		c-1.81-0.017-3.613-0.033-5.424-0.05C1088.087,172.963,1088.081,172.768,1088.078,172.57
		C1089.055,172.412,1088.081,172.768,1088.078,172.57z"/>
	<path d="M977.507,153.728c-0.527,0.355,5.304-2.529,4.133-1.147c-0.389,0.464-0.78,1.081-1.359,1.247
		C979.618,154.021,978.763,153.798,977.507,153.728C978.438,153.106,978.763,153.798,977.507,153.728z"/>
	<path d="M634.843,112.059c2.379,0.021,4.76,0.042,7.143,0.063c-0.017,0.215-0.032,0.431-0.048,0.646
		c-2.387-0.104-4.776-0.211-7.164-0.313C634.796,112.322,634.82,112.19,634.843,112.059
		C637.221,112.079,634.82,112.19,634.843,112.059z"/>
	<path d="M734.295,113.9c-2.87-0.025-5.744-0.051-8.614-0.076c0.004-0.115,0.01-0.232,0.013-0.348
		c2.86,0.025,5.729,0.051,8.587,0.076C734.287,113.668,734.289,113.784,734.295,113.9
		C731.425,113.875,734.289,113.784,734.295,113.9z"/>
	<path d="M1072.051,175.838c1.47-1.341,3.295-1.399,4.837-0.132C1075.276,175.751,1073.664,175.793,1072.051,175.838z"/>
	<path d="M494.654,111.186c-2.055,1.981-2.736,2.182-3.691,1.316c-0.599-0.542-0.533-1.02,0.339-1.144
		C492.259,111.223,493.249,111.248,494.654,111.186C492.599,113.167,493.249,111.248,494.654,111.186z"/>
	<path d="M444.01,111.883c2.121-0.084,4.244-0.169,6.365-0.257c-2.082,0.814-4.174,1.46-6.337,0.71
		C444.028,112.184,444.019,112.034,444.01,111.883C446.131,111.799,444.019,112.034,444.01,111.883z"/>
	<path d="M983.241,155.408c0.945-1.042,4.17-1.165,5.929-0.193C987.272,155.276,985.371,155.337,983.241,155.408z"/>
	<path d="M672.646,113.071c1.569-1.367,3.564-0.036,5.288-0.583C676.354,113.689,674.416,112.861,672.646,113.071z"/>
	<path d="M1109.176,172.661c-1.995,0.088-3.996,0.178-5.995,0.266c-0.009-0.201-0.016-0.404-0.021-0.605
		c2.001,0.018,4.004,0.035,6.006,0.052C1109.171,172.47,1109.175,172.565,1109.176,172.661
		C1107.181,172.751,1109.175,172.565,1109.176,172.661z"/>
	<path d="M688.63,112.535c-0.781,1.533-3.533,0.731-5.338,0.715c-0.009-0.183-0.019-0.364-0.028-0.546
		C685.052,112.646,686.842,112.591,688.63,112.535C688.142,113.491,686.842,112.591,688.63,112.535z"/>
	<path d="M1006.697,152.474c1.703,0.016,3.41,0.03,5.115,0.046c-0.011,0.135-0.023,0.27-0.034,0.404
		c-1.717-0.014-3.437-0.03-5.155-0.045C1006.646,152.744,1006.675,152.608,1006.697,152.474
		C1008.401,152.489,1006.675,152.608,1006.697,152.474z"/>
	<path d="M1040.991,150.675c1.89,0.016,3.78,0.031,5.668,0.049c0,0.131-0.002,0.264-0.002,0.395
		c-1.902-0.018-3.801-0.034-5.699-0.051C1040.967,150.937,1040.98,150.806,1040.991,150.675
		C1042.881,150.69,1040.98,150.806,1040.991,150.675z"/>
	<path d="M671.069,113.311c-2.398-0.524-2.793-0.367-5.05,0.092c1.968-1.65,0.959-1.193,5.195-0.729
		C671.167,112.886,671.118,113.099,671.069,113.311C670.329,113.148,671.118,113.099,671.069,113.311z"/>
	<path d="M658.218,112.703c-1.442-0.013-2.889-0.025-4.331-0.038c-0.006-0.137-0.009-0.273-0.015-0.41
		c1.442,0.013,2.883,0.025,4.325,0.038C658.205,112.428,658.211,112.566,658.218,112.703
		C656.775,112.69,658.211,112.566,658.218,112.703z"/>
	<path d="M560.19,110.702c1.369,0.012,2.739,0.023,4.232,0.036C563.609,111.736,563.609,111.736,560.19,110.702z"/>
	<path d="M500.431,111.534c-1.419,0.562-2.893,0.901-4.424,1.019C494.946,112.447,499.415,111.477,500.431,111.534
		C499.501,111.787,499.439,111.479,500.431,111.534z"/>
	<path d="M697.842,112.994c-0.983,0.879-2.974,0.866-4.44-0.041C695.001,112.968,696.294,112.979,697.842,112.994z"/>
	<path d="M606.934,112.202c-1.314-0.091-2.631-0.185-3.947-0.278c0.024-0.209,0.044-0.42,0.067-0.631
		c1.312,0.08,2.624,0.16,3.934,0.242C606.969,111.76,606.951,111.982,606.934,112.202
		C605.619,112.111,606.951,111.982,606.934,112.202z"/>
	<path d="M1011.323,154.675c1.165,0.009,2.331,0.02,3.495,0.03c-0.001,0.148-0.003,0.299-0.003,0.449
		c-1.159-0.011-2.32-0.021-3.479-0.03C1011.332,154.974,1011.327,154.823,1011.323,154.675
		C1012.488,154.684,1011.327,154.823,1011.323,154.675z"/>
	<path d="M1075.612,150.77c1.115,0.06,2.233,0.118,3.35,0.177c-0.016,0.252-0.029,0.502-0.044,0.754
		c-1.106-0.062-2.212-0.123-3.32-0.187C1075.604,151.268,1075.607,151.018,1075.612,150.77
		C1076.728,150.829,1075.607,151.018,1075.612,150.77z"/>
	<path d="M1015.978,174.286c1.615-1.152,2.32-1.094,3.684,0.324C1018.28,174.487,1017.319,174.401,1015.978,174.286z"/>
	<path d="M1162.91,126.205c1.067,0.011,2.137,0.021,3.206,0.029c0.011,0.131,0.024,0.266,0.035,0.398
		c-1.062,0.102-2.121,0.201-3.177,0.303C1162.95,126.692,1162.93,126.447,1162.91,126.205
		C1163.978,126.216,1162.93,126.447,1162.91,126.205z"/>
	<path d="M773.941,114.438c-1.203-0.011-2.405-0.021-3.607-0.03c0.007-0.123,0.011-0.244,0.017-0.367
		c1.204,0.01,2.413,0.021,3.62,0.03C773.961,114.193,773.953,114.314,773.941,114.438
		C772.738,114.427,773.953,114.314,773.941,114.438z"/>
	<path d="M1045.99,174.245c-0.77-0.094-1.534-0.19-2.299-0.286c0.025-0.982,0.833-1.145,2.425-0.481
		C1046.073,173.733,1046.029,173.989,1045.99,174.245C1045.221,174.151,1046.029,173.989,1045.99,174.245z"/>
	<path d="M151.159,118.453c-0.911-0.008-1.82-0.016-2.729-0.023c-0.008-0.178-0.013-0.355-0.021-0.536
		c0.893-0.044,1.788-0.087,2.681-0.132C151.115,117.99,151.135,118.223,151.159,118.453
		C150.248,118.445,151.135,118.223,151.159,118.453z"/>
	<path d="M828.291,114.393c1.103-0.061,2.209-0.12,3.312-0.183c0.019,0.196,0.036,0.393,0.057,0.588
		c-1.114,0.07-2.229,0.138-3.347,0.208C828.309,114.801,828.301,114.596,828.291,114.393
		C829.394,114.332,828.301,114.596,828.291,114.393z"/>
	<path d="M1062.74,175.619c-1.061-0.086-2.111-0.169-3.168-0.255c0.016-0.185,0.034-0.368,0.053-0.552
		c1.055,0.06,2.111,0.123,3.167,0.188C1062.771,175.207,1062.758,175.412,1062.74,175.619
		C1061.68,175.533,1062.758,175.412,1062.74,175.619z"/>
	<path d="M1136.892,170.888c-0.968-0.119-1.937-0.237-2.903-0.358c0.049-0.225,0.094-0.449,0.145-0.673
		c0.974,0.143,1.944,0.283,2.921,0.427C1136.999,170.482,1136.948,170.685,1136.892,170.888
		C1135.924,170.769,1136.948,170.685,1136.892,170.888z"/>
	<path d="M1085.608,170.757c-0.838-0.14-1.67-0.28-2.508-0.419c0.019-0.143,0.03-0.283,0.048-0.426
		c0.867,0.053,1.735,0.104,2.602,0.156C1085.704,170.299,1085.656,170.529,1085.608,170.757
		C1084.771,170.617,1085.656,170.529,1085.608,170.757z"/>
</g>
</svg>
