<?xml version="1.0" encoding="utf-8"?>
<!-- Generator: Adobe Illustrator 16.0.0, SVG Export Plug-In . SVG Version: 6.00 Build 0)  -->
<!DOCTYPE svg PUBLIC "-//W3C//DTD SVG 1.1//EN" "http://www.w3.org/Graphics/SVG/1.1/DTD/svg11.dtd">
<svg version="1.1" id="Layer_1" xmlns="http://www.w3.org/2000/svg" xmlns:xlink="http://www.w3.org/1999/xlink" x="0px" y="0px"
	 width="792px" height="126px" viewBox="0 0 792 126" enable-background="new 0 0 792 126" xml:space="preserve">
	 <style type="text/css">
	    <![CDATA[
	    .path_bg { 
	    	fill: #0b2e4e;
	    	opacity: 0.6;
	    }
	    ]]>
  </style>
<g class="path_bg">
	<path d="M712.447,7.601c3.812,0.659,6.542,2.432,8.189,5.321c-1.459,1.228-2.918,2.456-4.808,4.043
		c4.217,2.214,7.705,4.54,12.713,5.118c1.202,0.139,23.812-7.293,23.848-2.784c-0.781,1.476-2.011,2.142-3.688,1.997
		c-3.1,0.662-3.022,10.526,0.461,11.5c6.175,1.726,13.054-2.259,18.583-0.439c1.506,0.495,0.771,5.256,0.72,5.927
		c1.351-0.976,10.477-11.327,12.685-6.257c2.632,6.055-12.005,10.298-4.167,17.931c3.235,3.152,14.708,1.278,14.536,8.083
		c-0.191,7.425-14.625,10.372-21.434,11.904c0.874,3.201-3.995,14.989-6.676,15.684c-10.442,2.703-23.186-1.135-32.795,2.363
		c3.409,0.395,6.782-0.232,9.56,1.771c-8.428,7.035-35.677,3.603-46.587,5.717c3.149,2.188,8.144,7.269,1.038,9.082
		c-10.385,2.652-28.094,12.214-37.651,6.826c-1.358,3.794,6.538,4.106,8.57,4.676c-8.804,5.031-62.729,5.852-73.333-2.638
		c-6.385-5.107-34.558,1.392-43.005,2.316c-18.704,2.047-46.479,16.521-64.134,4.348c1.153-0.877,2.454-1.47,3.897-1.778
		c-1.953-5.131-7.453-0.969-11.586-1.504c0,1.394,1.597,3.508-0.981,3.924c-1.759,0.285-3.268-0.1-3.618-1.985
		c1.907-5.858,5.814-9.651,11.721-11.38c-4.822-1.652-7.169-1.489-10.809-5.168c0.03,0.03-34.585,10.658-35.027,10.857
		c0.082,0.334,0.161,0.666,0.241,0.998c5.646,0,21.504,1.836,25.301-1.693c-0.562-0.592-1.406-1.098-1.541-1.723
		c-0.883-4.115,7.337-3.666,10.158-4.029c4.997-0.643-3.564,9.406-1.781,8.97c-2.435,0.596-5.04,0.662-7.583,0.915
		c-0.207-0.241-0.412-0.48-0.618-0.721c0.105,2.837-1.19,4.735-3.89,5.693c-5.733-0.769-30.949-0.799-27.066-6.096
		c0.538-0.737,1.444-1.268,2.254-1.945c-5.623-1.39-12.79,8.152-16.395,11.211c-5.822,4.95-24.865,1.177-31.323,0.367
		c-28.139-3.525-69.111-1.171-94.762-10.893c-1.692-0.643-1.571-3.356,0.125-4.557c4.921-3.485,27.106-7.712,32.414-4.023
		c-1.689,0.607-2.987,1.078-4.29,1.54c4.595-1.625,36.61-1.618,42.157-0.952c0.105,2.501-0.848,4.416-2.859,5.745
		c0.159,0.192,0.318,0.386,0.478,0.579c7.84-1.961,26.615-13.342,31.419-13.592c0.168-1.918-0.526-3.444-2.082-4.582
		c-41.336-7.678-70.928,18.444-109.177-3.81c-18.62-0.234-32.511,5.275-52.621,2.953c-29.71-0.076-55.327,14.138-86.772,7.837
		c2.061,5.328-130.215-9.471-139.57-16.534c4.893-3.258,31.242-8.378,38.37-9.405c4.453-0.643,5.603,5.066,8.704,3.748
		c2.65-1.127,5.324-2.213,8.518-3.535c-2.955-0.781-12.212-7.283-3.077-6.733c13.943,1.22,24.534-4.018,38.595-5.442
		c-1.591-2.946-1.281-5.49,0.924-8.021c-2.583,2.963-28.745-1.368-32.245-3.494c1.334-1.008,2.346-2.214,3.036-3.619
		c-1.462-4.583-14.091,3.183-16.261,3.263c-6.759,0.25-10.05-7.723-0.951-7.53c20.366,0.433,34.216-6.477,54.154-8.369
		c14.891-1.416,17.751-7.401,1.211-5.819c-2.952,0.282-4.412-1.224-5.263-3.399c-0.81-2.071,22.897-6.765,23.661-5.733
		c-0.383,1.55-1.436,2.607-3.157,3.173c0.193,0.304,0.386,0.607,0.578,0.911c33.587-18.843,79.622-4.485,113.342-12.37
		c-0.627-1.053-0.773-2.167-0.436-3.345c22.65,1.536,46.999-2.654,71.275-2.654c0.279-0.999,0.419-1.561,0.594-2.115
		c3.837-12.17,77.601,7.669,90.941,4.745c35.403-7.758,96.05-7.831,132.17-3.27c0.362-1.271,0.05-2.475-0.938-3.611
		c5.038-0.478,9.594,0.968,13.667,4.335c3.007,1.205,15.736-2.535,19.945-3.058c15.895-1.976,35.069,4.181,51.133,5.667
		c10.181,0.941,52.681-3.85,55.572-6.956c-0.737,0.792-1.977,1.224-2.628,2.292c9.599,0.837,16.154-6.018,24.382-0.945
		c0.225-0.187,0.45-0.374,0.675-0.56c-0.465-0.603-1.003-1.173-1.37-1.818C682.507-5.084,713.898,7.752,712.447,7.601
		C713.925,10.434,706.081,6.937,712.447,7.601z M685.097,15.459c-0.082,10.536,19.588-4.183,4.227-4.413
		C686.955,11.011,685.118,12.931,685.097,15.459C685.078,17.872,685.118,12.931,685.097,15.459
		C685.015,25.995,685.118,12.931,685.097,15.459z M664.252,13.569c0.064,0.264,0.132,0.527,0.197,0.791
		c4.781-0.606,9.562-1.212,14.343-1.82c-0.062-0.413-0.129-0.826-0.19-1.239C673.887,12.536,668.667,10.308,664.252,13.569
		C664.316,13.833,668.667,10.308,664.252,13.569C664.316,13.833,668.667,10.308,664.252,13.569z M58.288,76.252
		c1.731,1.426,3,3.293,4.619,3.564c1.539,0.261,3.444-1.146,5.128-1.797C64.383,76.748,61.94,74.261,58.288,76.252
		C60.019,77.678,60.507,75.042,58.288,76.252C60.019,77.678,60.507,75.042,58.288,76.252z M473.479,100.08
		c3.166-1.418,5.852-2.622,8.646-3.875c-3.607-1.463-6.374,1.302-10.104,1.211C472.679,98.619,473.142,99.463,473.479,100.08
		C476.645,98.662,473.142,99.463,473.479,100.08C476.645,98.662,473.142,99.463,473.479,100.08z M146.468,23.61
		c4.042,1.263,6.333,0.875,7.717-1.179C149.052,21.847,148.358,21.942,146.468,23.61z M404.42,121.281
		c2.707,0.048,5.094,1.318,7.633-0.379C408.994,118.805,407.092,118.875,404.42,121.281z M711.523,13.821
		c-0.897-2.413-2.499-3.129-5.531-2.475C706.331,13.761,707.704,14.375,711.523,13.821z M42.279,82.37
		c0.118-0.269,0.235-0.536,0.352-0.804c-1.505-2.162-3.238-2.562-5.198-1.199C39.048,81.035,40.664,81.702,42.279,82.37
		C42.397,82.102,41.09,82.214,42.279,82.37z M130.821,25.461c1.443-0.953,2.673-1.764,4.121-2.72
		C131.339,21.588,130.434,22.178,130.821,25.461z"/>
	<path fill="#478CCA" d="M712.537,7.668c-2.42-1.58-5.225-3.262-5.951-5.816c4.517-0.13,44.741,8.634,37.338,13.636
		c-4.92,3.357-27.012-6.806-31.479-7.888C712.447,7.601,712.537,7.668,712.537,7.668z"/>
	<path fill="#478CCA" d="M75.464,57.637c4.222,0.489,7.182-0.694,11.347-0.52c4.203,0.178,2.351,4.886-0.716,5.015
		c-3.116,0.13-6.325-0.071-9.362-0.668c-0.938-0.184-1.441-2.062-2.144-3.165C74.88,58.078,75.172,57.858,75.464,57.637
		C79.686,58.126,75.173,57.858,75.464,57.637z"/>
	<path fill="#478CCA" d="M372.128,103.557c1.965-3.964,4.978-6.311,9.039-7.039c5.533-1.433,4.138,5.606,1.678,5.139
		C378.888,100.902,375.885,103.557,372.128,103.557C372.199,100.146,372.667,103.557,372.128,103.557
		C372.199,100.148,372.667,103.557,372.128,103.557z"/>
	<path fill="#478CCA" d="M42.163,74.252c-3.619-4.041-1.716-5.671,3.045-3.016C44.378,72.059,43.55,72.88,42.163,74.252
		C40.934,72.88,43.55,72.88,42.163,74.252C38.544,70.211,43.55,72.88,42.163,74.252z"/>
</g>
<g class="path_bg">
	<path d="M401.376,173.83c1.368-2.512,2.476-5.328,4.269-7.588c1.976-2.492,27.615,3.592,27.477-1.954
		c0.062,2.826,26.678-0.472,28.751-0.582c1-0.056,2.036,0.562,3.411,0.981c3.146-2.582,2.756-5.201,4.55-8.522
		c1.909,4.326,11.716,8.278,8.741,3.714c-0.727-1.115-1.868-1.99-2.425-3.168c-4.466-9.438,14.723,5.196,16.109,5.828
		c0.836-1.83,1.081-4.28,4.041-3.557c4.011,0.981,1.563,4.244,2.252,6.92c2.395-0.959,4.479-2.045,6.694-2.584
		c5.784-1.406,11.761,0.968,18.285-1.026c-0.09-0.343-0.18-0.685-0.268-1.026c-2.803,0-5.614,0.154-8.398-0.067
		c-1.285-0.104-2.966-0.621-3.618-1.556c-0.058-1.929,0.418-3.68,1.423-5.254c0.886-0.869,1.907-2.242,2.86-2.23
		c3.028,1.388,5.625,3.38,7.789,5.977c1.271,1.073,0.438-6.135,1.696-6.697c2.346-1.049,5.33-1.099,7.974-0.86
		c4.839,0.437,17.637,3.458,22.468,0.916c7.069-3.724,10.058,5.58,14.074,3.407c3.433-1.867-0.389-5.709,4.704-5.896
		c26.521-0.96,51.697-1.125,77.986-1.438c10.612-0.129,22.397,8.906,32.105,5.178c3.663-1.406,7.515-2.354,11.345-3.237
		c3.126-0.723,17.479,11.636,21.404,13.793c3.854-4.396,7.181-4.622,12.229-0.634c3.677,2.905,5.69,0.014,7.005,5.824
		c0.922-0.988,1.636-1.729,2.319-2.496c1.931-2.165,4.032-2.162,6.159-0.368c2.877,2.429,19.875,7.294,23.574,7.709
		c7.823,0.879,3.475,5.171,6.157,10.194c0.91,1.703,7.828,16.205,7.524,16.076c8.449,3.613,14.998,4.16,5.448,11.996
		c-5.178,4.25-7.492,8.164-12.779,11.076c1.412,0.336,2.303,0.354,2.962,0.76c6.433,3.953-9.491,5.771-11.033,6.322
		c1.062,0.971,1.896,1.57,2.526,2.34c3.005,3.666,10.604-4.791,15.833-0.561c4.016,3.248-7.42,6.104-6.771,5.982
		c-2.016,0.377-4.192-0.143-6.335-0.269c0.413,4.631-1.293,6.252-5.065,4.907c-0.79-0.28-1.644-1.27-1.861-2.096
		c-0.443-3.297-0.734-6.604-0.874-9.93c-1.961-0.359-4.096-0.751-6.69-1.229c1.534,2.234,3.516,3.867,3.329,5.189
		c-0.759,5.403-12.176,8.236-13.553,14.202c-1.446,6.226-14.596-1.612-14.522,1.166c0.169,1.901,1.338,2.931,3.508,3.091
		c0.748,0.539,1.229,1.457,1.83,2.207c-1.444,1.151-6.206,6.532-7.621,6.479c-3.975-0.151-1.828-4.868-6.071-3.254
		c-2.54,0.968-5.485-2.387-8.405-2.439c-3.289-0.061-6.494-1.749-9.907-0.316c-0.668,0.281-2.019-0.398-2.719-1.021
		c-2.788-2.472-3.036-2.466-5.241,1.356c6.675,1.226,13.73-0.153,19.93,3.807c-2.005,0.468-4.227,0.54-5.948,1.516
		c-9.835,5.562-12.716,4.885-23.389-0.824c-0.941,1.185-2.227,2.385-2.992,3.86c-1.986,3.83-5.421-2.305-8.981-0.247
		c-0.238,1.557-0.22,3.106,0.06,4.65c-22.238,0.889-36.39-10.197-57.252-3.562c-4.032,1.279-4.484,1.176-4.056-3.586
		c-1.317,0.7-2.535,0.983-3.168,1.758c-1.441,1.769-3.264,1.83-4.61,0.647c-3.92-3.438-6.372-11.709-11.839-8.708
		c-9.726,5.343-35.56,0.415-47.191,1.271c-10.571,0.771-23.628,6.645-34.363,3.438c-3.367-1.005-3.754,6.295-8.825,4.949
		c-1.354-0.359-2.905-0.207-4.321,0.01c-3.166,0.486,0.592,6.146-3.192,7.438c-1.76,0.601-3.565,0.752-4.481-1.338
		c-1.14-2.592,2.501-8.482,2.962-11.545c2.039-13.988-53.862,7.444-58.481,10.264c-1.16,0.709-2.515,1.234-3.842,1.414
		c0.242-0.032-3.367-5.59-3.075-5.391c-2.618-1.791-5.26-3.668-8.148-4.892c-3.57-1.515-9.91,1.058-12.446-3.188
		c-2.608-4.359-14.969,4.654-15.724-5.049c-1.542,1.359-22.355,1.233-24.187-0.02c-1.388,0.931-2.972,1.734-4.199,2.917
		c-0.677,0.651-1.113,1.979-0.997,2.92c0.468,3.8,5.409,1.792,2.632,6.381c-1.624-1.156-2.372-3.978-4.659-3.61
		c-1.85,0.297-3.187,0.377-3.677,2.741c-0.551,2.657-5.269,3.243-7.819,1.222c-1.984-0.965-3.499-2.422-4.541-4.371
		c2.778-1.807,5.98-1.256,6.799-4.943c-3.012-0.137-5.866-0.075-8.663-0.444c-0.987-0.129-10.095-3.672-9.296-4.262
		c-2.833,2.084-6.832-0.103-9.596,3.101c-1.964,2.274-5.126-7.599-11.765-2.365c-3.45,2.72-6.69,2.08-8.975-1.783
		c-0.499-0.844-1.059-1.651-1.858-2.893c-1.885,3.865-4.759,4.444-8.153,3.998c-9.442-1.257-19.145,2.984-28.936,1.705
		c-0.409,5.549-6.869-2.669-7.382,3.312c-0.102,1.189-2.66,7.927-3.819,7.943c-4.534,0.058-3.894-3.918-8.016-5.168
		c-6.308-1.916-11.407-2.508-17.542-5.673c-0.047,0.938-0.095,1.878-0.142,2.822c-4.965,0.455-7.46,3.637-7.874,10.065
		c-0.297,4.623-4.7,6.873-8.627,4.455c-0.764-0.472-1.979-1.199-2.498-0.912c-3.304,1.836-6.417-0.114-9.602-0.207
		c-6.684-0.191-5.488-2.924-13.325-2.578c-4.358,0.199-0.303-7.521-7.389-5.834c-9.191,2.188-46.126,1.57-49.016-7.2
		c-2.202,1.3-4.312,2.719-6.586,3.774c-0.639,0.299-1.905-0.273-2.623-0.807c-0.674-0.499-1.005-1.471-1.657-2.505
		c-1.151,0.879-2.065,1.673-3.072,2.319c-5.966,3.832-1.925-9.61-2.106-8.702c-1.83,0.519-3.674,1.515-5.456,1.411
		c-7.243-0.416-16.816-5.086-23.766-5.071c-8.84,0.017-16.373,1.312-24.439-4.067c-2.818-1.88-1.598-6.268-5.713-5.076
		c-4.262,1.233-14.835,1.506-18.905,0.435c0.407-1.289,0.707-2.241,1.073-3.403c-0.443-0.193-0.882-0.566-1.299-0.542
		c-5.014,0.279-3.369-9.267-3.669-11.301c-0.603-4.067-11.937-2.571-14.439-2.834c-4.638-0.483-3.673-2.729-2.083-6.565
		c0.118-0.285,0.627-0.406,0.713-0.455c-3.429-1.625-6.987-2.438-10.675-2.442c-3.443,1.452-4.932-0.328-5.809-3.33
		c-0.222-0.763-0.5-1.506-1.002-3.002c9.812,3.666,22.199-0.011,32.165-0.964c-0.56-1.342-0.896-2.143-1.407-3.367
		c1.496-0.178,2.83-0.335,4.732-0.561c-0.667,1.041-1.04,1.623-1.505,2.351c2.778,3.091,5.488-1.526,7.903-2.117
		c5.338-1.305,7.876-12.925,10.983-12.389c2.46,0.424,4.845,1.296,7.226,1.985c1.819-6.041,2.986-6.285,8.32-2.76
		c3.208,2.12,6.51,4.609,10.108,5.446c4.888,1.135,14.812-4.681,19.128-6.306c0.339,0.795,0.72,1.69,1.122,2.633
		c3.474-2.858,3.749-4.241,2.326-8.991c-0.759-2.531-1.414-5.125-1.756-7.74c-0.139-1.073,0.672-2.274,1.051-3.417
		c3.896,1.395,6.179,5.147,10.316,5.737c3.342,0.478,5.699-1.535,5.621-4.914c-0.021-0.874,0.617-1.765,0.953-2.646
		c4.735,2.043,5.516,5.646,4.013,10.498c-0.17,0.551-0.393,1.086-0.59,1.625c0.226,0.17,0.453,0.34,0.68,0.51
		c0.963-1.555,2.1-2.971,3.409-4.246c2.104,2.117,2.322,3.767,5.159,4.346c0.347-1.812,0.126-3.579-0.662-5.297
		c1.562-0.4,3.15-1.21,4.677-1.105c4.27,0.285,5.005-11.306,10.963-8.496c0.967,0.457,1.715,1.408,2.523,2.181
		c2.04,1.944,9.607-0.21,12.52-0.21c0.777,1.404,2.09,3.781,3.601,6.516c2.481,0.512,5.466,1.771,8.333,1.538
		c2.733-0.222,5.341-2,8.519-3.306c2.339,0.931,5.513,2.189,8.638,3.432c6.224-6.417,15.877,10.284,23.428,1.803
		c2.689-2.803,5.744-3.832,9.163-3.089c1.223,0.882,2.221,2.153,3.12,3.404c3.61,5.014,10.66,0.446,14.509-1.603
		c2.227-1.188,6.63-0.752,8.386,1.121c1.239,1.32,2.549,2.617,4.021,3.641c1.662,1.154,6.41-4.971,7.337-0.426
		c0.013,0.061-3.064,4.231-3.195,4.672c3.043-0.176,3.813-3.125,6.922-0.924c3.672,2.601,3.382-5.5,7.623-5.451
		c5.164,0.062,2.069,8.308,8.591,8.472c3.303,0.083,3.47-4.065,4.515-6.241c3.966,4.072,10.008,2.654,13.377,6.332
		c2.733-0.309,5.297-1.201,7.692-2.678c3.328-0.005,6.94-1.706,10.07,1.044c0.995,0.874,18.439,0.92,20.833,1.487
		c3.668-6.93,4.636-0.074,10.029-2.567c5.766-2.662,11.544-5.095,18.116-4.032c1.125,0.184,3.461-9.595,3.72-10.789
		c4.072,2.102,7.151,5.082,9.342,9.145c0.213-0.124,0.427-0.249,0.641-0.374c0-11.724,7.698,0.298,11.372,0.528
		c-1.245-1.472-2.159-2.551-3.073-3.633c0.079-0.348,0.159-0.695,0.238-1.043c2.973-0.219,6.108-1.125,8.87-0.455
		C397.343,170.354,399.558,172.643,401.376,173.83C402.744,171.318,399.558,172.643,401.376,173.83z M92.377,196.967
		c-4.096-1.258-7.526-2.357-10.993-3.322c-2.694-0.746,3.335,7.938,9.338,5.33C91.194,198.77,91.468,198.102,92.377,196.967
		C88.281,195.709,91.468,198.102,92.377,196.967z M552.868,160.92c-3.151-0.852-6.007-1.846-3.493-5.589
		c-3.028,0.169-5.517,2.8-4.538,4.487C545.56,161.064,550.648,162.066,552.868,160.92
		C549.717,160.068,550.648,162.066,552.868,160.92z M212.448,248.825c2.728-3.757,2.915-2.255-1.449-6.806
		C208.226,245.689,207.895,244.427,212.448,248.825C213.543,247.316,210.804,247.236,212.448,248.825z M222.371,250.895
		c4.17-0.761-11.668,4.127-5.879,4.244C217.398,255.15,225.3,254.457,222.371,250.895
		C220.421,251.25,224.377,253.335,222.371,250.895z M258.105,251.646c-1.66-0.519-3.339-0.582-4.335-1.447
		c-2.013-1.751-2.222-0.338-2.547,0.414c1.533,2.025,2.755,3.64,3.919,5.178C255.935,254.68,256.911,253.316,258.105,251.646
		C256.445,251.128,256.911,253.316,258.105,251.646z M65.651,194.195c0.025,0.457,0.048,0.914,0.073,1.369
		c3.104-1.744,6.394,2.511,9.446-1.369C71.998,194.195,68.824,194.195,65.651,194.195C65.676,194.652,68.824,194.195,65.651,194.195
		z M54.742,193.377c-2.791-0.845-4.564,0.037-5.32,2.646c0.152,1.895,0.917,2.283,2.293,1.164
		C52.726,196.075,53.601,194.838,54.742,193.377C51.587,192.729,53.601,194.838,54.742,193.377z M142.013,173.389
		c0.606,0.281,1.213,0.562,1.82,0.846c3.004-2.783,3.05-4.59,0.136-5.42C143.318,170.34,142.666,171.863,142.013,173.389
		C142.619,173.67,142.666,171.863,142.013,173.389z M56.294,223.188c-0.354-0.181-0.708-0.359-1.061-0.539
		c-0.634,1.154-1.268,2.311-1.902,3.466c1.271,0.409,2.542,0.817,4.563,1.469C57.114,225.441,56.705,224.312,56.294,223.188
		C55.94,223.007,56.705,224.312,56.294,223.188z M40.621,224.025c0.266-0.077,0.532-0.154,0.798-0.233
		c0.783-2.423,0.015-3.974-2.305-4.651C38.529,221.068,39.031,222.697,40.621,224.025C40.887,223.948,40.053,223.206,40.621,224.025
		z M301.323,191.792c0.484,0.21,0.967,0.42,1.451,0.629c0.509-1.017,1.018-2.035,1.525-3.053c-0.655-0.327-1.311-0.654-1.966-0.982
		C301.997,189.521,301.66,190.656,301.323,191.792C301.808,192.002,301.66,190.656,301.323,191.792z M251.463,242.371
		c-2.391,1.434-2.471,2.816-0.238,4.15C253.177,245.286,253.256,243.902,251.463,242.371
		C250.548,243.449,252.117,243.453,251.463,242.371z M770.514,188.521c0.368-0.164,0.735-0.326,1.104-0.489
		c-0.642-1.675-1.28-3.349-1.92-5.022c-0.483,0.213-0.966,0.426-1.449,0.639C769.003,185.271,769.758,186.896,770.514,188.521
		C770.882,188.357,769.758,186.896,770.514,188.521z"/>
	<path fill="#478CCA" d="M336.713,263.283c-0.457,1.91-0.183,4.641-3.557,4.476c-2.525-0.122-4.612-2.723-4.222-5.438
		C329.678,257.152,337.057,257.797,336.713,263.283C336.256,265.193,336.897,260.354,336.713,263.283z"/>
	<path fill="#478CCA" d="M502.049,153.662c1.816,0.148,3.622,0.338,3.309,2.918c-0.239,1.977-0.777,3.732-3.31,3.497
		c-2.229-0.207-3.609-1.233-3.553-3.726C498.551,153.884,500.133,153.573,502.049,153.662
		C503.865,153.811,500.133,153.573,502.049,153.662z"/>
	<path fill="#478CCA" d="M494.943,153.914c-0.093,3.262-1.666,4.85-4.041,4.328c-1.008-0.223-2.249-1.612-2.479-2.672
		c-0.367-1.692,2.618-4.115,4.453-3.607C493.849,152.232,494.546,153.516,494.943,153.914
		C494.852,157.176,494.546,153.516,494.943,153.914z"/>
	<path fill="#478CCA" d="M487.086,269.891c1.327-0.255-12.957,3.18-7.529-2.562C483.057,263.625,484.661,267.333,487.086,269.891
		C484.797,270.33,486.183,268.938,487.086,269.891z"/>
	<path fill="#478CCA" d="M706.027,148.836c1.818,1.766,5.809,5.361,0.271,5.169c-2.072,0.326-3.308-0.53-3.708-2.565
		C703.523,150.301,704.669,149.432,706.027,148.836C707.426,150.191,704.492,149.943,706.027,148.836z"/>
	<path fill="#478CCA" d="M639.264,268.875c-1.277-1.373-2.062-2.215-2.847-3.057c1.779-2.654,3.554-2.602,5.324,0.158
		C641.065,266.77,640.388,267.561,639.264,268.875C637.985,267.502,640.388,267.561,639.264,268.875z"/>
	<path fill="#478CCA" d="M676.833,147.818c-1.535,0.957-2.396,1.926-3.056,1.8c-0.987-0.188-1.834-1.146-2.74-1.773
		c0.795-0.6,1.558-1.61,2.396-1.681C674.273,146.094,675.189,146.966,676.833,147.818
		C675.298,148.775,675.189,146.966,676.833,147.818z"/>
	<path fill="#478CCA" d="M688.233,148.264c-1.177,0.842-1.933,1.793-2.663,1.777c-0.569-0.016-1.628-1.318-1.535-1.896
		C685.371,145.846,686.771,145.885,688.233,148.264C687.058,149.104,687.188,147.389,688.233,148.264z"/>
</g>
<g class="path_bg">
	<path d="M340.461-141.253c5.591-0.581,6.527-6.244,12.762-1.762c6.247-0.706,12.771,1.405,18.619-2.065
		c3.112-1.851,16.765-1.343,19.682,1.685c-1.3-1.349,11.189-1.699,14.067-0.762c8.47,2.758,18.171,2.4,26.896,3.594
		c12.633,1.729,28.916,4.707,41.138,4.661c11.586-0.042,23.165-0.146,34.739,0.59c6.021,0.383,13.451,4.846,19.232-0.215
		c3.747,1.169,30.118,5.132,32.423,3.085c5.923-5.262,18.7,1.029,25.95-0.091c11.418-1.763,24.037-1.361,35.56-1.095
		c18.896,0.436,44.489,8.27,62.672,3.707c16.991-4.258,38.444,7.02,53.098-0.348c2.324-1.169,16.231-6.772,17.236-4.592
		c2.119,4.599-10.57,14.435-13.219,17.252c7.778,0.754,6.924,10.825,15.471,10.295c8.074-0.502,8.242-3.424,14.658-1.369
		c4.495,1.441,16.559,3.026,15.971,10.433c-0.74,9.314-11.539,6.309,0.351,12.866c15.155,8.356-20.484,16.266-19.986,23.255
		c0.662,9.268,25.262-0.209,6.334,16.316c9.199-3.488,6.171,8.769,2.881,11.837c-10.35,9.655-21.424,8.382-31.564,1.155
		c-2.209,1.645-3.598,3.196-5.299,3.835c-11.193,4.207-26.771,6.941-38.895,8.056c-8.146,0.75-14.317,0.809-22.83,0.411
		c-3.789-0.178-10.569-4.014-3.24-6.02c2.793-0.767,3.064-3.125,3.258-5.947c-1.693,0.235-7.906,1.964-9.35,3.068
		c-4.931,3.771-7.826-1.105-12.393,0.999c-7.111,3.274-18.287,1.202-24.371,5.728c-4.855,3.611-23.229,2.803-27.843-0.304
		c-7.484-5.042-13.229-3-21.203-2.488c-2.92,0.187-12.926-2.612-14.604-4.383c4.737-3.971,28.59-4.701,28.59,0.452
		c2.688-0.708,5.1-1.343,7.512-1.979c0.019-0.344,0.034-0.688,0.052-1.033c-5.574-3.596-13.873-1.066-18.729-4.854
		c-2.378-1.854,0.355-4.493-3.738-4.638c-8.766-0.311-14.054,1.707-22.276,2.547c-5.646,0.577-6.158-3.326-10.65-4.286
		c-4.684-1.001-14.934,4.283-20.35,4.287c-6.331,0.004-12.951,0.534-19.076-1.3c0.01-0.402,0.02-0.803,0.029-1.205
		c2.104-0.545,4.209-1.091,7.092-1.837c-0.057-0.007-13.262-3.244-11.966-4.494c-3.554,3.427-17.084,3.579-21.646,3.784
		c-2.576,0.115-6.49,2.642-9.824,2.912c0.015,0.277,0.028,0.553,0.043,0.83c2.126-0.607,3.771,0.052,4.935,1.978
		c-4.695,5.128-18.241-2.822-20.584,5.856c0.276-0.031,12.367-0.628,7.844,2.353c-1.93,1.271-4.209,2.655-6.365,2.705
		c-8.893,0.208-29.857,4.628-36.476-1.87c4.866-4.82,16.625-2.985,23.095-3.464c1.789-0.133,8.924-5.678,9.981-7.253
		c-2.726-1.078-27.481,1.298-22.348-5.369c1.898-2.468-1.016-3.203-2.686-4.654c1.762-2.452,4.19-3.272,7.287-2.462
		c-4.207-0.539-13.394,0.093-16.795-2.912c-3.369-2.972-6.462-5.206-10.285-7.609c-0.313,0.126-0.949,0.461-1.622,0.638
		c-3.384,0.889-13.771-3.892-15.493-6.544c-1.711-2.641-26.845-0.904-30.852-1.053c-11.199-0.414-23.414-0.875-34.481,1.092
		c-5.392,0.958-13.513,4.84-18.846,4.257c-1.716-0.188-2.674,0.523-2.687,2.861c2.732,0.167,5.377,0.331,8.201,0.503
		c-7.674,9.979-13.618,3.716-11.24,19.118c0.731,1.516,1.452,3.037,2.162,4.564c-9.23,3.485-22.873,0.882-32.723,0.871
		c-4.371-0.004-14.965-3.887-18.956-1.269c-8.459,5.545-17.116,0.171-22.735-5.546c1.974,8.475-30.838,7.205-35.559,7.27
		c-2.701-1.108-5.145-2.693-7.33-4.756c-3.305-1.529-3.384-1.342-3.333-5.52c-1.573,0.582-3.425,0.677-4.125,1.666
		c-4.19,5.912-2.439,11.008-11.624,12.607c-5.184,0.903-14.009,5.925-18.6,3.005c0.161,0.102-12.465,0.917-12.219,0.797
		c-5.269,2.555-11.193-0.704-16.253,2.806c-1.202,0.835-5.469-1.868-5.558-3.343c-0.23-3.818,5.926-1.259,6.458-6.112
		c-5.027,0.418-8.925,1.102-13.402-1.498c4.981-2.418,10.522-2.127,15.876-3.158c1.013-0.196,1.774-1.83,2.653-2.803
		c-8.899-2.602-16.311,1.129-24.37,2.164c0.451,1,0.801,1.77,1.198,2.646c-0.508,0.144-0.901,0.345-0.968,0.261
		c-2.058-2.575-11.264-4.403-12.694-1.447c2.787,0.778,6.057,0.821,5.345,4.997c-0.352,2.062-0.95,4.137-1.817,6.014
		c-0.366,0.792-1.704,1.089-2.603,1.611c-1.543-2.076-1.522-3.989,0.064-5.74c-1.152,0-14.685,1.47-14.541-1.817
		c0.132-3.075-8.776-5.782-5.697-8.775c1.662-1.615,3.361-2.859,5.854-2.464c9.588,1.521,19.412-2.517,28.938-2.744
		c-1.222,0.029,8.804-3.431,6.413-1.452c5.699-4.697,17.06-1.909,23.86-5.824c-1.794-2.542-4.22-3.302-7.274-2.281
		c-0.771-0.087-1.474-0.855-2.206-1.317c0.56-0.859,0.954-2.213,1.708-2.49c3.268-1.203,7.028-1.525,10.024-3.365
		c-6.846-9.02,15.384-9.901,21.151-11.065c-0.672-0.285-1.227-0.46-1.725-0.745c-1.59-0.912-2.05-2.579-0.669-3.57
		c4.428-3.179,9.785-1.609,13.8-5.212c0.099-1.363,0.244-3.34,0.935-3.578c1.309-0.45,2.931,0.095,4.424,0.228
		c-0.305,1.468-0.605,2.938-1.013,4.911c1.22,1.81,7.817-1.067,8.758-3.155c1.295-1.343,2.438-2.815,3.429-4.418
		c-2.219-0.478-3.966-1.71-5.244-3.7c-0.448-1.712,0.925-2.596,2.407-2.41c1.415,0.178,2.772,0.869,4.262,1.37
		c0.838-0.936,1.757-1.962,3.025-3.379c-6.104,0-17.127,0.398-22.609-1.731c-0.072-0.028-0.24,0.219-0.078,0.063
		c-1.074,6.583-38.8,14.492-41.224,7.399c-0.204-0.594,0.12-1.702,0.589-2.177c2.002-2.028,4.098-4.025,7.174-1.928
		c4.023,2.749,23.916-1.282,28.144-2.6c-5.261-8.741,17.48-5.19,21.826-6.503c-0.065-0.327-0.13-0.654-0.193-0.981
		c-3.041-0.307-19.583-1.101-19.369-1.211c3.838-1.987,29.36-3.198,29.313-5.101c-0.14-5.614,7.668,2.379,9.037,0.952
		c2.546-2.65,7.852,0.15,9.494-2.583c2.878-4.779,4.297-10.485,11.337-8.062c3.114,1.073,6.561-0.463,9.649-1.108
		c1.055-1.871,2.164-3.708,3.326-5.509c2.333-7.705,8.16,3.205,10.363-3.757c2.604,3.562,2.628,3.52,6.644,1.704
		c4.218-1.908,8.238,0.916,7.102-5.445c-0.081-0.451-0.188-0.92-0.394-1.317c-2.23-4.302,18.236-5.889,21.215,1.26
		c3.898,9.348,21.086,6.039,27.854,2.265c-1.547-4.391,16.33-7.906,20.936-8.965C337.775-145.891,338.972-145.046,340.461-141.253
		C340.886-141.298,338.972-145.046,340.461-141.253z M213.896-99.425c-0.287-4.369-0.704-4.57-3.763-3.219
		c-3.475,0.504-6.783,1.577-9.927,3.219C204.761-99.425,209.312-99.425,213.896-99.425
		C213.609-103.794,209.312-99.425,213.896-99.425z M243.111-108.737c-6.328-0.305-12.654-0.61-18.979-0.915
		c-0.014,0.358-0.027,0.717-0.041,1.076c6.338,0,12.673,0,19.011,0C243.104-108.629,243.107-108.683,243.111-108.737
		C236.783-109.042,243.107-108.683,243.111-108.737z M228.613-103.98c-1.066,1.007-1.916,1.81-3.138,2.964
		C228.769-99.907,229.315-100.484,228.613-103.98z"/>
	<path fill="#478CCA" d="M56.52-66.571c-4.195,3.212-5.104,7.195-11.006,6.538c-5.35-0.597-10.043,3.982-15.287,1.565
		c-1.739-0.802-8.485-1.128-9.184-3.201c-2.775-8.207,26.637-5.576,26.711-5.822c0.356-1.185,0.437-2.462,0.762-4.549
		c-1.665,0.566-2.932,0.735-3.897,1.389c-1.311,0.884-2.219,1.053-3.508-0.115c-7.102-6.445-21.375,1.293-28.436-5.436
		c1.58-1.204,2.876-2.685,3.883-4.442c0.488-1.543,0.624-3.209,0.98-5.244c-1.527-1.155-1.741-2.659-0.64-4.512
		c-8.939,0.055-27.02,1.56-9.599-6.639c7.108-3.346,22.462-9.711,30.178-8.816c4.689,0.544,29.209-0.96,31.205,1.168
		c5.324,5.675,2.478-10.898,2.796-12.472c-0.345-0.184-0.692-0.366-1.039-0.549c-9.031,11.084-17.372,5.084-29.299,6.491
		c-7.047,0.831-17.569,9.077-23.414,6.148c0.431-0.71,0.718-1.79,1.324-2.055c2.488-0.331,4.796-1.169,6.924-2.515
		c-4.188,0.421-8.303,1.75-12.192-0.219c6.338-9.754,39.291-10.07,50.533-11.412c-1.077-2.354-2.694-4.871,0.022-5.667
		c4.715-1.38,50.097-9.758,47.692-5.22c-1.269,2.394-10.447,4.509-12.338,4.597c-4.029,0.19-3.787,13.483-3.608,16.062
		c1.706-1.148,3.308-2.385,4.229-4.038c1.671-2.996-1.084-10.977,4.006-11.053c3.771-0.056,6.832-1.201,9.287,2.945
		c-0.031-5.684,8.046-8.315,11.042-3.338c1.298-1.12,4.302-2.811,5.752-0.479c2.223,3.572,1.759,7.137-1.159,10.248
		c-0.476,0.505-0.873,1.086-1.284,1.602c7.6,9.701-24.035,5.972-26.819,7.308c0.046,0.729,0.345,1.327,0.896,1.788
		c3.179,2.971,2.963,4.602-1.043,6.365c-5.931,2.61-14.368,2.965-19.938,2.367c-2.856-0.307-14.87-2.58-16.22-0.378
		c-0.932,1.515-1.813,3.151-3.057,4.348c-3.933,3.788-8.697,5.458-13.188,0.527c-0.842,1.866-1.573,3.486-2.531,5.608
		c5.482-0.415,7.688,4.729,1.319,6.306c-5.341,1.322-9.309-3.7-14.368-1.078c-1.912,0.991-10.774,2.415-10.274,5.254
		c2.368-0.127,4.633-0.679,6.797-1.654c1.662-1.324,3.131-1.599,4.682,0.103c0.283,0.31,0.976,0.707,1.121,0.587
		c2.265-1.864,24.215-5.211,22.395-0.732c-0.531,1.307-1.918,2.233-3.192,3.588c0.147,0.181,0.675,0.831,0.867,1.066
		c7.4-3.418,9.173-10.782,16.265-4.233c0.374-1.555,0.321-3.326,0.988-3.706c1.707-0.969,9.126-2.092,11.065-0.592
		c3.539,2.743-3.431,4.044-4.468,4.044c4.113,1.585,22.218,6.087,22.9-3.132c0.615-8.331-19.979-1.237-25.544-5.815
		c-10.179-8.367,22.874-5.09,24.838-5.018c3.553,0.132,25.895-11.061,25.579-0.178c-0.049,1.59,3.425,4.597-0.82,4.836
		c-6.167,0.349-12.769-0.369-18.545,2.132c0.067,0.295,0.136,0.59,0.203,0.886c2.816,0,13.359-1.67,14.734,1.748
		c0.149,0.368-0.535,1.584-0.95,1.647c-5.552,0.832-10.869,1.151-16.481,1.151c4.771,2.528,7.731,2.314,12.52,3.385
		c-1.415,4.593-3.27,4.884-7.566,5.782c-0.018,0.35-0.033,0.699-0.051,1.049c0.972,0.174,2.376,0.863,2.837,0.435
		c1.331-1.232,8.62-3.078,9.248,0.259c0.206,1.1-0.209,2.562-0.849,3.507c-2.386,3.518-22.313,1.593-27.735,2.441
		c-0.043-0.257-0.087-0.515-0.132-0.773c-1.156,0.736-2.31,1.472-3.897,2.483c2.703,0,14.135,1.873,14.113,6.377
		c-0.002,0.636-0.842,1.579-1.509,1.831c-1.109,0.42-2.371,0.396-2.932,0.471c-0.299,2.507-1.851,7.499-4.416,2.37
		c-2.823-5.637-10.029,1.824-13.28,2.006c-4.12,0.229-7.196-2.69-10.694-4.313c-4.519-2.099,16.489-2.675,9.248-6.842
		c-1.955-1.038-3.933-1.271-5.936-0.701c-0.165-0.288-0.33-0.577-0.497-0.864c0.638-0.458,1.373-0.827,1.869-1.415
		c0.415-1.402-0.06-1.92-1.423-1.556c-1.454,0.745-3.037,1.397-4.22,2.499c-2.655,2.469-4.829,2.159-6.743-0.92
		c-3.147,5.169-2.888,6.049,1.812,8.032c0.704,0.297,1.662,1.659,1.491,2.123c-1.297,3.53-11.965,4.188-12.071,0.633
		c0.26-1.804,1.159-2.859,2.701-3.167C56.886-58.903,56.727-62.21,56.52-66.571C55.08-65.47,56.727-62.21,56.52-66.571z
		 M126.326-115.189c-6.084-7.028-10.875-1.87-16.723-5.833c-1.275-0.864-5.015,2.946-5.528,5.467c4.84,0.888,5.532-2.989,9.789-3
		C117.372-118.564,122.432-115.582,126.326-115.189C124.43-117.38,122.746-115.55,126.326-115.189z M87.415-115.338
		c-3.446,2.198-6.688,4.267-10.532,6.72C85.062-107.554,86.679-107.773,87.415-115.338z M93.923-127.568
		c-1.91,0.328-14.259,3.285-14.432,3.165c2.927,2.026,11.312-1.166,14.604-1.645C94.04-126.555,93.981-127.062,93.923-127.568
		C92.16-127.265,93.981-127.062,93.923-127.568z M101.841-69.902c2.273,0,3.968,0,5.663,0
		C105.692-71.304,103.934-71.899,101.841-69.902z"/>
	<path fill="#478CCA" d="M541.345-33.728c-0.38-1.609-0.276-3.615-1.142-4.319c-2.967-2.418-18.122,3.022-20.451,5.282
		c-4.421,4.292-9.842-4.053-15.248-0.436c-0.96,0.642-2.051,1.208-2.754,2.093c-4.234,5.334,22.424,6.244,24.996,6.817
		c2.999,0.668,23.188-0.259,20.6-4.858C545.684-32.098,543.946-33.287,541.345-33.728C540.965-35.337,543.946-33.287,541.345-33.728
		z"/>
	<path fill="#478CCA" d="M182.254-122.624c-2.23,9.23,26.119,6.361,21.64-1.01c-0.275-0.453-0.62-0.859-1.037-1.429
		c2.107-2.333,3.719,0.628,4.936,0.282c-0.088,1.402-0.666,3.09-0.1,3.97c2.854,4.441,8.205-8.171,9.053-9.551
		c-6.314-3.514-7.895,2.93-12.775,1.83c-3.377-0.765-3.687-0.448-2.913,3.235c-8.257,1.233-16.489-10.731-25.026-2.569
		c-0.87,0.833-1.877,2.108-1.85,3.167C174.256-121.733,182.496-122.624,182.254-122.624
		C181.343-118.847,180.303-122.624,182.254-122.624z"/>
	<path fill="#478CCA" d="M342.07-29.997c24.46,0,14.209-7.667-3.51-6.141c-17.886,1.54-12.025,5.997,3.51,5.997
		C342.07-30.094,342.07-30.045,342.07-29.997C346.48-29.997,342.07-30.045,342.07-29.997z"/>
	<path fill="#478CCA" d="M474.255-29.699c-1.003,1.679-5.075,4.74-5.339,6.339c0.643,1.501,1.729,1.718,3.254,0.65
		c3.898-11.211,17.587-1.562,23.739-6.499c1.355-0.668,2.503-1.625,3.437-2.872c-3.369-3.096-29.475-3.387-29.127,0.043
		C470.889-30.211,472.234-29.432,474.255-29.699C472.986-27.575,472.979-29.97,474.255-29.699z"/>
	<path fill="#478CCA" d="M26.813-36.32c2.58-0.701,5.128-1.705,7.75-2.012c2.286-0.268,4.763-0.136,6.964,0.522
		c2.453,0.733,4.427-0.261,4.244-2.998c-0.089-1.349-0.5-2.745-1.062-3.969c-0.087-0.188-20.744,2.968-22.322,3.997
		c-0.783,0.51-1.312,1.45-1.949,2.204c0.753,0.609,1.441,1.582,2.272,1.744c1.263,0.248,2.626-0.067,3.947-0.143
		C26.709-36.757,26.762-36.538,26.813-36.32C29.394-37.021,26.762-36.538,26.813-36.32z"/>
	<path fill="#478CCA" d="M34.07-52.99c8.329,8.986,14.775-1.542,17.118-3.339C45.905-52.285,38.787-57.589,34.07-52.99
		C35.461-51.49,34.802-53.703,34.07-52.99z"/>
	<path fill="#478CCA" d="M65.225-41.039c-15.285,0.146,4.954,15.333,5.565,6.192C71.044-38.607,68.803-41.073,65.225-41.039
		C61.204-41,68.803-41.073,65.225-41.039z"/>
	<path fill="#478CCA" d="M128.797-74.376c4.922,0.673,7.064-5.786,3.663-5.397c-3.285,0.375-6.574,0.891-9.795,1.659
		c-1.864,0.444-2.703,2.896-1.812,4.703c1.055,2.138,2.356,0.927,3.747,0.268C125.909-73.765,127.391-73.982,128.797-74.376
		C132.285-73.899,127.391-73.982,128.797-74.376z"/>
	<path fill="#478CCA" d="M383.889-33.974c-0.9,0-6.053-0.586-6.109,2.242c-0.193,9.235,17.965,0.802,10.042-2.015
		c-1.187-0.421-2.608-0.106-3.931-0.106C383.891-33.894,383.889-33.934,383.889-33.974
		C382.563-33.974,383.889-33.934,383.889-33.974z"/>
	<path fill="#478CCA" d="M162.074-117.821c2.577-0.09,4.399-0.382,4.047-3.424c0.615-1.229,1.233-2.457,1.854-3.682
		c-1.626-0.868-3.188-1.97-4.91-2.479c-2.405-0.712-4.077,6.448-4.069,6.402c-0.147,0.873,0.371,2.158,1.009,2.793
		C160.519-117.697,161.665-117.88,162.074-117.821C164.651-117.911,161.665-117.88,162.074-117.821z"/>
	<path fill="#478CCA" d="M222.767-126.715c3.576-0.86,6.559-1.508,9.502-2.309c1.833-0.498,3.232-1.756,2.242-3.826
		c-1.026-2.138-3.318-1.472-4.331-0.387c-1.596,1.709-10.531,0.793-9.779,4.165C220.614-128.12,221.983-127.451,222.767-126.715
		C226.343-127.575,221.983-127.451,222.767-126.715z"/>
	<path fill="#478CCA" d="M143.781-111.98c2.003,0.318,5.849,1.777,6.572-1.528c1.342-6.141-10.263-5.424-9.07,1.003
		c0.093,0.506,1.497,0.746,2.308,1.106C143.653-111.593,143.717-111.787,143.781-111.98
		C144.639-111.844,143.717-111.787,143.781-111.98z"/>
	<path fill="#478CCA" d="M396.809-34.583c-2.232,0.363-4.437,0.302-4.958,3.067c-0.167,0.89,0.192,2.27,0.805,2.86
		C394.632-26.753,406.057-30.564,396.809-34.583C394.575-34.22,398.04-34.048,396.809-34.583z"/>
	<path fill="#478CCA" d="M500.676-34.949c2.018,0,4.047,0.145,6.041-0.074c0.746-0.083,1.406-1.012,2.105-1.556
		c-0.704-0.633-1.355-1.716-2.124-1.818c0.63,0.084-10.389-2.206-10.268,1.614c0.08,2.507,2.732,2.095,4.246,1.966
		C500.677-34.861,500.677-34.905,500.676-34.949C502.692-34.949,500.677-34.905,500.676-34.949z"/>
	<path fill="#478CCA" d="M143.236-79.728c-2.426-0.53-5.186-1.376-5.777,2.188c-1.002,6.029,7.015,1.613,8.467-0.015
		c0.474-1.875-0.37-2.782-2.532-2.719C143.341-80.092,143.288-79.91,143.236-79.728C142.474-79.895,143.288-79.91,143.236-79.728z"
		/>
	<path fill="#478CCA" d="M48.962-40.209c0.328,4.451,6.993,3.897,9.338,1.593c0.394-0.387,0.409-1.751,0.052-2.254
		C56.675-43.247,50.278-42.441,48.962-40.209C49.148-37.67,49.271-40.732,48.962-40.209z"/>
	<path fill="#478CCA" d="M417.545-36.411c-2.439-0.647-4.26,0.029-5.457,2.027c-0.5,2.141,11.541,3.408,11.292-0.166
		C422.037-36.575,420.092-37.196,417.545-36.411C416.299-36.293,419.099-36.317,417.545-36.411z"/>
	<path fill="#478CCA" d="M173.876-122.152c-1.425,0-4.22-0.578-4.117,2.042c0.163,4.11,7.719,1.549,9.268,0.385
		c-0.498-0.699-0.864-1.74-1.525-2.019c-1.1-0.464-2.39-0.44-3.598-0.622C173.894-122.295,173.886-122.223,173.876-122.152
		C173.61-122.152,173.886-122.223,173.876-122.152z"/>
	<path fill="#478CCA" d="M121.308-135.416c-1.982,1.256-4.67-0.201-5.16,2.739c-0.728,4.366,8.532,3.329,7.202-0.662
		C123.064-134.196,121.984-134.764,121.308-135.416C119.325-134.16,121.984-134.764,121.308-135.416z"/>
	<path fill="#478CCA" d="M113.996-103.74c2.868,2.512,1.41,2.159,5.698-2.4C117.12-108.627,114.018-108.777,113.996-103.74
		C114.382-103.401,114.008-106.545,113.996-103.74z"/>
	<path fill="#478CCA" d="M164.157-106.302c0.64-0.79,1.493-1.417,1.646-2.196c0.275-1.419-7.212-6.331-7.431-2.404
		C159.452-108.459,161.382-106.926,164.157-106.302C164.797-107.092,162.297-107.415,164.157-106.302z"/>
	<path fill="#478CCA" d="M69.053-90.296c0.962-0.118-7.086-0.076-6.407,2.63C64.047-82.074,68.764-87.472,69.053-90.296
		C67.269-90.078,68.679-86.654,69.053-90.296z"/>
	<path fill="#478CCA" d="M123.513-67.345C130.521-61.804,131.514-74.256,123.513-67.345
		C125.205-66.007,125.304-68.893,123.513-67.345z"/>
	<path fill="#478CCA" d="M138.407-129.825c-1.397,1.351-2.428,2.347-3.457,3.343c3.038,2.869,1.733,2.803,6.484-0.655
		C140.606-127.871,139.778-128.606,138.407-129.825C137.01-128.474,139.778-128.606,138.407-129.825z"/>
	<path fill="#478CCA" d="M134.341-114.539c1.505-1.491,2.583-2.56,3.661-3.628c-3.014-2.682-1.814-2.818-5.979,0.991
		C132.637-116.478,133.251-115.78,134.341-114.539C135.846-116.03,133.251-115.78,134.341-114.539z"/>
	<path fill="#478CCA" d="M363.42-26.803c1.363-1.447,3.01-2.688,2.837-3.105c-0.5-1.211-1.73-2.092-2.673-3.102
		C360.017-29.286,360.827-30.108,363.42-26.803C364.783-28.25,362.25-28.292,363.42-26.803z"/>
	<path fill="#478CCA" d="M170.37-93.274C176.353-87.659,177.517-99.743,170.37-93.274C171.755-91.974,171.844-94.609,170.37-93.274z
		"/>
	<path fill="#478CCA" d="M581.619-36.192c0.919-0.891,1.539-1.492,2.158-2.093c-3.623-3.127-2.777-2.742-5.616-0.411
		C579.211-37.936,580.261-37.176,581.619-36.192C582.538-37.083,580.261-37.176,581.619-36.192z"/>
	<path fill="#478CCA" d="M562.043-28.386c1.98,2.55,3.734,2.187,5.26-1.088C564.58-31.755,565.623-31.886,562.043-28.386
		C563.27-27.512,563.338-29.652,562.043-28.386z"/>
	<path fill="#478CCA" d="M56.866-127.26c-1.008,1.189-1.57,1.854-2.135,2.519c-1.022-0.789,4.893,3.501,4.021,0.31
		C58.521-125.287,57.775-125.988,56.866-127.26C55.858-126.071,57.775-125.988,56.866-127.26z"/>
	<path fill="#478CCA" d="M130.565-68.976c0.723,0.431,4.726,3.333,4.615-0.225C135.07-72.764,131.081-69.349,130.565-68.976
		C132.147-68.032,132.066-70.059,130.565-68.976z"/>
	<path fill="#478CCA" d="M182.841-37.487c1.717,1.934,3.145,1.622,4.28-0.936C185.734-40.274,184.308-39.963,182.841-37.487
		C184.003-36.791,184.127-38.477,182.841-37.487z"/>
	<path fill="#478CCA" d="M15.722-62.249c1.409,1.908,2.776,1.935,4.1,0.08C18.564-64.058,17.197-64.084,15.722-62.249
		C16.796-61.504,16.821-62.943,15.722-62.249z"/>
</g>
<g class="path_bg">
	<path d="M99.709,390.333c1.238,2.806,2.524,3.183,5.495,1.782c2.092-0.985,4.284-1.819,6.922-2.928
		c-0.37,4.09,4.301,2.146,4.179,4.955c-1.372,2.056-3.622,2.698-6.75,1.931c-2.873-0.112-5.037,3.603-6.494,5.021
		c-1.521-2.883,3.768-4.551,0.234-7.14c-0.547,0.903-0.953,1.667-1.452,2.383c-3.368,4.842-5.735-2.217-8.993-0.071
		c-3.594,2.366-8.387,0.575-11.709,2.834c-2.124,1.446-4.977,0.928-5.389-1.341c-0.993-5.45,0.561-12.432,5.597-13.936
		c-1.215-1.738-2.795-6.389-5.584-5.943c0.387-0.896-3.213,9.418-5.986,4.633c-1.647-2.843-2.887-0.848-5.355-1.693
		c-0.348-1.092-0.124-2.165,0.668-3.229c-2.389,0.592-4.364,1.712-5.923,3.362c-1.064,0.409-2.465,0.409-3.665,0.267
		c-4.055-0.479-16.641,17.167-21.738,13.028c-1.067-0.865-0.958-4.325,0.048-5.112c1.301-1.021,2.641-2.005,3.536-2.681
		c-0.282-2.428-1.152-4.649-2.609-6.667c-1.902-0.26-3.835-0.366-5.484-0.5c1.167,2.155,2.188,3.898,3.062,5.697
		c1.688,3.47-2.451,3.747-5.04,4.171c0.548,2.294,1.81,4.316,3.784,6.077c0.356,0.81-0.609,2.036-1.051,3.286
		c0.66,0.184,5.119,1.858,2.558,2.563c-0.839,0.231-2.154,0.551-2.614,0.202c-1.612-1.223-3.293-1.755-5.472-1.931
		c-3.195-0.261,2.789-3.585,1.257-5.134c-0.675-0.683-2.438-0.885-3.674-0.818c-3.748,0.196-5.675-1.188-6.76-5.582
		c-1.617,0.719-3.099,1.376-4.812,2.137c1.922,1.35,2.436,2.979,1.541,4.896c-2.021-0.209-3.96-0.675-5.818-1.398
		c-2.323-0.524-2.896-1.676-1.095-3.029c3.66-2.749,0.71-5.944,4.299-8.017c0.464-0.271,1.73-0.073,2.207,0.304
		c2.408,1.901,2.533,1.923,4.526-0.847c-1.71-0.623-3.099-1.602-4.163-2.931c1.197-0.807,2.316-1.728,3.628-2.357
		c0.499-0.24,1.449,0.305,2.18,0.272c0.973-0.041,1.933-0.294,2.898-0.46c-0.829-1.116-1.246-2.325-1.251-3.633
		c1.334-1.406,2.86-2.686,4.39-4.073c0.445,1.69,1.614,2.372,3.506,2.043c0.561-0.143,0.252-4.08,1.245-5.062
		c3.277-3.241,6.557-1.248,9.535-4.401c5.178-5.485,8.516,0.46,13.93-1.761c1.415-0.578,3.485-1.161,2.562-3.344
		c0.421-1.469,0.26-2.87-0.483-4.203c-2.708,2.34-3.689,8.28-9.043,3.265c-0.605-0.566-0.612-2.494-0.008-2.93
		c2.716-2.062,5.777-3.543,9.182-4.435c-3.223-1.48-10.532-0.915-13.565,0.88c-0.583,0.347-2.084-0.111-2.966-0.511
		c-2.044-0.921-3.904-2.139-5.958-3.041c-2.739-1.202-3.28-3.064-0.824-5.25c-5.359-0.991-27.497,3.183-28.641-2.183
		c-0.166-0.78-0.918-1.496-1.498-2.182c-1.231-1.462-0.967-2.827,0.683-3.741c5.399-2.98,12.175,4.167,14.588,0.798
		c1.092-1.523,8.167-5.567,10.346-3.439c3.369,3.295,4.329-1.57,7.33-2.032c2.941-0.455,4.359,2.284,7.473,1.979
		c4.567-0.446,9.195-0.505,13.8-0.535c2.445,0.745,3.018,2.122,1.72,4.128c-0.275,0.553-1.124,0.897-1.841,1.432
		c6.04,2.065,4.899-2.092,9.621-2.608c4.413-0.473,5.561,3.865,11.35,2.331c1.232-0.326,13.563-7.896,7.272-8.209
		c-1.795,0.215-3.23-0.319-4.303-1.604c1.384-1.372,4.459-2.623,1.66-4.289c-1.104-0.658-2.174-1.356-3.26-2.035
		c-0.278,0.115-0.556,0.229-0.834,0.346c0.276,1.062,0.378,2.184,0.865,3.169c3.402,6.88-11.036,3.364-5.53-2.457
		c1.429-1.512,3.27-2.812,5.188-3.887c4.261-2.39,11.426,5.933,14.865-0.098c0.972-1.065,1.532-2.261,1.678-3.583
		c-1.572-0.95-3.067-0.846-4.486,0.317c-1.308,0.016-2.625-0.63-3.937-0.982c0.674-0.933,1.124-2.41,2.065-2.689
		c4.046-1.19,8.768-1.063,12.632-2.692c4.532-1.908,15.945,2.479,20.341,4.179c1.425,0.55,2.23,0.164,2.802-1.104
		c0.306-0.679,1.206-1.166,1.837-1.74c1.176,1.836,1.197,4.361,4.245,4.354c2.069-0.005,4.139-0.072,6.208-0.072
		c4.188,0,4.747-4.564,8.956-3.314c3.834,0.978,7.751,1.51,11.75,1.594c3.435,0.849,9.131,10.177,13.533,3.855
		c2.374-3.407,7.115,2.397,7.708-1.924c-0.515-1.871,0.013-3.497,1.586-4.881c0.79-0.286,2.12,0.162,3.043,0.567
		c1.461,0.64,2.903,1.396,4.116,2.329c2.975,2.28,0.845,7.192,7.049,4.861c1.884-0.707,4.155-0.858,6.262-0.897
		c4.205-0.078,2.557-3.41,6.182-4.248c3.573-0.016,6.922-0.716,10.047-2.104c2.133-1.354,2.961,0.247,3.826,1.173
		c2.77,2.962,2.828,3.022,5.05-0.299c1.544-2.311,6.28-1.544,5.788,1.49c-0.115,0.706-0.228,1.456-0.075,2.143
		c0.892,3.993,25.263-1.326,28.037-0.208c2.138,0.86,14.64,2.14,16.153,0.701c0.463-0.439,1.215-0.798,1.899-0.91
		c4.499-0.742,9.677-0.97,13.941-2.426c-2.3-4.158,1.721-8.212,3.357-2.736c0.289,0.968-0.31,2.883-0.006,2.963
		c1.473,0.382,3.12,0.358,4.7,0.319c1.753-0.358,1.973-1.079,0.661-2.159c-0.446-0.39-1.293-0.486-1.636-0.903
		c-0.621-0.757-0.998-1.659-1.477-2.498c9.838-1.681,22.385-0.692,33.054-0.51c0.63,0.011,1.245,0.718,1.867,1.099
		c-0.748,1.252-1.885,1.792-3.413,1.622c-0.944,0.618-1.726,1.414-2.573,2.138c0.945,0.299,1.881,0.82,2.838,0.851
		c5.165,0.171,10.521,0.508,15.66-0.048c0.097-0.284,0.194-0.569,0.291-0.854c-3.142-0.751-5.938-2.022-8.385-3.817
		c0.924-1.006,1.68-2.201,2.837-2.947c6.184-3.992,21.157,2.709,26.605-3.646c-1.91,2.23,42.786,5.021,44.794,5.115
		c4.018,0.195,8.984,4.717,11.947,6.696c0.217-0.203,0.435-0.406,0.648-0.608c-0.126-0.335-0.173-0.715-0.396-0.996
		c-1.562-1.998-1.259-2.507,1.437-2.887c1.235-0.175,2.419-0.708,3.583-1.157c5.216-2.013,5.499,6.016,11.273,2.689
		c2.881-1.658,10.082-2.065,13.532-2.665c12.397-2.152,23.891-3.059,36.369-2.615c2.341-0.275,3.923,0.531,4.743,2.422
		c0.924,2.709,9.838,1.526,11.188,1.768c1.169,1.326,2.3,2.677,3.396,4.05c1.58-0.073,3.312-0.318,4.636-0.996
		c0.935-0.479,1.529-2.604,1.888-2.537c1.856,0.354,3.929,0.867,5.273,1.925c1.627,1.276,2.151,0.919,3.807-0.037
		c1.529-0.887,11.81-5.826,13.171-5.82c16.904,0.086,33.771-0.853,50.698-0.853c-0.614-1.037-0.876-1.505-1.164-1.96
		c-0.883-1.393-0.198-2.117,1.438-2.4c15.469-2.668,32.575,2.222,47.538,2.236c11.7,0.014,22.881,2.914,34.542,2.992
		c8.807,0.059,22.498,4.086,30.707,1.268c6.62-2.271,7.115,6.9,12.802,5.985c-0.155,0.026,9.371,0.752,9.609-1.335
		c0.207-1.801-1.719-1.458-3.079-1.566c-1.407-0.11-2.839-0.188-4.194-0.492c-0.592-0.131-1.381-0.768-1.423-1.217
		c-0.041-0.453,0.622-1.23,1.172-1.396c2.692-0.818,5.438-1.51,8.19-2.176c0.606-0.144,1.38-0.141,1.961,0.05
		c4.366,1.426,13.499,6.576,18.199,3.169c-4.827-1.525-6.357-3.463-8.943-7.178c-0.751-1.079,0.925-2.264,2.646-1.608
		c2.604,0.988,4.963,1.313,7.844,0.702c1.127-0.242,3.316,1.224,4.106,2.365c0.979,1.418-0.976,4.516-1.562,5.742
		c6.602,1.856,18.633-2.263,23.507,2.023c1.229,1.082,19.539-1.544,21.489-1.352c6.688,0.666-14.662,5.932-15.014,6.039
		c0.396,1.348,1.271,2.2,2.625,2.557c4.908,1.973,5.437,4.718,1.446,7.929c-1.422,1.143-2.275,3.042-4.912,2.795
		c2.164,0.195,2.134,7.502-0.08,10.735c-4.131,6.037-14.894,8.515-19.969,14.155c-0.752,0.846,12.125-3.115,13.254-3.471
		c0.735-0.231,2.566,0.393,2.746,0.908c1.244,3.581-4.037,3.96-2.139,7.492c-1.849-3.443-14.438,14.153-15.738,15.335
		c-1.095,0.994-2.585,1.674-3.907,2.483c-2.037,1.243-1.345,5.476-2.841,5.712c-3.985,0.636-6.546,3.387-10.054,4.779
		c-3.041,1.206-5.627,2.041-8.899,0.608c-1.059,1.782-1.911,3.215,0.729,4.666c1.258,0.692,1.921,2.164,2.854,3.281
		c-0.904,0.438-1.772,1.174-2.717,1.249c-4.374,0.341-3.429-2.435-7.236-2.836c-4.41-0.467-8.811,1.603-12.365,3.533
		c-5.557,3.018-8.297-6.729-14.794-1.001c-1.053,0.929-1.602,2.264-2.593,3.26c-0.314,0.312-1.358,0.098-2.07,0.125
		c-0.009-1.364,0.188-2.712,0.594-4.036c-7.567,1.938-16.603,6.084-23.036,9.97c-3.081,1.862-12.88,6.738-16.996,6.703
		c-9.375-0.067-25.879,6.14-35.16,8.912c-0.159-0.237-0.321-0.476-0.48-0.711c0.592-0.609,1.183-1.22,1.769-1.823
		c-1.562-2.624-3.485-3.115-6.873-1.911c0.669,0.979,2.108,2.703,1.906,2.856c-1.332,1.007-2.93,1.948-4.626,2.354
		c-2.625-0.71-5.278-0.806-7.965-0.288c-3.469,2.339-10.118,0.48-11.493-3.045c-1.105-2.835-1.497-3.462-5.962-1.511
		c-1.213,0.527-1.994,1.78-3.21,2.295c-1.205,0.512-2.715,0.574-4.101,0.626c-2.921,0.096,4.411-9.937,2.002-6.101
		c-1.978-2.29-6.861-2.29-9.778-1.883c-2.857,0.399-3.294-1.104-3.098-3.562c-1.336,0.879-2.255,1.364-3.003,1.999
		c-3.775,3.186-7.792,2.789-10.411-1.022c-1.015-1.472-7.79-5.045-8.271-1.653c-0.066,0.486,0.438,1.113,0.88,1.532
		c0.251,0.237,1.045,0.048,1.317,0.281c0.532,0.456,0.869,1.073,1.287,1.626c-0.757,0.3-1.495,0.812-2.272,0.857
		c-4.865,0.276-10.487-3.541-14.393-0.41c-0.562,0.45-1.479,0.865-2.209,0.837c-2.811-0.104-5.618-0.36-8.414-0.642
		c-0.604-0.061-1.396-0.32-1.699-0.711c-1.758-2.289-3.271-1.149-4.706,0.199c-7.046,6.633-21.874-0.867-31.705-3.236
		c0.556,1.595,0.906,2.607,1.259,3.625c-1.534-0.04-3.174,0.188-4.576-0.198c-1.324-0.365-2.548-1.252-3.548-2.127
		c-1.401-1.228-9.593-3.524-11.471-2.919c-1.723,0.552-1.956,3.309-3.983,3.634c-2.211,0.358-2.719-3.192-3.397-4.272
		c-0.23,0.721-0.321,1.038-0.438,1.353c-3.312,8.646-9.566-3.242-14.315-1.176c-2.277,0.981-8.871,6.505-11.645,2.7
		c-2.679-3.677-8.484-1.238-11.81-5.111c-0.497-0.579-0.076-2.144,0.535-2.899c1.279-1.578,1.055-2.299-1.186-2.526
		c-0.279-0.028-0.668,0-0.815-0.142c-2.502-2.378-4.195-0.217-6.286,0.785c0.222,0.755,0.438,1.494,0.653,2.223
		c-0.781,1.224-2.188,1.816-4.216,1.78c-0.237,1.949-0.584,3.882-1.042,5.8c-3.303,4.272-5.608-3.371-6.336-4.489
		c-2.793,2.576-3.062,6.069-8.088,6.133c-5.121,0.061-8.755-1.729-13.862-0.641c-2.886,0.614-4.664,0.054-6.046-2.564
		c-1.23-2.33-1.732-2.062,0.498-3.542c1.021-0.677,1.882-1.576,2.636-2.483c1.038-1.248,0.319-2.408-1.429-2.855
		c-1.746-0.784-3.544-1.47-5.394-2.055c-3.39-0.034-6.787-0.011-10.169,0.163c-1.042,0.055-2.246,0.465-2.986,1.062
		c-0.397,0.316-0.088,1.407,0.126,2.1c0.245,0.785,0.741,1.517,1.127,2.271c-1.055,0.051-2.161,0.296-3.153,0.105
		c-4.742-0.908-0.338-2.923-7.749,1.376c-2.129,1.238-3.163,2.819-2.562,5.166c0.928,3.612-10.894,0.862-11.302,0.979
		c-2.207,0.623-2.916-0.266-2.991-1.976c-0.015-0.321-0.455-0.627-0.638-0.861c-1.41,0-3.682,3.427-5.64,1.368
		c-1.562-1.64-2.455-6.231-1.452-8.223c0.346-0.688,1.075-1.239,1.638-1.85c0.632,0.643,1.53,1.208,1.823,1.946
		c0.306,0.771-0.002,1.71,0.034,2.572c0.006,0.152,0.383,0.296,0.271,0.214c2.04-1.428,4.028-2.704,5.859-4.129
		c3.665-2.845-4.642-5.58-1.044-8.27c4.347-3.248,6.165,4.42,11.086-0.187c0.75-0.702,1.746-1.21,2.618-1.818
		c5.004-3.496-4.695-6.93-6.605-7.847c-0.647-0.311-1.616-0.138-3.113-0.228c1.595,1.285,2.189,2.875,1.781,4.771
		c-2.76,4.375-4.698-2.809-5.424-3.772c-0.529,0.551-1.128,1.066-1.575,1.663c-1.13,1.509-2.422,1.784-4.274,0.801
		c-2.32-1.229-5.398,1.94-6.878-0.253c0.256,0.38-4.966-13.586-4.289-7.798c0.454,3.885-2.375,6.425-4.955,9.046
		c-1.905,1.938-5.99,5.552-8.682,5.752c-1.01,0.075-2.02,0.163-3.341,0.812c0.595,0.402,1.286,1.219,1.767,1.137
		c-3.505,0.595,9.251-2.312,9.248-2.317c0.736,1.026,1.403,2.282,1.367,3.444c-0.023,0.795-1.064,2.01-1.95,2.253
		c-4.691,0.718-9.405,1.306-14.141,1.768c-4.388,0.715-0.886,3.633-3.878,4.78c-0.602,0.228-1.603-0.037-2.298-0.32
		c-0.999-0.406-11.124-4.242-11.277-4.592c-1.153-2.647-0.574-7.313,3.894-5.296c0.671,0.303,1.765,0.753,2.174,0.52
		c2.476-1.42,3.383-0.267,4.022,2.311c3.107-1.422,5.884-2.619,8.54-3.982c0.416-0.217,0.28-1.2,0.399-1.83
		c-0.755-0.089-1.511-0.242-2.265-0.231c-0.296,0.005-0.564,0.397-0.879,0.57c-5.399,2.967-2.269-6.464-9.269-4.418
		c-4.24,1.236-3.287,5.038-7.641,5.216c-1.035,0.043-2.097-0.004-3.092,0.189c-0.54,0.106-1.346,0.611-1.375,0.976
		c-0.143,1.769-0.064,3.554-0.064,5.324c-4.319-0.209-4.829-0.691-3.719-4.654c-3.099,1.058-6.288,1.824-9.565,2.296
		c-0.063-0.862-0.484-1.858-0.122-2.564c0.998-1.938-0.668-2.834-1.986-3.429c-1.908-0.857-1.924,0.827-2.383,1.802
		c-1.719,3.647-6.412,6.613-9.667,9.256c-5.112,4.147-4.27-5.845-10.515-1.846c0.599,0.206,1.093,0.396,1.602,0.549
		c4.641,1.391,0.099,5.389-3.222,4.018c-2.792,0.107-5.169,0.987-7.132,2.635c-2.548,0.343-3.242-0.469-2.082-2.43
		c3.39-2.372-7.759-7.604-1.338-8.903c6.756-1.372,13.242-1.747,20.548-2.021c0.005-0.209,0.01-0.417,0.016-0.625
		c-1.918-0.29-7.662-1.519-4.943-4.446c0.344-0.37,1.9-0.259,2.681,0.056c2.557,1.028,4.298,0.517,5.052-1.798
		c0.18-0.551,0.143-1.41-0.249-1.758c-0.321-0.285-1.378-0.16-2.007,0.028c-1.964,0.588-7.348,3.415-9.552,0.591
		c-0.507-0.651,0.113-2.396,0.902-3.157c3.303-3.192,10.414,1.876,12.806,1.183c2.027-0.592,3.984-1.353,6.675-2.298
		c-1.88-1.105-3.303-2.039-4.833-2.823c-3.031-1.55-3.212-3.19-0.562-5.148c0.914-1.168,1.651-2.418,2.213-3.74
		c1.657-2.394,2.666-2.411,7.095,0.09c0-0.943,0.323-1.859-0.062-2.2c-2.018-1.793-7.942-7.33-10.168-7.947
		c0.433,1.024,0.69,1.655,0.964,2.279c1.245,2.827,0.274,5.347-1.589,7.693c-0.305,0.383-1.193,0.798-1.594,0.678
		c-1.221-0.365-6.789-7.565-7.471-8.835c-1.435-2.67-7.805,7.281-3.456,7.699c1.882-0.52,3.349-1.488,4.401-2.907
		c-0.041,0.966-0.061,1.931-0.06,2.898c1.265,0.664,2.497,1.371,3.794,1.979c4.106,1.923,1.286,10.21-3.397,9.474
		c-2.518-0.397-2.673-4.237-3.928-5.751c-0.476,0.567-1.223,1.088-1.378,1.713c-0.625,2.526-3.362,2.105-5.314,3.146
		c-1.396-3.005-4.39-2.796-6.586-5.421c-3.67-0.7-8.665-3.165-5.379-7.448c2.255-1.858,2.324-3.907,0.208-6.146
		c-1.153,0.412-11.304,6.165-12.327,3.979c-1.69-3.602,1.034-4.309-0.864-7.188c-0.511,0.26-1.245,0.417-1.494,0.799
		c-0.894,1.374-1.494,2.894-2.466,4.216c-0.564,0.773-1.522,1.48-2.496,1.852c-0.943,0.358-2.134,0.252-2.811,0.312
		c0.351,2.682,0.618,5.069,1.016,7.441c0.499,2.972,3.934-9.137,9.524-4.771c1.134,0.884,3.966,8.234,1.741,8.964
		c-5.391,1.77-6.145-4.392-10.021,0.538c-1.274,1.62-0.63,2.688,1.723,2.812c0.561,0.028,1.213-0.208,1.675-0.035
		c2.412,0.645,2.64,1.65,0.686,3.015c-0.621,0.427-1.813,0.352-2.274,0.828c-2.078,2.151,1.155,4.034-2.318,5.175
		c-1.128,0.368-2.234,0.82-3.27,1.351c-3.304,1.688-6.202,0.44-6.125-2.846c0.036-1.545-0.202-2.417-2.193-2.677
		c-0.717-0.093-1.266-0.909-2.001-1.174c-0.784-0.282-1.76-0.517-2.534-0.357c-3.757,0.773,3.694,4.393,3.604,4.335
		c-3.252,1.583-15.745,6.593-18.715,4.523c-3.081-2.138-7.158,1.453-10.5,0.817c-3.97-0.759-9.415-7.674-14.177-2.577
		c-0.697,0.746-1.406,1.555-2.314,2.08c-1.926,1.111-3.521,0.516-4.379-1.342c-0.3-0.646-0.987-1.166-1.498-1.741
		c-0.534,1.388-1.48,2.542-2.838,3.461c-7.358,1.655-17.303,1.957-23.942,4.999c-2.056-1.464-4.169-2.865-6.339-4.205
		c1.565-0.899,3.101-1.83,4.611-2.795c-1.567-1.774-6.37-9.646-9.124-10.242c-0.143-3.799,0.394-4.296,4.831-4.469
		c0.565-0.021,1.133-0.029,1.694-0.082c2.187-0.205,2.499-1.482,1.066-2.366c-4.833-2.976-3.01-9.029,3.499-5.771
		c-1.213-1.942-0.969-3.677,0.734-5.199c2.802-1.035,9.883,9.197,12.626,11.301c0.402,0.308,1.708-0.235,2.596-0.386
		c-0.765-1.095-1.554-1.623-2.418-2.042c-2.556-1.234-2.778-2.277-0.479-3.693c2.136-0.635,4.25-1.315,6.344-2.047
		c-0.058-0.261-0.115-0.525-0.173-0.788c-0.752-0.242-1.547-0.418-2.249-0.741c-3.784-1.739-4.521,0.396-8.245,0.021
		c0.144-0.624,0.176-1.29,0.466-1.86c0.224-0.439,0.773-0.757,1.732-1.64c-3.006-0.014-6.011,0.01-9.016,0.066
		c-0.741-0.062-1.399-0.813-2.096-1.253c1.051-1.149,1.937-2.463,3.208-3.4c2.748-2.022,5.156,1.887,7.161-0.271
		c-0.867-1.76-2.482-3.99-2.042-4.334c1.618-1.273,3.872-2.021,5.998-2.722c0.466-0.153,1.338,0.85,2.119,1.04
		c0.972,0.239,2.042,0.193,3.07,0.269c-0.129-1.374,0.06-2.716,0.564-4.025c2.205-1.268,4.603-2.043,7.195-2.327
		c-0.007-0.25-0.015-0.502-0.023-0.754c-2.398-0.218-4.774-0.55-7.13-0.992c-3.198-1.075-5.172-0.104-5.475,2.785
		c-0.043,0.4-0.657,0.759-1.007,1.139c-2.789-1.947-1.036-3.25-5.421-3.04c-6.545,0.309-9.83,0.021-15.474,2.54
		c2.478,0.074,4.818,0.612,7.021,1.612c-1.215,1.412-2.401,2.843-3.559,4.288c1.505-0.094,5.211-1.786,6.219-0.212
		c0.811,1.271,0.563,2.76-1.208,3.495c-1.25,0.521-2.68,0.719-4.006,1.113c-3.527,1.057-2.032,4.812-5.21,5
		c-3.562-0.393-7.075-0.258-10.538,0.407c1.748,1.397,3.445,2.208,4.165,3.434c2.131,3.622,1.135,7.115-2.823,9.271
		c-2.511,1.369-5.319,2.849-8.674,1.61c-2.407-0.887-3.882-3.268-7.004-3.106c-0.333-1.186-1.071-2.124-2.213-2.82
		c-2.917-0.082-0.42,4.5-0.341,5.471c-0.889-0.005-1.781,0.027-2.667-0.023c-0.371-0.021-0.729-0.209-1.338-0.396
		c0.987,1.895,1.82,3.492,2.772,5.322c1.939-1.178,3.696-2.21,5.411-3.29c-0.387,0.243,17.228,2.396,17.671,2.707
		c0.753,0.531,1.817,0.741,2.737,1.102c0.067,0.796,0.218,1.593,0.186,2.385c-0.138,3.463-3.237,0.978-4.521,0.44
		c-0.969-0.401-2.021-0.66-3.04-0.978c-0.83,1.967-0.552,3.792,0.832,5.473c0.632,1.479,1.325,2.562,3.375,1.159
		c0.392-0.269,1.463-0.327,1.754-0.082c3.372,2.84-4.376,6.637-6.019,8.253c2.201,1.375,4.4,2.753,6.617,4.112
		C90.1,395.105,97.623,391.466,99.709,390.333C100.947,393.139,98.776,390.839,99.709,390.333z M181.156,370.487
		c0.012-0.271,0.024-0.54,0.037-0.809c-1.021-0.061-2.062-0.265-3.058-0.157c-4.946,0.524-4.265-3.173-8.548-4.079
		c-1.239-0.264-2.687,0.146-3.902-0.152c-0.714-0.176-1.774-1.353-1.605-1.749c0.771-1.814,1.746-3.609,2.984-5.227
		c1.35-1.762,1.043-3.291-0.523-3.755c-2.735,3.688-1.677,3.342-5.032,2.137c0.72-1.224,7.829-12.264,5.116-13.078
		c-0.715-0.213-1.844,0.016-2.525,0.398c-1,0.562-1.73,1.458-2.628,2.164c-1.771,1.392-2.452,1.201-3.369-0.729
		c-0.278-0.587-0.918-1.047-1.393-1.564c-0.58,0.457-1.398,0.825-1.695,1.391c-1.304,2.479-4.083,1.23-6.718,1.648
		c0.188,0.668,0.165,1.465,0.603,1.979c2.884,3.392-3.357,6.273-5.367,7.956c-0.389,0.324-0.738,1.082-0.548,1.401
		c0.767,1.293,5.433-0.135,4.215,2.455c-1.03,2.188-5.079,0.557-5.896,1.208c-2.366,1.896-5.151,1.489-7.972,1.42
		c-0.75-0.019-1.531,0.88-2.298,1.357c0.673,0.562,1.248,1.445,2.04,1.618c1.515,0.335,3.296-0.035,4.702,0.444
		c1.638,0.56,3.064,1.649,4.397,2.683c2.204,1.702-4.547,3.123-5.77,2.63c-2.159-0.871-4.803-0.874-7.664-1.325
		c0.361,1.085,2.577,4.07,0.178,4.693c-5.032,1.305-2.414-4.791-7.694-3.893c-0.851,0.146-1.558,0.898-2.331,1.376
		c1.163,1.322,4.842,5.331,6.791,5.611c2.232,0.319,6.185-3.775,7.136-2.104c1.839,3.229,7.03,2.86,10.098,1.83
		c-1.318-0.688-2.532-0.682-3.653-0.957c-1.791-0.651-1.967-1.473-0.529-2.458c1.853-0.933,3.725-1.883,5.712-2.571
		c3.467-1.203,0.689-5.107,4.172-5.867c2.245-0.491,4.447-1.123,7.125-1.812c0.977,2.025,3.568,2.17,6.315,2.021
		c0.844-0.047,1.703-0.095,2.54-0.015c5.426,0.515,2.382,7.171,7.204,6.147C174.948,372.09,178.042,371.252,181.156,370.487
		C181.168,370.217,178.042,371.252,181.156,370.487z M91.457,342.646c-4.341-4.229-6.801-4.225-12.674-5.092
		c-4.936-0.73-8.394,1.39-11.664,4.49c3.774,1.261,2.669,8.619,8.245,6.044C80.793,345.583,86.337,344.812,91.457,342.646
		C89.923,341.152,91.13,342.785,91.457,342.646z M441.677,393.418c-1.168,0.612-2.535,1.067-3.444,1.888
		c-0.679,0.61-0.764,1.693-1.112,2.565c4.487,1.115,18.221,2.822,20.218-0.186C452.068,395.936,447.517,393.721,441.677,393.418
		C440.509,394.03,446.131,393.648,441.677,393.418z M326.853,372.159c0.085,0.238,0.169,0.479,0.254,0.719
		c0.911-0.089,1.926,0.005,2.713-0.311c1.652-0.662,3.184-1.538,5.23-2.561c-1.736-1.298-3.232-2.768-4.49-4.411
		c-0.615-2.556-3.104-1.522-4.776-1.856c-4.242-0.854,2.175,7.229,2.239,7.149C327.673,371.333,327.245,371.734,326.853,372.159
		C326.938,372.397,327.245,371.734,326.853,372.159z M215.458,357.59c1.559,1.08,2.482,2.449,2.768,4.107
		c1.492,0.767,3.206,1.222,4.833,1.798c0.758-2.359,0.937-4.624,1.31-7.169C221.353,356.436,218.465,357.241,215.458,357.59
		C216.491,358.639,217.109,357.398,215.458,357.59z M152.677,378.396c2.403,0.799,4.201,0.671,5.181-1.066
		c0.944-1.673,0.813-3.266-1.599-4.168c-0.666-0.248-1.125-0.91-1.795-1.127c-1.117-0.362-2.327-0.518-3.498-0.759
		C151.982,373.84,154.822,375.824,152.677,378.396C155.081,379.195,154.113,376.673,152.677,378.396z M69.817,355.516
		c-3.002,0-6.261-0.07-9.51,0.046c-0.862,0.032-1.695,0.639-2.541,0.98c0.705,0.632,1.295,1.587,2.146,1.805
		c0.78,0.198,1.937-0.263,2.76-0.674c5.421-2.704,3.641,4.806,7.145,2.812C69.817,358.679,69.817,357.288,69.817,355.516
		C66.814,355.516,69.817,357.288,69.817,355.516z M330.111,392.386c0.961,1.31,2.189,2.421,3.687,3.339
		c2.35,1.697,4.984,0.76,5.602-2.249c-2.531,0.235-4.417-0.398-4.657-2.859C334.538,388.556,328.319,393.766,330.111,392.386
		C330.541,392.915,331.1,391.625,330.111,392.386z M398.233,387.178c-1.575,1.816-2.892,3.197-3.988,4.692
		c-0.349,1.647,0.422,2.204,2.312,1.671C398.695,392.735,399.52,390.204,398.233,387.178
		C396.658,388.994,399.52,390.204,398.233,387.178z M347.947,365.854c-1.576-1.091-2.587-2.29-3.3-2.176
		c-1.273,0.208-2.366,1.211-3.534,1.881c1.091,0.872,2.041,2.056,3.335,2.479C345.039,368.229,346.31,366.922,347.947,365.854
		C346.371,364.764,346.31,366.922,347.947,365.854z M143.129,350.144c-0.053-2.524-1.397-4.093-4.032-4.697
		C138.597,347.996,138.961,351.596,143.129,350.144C142.548,348.75,141.058,350.866,143.129,350.144z M715.382,386.898
		c1.993-0.632,3.469-1.009,4.831-1.578c0.561-0.234,1.064-0.846,1.222-1.365c-0.905-1.178-1.936-1.217-3.092-0.119
		C717.477,384.59,716.753,385.46,715.382,386.898C717.375,386.268,716.753,385.46,715.382,386.898z M103.258,328.465
		c3.502-0.638,4.054-3.504,1.4-4.867C104.101,325.534,103.696,326.942,103.258,328.465
		C105.02,328.146,103.696,326.942,103.258,328.465z M119.658,366.591c1.549-0.065,3.099-0.135,4.648-0.201
		c-0.294-0.572-0.403-1.402-0.918-1.671C121.718,363.85,120.424,364.429,119.658,366.591
		C121.207,366.524,120.424,364.429,119.658,366.591z M553.529,404.287c0.819-0.65,1.408-1.111,1.995-1.573
		c-1.65-1.396-3.31-1.474-4.973-0.229C551.449,403.025,552.343,403.566,553.529,404.287
		C554.35,403.637,552.343,403.566,553.529,404.287z M707.086,389.101c1.989-0.31,3.98-0.619,5.97-0.93
		c-0.081-0.269-0.163-0.535-0.244-0.804C710.63,387.184,708.306,386.518,707.086,389.101
		C709.075,388.791,708.306,386.518,707.086,389.101z M79,357.918c-1.527-0.984-3.032-1.951-4.545-2.924
		C74.894,358.778,75.98,359.496,79,357.918z M469.396,395.656c-0.07-0.237-0.143-0.475-0.212-0.71c-1.231-0.479-2.444-1-3.706-1.411
		c-0.511-0.167-1.129-0.091-1.699-0.125c0.332,0.46,0.557,1.024,1.02,1.352C466.135,395.796,467.667,396.096,469.396,395.656
		C469.326,395.419,468.588,395.708,469.396,395.656z M318.56,373.015c0.488,0.174,0.975,0.346,1.461,0.516
		c0.222-0.587,0.831-1.366,0.585-1.72c-0.555-0.794-1.532-1.377-2.336-2.044C316.571,370.745,316.668,371.829,318.56,373.015
		C319.048,373.188,318.043,372.347,318.56,373.015z M105.051,362.854c-2.432-1.325-4.611-0.636-2.705,1.692
		C103.089,364.084,103.831,363.617,105.051,362.854C103.984,362.273,103.831,363.617,105.051,362.854z M340.276,363.869
		c0.227-0.365,0.455-0.732,0.683-1.101c-0.747-0.259-1.595-0.835-2.212-0.691c-0.726,0.167-1.25,0.96-1.863,1.48
		c0.501,0.368,0.979,1.002,1.509,1.035C338.997,364.632,339.646,364.134,340.276,363.869
		C340.503,363.504,339.646,364.134,340.276,363.869z"/>
	<path fill="#478CCA" d="M205.634,376.32c-1.992-1.052-3.697-2.252-2.559-4.402c0.286-0.539,1.085-1.169,1.722-1.234
		c3.979-0.395,4.787,5.548,8.04,5.879c1.755,0.184,3.579-0.141,5.343,0.006c1.246,0.104,2.638,0.43,3.589,1.06
		c5.979,3.958-11.633,4.218-12.219,4.283c-1.256,0.143-2.704,0.893-3.502,1.744c-1.698,1.809-3.303,2.212-5.497,0.923
		c-0.92-0.54-2.23-0.827-2.779-1.55c-0.892-1.173-1.689-2.601-1.729-3.937c-0.017-0.554,1.943-1.404,3.143-1.673
		c1.885-0.424,3.889-0.464,5.839-0.686C205.18,376.715,205.311,376.545,205.634,376.32
		C203.642,375.27,205.311,376.545,205.634,376.32z"/>
	<path fill="#478CCA" d="M80.717,405.533c-2.031,0.481-3.62-0.002-4.767-1.451c0.611-0.403,1.161-0.987,1.854-1.161
		c0.66-0.169,1.526-0.04,2.202,0.185c2.212,0.722,4.54,1.335,6.497,2.416c1.096,0.607,1.552,2.051,2.724,3.726
		c0.349-0.574,4.284-9.83,8.103-8.348c1.099,0.426,2.636,1.751,2.478,2.416c-0.261,1.097-1.737,1.981-2.97,3.23
		c0.466,1.355,3.804-0.512,3.164,2.798c-0.406,2.101-2.411,2.285-4.338,2.216c-7.719-0.271-17.322-0.402-24.694-1.616
		c-2.217-0.441-2.598-1.442-1.144-3.003c3.609-0.576,7.254-0.737,10.933-0.482C80.743,406.149,80.73,405.842,80.717,405.533
		C79.747,405.533,80.73,405.842,80.717,405.533z"/>
	<path fill="#478CCA" d="M304.493,399.604c-1.025,0.409-1.883,0.928-2.825,1.086c-1.221,0.203-2.508,0.123-3.767,0.163
		c0.053-1.191,0.063-2.388,0.195-3.571c1.285-1.064,2.432-2.233,3.44-3.506c0.92,0.79,1.703,1.801,2.807,2.292
		c0.716,0.315,1.901-0.125,2.875-0.229c-0.486-3.102,2.292-3.07,5.113-3.273c-2.348-2.815-0.062-3.934,2.087-4.873
		c2.552-1.12-0.453,22.192-9.83,15.213C304.028,402.483,304.493,401.074,304.493,399.604
		C303.467,400.014,304.493,401.074,304.493,399.604z"/>
	<path fill="#478CCA" d="M255.062,389.99c2.087,0.833,4.356,1.446,6.207,2.562c2.117,1.275-3.11,6.642-4.749,6.82
		c-2.833,0.305-5.764,0.146-8.635-0.06c-1.421-0.104-1.777-0.979-0.976-2.105c0.426-0.598,0.807-1.275,0.948-1.956
		c0.943-4.576,1.424-4.924,6.861-4.656C254.833,390.394,254.948,390.193,255.062,389.99
		C257.15,390.823,254.948,390.193,255.062,389.99z"/>
	<path fill="#478CCA" d="M157.211,392.418c-0.456-1.115-0.805-1.968-1.153-2.822c1.092-0.303,2.163-0.763,3.28-0.868
		c1.278-0.119,2.701-0.172,3.875,0.188c1.964,0.598,3.185,2.138,2.493,3.771c-0.454,1.071-2.224,1.739-3.659,2.365
		c-1.523,1.979-6.446,8.996-8.388,0.838C153.099,393.536,155.265,392.977,157.211,392.418
		C156.756,391.303,155.265,392.977,157.211,392.418z"/>
	<path fill="#478CCA" d="M141.822,394.441c-0.122,0.02-12.611,2.938-8.922-2.424c2.345-3.407,2.06-1.583,5.904-2.896
		c4.748-1.65,6.418,1.46,8.45,3.959c0.957,1.178,0.197,2.566-1.587,2.464C144.108,395.453,142.604,394.682,141.822,394.441
		C139.184,394.854,142.604,394.682,141.822,394.441z"/>
	<path fill="#478CCA" d="M15.378,398.593c1.794,0.2,3.325,0.232,4.745,0.583c2.622,0.65,2.68,3.868-0.066,4.148
		c-0.257,0.026-16.439,1.792-14.089-1.163C7.784,399.876,12.521,399.364,15.378,398.593
		C17.172,398.793,15.041,398.684,15.378,398.593z"/>
	<path fill="#478CCA" d="M719.486,292.463c1.785,0,3.579-0.105,5.346,0.049c2.444,0.334,2.919,1.28,1.429,2.842
		c-0.265,0.404-0.869,0.658-1.096,1.067c-1.621,2.958-3.884-0.378-6.606-0.567c-3.14,0.883-5.746,0.371-7.819-1.529
		c0.849-0.596,1.631-1.58,2.566-1.7c2.019-0.265,4.117-0.082,6.182-0.082C719.486,292.516,719.486,292.49,719.486,292.463
		C721.271,292.463,719.486,292.49,719.486,292.463z"/>
	<path fill="#478CCA" d="M410.639,400.106c2.084,0.808,4.237,1.513,6.205,2.487c0.523,0.26,0.932,1.697,0.614,1.989
		c-1.106,1.025-2.46,1.938-3.92,2.552c-1.424,0.599-6.699-4.51-7.463-5.122c1.264-1.093,2.712-1.582,4.343-1.468
		C410.492,400.4,410.566,400.254,410.639,400.106C412.723,400.914,410.566,400.254,410.639,400.106z"/>
	<path fill="#478CCA" d="M169.572,305.958c0.57,0.434,1.339,1.019,2.108,1.602c-1.615,1.497-3.338,2.899-5.169,4.207
		c-1.693,4.511-7.819-2.684-4.995-3.665C163.938,307.263,166.511,306.733,169.572,305.958
		C170.142,306.392,166.511,306.733,169.572,305.958z"/>
	<path fill="#478CCA" d="M206.297,393.898c-2.923-1.154-5.521-2.322-8.198-3.852c1.119-2.649,3.025-3.305,5.718-1.968
		c2.136,1.09,3.842,2.533,5.117,4.331C208.072,392.897,207.21,393.384,206.297,393.898
		C205.089,393.421,207.21,393.384,206.297,393.898z"/>
	<path fill="#478CCA" d="M707.514,398.427c0.519,0.291,1.467,0.824,2.417,1.358c-1.257,1.261-2.7,2.334-4.334,3.226
		c-1.562,0.262-3.215,0.241-4.812,0.131C696.93,402.874,706.114,398.559,707.514,398.427
		C708.031,398.718,705.717,398.596,707.514,398.427z"/>
	<path fill="#478CCA" d="M189.006,391.585c-3.578,2.354-5.842,4.894-9.202,0.753c-0.657-0.81,3.59-3.745,5.355-3.393
		C186.313,389.175,187.217,390.303,189.006,391.585C186.765,393.059,187.217,390.303,189.006,391.585z"/>
	<path fill="#478CCA" d="M126.522,396.934c-1.708-1.188-3.02-2.101-4.332-3.016c1.496-1.192,2.993-2.387,4.49-3.582
		c1.31,1.252,2.62,2.506,3.931,3.758C129.408,394.929,128.208,395.764,126.522,396.934
		C124.814,395.746,128.208,395.764,126.522,396.934z"/>
	<path fill="#478CCA" d="M178.247,393.828c-3.107,0.726-6.274-0.292-7.562-2.567c-0.744-1.686-0.098-2.521,1.937-2.508
		C175.076,388.871,177.973,391.553,178.247,393.828C175.14,394.554,177.973,391.553,178.247,393.828z"/>
	<path fill="#478CCA" d="M728.231,393.701c1.562,1.072,3.446,1.767,3.464,2.492c0.045,1.979-2.173,2.112-3.946,2.189
		C721.832,398.637,726.718,394.796,728.231,393.701C729.793,394.773,726.776,394.753,728.231,393.701z"/>
	<path fill="#478CCA" d="M782.733,325.771c-0.39-0.314-1.184-0.949-1.976-1.585c-0.234,0.185,5.637-5.779,6.617-1.829
		C787.746,323.862,785.36,325.763,782.733,325.771C782.345,325.457,785.36,325.763,782.733,325.771z"/>
	<path fill="#478CCA" d="M424.27,410.349c-0.991-1.348-2.173-2.239-2.052-2.979c0.124-0.753,1.524-1.355,2.366-2.026
		c0.938,0.859,1.873,1.719,2.81,2.576C426.54,408.584,425.684,409.247,424.27,410.349
		C423.277,409.001,425.684,409.247,424.27,410.349z"/>
	<path fill="#478CCA" d="M204.33,400.941c-1.824-1.672-1.526-2.987,0.891-3.948c3.795-0.803-0.313,4.543,0.1,3.99
		C204.991,400.969,204.661,400.956,204.33,400.941C203.908,400.184,204.661,400.956,204.33,400.941z"/>
	<path fill="#478CCA" d="M694.233,400.106c-1.059-0.858-1.655-1.344-2.253-1.828c-4.016,2.491,7.033-3.716,4.731-0.692
		C696.093,398.401,695.271,399.106,694.233,400.106C693.176,399.248,695.271,399.106,694.233,400.106z"/>
	<path fill="#478CCA" d="M60.186,388.07c-1.779,3.321-3.603,3.984-5.471,1.984c1.144-0.93,2.246-1.906,3.478-2.747
		C58.386,387.178,59.169,387.668,60.186,388.07C58.607,389.286,59.169,387.668,60.186,388.07z"/>
	<path fill="#478CCA" d="M192.768,393.453c-1.089,0.743-1.801,1.229-2.512,1.715c-0.489-0.683-3.057-4.014,0.477-3.78
		C191.356,391.433,191.887,392.503,192.768,393.453C191.678,394.196,191.887,392.503,192.768,393.453z"/>
	<path fill="#478CCA" d="M706.749,409.062c-0.211-0.544,1.333-5.845,2.789-3.746C710.157,406.979,709.229,408.227,706.749,409.062
		C705.854,406.746,707.96,407.991,706.749,409.062z"/>
	<path fill="#478CCA" d="M749.696,383.135c-1.547,1.291-2.813,1.233-3.797-0.173c0.149-0.657,0.672-1.362,1.297-1.771
		c0.208-0.138,1.181,0.563,1.805,0.883C749.233,382.428,749.465,382.78,749.696,383.135
		C748.877,383.451,749.465,382.78,749.696,383.135z"/>
	<path fill="#478CCA" d="M211.502,370.268c-2.829,0.924-4.405,0.037-2.435-2.245c0.575,0.4,1.15,0.801,1.725,1.201
		C211.028,369.572,211.266,369.92,211.502,370.268C210.738,370.517,211.266,369.92,211.502,370.268z"/>
	<path fill="#478CCA" d="M43.986,325.682c-1.591-1.396-1.423-2.521,0.506-3.364C45.915,323.504,45.746,324.625,43.986,325.682
		C43.425,324.652,44.755,324.757,43.986,325.682z"/>
	<path fill="#478CCA" d="M108.494,339.893c-1.403,1.681-2.798,1.778-4.184,0.301C105.375,338.538,106.769,338.439,108.494,339.893
		C107.326,340.588,107.195,339.378,108.494,339.893z"/>
	<path fill="#478CCA" d="M161.363,351.318c-0.875,0.833-1.495,1.925-2.125,1.928c-4.087,1.247-6.308,0.646-6.663-1.801
		c0.751-0.656,1.594-1.473,2.558-1.661c1.336-0.261,2.836-0.133,4.215,0.074C159.969,349.951,160.467,350.642,161.363,351.318
		C160.488,352.151,160.467,350.642,161.363,351.318z"/>
	<path fill="#478CCA" d="M158.216,360.097c-1.94,0.839-3.101,1.558-4.383,1.785c-0.495,0.088-1.264-0.933-1.909-1.445
		c1.086-0.854,2.077-1.851,3.331-2.451C155.556,357.842,156.735,359.014,158.216,360.097
		C156.276,360.936,156.735,359.014,158.216,360.097z"/>
</g>
</svg>
