<?xml version="1.0" encoding="utf-8"?>
<!-- Generator: Adobe Illustrator 16.0.0, SVG Export Plug-In . SVG Version: 6.00 Build 0)  -->
<!DOCTYPE svg PUBLIC "-//W3C//DTD SVG 1.1//EN" "http://www.w3.org/Graphics/SVG/1.1/DTD/svg11.dtd">
<svg version="1.1" id="Layer_1" xmlns="http://www.w3.org/2000/svg" xmlns:xlink="http://www.w3.org/1999/xlink" x="0px" y="0px"
	 width="742.901px" height="135.661px" viewBox="0 0 742.901 135.661" enable-background="new 0 0 742.901 135.661"
	 xml:space="preserve">
<path fill-rule="evenodd" clip-rule="evenodd" d="M687.87,66.03c0,0.02,0.21,0.03,0.72,0.04c0.53,0.01,1.36,0.02,2.61,0.02
	C691.26,65.92,687.87,65.97,687.87,66.03z"/>
<path fill-rule="evenodd" clip-rule="evenodd" d="M689.753,66.085c0.482,0.001,0.963,0.004,1.447,0.004
	C690.632,66.09,690.158,66.088,689.753,66.085z"/>
<path fill-rule="evenodd" clip-rule="evenodd" d="M742.9,87.18c-12.44,3.57-32.44,7.65-42.04,16.69
	c-14.23,13.42-40.79,3.31-58.95,10.21c-19.59,7.44-44.23,5.09-64.66,4.84c-10.41-0.13-20.88,1.1-30.78,4.42
	c-9.08,3.04-24.44-1.09-33.95-1.66c-22.32-1.35-44.75,5.97-66.83,2.05c-10.33-1.83-20.9-2.48-31.36-1.41
	c-5.27,0.54-10.45,1.51-15.56,2.9c-4.68,1.28-9.07-3.22-13.86-3.2c-9.94,0.05-19.15,7.32-28.8,6.62c-3.66-0.76-7.15-1.97-10.49-3.63
	c-5.81-1.87-5.3,3.54-9.87,3.32c-21.7-1.08-40.23-2.37-61.51,2.44c-4.61,1.04-19.5,0.45-23.6-2.09c0.56,0.34-18.65,5.43-19.25,5.71
	c-25.12,2.13-49.4,0.9-74.48,1.05c-23.55,0.14-47.15-3.16-70.42-6.56c-23.77-3.48-46.53-12.35-70.43-14.79
	C4.33,112.89-6.4,88.79,4.2,82.91c5.81-3.22,10.35,0.35,15.97-2.52c9.4-4.79,13.77-11.67,25.17-13.45
	c6.14-0.96,14.79,0.53,20.3-2.95c6.4-4.05,11.72-7.05,19.32-7.9c16.35-1.84,30.27-5.99,47.46-6.26c0.07-5.29-67.64-7.04-66.73-11.53
	c1.22-6.02-15.43-11.18-5.79-16.47c11.64-6.37,27.98-4.79,40.95-7.05c14.33-2.51,25.73,0.37,39.32-0.32
	c11.56-0.58,23.25-6.5,35.31-7.62c24.14-2.26,45.72-4.27,68.99,6.03c-1.65-14.72,19.62-17.41,21.35-1.34
	c7.13-3.77,10.17-5.49,18.08-5.66c8.11-0.18,11.08,7.23,19.18,1.64c4.83-3.33,8.26,3.03,13.14,0.15c9.58-5.66,10.64-5.91,23.36-4.42
	c16.6,1.94,42.09-2.32,56.57,5.44c18.95,10.14,41.87,5.52,63.19,5.52c0.92,4.61-7.18,1.82-7.44,6.28c4.91,0.7,9.81,1.41,14.71,2.12
	c-0.1,6.14-7.49,4.17-9.74,8.59c4.06-0.85,6.02,0.21,5.91,3.18c-11.98,2.61-25.01,2.18-33.64,12.07c0.55,0.95,42.7,1.59,47.66,0.75
	c10.59-1.79,10.97-6.58,16.37-15.9c2.68-3.81,4.65-7.95,5.92-12.42c-1.51-3.08-2.39-6.31-2.65-9.69c1.01-7.83,6.85-7.83,13.02-5.63
	c9.89,3.52,7.57,2.25,16.09-1.7c6.12-2.84,14.53-2.11,19.71,2.4c7.48,6.53,6.83-0.52,13.78-2.58c4-1.18,14.2-0.34,18.69-0.58
	c6.96-0.36,8.58,6.42,15.06,7.44c17.19,2.7,30.83-0.66,23.14,19.43c-6.77,17.7,5.931,20.89,23.53,19.56
	c6.271-0.48,54.05,12.52,51.74,18.57c0.06-0.17-3.33-0.12-3.33-0.06c0,0.02,0.21,0.03,0.72,0.04c0.29,0.01,0.67,0.02,1.16,0.02
	c-12.8-0.03-25.26-0.33-38.05-1.6c-11.61-1.15-25.61-6.04-35.25,1.96c7.2,6.37,15.689,4.96,25.04,6.13
	c10.71,1.34,20.21,6.79,30.64,7.96C694.29,83.02,724.45,71.71,742.9,87.18z"/>
</svg>
