<?xml version="1.0" encoding="utf-8"?>
<!-- Generator: Adobe Illustrator 16.0.0, SVG Export Plug-In . SVG Version: 6.00 Build 0)  -->
<!DOCTYPE svg PUBLIC "-//W3C//DTD SVG 1.1//EN" "http://www.w3.org/Graphics/SVG/1.1/DTD/svg11.dtd">
<svg version="1.1" id="Layer_1" xmlns="http://www.w3.org/2000/svg" xmlns:xlink="http://www.w3.org/1999/xlink" x="0px" y="0px"
	 width="792px" height="126px" viewBox="0 0 792 126" enable-background="new 0 0 792 126" xml:space="preserve">
	 <style type="text/css">
	    <![CDATA[
	    .path { 
	    	fill: #478cca;
	    	opacity: 0.5; 
	    }
	    ]]>
  </style>
<g class="path">
	<path fill-rule="evenodd" clip-rule="evenodd" d="M712.447-138.559c1.478,2.833,4.188,4.162,7.69,4.526
		c0.168,0.265,0.334,0.53,0.5,0.795c-1.459,1.228-2.918,2.456-4.808,4.043c4.217,2.214,7.705,4.54,12.713,5.118
		c4.791,0.555,1.734-4.746,5.883-3.83c3.223,0.713,17.969,1.679,17.965,1.046c0.004,0.538-0.812,1.232-1.459,1.579
		c-0.614,0.327-1.486,0.26-2.229,0.418c-1.657,0.354-2.613,0.862-1.477,2.626c0.459,0.709,0.354,2.198-0.219,2.827
		c-1.831,2.017-0.79,5.223,2.157,6.047c6.175,1.726,13.054-2.259,18.583-0.439c1.506,0.495,0.771,5.256,0.72,5.927
		c1.35-0.976,10.476-11.327,12.684-6.257c2.632,6.055-12.005,10.298-4.167,17.931c3.008,2.93,6.614,2.373,10.049,3.05
		c2.773,0.548,4.552,2.481,4.487,5.033c-0.191,7.425-14.625,10.372-21.433,11.905c0.156,0.572,0.171,1.087,0.427,1.482
		c1.083,1.667,0.776,2.931-0.99,4.153c-2.247,1.555-6.498,10.147-6.113,10.048c-4.066,1.053-8.13,2.162-12.278,2.886
		c-7.606,1.329-11.218-3.908-20.517-0.523c3.409,0.395,6.782-0.232,9.56,1.771c-0.585,0.489-1.14,1.36-1.76,1.398
		c-3.139,0.191-7.685,0.486-10.796,0.741c-11.66,0.961-22.515,1.347-34.031,3.578c3.149,2.189,8.143,7.269,1.038,9.082
		c-8.314,2.124-22.632,4.7-29.563,8.634c-3.766,2.14-5.159-0.156-8.088-1.807c-0.808,2.255-0.797,2.221,2.426,2.968
		c1.747,0.406,3.452,0.953,6.144,1.707c-6.768,3.868-9.854,8.403-18.814,3.879c-5.755-2.906-11.225,3.263-17.24-1.423
		c-0.035-0.027-12.938-3.249-12.629-3.401c-2.254,1.111-22.515,0.017-24.65-1.692c-5.048-4.039-26.444,3.187-33.685,2.237
		c-19.655-2.58-55.598,16.739-73.454,4.427c1.154-0.877,2.454-1.47,3.898-1.778c-1.207-3.173-2.395-3.521-5.477-1.965
		c-2,0.574-4.037,0.729-6.109,0.461c0,1.393,1.596,3.507-0.982,3.924c-1.758,0.284-3.267-0.1-3.618-1.986
		c-0.542-2.929,1.039-5.492,4.39-7.266c2.323-1.229,4.575-2.561,7.331-4.114c-4.822-1.652-7.169-1.489-10.809-5.168
		c-2.165-2.188-13.211,4.78-14.504,6.6c-3.414,4.804-14.155,1.381-20.523,4.258c0.082,0.333,0.161,0.666,0.241,0.998
		c5.647,0,21.504,1.835,25.301-1.694c-0.562-0.591-1.406-1.098-1.541-1.722c-0.883-4.116,7.337-3.666,10.158-4.03
		c5.069-0.651-1.49,5.588-1.354,5.449c-0.126,1.237,0.051,3.404-0.427,3.521c-2.435,0.596-5.04,0.662-7.583,0.915
		c-0.207-0.241-0.412-0.481-0.618-0.721c-0.291,1.16-0.698,2.308-0.846,3.481c-0.212,1.673-1.146,2.468-3.044,2.213
		c-5.733-0.769-30.949-0.799-27.066-6.096c0.538-0.737,1.444-1.268,2.254-1.945c-4.22-1.043-13.836,9.04-16.395,11.211
		c-0.874,0.743-2.466,0.991-3.785,1.152c-17.804,2.181-37.34-2.842-54.875-4.3c-17.058-1.417-34.283-6.014-52.26-7.482
		c-5.694-0.465-9.125,2.393-15.165,0.104c-1.692-0.642-1.571-3.356,0.125-4.557c2.795-1.979,5.975-2.954,9.63-2.435
		c4.458,0.635,11.169-0.871,15.007-3.078c3.01-1.73,5.146-0.338,7.777,1.49c-1.689,0.607-2.987,1.079-4.29,1.54
		c-4.13,1.461,13.878,3.761,15.966,3.067c9.839-3.274,15.844-5.262,26.191-4.019c-0.272,1.257-0.361,2.576-0.878,3.749
		c-0.341,0.773-1.3,1.338-1.981,1.996c0.159,0.192,0.318,0.386,0.478,0.579c7.07-1.768,12.52-4.201,20.114-3.761
		c7.185,0.417,5.527-9.529,11.305-9.831c0.168-1.917-0.526-3.444-2.082-4.582c-9.17-1.702-24.45-0.212-33.202,2.438
		c-5.149,1.56-13.502,1.419-19.051,1.989c-5.344,0.548-11.244,3.548-15.856,3.816c-2.358,0.137-15.676,1.507-17.521,0.241
		c-2.308-1.583-6.292-1.49-6.89-4.961c-0.084-0.493-9.38-1.145-11.18-3.378c-1.322-1.642-3.505-2.807-5.477-3.954
		c-3.575-0.045-6.641,1.222-9.199,3.802c-1.799,0.738-3.639,0.925-5.518,0.561c-3.018,1.593-6.529,1.829-9.708,2.877
		c-3.015,0.995-8.91,0.793-11.465-0.842c-4.348-2.785-11.649-2.858-16.731-3.445c-1.907-0.005-3.461,0.594-4.664,1.797
		c-9.114-1.394-25.136,6.505-35.229,7.168c-13.863,0.912-33.516,1.55-46.879-1.128c4.123,10.662-50.349,2.589-58.602,0.593
		C55.489-50.693,30.205-54.779,3.267-59.732c-0.891-0.164-1.592-1.118-2.38-1.712c0.902-0.601,1.796-1.701,2.708-1.712
		c7.495-0.094,16.192-1.379,23.487-0.532c3.874,0.452,6.262-6.309,12.175-7.161c4.453-0.643,5.603,5.066,8.704,3.747
		c2.65-1.127,5.324-2.213,8.518-3.534c-2.955-0.782-12.212-7.284-3.077-6.734c3.773,0.33,7.532,0.756,11.277,1.277
		c4.337,0.486,7.185-4.785,10.843-4.723c5.101,0.087,11.331-1.475,16.475-1.996c-1.591-2.946-1.281-5.49,0.924-8.021
		c-0.612,0.702-25.918-1.759-30.984-2.744c-0.332-0.064-0.608-0.353-1.261-0.75c1.334-1.008,2.346-2.214,3.036-3.619
		c-1.462-4.583-14.091,3.183-16.261,3.263c-6.759,0.25-10.05-7.723-0.951-7.53c7.009,0.149,20.961-4.583,26.714-0.184
		c1.82-5.468,21.163-7.589,27.44-8.185c14.891-1.416,17.751-7.401,1.211-5.819c-2.952,0.282-4.412-1.224-5.263-3.399
		c-0.712-1.822,0.114-2.684,2.221-2.103c2.202,0.606,3.847,0.248,5.435-1.204c2.448-2.237,3.098-2.131,5.43,0.733
		c0.976-0.535,8.215-6.347,10.575-3.159c-0.383,1.55-1.436,2.607-3.157,3.173c0.193,0.304,0.386,0.607,0.578,0.911
		c2.961-1.661,5.936-3.302,8.925-4.923c8.464-4.008,30.969-3.042,40.827-2.567c5.787,0.282,4.338-6.417,11.392-4.494
		c8.37,2.282,11.302,1.059,21.729,0.178c4.466-0.379,14.121,2.636,18.298-0.227c10.086-6.914,3.125,1.778,12.171-0.337
		c-0.627-1.053-0.773-2.167-0.436-3.345c3.239,0.22,8.296-0.62,8.879,2.848c8.044,1.081,16.301-3.685,24.869-4.34
		c11.875-0.909,24.837-1.162,37.527-1.162c0.279-0.999,0.419-1.561,0.594-2.115c1.122-3.559,5.622-4.569,8.954-4.456
		c9.575,0.326,18.846,1.414,28.317,2.107c1.857,0.136,3.148,0.396,3.917,2.231c1.862,4.446,43.143,6.312,49.753,4.863
		c9.396-2.059,18.714,2.602,28.091,1.025c11.225-1.887,26.85-2.846,38.32-2.073c2.506,0.167,2.283-3.761,6.095-3.394
		c11.784,1.137,24.594,3.814,36.462,3.08c9.116-0.564,13.636-3.116,23.202-1.908c0.095-0.509,0.191-0.685,0.141-0.819
		c-0.343-0.936-0.715-1.862-1.078-2.792c1.728,0.04,3.671-0.35,5.143,0.211c2.962,1.13,5.581,2.944,8.524,4.124
		c3.333,1.335,10.128-1.019,11.116-3.821c0.95,0.28,1.932,0.487,2.831,0.852c2.082,0.845,9.806-0.8,12.324-0.847
		c6.222-0.114,10.287,3.165,15.935,3.671c14.429,1.294,28.868,2.898,43.32,3.976c4.8,0.356,11.128-2.626,16.032-2.835
		c3.139-0.132,15.776-4.938,17.642-7.605c1.264-1.81,10.858-1.398,7.45,2.262c-0.737,0.792-1.976,1.224-2.628,2.292
		c7.716,0.673,11.583-1.806,18.763-3.622c3.117-0.79,3.449,1.339,5.619,2.677c0.225-0.187,0.45-0.374,0.675-0.56
		c-0.465-0.603-1.003-1.173-1.37-1.818c-2.42-4.238,8.405-1.75,10.32-1.428C702.605-145.481,706.081-139.223,712.447-138.559z
		 M685.097-130.701c-0.082,10.536,19.588-4.183,4.226-4.413C686.955-135.149,685.118-133.229,685.097-130.701
		C685.078-128.289,685.118-133.229,685.097-130.701z M664.252-132.591c0.064,0.264,0.132,0.527,0.197,0.791
		c4.781-0.606,9.562-1.212,14.343-1.82c-0.063-0.413-0.129-0.826-0.191-1.239C673.887-133.625,668.667-135.852,664.252-132.591
		C664.316-132.327,668.667-135.852,664.252-132.591z M58.288-69.908c1.731,1.426,3,3.293,4.619,3.565
		c1.539,0.26,3.444-1.146,5.128-1.798C64.383-69.413,61.94-71.899,58.288-69.908C60.019-68.482,60.507-71.118,58.288-69.908z
		 M473.479-46.08c3.166-1.418,5.851-2.622,8.646-3.875c-3.607-1.463-6.374,1.302-10.104,1.211
		C472.679-47.541,473.142-46.697,473.479-46.08C476.645-47.499,473.142-46.697,473.479-46.08z M146.468-122.55
		c4.042,1.263,6.333,0.875,7.717-1.179C149.052-124.313,148.358-124.218,146.468-122.55z M404.42-24.879
		c2.707,0.048,5.094,1.319,7.633-0.379C408.994-27.356,407.092-27.285,404.42-24.879z M711.523-132.339
		c-0.897-2.413-2.499-3.129-5.531-2.475C706.331-132.399,707.704-131.785,711.523-132.339z M42.279-63.79
		c0.118-0.268,0.235-0.536,0.352-0.803c-1.505-2.163-3.238-2.563-5.198-1.2C38.337-64.084,39.952-63.416,42.279-63.79
		C42.396-64.058,41.09-63.946,42.279-63.79z M130.821-120.699c1.443-0.953,2.673-1.764,4.121-2.72
		C131.339-124.572,130.434-123.982,130.821-120.699z"/>
	<path fill-rule="evenodd" clip-rule="evenodd" d="M712.537-138.492c-2.42-1.58-5.225-3.262-5.951-5.816
		c0.936-0.027,2.521-0.347,2.701-0.036c1.522,2.611,18.507,4.888,22.287,6.239c10.73-10.137,12.514,7.322,12.35,7.433
		c-4.92,3.357-27.012-6.806-31.479-7.888C712.447-138.559,712.537-138.492,712.537-138.492z"/>
	<path fill-rule="evenodd" clip-rule="evenodd" d="M75.464-88.523c4.222,0.489,7.182-0.694,11.347-0.52
		c4.203,0.178,2.351,4.886-0.716,5.015c-3.116,0.13-6.325-0.071-9.362-0.668c-0.938-0.184-1.441-2.062-2.144-3.165
		C74.881-88.082,75.173-88.302,75.464-88.523C76.769-88.373,75.173-88.302,75.464-88.523z"/>
	<path fill-rule="evenodd" clip-rule="evenodd" d="M372.128-42.604c0.071-3.409,2.068-5.393,5.375-5.797
		c1.261-0.155,2.409-0.919,3.664-1.243c5.533-1.432,4.138,5.607,1.678,5.139C378.888-45.257,375.885-42.604,372.128-42.604
		C372.199-46.013,372.667-42.604,372.128-42.604z"/>
	<path fill-rule="evenodd" clip-rule="evenodd" d="M42.163-71.908c-3.619-4.041-1.716-5.671,3.045-3.015
		C44.378-74.102,43.55-73.28,42.163-71.908C40.934-73.28,43.55-73.28,42.163-71.908z"/>
</g>
<g class="path">
	<path fill-rule="evenodd" clip-rule="evenodd" d="M401.376,27.67c1.368-2.512,2.476-5.328,4.269-7.588
		c1.975-2.492,27.615,3.592,27.476-1.954c0.062,2.826,26.678-0.471,28.751-0.582c1-0.055,2.036,0.562,3.411,0.982
		c3.146-2.582,2.756-5.201,4.55-8.523c1.909,4.326,11.716,8.279,8.741,3.714c-0.726-1.115-1.868-1.991-2.425-3.168
		c-4.465-9.438,14.723,5.196,16.11,5.828c0.836-1.83,1.081-4.28,4.041-3.556c4.01,0.981,1.563,4.244,2.252,6.919
		c2.394-0.959,4.479-2.045,6.694-2.584c5.784-1.406,11.761,0.968,18.285-1.026c-0.09-0.343-0.179-0.685-0.267-1.026
		c-2.803,0-5.615,0.154-8.399-0.068c-1.285-0.104-2.966-0.621-3.618-1.556c-0.057-1.928,0.418-3.679,1.423-5.254
		c0.886-0.869,1.907-2.241,2.86-2.23c3.029,1.388,5.625,3.38,7.789,5.977c1.271,1.073,0.438-6.135,1.697-6.698
		c2.345-1.049,5.33-1.098,7.973-0.86c4.839,0.437,17.637,3.458,22.468,0.916c7.069-3.724,10.058,5.58,14.074,3.408
		c3.433-1.868-0.388-5.71,4.704-5.896c26.521-0.96,51.698-1.125,77.987-1.438c10.612-0.129,22.397,8.906,32.105,5.177
		c3.663-1.406,7.515-2.353,11.345-3.237c3.126-0.723,17.478,11.635,21.404,13.793c3.854-4.397,7.181-4.622,12.23-0.634
		c3.677,2.905,5.69,0.014,7.005,5.824c0.921-0.988,1.635-1.729,2.319-2.496c1.931-2.165,4.032-2.162,6.159-0.368
		c2.877,2.428,19.875,7.294,23.574,7.709c7.824,0.879,3.475,5.171,6.158,10.194c0.91,1.704,7.828,16.205,7.524,16.076
		c8.449,3.614,14.998,4.161,5.448,11.997c-5.177,4.25-7.492,8.163-12.779,11.076c1.412,0.335,2.303,0.354,2.962,0.759
		c6.433,3.954-9.491,5.771-11.033,6.323c1.062,0.97,1.896,1.57,2.526,2.339c3.005,3.667,10.604-4.79,15.833-0.56
		c4.016,3.248-7.42,6.104-6.771,5.982c-2.016,0.377-4.193-0.142-6.335-0.268c0.413,4.631-1.293,6.252-5.066,4.907
		c-0.79-0.28-1.643-1.269-1.861-2.095c-0.443-3.297-0.734-6.605-0.874-9.93c-1.961-0.359-4.096-0.751-6.691-1.229
		c1.535,2.234,3.516,3.867,3.33,5.189c-0.759,5.404-12.176,8.237-13.553,14.203c-1.446,6.225-14.596-1.613-14.523,1.166
		c0.169,1.901,1.338,2.931,3.508,3.09c0.748,0.54,1.229,1.457,1.83,2.207c-1.444,1.152-6.206,6.533-7.621,6.479
		c-3.975-0.151-1.828-4.868-6.071-3.253c-2.54,0.967-5.486-2.387-8.405-2.44c-3.29-0.06-6.495-1.749-9.908-0.317
		c-0.668,0.281-2.018-0.398-2.718-1.02c-2.788-2.472-3.037-2.466-5.242,1.356c6.675,1.226,13.731-0.153,19.93,3.807
		c-2.005,0.468-4.226,0.54-5.948,1.516c-9.835,5.561-12.716,4.885-23.389-0.825c-0.941,1.185-2.226,2.385-2.992,3.861
		c-1.986,3.83-5.421-2.305-8.981-0.247c-0.239,1.557-0.22,3.106,0.059,4.65c-22.238,0.889-36.39-10.197-57.252-3.563
		c-4.032,1.28-4.484,1.176-4.055-3.586c-1.318,0.701-2.536,0.984-3.168,1.759c-1.442,1.768-3.264,1.829-4.611,0.647
		c-3.92-3.439-6.372-11.709-11.839-8.708c-9.725,5.343-35.559,0.415-47.191,1.271c-10.571,0.771-23.628,6.645-34.363,3.438
		c-3.368-1.005-3.754,6.295-8.826,4.949c-1.354-0.359-2.905-0.207-4.321,0.01c-3.166,0.486,0.592,6.146-3.192,7.437
		c-1.76,0.601-3.566,0.753-4.482-1.337c-1.139-2.592,2.501-8.483,2.962-11.546c2.039-13.988-53.862,7.445-58.481,10.264
		c-1.16,0.709-2.515,1.234-3.842,1.415c0.242-0.033-3.367-5.591-3.075-5.391c-2.618-1.792-5.26-3.668-8.149-4.892
		c-3.57-1.515-9.91,1.058-12.446-3.189c-2.608-4.359-14.969,4.655-15.724-5.048c-1.542,1.359-22.355,1.233-24.187-0.02
		c-1.388,0.931-2.972,1.734-4.199,2.917c-0.677,0.651-1.113,1.979-0.997,2.92c0.468,3.8,5.409,1.792,2.632,6.381
		c-1.624-1.156-2.372-3.978-4.659-3.61c-1.85,0.296-3.187,0.377-3.677,2.741c-0.551,2.657-5.269,3.243-7.819,1.222
		c-1.984-0.965-3.499-2.422-4.541-4.372c2.778-1.806,5.98-1.256,6.799-4.943c-3.012-0.137-5.866-0.075-8.663-0.444
		c-0.987-0.129-10.095-3.672-9.296-4.262c-2.833,2.084-6.832-0.102-9.596,3.1c-1.964,2.275-5.126-7.598-11.765-2.365
		c-3.45,2.72-6.69,2.081-8.975-1.783c-0.499-0.843-1.059-1.651-1.858-2.892c-1.885,3.865-4.759,4.444-8.153,3.997
		c-9.442-1.256-19.145,2.985-28.936,1.706c-0.409,5.548-6.869-2.669-7.382,3.312c-0.102,1.189-2.66,7.927-3.819,7.943
		c-4.534,0.058-3.894-3.917-8.016-5.168c-6.308-1.916-11.407-2.507-17.542-5.672c-0.047,0.938-0.095,1.878-0.142,2.822
		c-4.965,0.455-7.46,3.637-7.874,10.066c-0.297,4.623-4.7,6.873-8.627,4.455c-0.764-0.472-1.979-1.2-2.498-0.913
		c-3.304,1.836-6.417-0.114-9.602-0.207c-6.684-0.191-5.488-2.923-13.325-2.578c-4.358,0.199-0.303-7.521-7.389-5.833
		c-9.191,2.188-46.126,1.569-49.016-7.201c-2.202,1.3-4.312,2.719-6.586,3.775c-0.639,0.298-1.905-0.274-2.623-0.807
		c-0.674-0.499-1.005-1.471-1.657-2.505c-1.151,0.879-2.065,1.673-3.072,2.32c-5.966,3.832-1.925-9.611-2.106-8.703
		c-1.83,0.519-3.674,1.515-5.456,1.411c-7.243-0.415-16.816-5.085-23.766-5.071c-8.84,0.017-16.373,1.312-24.439-4.067
		c-2.818-1.88-1.598-6.268-5.713-5.076c-4.262,1.233-14.835,1.505-18.905,0.434c0.407-1.289,0.707-2.241,1.073-3.403
		c-0.443-0.193-0.882-0.566-1.299-0.542c-5.014,0.279-3.369-9.267-3.669-11.301c-0.603-4.067-11.937-2.572-14.439-2.834
		c-4.638-0.483-3.673-2.729-2.083-6.565c0.118-0.285,0.627-0.406,0.713-0.456c-3.429-1.624-6.987-2.438-10.675-2.442
		c-3.443,1.452-4.932-0.328-5.809-3.33c-0.222-0.762-0.5-1.506-1.002-3.002c9.812,3.666,22.199-0.01,32.165-0.964
		c-0.56-1.341-0.896-2.143-1.407-3.367c1.496-0.177,2.83-0.335,4.732-0.561c-0.667,1.041-1.04,1.624-1.505,2.351
		c2.778,3.091,5.488-1.527,7.903-2.117c5.338-1.305,7.876-12.925,10.983-12.389c2.46,0.424,4.845,1.296,7.226,1.986
		c1.819-6.042,2.986-6.286,8.32-2.76c3.208,2.12,6.51,4.609,10.108,5.446c4.888,1.135,14.812-4.681,19.128-6.305
		c0.339,0.794,0.72,1.69,1.122,2.632c3.474-2.858,3.749-4.241,2.326-8.991c-0.759-2.531-1.414-5.125-1.756-7.74
		c-0.139-1.073,0.672-2.274,1.051-3.417c3.896,1.394,6.179,5.147,10.316,5.737c3.342,0.478,5.699-1.535,5.621-4.914
		c-0.021-0.874,0.617-1.765,0.953-2.646c4.735,2.043,5.516,5.646,4.013,10.498c-0.17,0.551-0.393,1.086-0.59,1.626
		c0.226,0.17,0.453,0.34,0.68,0.509c0.963-1.554,2.1-2.97,3.409-4.246c2.104,2.117,2.322,3.767,5.159,4.346
		c0.347-1.812,0.126-3.579-0.662-5.297c1.562-0.4,3.15-1.21,4.677-1.106c4.27,0.286,5.005-11.305,10.963-8.495
		c0.967,0.456,1.715,1.408,2.523,2.18c2.04,1.944,9.607-0.21,12.52-0.21c0.777,1.405,2.09,3.782,3.601,6.516
		c2.481,0.512,5.466,1.771,8.333,1.538c2.733-0.222,5.341-2,8.519-3.306c2.339,0.931,5.513,2.19,8.638,3.432
		c6.224-6.417,15.877,10.284,23.428,1.803c2.689-2.803,5.744-3.833,9.163-3.089c1.223,0.881,2.221,2.153,3.12,3.404
		c3.61,5.014,10.66,0.447,14.509-1.603c2.227-1.188,6.63-0.751,8.386,1.122c1.239,1.32,2.549,2.617,4.021,3.64
		c1.662,1.155,6.41-4.971,7.337-0.426c0.013,0.061-3.064,4.232-3.195,4.673c3.043-0.176,3.813-3.125,6.922-0.925
		c3.672,2.601,3.382-5.499,7.623-5.451c5.164,0.062,2.069,8.308,8.591,8.472c3.303,0.083,3.47-4.065,4.515-6.241
		c3.966,4.072,10.008,2.654,13.377,6.332c2.733-0.309,5.297-1.201,7.692-2.678c3.328-0.005,6.94-1.706,10.07,1.044
		c0.995,0.874,18.439,0.92,20.833,1.488c3.668-6.931,4.636-0.075,10.029-2.568c5.766-2.662,11.544-5.095,18.116-4.032
		c1.125,0.184,3.461-9.595,3.72-10.79c4.072,2.102,7.151,5.082,9.342,9.145c0.213-0.124,0.427-0.249,0.641-0.374
		c0-11.723,7.698,0.298,11.372,0.528c-1.245-1.471-2.159-2.551-3.073-3.633c0.079-0.347,0.159-0.694,0.238-1.042
		c2.973-0.219,6.108-1.125,8.87-0.455C397.343,24.194,399.558,26.482,401.376,27.67C402.744,25.158,399.558,26.482,401.376,27.67z
		 M92.377,50.807c-4.096-1.258-7.526-2.357-10.993-3.323c-2.694-0.746,3.335,7.938,9.338,5.331
		C91.194,52.609,91.468,51.941,92.377,50.807C88.281,49.549,91.468,51.941,92.377,50.807z M552.868,14.76
		c-3.151-0.852-6.007-1.846-3.493-5.589c-3.028,0.169-5.517,2.8-4.538,4.488C545.56,14.905,550.648,15.907,552.868,14.76
		C549.717,13.908,550.648,15.907,552.868,14.76z M212.448,102.665c2.728-3.757,2.915-2.255-1.449-6.805
		C208.226,99.53,207.895,98.267,212.448,102.665C213.543,101.157,210.804,101.077,212.448,102.665z M222.371,104.734
		c4.17-0.761-11.668,4.127-5.879,4.244C217.398,108.99,225.3,108.297,222.371,104.734
		C220.421,105.09,224.377,107.175,222.371,104.734z M258.105,105.485c-1.66-0.518-3.339-0.582-4.335-1.447
		c-2.013-1.751-2.222-0.338-2.547,0.415c1.533,2.025,2.755,3.639,3.919,5.177C255.935,108.52,256.911,107.156,258.105,105.485
		C256.445,104.968,256.911,107.156,258.105,105.485z M65.651,48.036c0.025,0.457,0.048,0.913,0.073,1.369
		c3.104-1.745,6.394,2.51,9.446-1.369C71.998,48.036,68.824,48.036,65.651,48.036C65.676,48.493,68.824,48.036,65.651,48.036z
		 M54.742,47.217c-2.791-0.845-4.564,0.037-5.32,2.646c0.152,1.895,0.917,2.283,2.293,1.164
		C52.726,49.915,53.601,48.678,54.742,47.217C51.587,46.569,53.601,48.678,54.742,47.217z M142.013,27.228
		c0.606,0.282,1.213,0.563,1.82,0.846c3.004-2.783,3.05-4.589,0.136-5.419C143.318,24.18,142.666,25.703,142.013,27.228
		C142.619,27.51,142.666,25.703,142.013,27.228z M56.294,77.026c-0.354-0.18-0.708-0.359-1.061-0.539
		c-0.634,1.155-1.268,2.311-1.902,3.466c1.271,0.41,2.542,0.817,4.563,1.469C57.114,79.281,56.705,78.153,56.294,77.026
		C55.94,76.847,56.705,78.153,56.294,77.026z M40.621,77.866c0.266-0.078,0.532-0.155,0.798-0.234
		c0.783-2.423,0.015-3.973-2.305-4.651C38.529,74.908,39.031,76.537,40.621,77.866C40.887,77.788,40.053,77.046,40.621,77.866z
		 M301.323,45.632c0.484,0.21,0.967,0.42,1.451,0.629c0.509-1.017,1.018-2.035,1.525-3.053c-0.655-0.327-1.311-0.654-1.966-0.982
		C301.997,43.361,301.66,44.496,301.323,45.632C301.808,45.842,301.66,44.496,301.323,45.632z M251.463,96.211
		c-2.391,1.434-2.471,2.816-0.238,4.151C253.177,99.126,253.256,97.743,251.463,96.211
		C250.548,97.289,252.117,97.293,251.463,96.211z M770.514,42.36c0.368-0.163,0.735-0.326,1.103-0.489
		c-0.641-1.674-1.28-3.348-1.92-5.022c-0.483,0.213-0.966,0.425-1.449,0.638C769.003,39.111,769.758,40.736,770.514,42.36
		C770.882,42.197,769.758,40.736,770.514,42.36z"/>
	<path fill-rule="evenodd" clip-rule="evenodd" d="M336.713,117.123c-0.457,1.911-0.183,4.641-3.557,4.476
		c-2.525-0.123-4.612-2.723-4.222-5.438C329.678,110.993,337.057,111.637,336.713,117.123
		C336.256,119.034,336.897,114.192,336.713,117.123z"/>
	<path fill-rule="evenodd" clip-rule="evenodd" d="M502.049,7.502c1.816,0.148,3.622,0.338,3.308,2.918
		c-0.239,1.976-0.777,3.732-3.309,3.497c-2.229-0.207-3.61-1.233-3.553-3.725C498.551,7.724,500.133,7.413,502.049,7.502
		C503.865,7.65,500.133,7.413,502.049,7.502z"/>
	<path fill-rule="evenodd" clip-rule="evenodd" d="M494.943,7.754c-0.092,3.262-1.666,4.85-4.041,4.328
		c-1.008-0.222-2.249-1.612-2.479-2.672c-0.367-1.692,2.618-4.115,4.453-3.607C493.849,6.072,494.546,7.355,494.943,7.754
		C494.852,11.016,494.546,7.355,494.943,7.754z"/>
	<path fill-rule="evenodd" clip-rule="evenodd" d="M487.086,123.73c1.327-0.255-12.957,3.179-7.529-2.562
		C483.057,117.465,484.661,121.173,487.086,123.73C484.797,124.17,486.183,122.777,487.086,123.73z"/>
	<path fill-rule="evenodd" clip-rule="evenodd" d="M706.027,2.676c1.819,1.765,5.809,5.361,0.272,5.169
		c-2.072,0.326-3.308-0.53-3.708-2.565C703.523,4.141,704.669,3.271,706.027,2.676C707.426,4.032,704.492,3.784,706.027,2.676z"/>
	<path fill-rule="evenodd" clip-rule="evenodd" d="M639.264,122.715c-1.278-1.373-2.062-2.215-2.847-3.057
		c1.779-2.654,3.554-2.601,5.324,0.159C641.065,120.608,640.388,121.4,639.264,122.715
		C637.985,121.342,640.388,121.4,639.264,122.715z"/>
	<path fill-rule="evenodd" clip-rule="evenodd" d="M676.833,1.659c-1.535,0.956-2.396,1.925-3.056,1.799
		c-0.987-0.189-1.834-1.145-2.74-1.773c0.795-0.6,1.558-1.611,2.396-1.681C674.273-0.066,675.189,0.806,676.833,1.659
		C675.298,2.615,675.189,0.806,676.833,1.659z"/>
	<path fill-rule="evenodd" clip-rule="evenodd" d="M688.233,2.103c-1.176,0.842-1.932,1.793-2.663,1.778
		c-0.569-0.015-1.628-1.318-1.535-1.896C685.371-0.314,686.771-0.275,688.233,2.103C687.058,2.944,687.188,1.228,688.233,2.103z"/>
</g>
<g class="path">
	<path fill-rule="evenodd" clip-rule="evenodd" d="M340.461-287.414c5.591-0.581,6.527-6.244,12.762-1.762
		c6.247-0.706,12.771,1.405,18.619-2.065c3.112-1.851,16.765-1.343,19.682,1.685c-1.3-1.349,11.189-1.699,14.067-0.762
		c8.47,2.758,18.171,2.4,26.895,3.594c12.633,1.729,28.916,4.707,41.138,4.661c11.586-0.042,23.165-0.146,34.739,0.59
		c6.021,0.383,13.451,4.846,19.233-0.215c3.747,1.169,30.118,5.132,32.423,3.085c5.923-5.262,18.7,1.029,25.95-0.091
		c11.418-1.763,24.037-1.361,35.559-1.095c18.896,0.436,44.49,8.27,62.672,3.707c16.991-4.258,38.445,7.02,53.098-0.348
		c2.324-1.169,16.231-6.772,17.236-4.592c2.119,4.599-10.57,14.435-13.219,17.252c7.779,0.754,6.924,10.825,15.471,10.295
		c8.074-0.502,8.242-3.424,14.658-1.369c4.495,1.441,16.559,3.026,15.971,10.433c-0.74,9.314-11.539,6.309,0.351,12.866
		c15.155,8.356-20.485,16.266-19.987,23.255c0.662,9.268,25.262-0.209,6.334,16.316c9.199-3.488,6.171,8.769,2.881,11.837
		c-10.35,9.655-21.424,8.382-31.564,1.155c-2.209,1.644-3.598,3.196-5.299,3.835c-11.194,4.207-26.771,6.941-38.895,8.056
		c-8.146,0.75-14.317,0.809-22.83,0.411c-3.789-0.178-10.569-4.014-3.24-6.02c2.793-0.767,3.064-3.125,3.258-5.947
		c-1.694,0.235-7.906,1.964-9.35,3.068c-4.93,3.771-7.826-1.105-12.392,0.999c-7.112,3.274-18.287,1.202-24.371,5.728
		c-4.856,3.611-23.23,2.803-27.843-0.304c-7.485-5.042-13.23-3-21.203-2.488c-2.92,0.187-12.926-2.612-14.604-4.383
		c4.738-3.971,28.59-4.701,28.59,0.452c2.688-0.708,5.1-1.343,7.512-1.979c0.018-0.344,0.034-0.688,0.051-1.033
		c-5.574-3.596-13.873-1.066-18.729-4.854c-2.378-1.854,0.355-4.493-3.738-4.638c-8.766-0.311-14.054,1.707-22.277,2.547
		c-5.646,0.577-6.158-3.326-10.65-4.286c-4.684-1.001-14.934,4.283-20.35,4.287c-6.331,0.004-12.951,0.534-19.076-1.3
		c0.01-0.402,0.02-0.803,0.029-1.205c2.104-0.545,4.209-1.091,7.092-1.837c-0.056-0.007-13.262-3.244-11.966-4.494
		c-3.553,3.427-17.084,3.579-21.646,3.784c-2.576,0.115-6.49,2.642-9.824,2.912c0.014,0.277,0.028,0.553,0.043,0.83
		c2.126-0.607,3.771,0.052,4.934,1.978c-4.695,5.128-18.241-2.822-20.584,5.856c0.277-0.031,12.367-0.628,7.844,2.353
		c-1.93,1.271-4.209,2.655-6.365,2.705c-8.893,0.208-29.858,4.628-36.476-1.87c4.866-4.82,16.625-2.985,23.095-3.464
		c1.789-0.133,8.924-5.678,9.981-7.253c-2.725-1.078-27.481,1.298-22.347-5.369c1.898-2.468-1.016-3.203-2.686-4.654
		c1.762-2.452,4.191-3.272,7.287-2.462c-4.207-0.539-13.393,0.093-16.795-2.912c-3.369-2.972-6.462-5.206-10.285-7.609
		c-0.313,0.126-0.949,0.461-1.622,0.638c-3.384,0.889-13.771-3.892-15.493-6.544c-1.711-2.641-26.845-0.904-30.852-1.053
		c-11.199-0.414-23.414-0.875-34.481,1.092c-5.392,0.958-13.513,4.84-18.846,4.257c-1.716-0.188-2.674,0.523-2.686,2.861
		c2.732,0.167,5.377,0.331,8.201,0.503c-7.674,9.979-13.618,3.716-11.24,19.118c0.731,1.516,1.452,3.037,2.162,4.564
		c-9.23,3.485-22.873,0.882-32.723,0.871c-4.371-0.004-14.965-3.887-18.956-1.269c-8.459,5.545-17.116,0.171-22.735-5.546
		c1.974,8.475-30.838,7.205-35.559,7.27c-2.701-1.108-5.145-2.693-7.33-4.756c-3.305-1.529-3.384-1.342-3.333-5.52
		c-1.573,0.582-3.425,0.677-4.125,1.666c-4.19,5.912-2.439,11.008-11.624,12.607c-5.184,0.903-14.009,5.925-18.6,3.005
		c0.161,0.102-12.465,0.917-12.219,0.797c-5.269,2.555-11.193-0.704-16.253,2.806c-1.202,0.835-5.469-1.868-5.558-3.343
		c-0.23-3.818,5.926-1.259,6.458-6.112c-5.027,0.418-8.925,1.102-13.402-1.498c4.981-2.418,10.522-2.127,15.876-3.158
		c1.013-0.196,1.774-1.83,2.653-2.803c-8.899-2.602-16.311,1.129-24.37,2.164c0.451,1,0.801,1.77,1.198,2.646
		c-0.508,0.144-0.901,0.345-0.968,0.261c-2.058-2.575-11.264-4.403-12.694-1.447c2.787,0.778,6.057,0.821,5.345,4.997
		c-0.352,2.062-0.95,4.137-1.817,6.014c-0.366,0.792-1.704,1.089-2.603,1.611c-1.543-2.076-1.522-3.989,0.064-5.74
		c-1.152,0-14.685,1.47-14.541-1.817c0.132-3.075-8.776-5.782-5.697-8.775c1.662-1.615,3.361-2.859,5.854-2.464
		c9.588,1.521,19.412-2.517,28.938-2.744c-1.222,0.029,8.804-3.431,6.413-1.452c5.699-4.697,17.06-1.909,23.86-5.824
		c-1.794-2.542-4.22-3.302-7.274-2.281c-0.771-0.087-1.474-0.856-2.206-1.317c0.56-0.859,0.954-2.213,1.708-2.49
		c3.268-1.203,7.028-1.525,10.024-3.365c-6.846-9.02,15.384-9.901,21.151-11.065c-0.672-0.285-1.227-0.46-1.725-0.745
		c-1.59-0.912-2.05-2.579-0.669-3.57c4.428-3.179,9.785-1.609,13.8-5.212c0.099-1.363,0.244-3.34,0.935-3.578
		c1.309-0.45,2.931,0.095,4.424,0.228c-0.305,1.468-0.605,2.938-1.013,4.911c1.22,1.81,7.817-1.067,8.758-3.155
		c1.295-1.343,2.438-2.815,3.429-4.418c-2.219-0.478-3.966-1.71-5.244-3.7c-0.448-1.712,0.925-2.596,2.407-2.41
		c1.415,0.178,2.772,0.869,4.262,1.37c0.838-0.936,1.757-1.962,3.025-3.379c-6.104,0-17.127,0.398-22.609-1.731
		c-0.072-0.028-0.24,0.219-0.078,0.063c-1.074,6.583-38.8,14.492-41.224,7.399c-0.204-0.594,0.12-1.702,0.589-2.177
		c2.002-2.028,4.098-4.025,7.174-1.928c4.023,2.749,23.916-1.282,28.144-2.6c-5.261-8.741,17.48-5.19,21.826-6.503
		c-0.065-0.327-0.13-0.654-0.193-0.981c-3.041-0.307-19.583-1.101-19.369-1.211c3.838-1.987,29.36-3.198,29.313-5.101
		c-0.14-5.614,7.668,2.379,9.037,0.952c2.546-2.65,7.852,0.15,9.494-2.583c2.878-4.779,4.297-10.485,11.337-8.062
		c3.114,1.073,6.561-0.463,9.649-1.108c1.055-1.871,2.164-3.708,3.326-5.509c2.333-7.705,8.16,3.205,10.363-3.757
		c2.604,3.562,2.628,3.52,6.644,1.704c4.218-1.908,8.238,0.916,7.102-5.445c-0.081-0.451-0.188-0.92-0.394-1.317
		c-2.23-4.302,18.236-5.889,21.215,1.26c3.898,9.348,21.086,6.039,27.855,2.265c-1.547-4.391,16.33-7.906,20.935-8.965
		C337.775-292.051,338.972-291.207,340.461-287.414C340.886-287.458,338.972-291.207,340.461-287.414z M213.896-245.585
		c-0.287-4.369-0.704-4.57-3.763-3.219c-3.475,0.504-6.783,1.577-9.927,3.219C204.761-245.585,209.312-245.585,213.896-245.585
		C213.609-249.954,209.312-245.585,213.896-245.585z M243.111-254.897c-6.328-0.305-12.654-0.61-18.979-0.915
		c-0.014,0.358-0.027,0.717-0.041,1.076c6.338,0,12.673,0,19.011,0C243.104-254.79,243.107-254.843,243.111-254.897
		C236.783-255.202,243.107-254.843,243.111-254.897z M228.613-250.141c-1.066,1.007-1.916,1.81-3.138,2.964
		C228.769-246.067,229.315-246.645,228.613-250.141z"/>
	<path fill-rule="evenodd" clip-rule="evenodd" d="M56.52-212.731c-4.195,3.212-5.104,7.195-11.006,6.538
		c-5.35-0.597-10.043,3.982-15.287,1.565c-1.739-0.802-8.485-1.128-9.184-3.201c-2.775-8.207,26.637-5.576,26.711-5.822
		c0.356-1.185,0.437-2.462,0.762-4.549c-1.665,0.566-2.932,0.735-3.897,1.389c-1.311,0.884-2.219,1.053-3.508-0.115
		c-7.102-6.445-21.375,1.293-28.436-5.436c1.58-1.204,2.876-2.685,3.883-4.442c0.488-1.543,0.624-3.209,0.98-5.244
		c-1.527-1.155-1.741-2.659-0.64-4.512c-8.939,0.055-27.02,1.56-9.599-6.639c7.108-3.346,22.462-9.711,30.178-8.816
		c4.689,0.544,29.209-0.96,31.205,1.168c5.324,5.675,2.478-10.898,2.796-12.472c-0.345-0.184-0.692-0.366-1.039-0.549
		c-9.031,11.084-17.372,5.084-29.299,6.491c-7.047,0.831-17.569,9.077-23.414,6.148c0.431-0.71,0.718-1.79,1.324-2.055
		c2.488-0.331,4.796-1.169,6.924-2.515c-4.188,0.421-8.303,1.75-12.192-0.219c6.338-9.754,39.291-10.07,50.533-11.412
		c-1.077-2.354-2.694-4.871,0.022-5.667c4.715-1.38,50.097-9.758,47.692-5.22c-1.269,2.394-10.447,4.509-12.338,4.597
		c-4.029,0.19-3.787,13.483-3.608,16.062c1.706-1.148,3.308-2.385,4.229-4.038c1.671-2.996-1.084-10.977,4.006-11.053
		c3.771-0.056,6.832-1.201,9.287,2.945c-0.031-5.684,8.046-8.315,11.042-3.338c1.298-1.12,4.302-2.811,5.752-0.479
		c2.223,3.572,1.759,7.137-1.159,10.248c-0.476,0.505-0.873,1.086-1.284,1.602c7.6,9.701-24.035,5.972-26.819,7.308
		c0.046,0.73,0.345,1.327,0.896,1.788c3.179,2.971,2.963,4.602-1.043,6.365c-5.931,2.61-14.368,2.965-19.938,2.367
		c-2.856-0.307-14.87-2.58-16.22-0.378c-0.932,1.515-1.813,3.151-3.057,4.348c-3.933,3.788-8.697,5.458-13.188,0.527
		c-0.842,1.866-1.573,3.486-2.531,5.608c5.482-0.415,7.688,4.729,1.319,6.306c-5.341,1.322-9.309-3.7-14.368-1.078
		c-1.912,0.991-10.774,2.415-10.274,5.254c2.368-0.127,4.633-0.679,6.797-1.654c1.662-1.324,3.131-1.599,4.682,0.103
		c0.283,0.31,0.976,0.707,1.121,0.587c2.265-1.864,24.215-5.211,22.395-0.732c-0.531,1.307-1.918,2.233-3.192,3.588
		c0.147,0.181,0.675,0.831,0.867,1.066c7.4-3.418,9.173-10.782,16.265-4.233c0.374-1.555,0.321-3.326,0.988-3.706
		c1.707-0.969,9.126-2.092,11.065-0.592c3.539,2.743-3.431,4.044-4.468,4.044c4.113,1.585,22.218,6.087,22.9-3.132
		c0.615-8.331-19.979-1.237-25.544-5.815c-10.179-8.367,22.874-5.09,24.838-5.018c3.553,0.132,25.895-11.061,25.579-0.178
		c-0.049,1.59,3.425,4.597-0.82,4.836c-6.167,0.349-12.769-0.369-18.545,2.132c0.067,0.295,0.136,0.59,0.203,0.886
		c2.816,0,13.359-1.67,14.734,1.748c0.149,0.368-0.535,1.584-0.95,1.647c-5.552,0.832-10.869,1.151-16.481,1.151
		c4.771,2.528,7.731,2.314,12.52,3.385c-1.415,4.593-3.27,4.884-7.566,5.782c-0.018,0.35-0.033,0.699-0.051,1.049
		c0.972,0.174,2.376,0.863,2.837,0.435c1.331-1.232,8.62-3.078,9.248,0.259c0.206,1.1-0.209,2.562-0.849,3.507
		c-2.386,3.518-22.313,1.593-27.735,2.441c-0.043-0.257-0.087-0.515-0.132-0.773c-1.156,0.736-2.31,1.472-3.897,2.483
		c2.703,0,14.135,1.873,14.113,6.377c-0.002,0.636-0.842,1.579-1.509,1.831c-1.109,0.42-2.371,0.396-2.932,0.471
		c-0.299,2.507-1.851,7.499-4.416,2.37c-2.823-5.637-10.029,1.824-13.28,2.006c-4.12,0.229-7.196-2.69-10.694-4.313
		c-4.519-2.099,16.489-2.675,9.248-6.842c-1.955-1.038-3.933-1.271-5.936-0.701c-0.165-0.288-0.33-0.577-0.497-0.864
		c0.638-0.458,1.373-0.827,1.869-1.415c0.415-1.402-0.06-1.92-1.423-1.556c-1.454,0.745-3.037,1.397-4.22,2.499
		c-2.655,2.469-4.829,2.159-6.743-0.92c-3.147,5.169-2.888,6.049,1.812,8.032c0.704,0.297,1.662,1.659,1.491,2.123
		c-1.297,3.53-11.965,4.188-12.071,0.633c0.26-1.804,1.159-2.859,2.701-3.167C56.886-205.063,56.727-208.371,56.52-212.731
		C55.08-211.63,56.727-208.371,56.52-212.731z M126.326-261.35c-6.084-7.028-10.875-1.87-16.723-5.833
		c-1.275-0.864-5.015,2.946-5.528,5.467c4.84,0.888,5.532-2.989,9.789-3C117.372-264.725,122.432-261.742,126.326-261.35
		C124.43-263.541,122.746-261.71,126.326-261.35z M87.415-261.498c-3.446,2.198-6.688,4.267-10.532,6.72
		C85.062-253.714,86.679-253.934,87.415-261.498z M93.923-273.728c-1.91,0.328-14.259,3.285-14.432,3.165
		c2.927,2.026,11.312-1.166,14.604-1.645C94.04-272.715,93.981-273.222,93.923-273.728C92.16-273.425,93.981-273.222,93.923-273.728
		z M101.841-216.062c2.273,0,3.968,0,5.663,0C105.692-217.464,103.934-218.06,101.841-216.062z"/>
	<path fill-rule="evenodd" clip-rule="evenodd" d="M541.345-179.888c-0.38-1.609-0.277-3.615-1.142-4.319
		c-2.967-2.418-18.122,3.022-20.451,5.282c-4.421,4.292-9.842-4.053-15.248-0.436c-0.96,0.642-2.051,1.208-2.754,2.093
		c-4.234,5.334,22.424,6.244,24.996,6.817c2.999,0.668,23.189-0.259,20.6-4.858C545.684-178.258,543.946-179.447,541.345-179.888
		C540.965-181.497,543.946-179.447,541.345-179.888z"/>
	<path fill-rule="evenodd" clip-rule="evenodd" d="M182.254-268.784c-2.23,9.23,26.119,6.361,21.64-1.01
		c-0.275-0.453-0.62-0.859-1.037-1.429c2.107-2.333,3.719,0.628,4.936,0.282c-0.088,1.402-0.666,3.09-0.1,3.97
		c2.854,4.441,8.205-8.171,9.053-9.551c-6.314-3.514-7.895,2.93-12.775,1.83c-3.377-0.765-3.687-0.448-2.913,3.235
		c-8.257,1.233-16.489-10.731-25.026-2.569c-0.87,0.833-1.877,2.108-1.85,3.167C174.256-267.893,182.496-268.784,182.254-268.784
		C181.343-265.007,180.303-268.784,182.254-268.784z"/>
	<path fill-rule="evenodd" clip-rule="evenodd" d="M342.07-176.157c24.46,0,14.209-7.667-3.51-6.141
		c-17.886,1.54-12.025,5.997,3.51,5.997C342.07-176.254,342.07-176.206,342.07-176.157
		C346.48-176.157,342.07-176.206,342.07-176.157z"/>
	<path fill-rule="evenodd" clip-rule="evenodd" d="M474.255-175.859c-1.003,1.679-5.075,4.74-5.339,6.339
		c0.643,1.501,1.728,1.718,3.254,0.65c3.898-11.211,17.587-1.562,23.739-6.499c1.356-0.668,2.503-1.625,3.437-2.872
		c-3.37-3.096-29.475-3.387-29.127,0.043C470.889-176.372,472.234-175.592,474.255-175.859
		C472.986-173.735,472.978-176.13,474.255-175.859z"/>
	<path fill-rule="evenodd" clip-rule="evenodd" d="M26.813-182.48c2.58-0.701,5.128-1.705,7.75-2.012
		c2.286-0.268,4.763-0.136,6.964,0.522c2.453,0.733,4.427-0.261,4.244-2.998c-0.089-1.349-0.5-2.745-1.062-3.969
		c-0.087-0.188-20.744,2.968-22.322,3.997c-0.783,0.51-1.312,1.45-1.949,2.204c0.753,0.609,1.441,1.582,2.272,1.744
		c1.263,0.248,2.626-0.067,3.947-0.143C26.709-182.917,26.762-182.698,26.813-182.48C29.394-183.181,26.762-182.698,26.813-182.48z"
		/>
	<path fill-rule="evenodd" clip-rule="evenodd" d="M34.07-199.15c8.329,8.986,14.775-1.542,17.118-3.339
		C45.905-198.445,38.787-203.75,34.07-199.15C35.461-197.65,34.802-199.863,34.07-199.15z"/>
	<path fill-rule="evenodd" clip-rule="evenodd" d="M65.225-187.199c-15.285,0.146,4.954,15.333,5.565,6.192
		C71.044-184.767,68.803-187.233,65.225-187.199C61.204-187.16,68.803-187.233,65.225-187.199z"/>
	<path fill-rule="evenodd" clip-rule="evenodd" d="M128.797-220.537c4.922,0.673,7.064-5.786,3.663-5.397
		c-3.285,0.375-6.574,0.891-9.795,1.659c-1.864,0.444-2.703,2.895-1.812,4.703c1.055,2.138,2.356,0.927,3.747,0.268
		C125.909-219.925,127.391-220.142,128.797-220.537C132.285-220.06,127.391-220.142,128.797-220.537z"/>
	<path fill-rule="evenodd" clip-rule="evenodd" d="M383.889-180.134c-0.9,0-6.053-0.586-6.109,2.242
		c-0.193,9.235,17.965,0.802,10.042-2.015c-1.186-0.421-2.608-0.106-3.931-0.106C383.891-180.054,383.889-180.094,383.889-180.134
		C382.563-180.134,383.889-180.094,383.889-180.134z"/>
	<path fill-rule="evenodd" clip-rule="evenodd" d="M162.074-263.981c2.577-0.09,4.399-0.382,4.047-3.424
		c0.615-1.229,1.233-2.457,1.854-3.682c-1.626-0.868-3.188-1.97-4.91-2.478c-2.405-0.712-4.077,6.448-4.069,6.402
		c-0.147,0.873,0.371,2.158,1.009,2.793C160.519-263.857,161.665-264.041,162.074-263.981
		C164.651-264.071,161.665-264.041,162.074-263.981z"/>
	<path fill-rule="evenodd" clip-rule="evenodd" d="M222.767-272.875c3.576-0.86,6.559-1.508,9.502-2.309
		c1.833-0.498,3.232-1.756,2.242-3.826c-1.026-2.138-3.318-1.472-4.331-0.387c-1.596,1.709-10.531,0.793-9.779,4.165
		C220.614-274.28,221.983-273.611,222.767-272.875C226.343-273.735,221.983-273.611,222.767-272.875z"/>
	<path fill-rule="evenodd" clip-rule="evenodd" d="M143.781-258.14c2.003,0.318,5.849,1.777,6.572-1.528
		c1.342-6.141-10.263-5.424-9.07,1.003c0.093,0.506,1.497,0.746,2.308,1.106C143.653-257.753,143.717-257.947,143.781-258.14
		C144.639-258.004,143.717-257.947,143.781-258.14z"/>
	<path fill-rule="evenodd" clip-rule="evenodd" d="M396.809-180.744c-2.233,0.363-4.437,0.302-4.958,3.067
		c-0.167,0.89,0.192,2.27,0.805,2.86C394.632-172.914,406.057-176.725,396.809-180.744
		C394.575-180.38,398.04-180.208,396.809-180.744z"/>
	<path fill-rule="evenodd" clip-rule="evenodd" d="M500.676-181.109c2.017,0,4.047,0.145,6.041-0.074
		c0.746-0.083,1.406-1.012,2.105-1.556c-0.704-0.633-1.355-1.716-2.124-1.818c0.63,0.084-10.388-2.206-10.267,1.614
		c0.08,2.507,2.732,2.095,4.246,1.966C500.677-181.021,500.677-181.065,500.676-181.109
		C502.692-181.109,500.677-181.065,500.676-181.109z"/>
	<path fill-rule="evenodd" clip-rule="evenodd" d="M143.236-225.888c-2.426-0.53-5.186-1.376-5.777,2.188
		c-1.002,6.029,7.015,1.613,8.467-0.015c0.474-1.875-0.37-2.782-2.532-2.719C143.341-226.252,143.288-226.07,143.236-225.888
		C142.474-226.055,143.288-226.07,143.236-225.888z"/>
	<path fill-rule="evenodd" clip-rule="evenodd" d="M48.962-186.37c0.328,4.451,6.993,3.897,9.338,1.593
		c0.394-0.387,0.409-1.751,0.052-2.254C56.675-189.407,50.278-188.601,48.962-186.37C49.148-183.831,49.271-186.893,48.962-186.37z"
		/>
	<path fill-rule="evenodd" clip-rule="evenodd" d="M417.545-182.571c-2.44-0.647-4.26,0.029-5.457,2.027
		c-0.5,2.141,11.541,3.408,11.292-0.166C422.037-182.735,420.092-183.356,417.545-182.571
		C416.299-182.454,419.099-182.477,417.545-182.571z"/>
	<path fill-rule="evenodd" clip-rule="evenodd" d="M173.876-268.312c-1.425,0-4.22-0.578-4.117,2.042
		c0.163,4.11,7.719,1.549,9.268,0.385c-0.498-0.699-0.864-1.74-1.525-2.019c-1.1-0.464-2.39-0.44-3.598-0.622
		C173.894-268.455,173.886-268.383,173.876-268.312C173.61-268.312,173.886-268.383,173.876-268.312z"/>
	<path fill-rule="evenodd" clip-rule="evenodd" d="M121.308-281.576c-1.982,1.256-4.67-0.201-5.16,2.739
		c-0.728,4.366,8.532,3.329,7.202-0.662C123.064-280.356,121.984-280.924,121.308-281.576
		C119.325-280.32,121.984-280.924,121.308-281.576z"/>
	<path fill-rule="evenodd" clip-rule="evenodd" d="M113.996-249.9c2.868,2.512,1.41,2.159,5.698-2.4
		C117.12-254.787,114.018-254.937,113.996-249.9C114.382-249.562,114.008-252.705,113.996-249.9z"/>
	<path fill-rule="evenodd" clip-rule="evenodd" d="M164.157-252.462c0.64-0.79,1.493-1.417,1.646-2.196
		c0.275-1.419-7.212-6.331-7.431-2.404C159.452-254.62,161.382-253.086,164.157-252.462
		C164.797-253.252,162.297-253.575,164.157-252.462z"/>
	<path fill-rule="evenodd" clip-rule="evenodd" d="M69.053-236.457c0.962-0.118-7.086-0.076-6.407,2.63
		C64.047-228.234,68.764-233.632,69.053-236.457C67.269-236.238,68.679-232.814,69.053-236.457z"/>
	<path fill-rule="evenodd" clip-rule="evenodd" d="M123.513-213.505C130.521-207.964,131.514-220.416,123.513-213.505
		C125.205-212.167,125.304-215.053,123.513-213.505z"/>
	<path fill-rule="evenodd" clip-rule="evenodd" d="M138.407-275.985c-1.397,1.351-2.428,2.347-3.457,3.343
		c3.038,2.869,1.733,2.803,6.484-0.655C140.606-274.031,139.778-274.767,138.407-275.985
		C137.01-274.634,139.778-274.767,138.407-275.985z"/>
	<path fill-rule="evenodd" clip-rule="evenodd" d="M134.341-260.699c1.505-1.491,2.583-2.56,3.661-3.628
		c-3.014-2.682-1.814-2.818-5.979,0.991C132.637-262.638,133.251-261.94,134.341-260.699
		C135.846-262.19,133.251-261.94,134.341-260.699z"/>
	<path fill-rule="evenodd" clip-rule="evenodd" d="M363.42-172.963c1.363-1.447,3.01-2.687,2.837-3.105
		c-0.5-1.211-1.73-2.092-2.673-3.102C360.017-175.446,360.827-176.269,363.42-172.963C364.783-174.41,362.25-174.453,363.42-172.963
		z"/>
	<path fill-rule="evenodd" clip-rule="evenodd" d="M170.37-239.435C176.353-233.819,177.517-245.903,170.37-239.435
		C171.755-238.134,171.844-240.77,170.37-239.435z"/>
	<path fill-rule="evenodd" clip-rule="evenodd" d="M581.619-182.353c0.919-0.891,1.539-1.492,2.158-2.093
		c-3.623-3.127-2.777-2.742-5.616-0.411C579.211-184.096,580.261-183.336,581.619-182.353
		C582.538-183.244,580.261-183.336,581.619-182.353z"/>
	<path fill-rule="evenodd" clip-rule="evenodd" d="M562.043-174.546c1.98,2.55,3.734,2.187,5.26-1.088
		C564.58-177.915,565.623-178.046,562.043-174.546C563.27-173.672,563.338-175.812,562.043-174.546z"/>
	<path fill-rule="evenodd" clip-rule="evenodd" d="M56.866-273.42c-1.008,1.189-1.57,1.854-2.135,2.519
		c-1.022-0.789,4.893,3.501,4.021,0.31C58.521-271.447,57.775-272.148,56.866-273.42C55.858-272.231,57.775-272.148,56.866-273.42z"
		/>
	<path fill-rule="evenodd" clip-rule="evenodd" d="M130.565-215.136c0.723,0.431,4.726,3.333,4.615-0.225
		C135.07-218.924,131.081-215.509,130.565-215.136C132.147-214.192,132.066-216.219,130.565-215.136z"/>
	<path fill-rule="evenodd" clip-rule="evenodd" d="M182.841-183.647c1.717,1.934,3.145,1.622,4.28-0.936
		C185.734-186.435,184.308-186.123,182.841-183.647C184.003-182.951,184.127-184.637,182.841-183.647z"/>
	<path fill-rule="evenodd" clip-rule="evenodd" d="M15.722-208.409c1.409,1.908,2.776,1.935,4.1,0.08
		C18.564-210.218,17.197-210.244,15.722-208.409C16.796-207.665,16.821-209.103,15.722-208.409z"/>
</g>
<g class="path">
	<path fill-rule="evenodd" clip-rule="evenodd" d="M99.709,244.173c1.238,2.806,2.524,3.183,5.495,1.782
		c2.092-0.985,4.284-1.819,6.922-2.928c-0.37,4.09,4.301,2.147,4.179,4.956c-1.372,2.055-3.622,2.698-6.75,1.93
		c-2.873-0.112-5.037,3.603-6.494,5.021c-1.521-2.883,3.768-4.551,0.234-7.14c-0.547,0.903-0.953,1.667-1.452,2.383
		c-3.368,4.842-5.735-2.217-8.993-0.071c-3.594,2.366-8.387,0.575-11.709,2.834c-2.124,1.446-4.977,0.927-5.389-1.341
		c-0.993-5.45,0.561-12.432,5.597-13.936c-1.215-1.738-2.795-6.388-5.584-5.943c0.387-0.896-3.213,9.418-5.986,4.633
		c-1.647-2.843-2.887-0.848-5.355-1.694c-0.348-1.091-0.124-2.165,0.668-3.228c-2.389,0.592-4.364,1.712-5.923,3.362
		c-1.064,0.409-2.465,0.409-3.665,0.267c-4.055-0.479-16.641,17.167-21.738,13.028c-1.067-0.865-0.958-4.325,0.048-5.112
		c1.301-1.021,2.641-2.005,3.536-2.681c-0.282-2.428-1.152-4.649-2.609-6.667c-1.902-0.26-3.835-0.366-5.484-0.5
		c1.167,2.155,2.188,3.899,3.062,5.697c1.688,3.47-2.451,3.747-5.04,4.171c0.548,2.294,1.81,4.317,3.784,6.077
		c0.356,0.81-0.609,2.037-1.051,3.287c0.66,0.183,5.119,1.858,2.558,2.563c-0.839,0.232-2.154,0.551-2.614,0.202
		c-1.612-1.222-3.293-1.755-5.472-1.93c-3.195-0.261,2.789-3.585,1.257-5.134c-0.675-0.683-2.438-0.885-3.674-0.819
		c-3.748,0.197-5.675-1.188-6.76-5.582c-1.617,0.719-3.099,1.376-4.812,2.137c1.922,1.35,2.436,2.98,1.541,4.896
		c-2.021-0.209-3.96-0.675-5.818-1.399c-2.323-0.524-2.896-1.676-1.095-3.029c3.66-2.749,0.71-5.944,4.299-8.017
		c0.464-0.27,1.73-0.073,2.207,0.304c2.408,1.901,2.533,1.923,4.526-0.847c-1.71-0.623-3.099-1.601-4.163-2.93
		c1.197-0.807,2.316-1.728,3.628-2.358c0.499-0.24,1.449,0.305,2.18,0.273c0.973-0.041,1.933-0.294,2.898-0.46
		c-0.829-1.117-1.246-2.326-1.251-3.633c1.334-1.406,2.86-2.686,4.39-4.073c0.445,1.69,1.614,2.372,3.506,2.043
		c0.561-0.143,0.252-4.081,1.245-5.062c3.277-3.241,6.557-1.248,9.535-4.401c5.178-5.486,8.516,0.46,13.93-1.761
		c1.415-0.578,3.485-1.161,2.562-3.344c0.421-1.469,0.26-2.87-0.483-4.203c-2.708,2.34-3.689,8.28-9.043,3.265
		c-0.605-0.567-0.612-2.494-0.008-2.93c2.716-2.063,5.777-3.543,9.182-4.435c-3.223-1.48-10.532-0.915-13.565,0.88
		c-0.583,0.347-2.084-0.111-2.966-0.51c-2.044-0.921-3.904-2.139-5.958-3.041c-2.739-1.203-3.28-3.065-0.824-5.25
		c-5.359-0.992-27.497,3.182-28.641-2.183c-0.166-0.78-0.918-1.496-1.498-2.182c-1.231-1.462-0.967-2.827,0.683-3.741
		c5.399-2.98,12.175,4.167,14.588,0.798c1.092-1.523,8.167-5.567,10.346-3.44c3.369,3.295,4.329-1.57,7.33-2.032
		c2.941-0.455,4.359,2.284,7.473,1.979c4.567-0.447,9.195-0.505,13.8-0.535c2.445,0.745,3.018,2.122,1.72,4.128
		c-0.275,0.552-1.124,0.897-1.841,1.431c6.04,2.066,4.899-2.092,9.621-2.608c4.413-0.473,5.561,3.865,11.35,2.331
		c1.232-0.326,13.563-7.896,7.272-8.209c-1.795,0.215-3.23-0.319-4.303-1.604c1.384-1.372,4.459-2.623,1.66-4.289
		c-1.104-0.658-2.174-1.356-3.26-2.035c-0.278,0.115-0.556,0.23-0.834,0.346c0.276,1.061,0.378,2.183,0.865,3.169
		c3.402,6.88-11.036,3.364-5.53-2.457c1.429-1.512,3.27-2.813,5.188-3.887c4.261-2.39,11.426,5.933,14.865-0.098
		c0.972-1.065,1.532-2.26,1.678-3.583c-1.572-0.95-3.067-0.845-4.486,0.318c-1.308,0.015-2.625-0.63-3.937-0.983
		c0.674-0.932,1.124-2.41,2.065-2.689c4.046-1.191,8.768-1.064,12.632-2.693c4.532-1.907,15.945,2.48,20.341,4.179
		c1.425,0.55,2.23,0.164,2.802-1.103c0.306-0.679,1.206-1.166,1.837-1.741c1.176,1.836,1.197,4.362,4.245,4.354
		c2.069-0.005,4.139-0.072,6.208-0.072c4.188,0,4.747-4.565,8.956-3.315c3.834,0.978,7.751,1.51,11.75,1.594
		c3.435,0.849,9.131,10.177,13.533,3.855c2.374-3.407,7.115,2.398,7.708-1.923c-0.515-1.871,0.013-3.497,1.586-4.881
		c0.79-0.286,2.12,0.162,3.043,0.567c1.461,0.64,2.903,1.396,4.116,2.329c2.975,2.281,0.845,7.193,7.049,4.862
		c1.884-0.707,4.155-0.859,6.262-0.898c4.205-0.078,2.557-3.41,6.182-4.248c3.573-0.016,6.922-0.716,10.047-2.103
		c2.133-1.355,2.961,0.247,3.826,1.172c2.77,2.962,2.828,3.023,5.05-0.298c1.544-2.311,6.28-1.544,5.788,1.49
		c-0.115,0.706-0.228,1.456-0.075,2.142c0.892,3.994,25.263-1.326,28.037-0.208c2.138,0.861,14.64,2.14,16.153,0.702
		c0.463-0.44,1.215-0.798,1.899-0.911c4.499-0.742,9.677-0.969,13.941-2.425c-2.3-4.158,1.721-8.212,3.357-2.737
		c0.289,0.968-0.31,2.883-0.006,2.963c1.473,0.382,3.12,0.359,4.7,0.32c1.753-0.359,1.973-1.08,0.661-2.16
		c-0.446-0.389-1.293-0.486-1.636-0.903c-0.621-0.757-0.998-1.659-1.477-2.498c9.838-1.68,22.385-0.692,33.054-0.51
		c0.63,0.011,1.245,0.718,1.867,1.099c-0.748,1.252-1.885,1.792-3.413,1.622c-0.944,0.618-1.726,1.414-2.573,2.138
		c0.945,0.298,1.881,0.82,2.838,0.85c5.165,0.171,10.521,0.508,15.66-0.048c0.097-0.284,0.194-0.569,0.291-0.854
		c-3.142-0.751-5.938-2.023-8.385-3.818c0.924-1.006,1.68-2.2,2.837-2.947c6.184-3.992,21.157,2.709,26.605-3.646
		c-1.91,2.23,42.786,5.02,44.794,5.115c4.017,0.195,8.984,4.717,11.947,6.696c0.217-0.203,0.435-0.406,0.649-0.608
		c-0.126-0.335-0.173-0.715-0.396-0.996c-1.562-1.999-1.259-2.507,1.437-2.887c1.235-0.175,2.418-0.708,3.583-1.157
		c5.215-2.013,5.499,6.015,11.273,2.689c2.881-1.658,10.082-2.065,13.532-2.665c12.398-2.152,23.891-3.059,36.369-2.615
		c2.341-0.275,3.923,0.531,4.744,2.422c0.923,2.709,9.837,1.526,11.188,1.767c1.169,1.327,2.3,2.677,3.396,4.05
		c1.58-0.073,3.311-0.318,4.635-0.996c0.935-0.478,1.53-2.604,1.888-2.537c1.856,0.355,3.929,0.867,5.273,1.925
		c1.627,1.276,2.152,0.919,3.807-0.037c1.529-0.887,11.81-5.827,13.171-5.82c16.904,0.085,33.771-0.853,50.698-0.853
		c-0.614-1.037-0.876-1.505-1.164-1.96c-0.883-1.392-0.198-2.117,1.439-2.4c15.468-2.668,32.575,2.221,47.538,2.236
		c11.7,0.014,22.881,2.914,34.542,2.992c8.806,0.058,22.498,4.086,30.707,1.268c6.62-2.271,7.115,6.9,12.801,5.985
		c-0.155,0.026,9.371,0.752,9.61-1.335c0.207-1.801-1.719-1.458-3.079-1.567c-1.408-0.11-2.839-0.188-4.195-0.491
		c-0.591-0.132-1.381-0.768-1.423-1.217c-0.041-0.453,0.622-1.231,1.172-1.397c2.693-0.818,5.438-1.51,8.191-2.175
		c0.606-0.144,1.38-0.141,1.961,0.049c4.366,1.426,13.499,6.576,18.199,3.169c-4.827-1.526-6.357-3.463-8.943-7.177
		c-0.751-1.08,0.924-2.265,2.646-1.609c2.604,0.988,4.963,1.313,7.844,0.702c1.127-0.242,3.316,1.224,4.106,2.365
		c0.979,1.418-0.975,4.516-1.562,5.743c6.601,1.856,18.633-2.263,23.507,2.023c1.228,1.082,19.539-1.544,21.489-1.351
		c6.688,0.665-14.662,5.931-15.014,6.038c0.396,1.348,1.272,2.201,2.625,2.557c4.908,1.973,5.437,4.718,1.446,7.929
		c-1.421,1.142-2.275,3.042-4.912,2.795c2.164,0.195,2.134,7.502-0.08,10.735c-4.131,6.037-14.893,8.515-19.969,14.155
		c-0.751,0.846,12.125-3.115,13.254-3.47c0.736-0.232,2.567,0.392,2.746,0.908c1.245,3.581-4.037,3.96-2.138,7.492
		c-1.849-3.443-14.438,14.153-15.738,15.335c-1.095,0.994-2.585,1.674-3.908,2.483c-2.037,1.244-1.344,5.476-2.84,5.712
		c-3.986,0.636-6.546,3.387-10.054,4.78c-3.041,1.206-5.627,2.041-8.9,0.608c-1.058,1.782-1.911,3.215,0.73,4.666
		c1.258,0.692,1.921,2.164,2.854,3.281c-0.904,0.438-1.772,1.174-2.716,1.249c-4.374,0.341-3.429-2.434-7.237-2.836
		c-4.41-0.466-8.81,1.603-12.365,3.534c-5.557,3.017-8.297-6.729-14.794-1.001c-1.053,0.928-1.601,2.263-2.593,3.259
		c-0.314,0.312-1.358,0.098-2.07,0.125c-0.009-1.364,0.188-2.711,0.594-4.036c-7.568,1.938-16.603,6.084-23.036,9.97
		c-3.081,1.862-12.88,6.738-16.996,6.703c-9.375-0.067-25.879,6.14-35.161,8.912c-0.159-0.237-0.321-0.475-0.48-0.711
		c0.592-0.609,1.183-1.219,1.769-1.823c-1.562-2.624-3.486-3.115-6.874-1.911c0.669,0.979,2.109,2.703,1.907,2.856
		c-1.332,1.007-2.93,1.949-4.626,2.354c-2.625-0.71-5.279-0.806-7.965-0.288c-3.469,2.339-10.118,0.48-11.493-3.045
		c-1.106-2.835-1.497-3.462-5.962-1.511c-1.213,0.528-1.994,1.78-3.21,2.295c-1.205,0.512-2.715,0.574-4.101,0.626
		c-2.921,0.096,4.411-9.936,2.002-6.101c-1.977-2.29-6.861-2.29-9.778-1.882c-2.858,0.399-3.294-1.104-3.098-3.562
		c-1.336,0.879-2.255,1.364-3.003,1.999c-3.775,3.186-7.792,2.789-10.411-1.022c-1.014-1.472-7.79-5.045-8.27-1.654
		c-0.067,0.487,0.438,1.114,0.88,1.533c0.251,0.237,1.045,0.047,1.317,0.281c0.532,0.456,0.869,1.073,1.287,1.626
		c-0.757,0.3-1.495,0.812-2.272,0.857c-4.866,0.277-10.488-3.541-14.393-0.41c-0.562,0.45-1.479,0.865-2.209,0.837
		c-2.81-0.104-5.618-0.36-8.414-0.642c-0.604-0.06-1.397-0.32-1.699-0.711c-1.758-2.289-3.271-1.149-4.706,0.2
		c-7.046,6.633-21.874-0.867-31.705-3.237c0.555,1.595,0.906,2.608,1.258,3.625c-1.534-0.04-3.173,0.188-4.576-0.198
		c-1.324-0.365-2.548-1.252-3.548-2.127c-1.401-1.227-9.592-3.524-11.47-2.919c-1.723,0.552-1.956,3.309-3.984,3.634
		c-2.211,0.358-2.719-3.192-3.397-4.272c-0.231,0.72-0.321,1.038-0.438,1.352c-3.311,8.646-9.566-3.242-14.315-1.176
		c-2.277,0.982-8.871,6.505-11.645,2.701c-2.678-3.677-8.484-1.239-11.809-5.112c-0.497-0.579-0.076-2.143,0.535-2.899
		c1.279-1.578,1.055-2.299-1.186-2.527c-0.279-0.028-0.668,0-0.815-0.141c-2.502-2.378-4.195-0.217-6.286,0.785
		c0.222,0.755,0.438,1.494,0.653,2.223c-0.781,1.223-2.187,1.816-4.216,1.78c-0.237,1.949-0.584,3.882-1.042,5.8
		c-3.302,4.272-5.608-3.371-6.336-4.49c-2.793,2.577-3.062,6.07-8.088,6.133c-5.121,0.061-8.755-1.728-13.862-0.64
		c-2.886,0.614-4.664,0.053-6.046-2.565c-1.23-2.33-1.732-2.061,0.498-3.542c1.021-0.677,1.882-1.576,2.636-2.483
		c1.038-1.248,0.319-2.408-1.429-2.856c-1.746-0.784-3.544-1.469-5.394-2.054c-3.39-0.035-6.787-0.011-10.169,0.163
		c-1.042,0.054-2.246,0.465-2.986,1.062c-0.397,0.317-0.088,1.407,0.126,2.1c0.245,0.785,0.741,1.516,1.127,2.27
		c-1.055,0.051-2.161,0.296-3.153,0.106c-4.742-0.908-0.338-2.923-7.749,1.376c-2.129,1.238-3.163,2.819-2.562,5.166
		c0.928,3.612-10.894,0.862-11.302,0.979c-2.207,0.623-2.916-0.265-2.991-1.975c-0.015-0.322-0.455-0.627-0.638-0.862
		c-1.41,0-3.682,3.427-5.64,1.369c-1.562-1.64-2.455-6.232-1.452-8.223c0.346-0.689,1.075-1.239,1.638-1.85
		c0.632,0.643,1.53,1.208,1.823,1.947c0.306,0.771-0.002,1.71,0.034,2.572c0.006,0.152,0.383,0.296,0.271,0.214
		c2.04-1.428,4.028-2.704,5.859-4.129c3.665-2.845-4.642-5.58-1.044-8.27c4.347-3.248,6.165,4.42,11.086-0.186
		c0.75-0.702,1.746-1.21,2.618-1.819c5.004-3.496-4.695-6.929-6.605-7.846c-0.647-0.311-1.616-0.138-3.113-0.228
		c1.595,1.285,2.189,2.875,1.781,4.772c-2.76,4.375-4.698-2.809-5.424-3.773c-0.529,0.551-1.128,1.067-1.575,1.663
		c-1.13,1.509-2.422,1.785-4.274,0.801c-2.32-1.229-5.398,1.941-6.878-0.253c0.256,0.38-4.966-13.586-4.289-7.798
		c0.454,3.885-2.375,6.425-4.955,9.046c-1.905,1.939-5.99,5.552-8.682,5.752c-1.01,0.075-2.02,0.163-3.341,0.812
		c0.595,0.402,1.286,1.218,1.767,1.136c-3.505,0.595,9.251-2.312,9.248-2.317c0.736,1.026,1.403,2.282,1.367,3.444
		c-0.024,0.795-1.065,2.01-1.95,2.253c-4.691,0.718-9.405,1.306-14.141,1.768c-4.388,0.715-0.886,3.633-3.878,4.78
		c-0.602,0.228-1.603-0.037-2.298-0.32c-0.999-0.406-11.124-4.242-11.277-4.592c-1.153-2.647-0.574-7.313,3.894-5.296
		c0.671,0.303,1.765,0.753,2.174,0.52c2.476-1.42,3.383-0.267,4.022,2.31c3.107-1.422,5.884-2.619,8.54-3.982
		c0.416-0.217,0.28-1.2,0.399-1.83c-0.755-0.089-1.511-0.242-2.265-0.232c-0.296,0.005-0.564,0.398-0.879,0.571
		c-5.399,2.966-2.269-6.464-9.269-4.418c-4.24,1.236-3.287,5.038-7.641,5.215c-1.035,0.043-2.097-0.003-3.092,0.19
		c-0.54,0.106-1.346,0.611-1.375,0.975c-0.143,1.769-0.064,3.554-0.064,5.325c-4.319-0.209-4.829-0.692-3.719-4.655
		c-3.099,1.058-6.288,1.825-9.565,2.296c-0.063-0.862-0.484-1.858-0.122-2.564c0.998-1.938-0.668-2.834-1.986-3.429
		c-1.908-0.857-1.924,0.827-2.383,1.802c-1.719,3.647-6.412,6.613-9.667,9.256c-5.112,4.147-4.27-5.845-10.515-1.846
		c0.599,0.206,1.093,0.396,1.602,0.549c4.641,1.39,0.099,5.388-3.222,4.017c-2.792,0.108-5.169,0.988-7.132,2.635
		c-2.548,0.343-3.242-0.469-2.082-2.43c3.39-2.372-7.759-7.603-1.338-8.903c6.756-1.372,13.242-1.747,20.548-2.02
		c0.005-0.209,0.01-0.417,0.016-0.625c-1.918-0.29-7.662-1.519-4.943-4.447c0.344-0.37,1.9-0.258,2.681,0.056
		c2.557,1.028,4.298,0.517,5.052-1.798c0.18-0.551,0.143-1.41-0.249-1.758c-0.321-0.285-1.378-0.16-2.007,0.029
		c-1.964,0.588-7.348,3.415-9.552,0.59c-0.507-0.651,0.113-2.396,0.902-3.157c3.303-3.192,10.414,1.876,12.806,1.183
		c2.027-0.592,3.984-1.353,6.675-2.298c-1.88-1.105-3.303-2.039-4.833-2.823c-3.031-1.55-3.212-3.191-0.562-5.149
		c0.914-1.168,1.651-2.418,2.213-3.74c1.657-2.393,2.666-2.411,7.095,0.09c0-0.943,0.323-1.859-0.062-2.2
		c-2.018-1.793-7.942-7.33-10.168-7.948c0.433,1.025,0.69,1.656,0.964,2.28c1.245,2.827,0.274,5.346-1.589,7.693
		c-0.305,0.383-1.193,0.798-1.594,0.678c-1.221-0.365-6.789-7.566-7.471-8.835c-1.435-2.67-7.805,7.281-3.456,7.699
		c1.882-0.519,3.349-1.488,4.401-2.907c-0.041,0.966-0.061,1.931-0.06,2.898c1.265,0.664,2.497,1.371,3.794,1.979
		c4.106,1.923,1.286,10.21-3.397,9.473c-2.518-0.397-2.673-4.237-3.928-5.751c-0.476,0.568-1.223,1.088-1.378,1.713
		c-0.625,2.527-3.362,2.106-5.314,3.146c-1.396-3.005-4.39-2.796-6.586-5.421c-3.67-0.7-8.665-3.165-5.379-7.448
		c2.255-1.859,2.324-3.907,0.208-6.147c-1.153,0.412-11.304,6.165-12.327,3.979c-1.69-3.602,1.034-4.309-0.864-7.188
		c-0.511,0.26-1.245,0.417-1.494,0.799c-0.894,1.374-1.494,2.894-2.466,4.216c-0.564,0.773-1.522,1.48-2.496,1.851
		c-0.943,0.359-2.134,0.252-2.811,0.312c0.351,2.682,0.618,5.069,1.016,7.441c0.499,2.972,3.934-9.136,9.524-4.77
		c1.134,0.884,3.966,8.234,1.741,8.964c-5.391,1.769-6.145-4.392-10.021,0.538c-1.274,1.62-0.63,2.688,1.723,2.811
		c0.561,0.029,1.213-0.208,1.675-0.035c2.412,0.645,2.64,1.651,0.686,3.015c-0.621,0.427-1.813,0.351-2.274,0.828
		c-2.078,2.151,1.155,4.034-2.318,5.175c-1.128,0.368-2.234,0.82-3.27,1.35c-3.304,1.688-6.202,0.441-6.125-2.845
		c0.036-1.545-0.202-2.417-2.193-2.677c-0.717-0.093-1.266-0.909-2.001-1.174c-0.784-0.282-1.76-0.517-2.534-0.357
		c-3.757,0.773,3.694,4.392,3.604,4.335c-3.252,1.583-15.745,6.592-18.715,4.523c-3.081-2.138-7.158,1.453-10.5,0.817
		c-3.97-0.758-9.415-7.673-14.177-2.577c-0.697,0.746-1.406,1.555-2.314,2.08c-1.926,1.112-3.521,0.516-4.379-1.341
		c-0.3-0.647-0.987-1.166-1.498-1.742c-0.534,1.388-1.48,2.542-2.838,3.461c-7.358,1.656-17.303,1.957-23.942,4.999
		c-2.056-1.464-4.169-2.865-6.339-4.205c1.565-0.899,3.101-1.83,4.611-2.795c-1.567-1.774-6.37-9.646-9.124-10.242
		c-0.143-3.799,0.394-4.296,4.831-4.469c0.565-0.021,1.133-0.029,1.694-0.082c2.187-0.205,2.499-1.482,1.066-2.366
		c-4.833-2.975-3.01-9.029,3.499-5.77c-1.213-1.943-0.969-3.677,0.734-5.2c2.802-1.035,9.883,9.198,12.626,11.301
		c0.402,0.308,1.708-0.235,2.596-0.386c-0.765-1.094-1.554-1.623-2.418-2.042c-2.556-1.234-2.778-2.277-0.479-3.693
		c2.136-0.635,4.25-1.315,6.344-2.047c-0.058-0.261-0.115-0.525-0.173-0.788c-0.752-0.242-1.547-0.418-2.249-0.741
		c-3.784-1.739-4.521,0.395-8.245,0.021c0.144-0.624,0.176-1.29,0.466-1.86c0.224-0.439,0.773-0.757,1.732-1.64
		c-3.006-0.013-6.011,0.01-9.016,0.067c-0.741-0.062-1.399-0.814-2.096-1.253c1.051-1.15,1.937-2.463,3.208-3.401
		c2.748-2.022,5.156,1.887,7.161-0.271c-0.867-1.76-2.482-3.99-2.042-4.334c1.618-1.273,3.872-2.021,5.998-2.722
		c0.466-0.153,1.338,0.85,2.119,1.04c0.972,0.24,2.042,0.194,3.07,0.269c-0.129-1.374,0.06-2.716,0.564-4.026
		c2.205-1.267,4.603-2.042,7.195-2.327c-0.007-0.25-0.015-0.502-0.023-0.754c-2.398-0.217-4.774-0.549-7.13-0.992
		c-3.198-1.075-5.172-0.104-5.475,2.785c-0.043,0.401-0.657,0.759-1.007,1.139c-2.789-1.947-1.036-3.25-5.421-3.04
		c-6.545,0.309-9.83,0.021-15.474,2.54c2.478,0.074,4.818,0.612,7.021,1.612c-1.215,1.412-2.401,2.843-3.559,4.288
		c1.505-0.093,5.211-1.786,6.219-0.211c0.811,1.27,0.563,2.759-1.208,3.495c-1.25,0.52-2.68,0.718-4.006,1.113
		c-3.527,1.057-2.032,4.812-5.21,5c-3.562-0.393-7.075-0.258-10.538,0.407c1.748,1.398,3.445,2.208,4.165,3.434
		c2.131,3.622,1.135,7.115-2.823,9.271c-2.511,1.369-5.319,2.849-8.674,1.611c-2.407-0.887-3.882-3.268-7.004-3.107
		c-0.333-1.185-1.071-2.124-2.213-2.82c-2.917-0.082-0.42,4.5-0.341,5.471c-0.889-0.005-1.781,0.027-2.667-0.024
		c-0.371-0.021-0.729-0.209-1.338-0.396c0.987,1.894,1.82,3.492,2.772,5.322c1.939-1.178,3.696-2.21,5.411-3.29
		c-0.387,0.243,17.228,2.396,17.671,2.707c0.753,0.531,1.817,0.741,2.737,1.101c0.067,0.796,0.218,1.593,0.186,2.385
		c-0.138,3.463-3.237,0.978-4.521,0.441c-0.969-0.402-2.021-0.661-3.04-0.978c-0.83,1.967-0.552,3.792,0.832,5.473
		c0.632,1.479,1.325,2.562,3.375,1.159c0.392-0.269,1.463-0.327,1.754-0.082c3.372,2.84-4.376,6.637-6.019,8.253
		c2.201,1.375,4.4,2.753,6.617,4.112C90.1,248.945,97.623,245.306,99.709,244.173C100.947,246.979,98.776,244.679,99.709,244.173z
		 M181.156,224.327c0.012-0.271,0.024-0.54,0.037-0.808c-1.021-0.061-2.062-0.265-3.058-0.157c-4.946,0.524-4.265-3.173-8.548-4.08
		c-1.239-0.263-2.687,0.147-3.902-0.152c-0.714-0.176-1.774-1.352-1.605-1.749c0.771-1.814,1.746-3.609,2.984-5.227
		c1.35-1.761,1.043-3.291-0.523-3.754c-2.735,3.688-1.677,3.341-5.032,2.136c0.72-1.223,7.829-12.263,5.116-13.078
		c-0.715-0.213-1.844,0.016-2.525,0.399c-1,0.562-1.73,1.458-2.628,2.164c-1.771,1.391-2.452,1.201-3.369-0.729
		c-0.278-0.587-0.918-1.047-1.393-1.564c-0.58,0.457-1.398,0.825-1.695,1.39c-1.304,2.479-4.083,1.231-6.718,1.649
		c0.188,0.668,0.165,1.465,0.603,1.978c2.884,3.392-3.357,6.274-5.367,7.956c-0.389,0.325-0.738,1.082-0.548,1.402
		c0.767,1.293,5.433-0.135,4.215,2.455c-1.03,2.188-5.079,0.556-5.896,1.208c-2.366,1.896-5.151,1.489-7.972,1.42
		c-0.75-0.019-1.531,0.88-2.298,1.357c0.673,0.562,1.248,1.445,2.04,1.618c1.515,0.335,3.296-0.035,4.702,0.445
		c1.638,0.559,3.064,1.649,4.397,2.682c2.204,1.702-4.547,3.123-5.77,2.63c-2.159-0.871-4.803-0.874-7.664-1.325
		c0.361,1.085,2.577,4.07,0.178,4.693c-5.032,1.305-2.414-4.791-7.694-3.892c-0.851,0.145-1.558,0.898-2.331,1.376
		c1.163,1.322,4.842,5.331,6.791,5.611c2.232,0.319,6.185-3.775,7.136-2.104c1.839,3.228,7.03,2.86,10.098,1.83
		c-1.318-0.688-2.532-0.682-3.653-0.957c-1.791-0.652-1.967-1.473-0.529-2.458c1.853-0.933,3.725-1.883,5.712-2.572
		c3.467-1.203,0.689-5.107,4.172-5.867c2.245-0.491,4.447-1.123,7.125-1.811c0.977,2.025,3.568,2.17,6.315,2.02
		c0.844-0.047,1.703-0.095,2.54-0.015c5.426,0.515,2.382,7.171,7.204,6.148C174.948,225.93,178.042,225.092,181.156,224.327
		C181.168,224.057,178.042,225.092,181.156,224.327z M91.457,196.485c-4.341-4.229-6.801-4.224-12.674-5.091
		c-4.936-0.731-8.394,1.389-11.664,4.49c3.774,1.261,2.669,8.619,8.245,6.044C80.793,199.423,86.337,198.653,91.457,196.485
		C89.923,194.992,91.13,196.625,91.457,196.485z M441.677,247.258c-1.168,0.612-2.535,1.067-3.445,1.888
		c-0.678,0.61-0.763,1.693-1.112,2.565c4.487,1.115,18.221,2.822,20.218-0.185C452.068,249.775,447.517,247.561,441.677,247.258
		C440.509,247.87,446.131,247.488,441.677,247.258z M326.853,225.999c0.085,0.238,0.169,0.479,0.254,0.719
		c0.911-0.089,1.926,0.005,2.713-0.311c1.652-0.662,3.184-1.538,5.23-2.56c-1.736-1.298-3.232-2.768-4.49-4.411
		c-0.615-2.556-3.104-1.523-4.776-1.857c-4.242-0.853,2.175,7.23,2.239,7.15C327.673,225.173,327.245,225.574,326.853,225.999
		C326.938,226.237,327.245,225.574,326.853,225.999z M215.458,211.43c1.559,1.08,2.482,2.449,2.768,4.107
		c1.492,0.767,3.206,1.222,4.833,1.798c0.758-2.359,0.937-4.624,1.31-7.169C221.353,210.275,218.465,211.081,215.458,211.43
		C216.491,212.479,217.109,211.238,215.458,211.43z M152.677,232.236c2.403,0.799,4.201,0.671,5.181-1.066
		c0.944-1.673,0.813-3.266-1.599-4.168c-0.666-0.248-1.125-0.91-1.795-1.127c-1.117-0.362-2.327-0.517-3.498-0.759
		C151.982,227.68,154.822,229.664,152.677,232.236C155.081,233.035,154.113,230.513,152.677,232.236z M69.817,209.355
		c-3.002,0-6.261-0.071-9.51,0.046c-0.862,0.032-1.695,0.638-2.541,0.98c0.705,0.632,1.295,1.587,2.146,1.805
		c0.78,0.198,1.937-0.263,2.76-0.674c5.421-2.704,3.641,4.806,7.145,2.812C69.817,212.519,69.817,211.128,69.817,209.355
		C66.814,209.355,69.817,211.128,69.817,209.355z M330.111,246.226c0.961,1.309,2.189,2.421,3.687,3.339
		c2.35,1.697,4.984,0.759,5.602-2.249c-2.531,0.235-4.417-0.399-4.657-2.86C334.538,242.396,328.319,247.605,330.111,246.226
		C330.541,246.755,331.1,245.465,330.111,246.226z M398.233,241.018c-1.575,1.816-2.891,3.197-3.988,4.692
		c-0.349,1.648,0.422,2.204,2.313,1.671C398.695,246.575,399.52,244.044,398.233,241.018
		C396.658,242.834,399.52,244.044,398.233,241.018z M347.947,219.694c-1.576-1.091-2.587-2.291-3.3-2.176
		c-1.273,0.208-2.366,1.211-3.534,1.881c1.091,0.872,2.041,2.055,3.335,2.478C345.039,222.069,346.31,220.762,347.947,219.694
		C346.371,218.604,346.31,220.762,347.947,219.694z M143.129,203.983c-0.053-2.525-1.397-4.093-4.032-4.698
		C138.597,201.836,138.961,205.436,143.129,203.983C142.548,202.59,141.058,204.706,143.129,203.983z M715.382,240.738
		c1.993-0.631,3.469-1.008,4.831-1.578c0.56-0.234,1.064-0.845,1.222-1.365c-0.906-1.178-1.936-1.217-3.092-0.119
		C717.477,238.43,716.753,239.3,715.382,240.738C717.375,240.107,716.753,239.3,715.382,240.738z M103.258,182.305
		c3.502-0.638,4.054-3.504,1.4-4.867C104.101,179.374,103.696,180.782,103.258,182.305
		C105.02,181.985,103.696,180.782,103.258,182.305z M119.658,220.431c1.549-0.066,3.099-0.135,4.648-0.201
		c-0.294-0.573-0.403-1.403-0.918-1.671C121.718,217.689,120.424,218.269,119.658,220.431
		C121.207,220.364,120.424,218.269,119.658,220.431z M553.529,258.127c0.82-0.65,1.408-1.111,1.995-1.573
		c-1.65-1.397-3.309-1.474-4.972-0.23C551.449,256.865,552.343,257.406,553.529,258.127
		C554.35,257.477,552.343,257.406,553.529,258.127z M707.086,242.94c1.989-0.31,3.98-0.62,5.97-0.93
		c-0.081-0.269-0.163-0.535-0.244-0.804C710.63,241.023,708.306,240.357,707.086,242.94
		C709.075,242.631,708.306,240.357,707.086,242.94z M79,211.758c-1.527-0.984-3.032-1.951-4.545-2.924
		C74.894,212.618,75.98,213.336,79,211.758z M469.396,249.496c-0.07-0.237-0.142-0.474-0.211-0.71c-1.232-0.478-2.445-1-3.706-1.411
		c-0.511-0.167-1.129-0.091-1.7-0.125c0.332,0.46,0.557,1.025,1.02,1.352C466.135,249.636,467.667,249.936,469.396,249.496
		C469.326,249.259,468.588,249.548,469.396,249.496z M318.56,226.854c0.488,0.173,0.975,0.345,1.461,0.515
		c0.222-0.587,0.831-1.366,0.585-1.719c-0.555-0.794-1.532-1.377-2.336-2.044C316.571,224.585,316.668,225.669,318.56,226.854
		C319.048,227.027,318.043,226.187,318.56,226.854z M105.051,216.694c-2.432-1.326-4.611-0.636-2.705,1.692
		C103.089,217.924,103.831,217.457,105.051,216.694C103.984,216.113,103.831,217.457,105.051,216.694z M340.276,217.709
		c0.227-0.365,0.455-0.732,0.683-1.1c-0.747-0.259-1.595-0.835-2.212-0.692c-0.726,0.167-1.25,0.96-1.863,1.481
		c0.501,0.368,0.979,1.002,1.509,1.035C338.997,218.472,339.646,217.974,340.276,217.709
		C340.503,217.344,339.646,217.974,340.276,217.709z"/>
	<path fill-rule="evenodd" clip-rule="evenodd" d="M205.634,230.16c-1.992-1.051-3.697-2.252-2.559-4.402
		c0.286-0.539,1.085-1.169,1.722-1.234c3.979-0.395,4.787,5.547,8.04,5.879c1.755,0.183,3.579-0.141,5.343,0.005
		c1.246,0.104,2.638,0.43,3.589,1.06c5.979,3.958-11.633,4.218-12.219,4.283c-1.256,0.143-2.704,0.893-3.502,1.744
		c-1.698,1.809-3.303,2.212-5.497,0.923c-0.92-0.54-2.23-0.827-2.779-1.55c-0.892-1.173-1.689-2.6-1.729-3.936
		c-0.017-0.554,1.943-1.404,3.143-1.673c1.885-0.424,3.889-0.464,5.839-0.686C205.18,230.555,205.311,230.385,205.634,230.16
		C203.642,229.109,205.311,230.385,205.634,230.16z"/>
	<path fill-rule="evenodd" clip-rule="evenodd" d="M80.717,259.373c-2.031,0.482-3.62-0.002-4.767-1.451
		c0.611-0.403,1.161-0.987,1.854-1.161c0.66-0.169,1.526-0.04,2.202,0.184c2.212,0.722,4.54,1.335,6.497,2.417
		c1.096,0.607,1.552,2.05,2.724,3.725c0.349-0.574,4.284-9.83,8.103-8.348c1.099,0.426,2.636,1.751,2.478,2.416
		c-0.261,1.097-1.737,1.982-2.97,3.231c0.466,1.355,3.804-0.512,3.164,2.798c-0.406,2.1-2.411,2.285-4.338,2.216
		c-7.719-0.271-17.322-0.403-24.694-1.617c-2.217-0.441-2.598-1.442-1.144-3.003c3.609-0.576,7.254-0.737,10.933-0.482
		C80.743,259.989,80.73,259.682,80.717,259.373C79.747,259.373,80.73,259.682,80.717,259.373z"/>
	<path fill-rule="evenodd" clip-rule="evenodd" d="M304.493,253.444c-1.025,0.409-1.883,0.927-2.825,1.085
		c-1.221,0.204-2.508,0.124-3.767,0.164c0.053-1.192,0.063-2.388,0.195-3.572c1.285-1.064,2.432-2.233,3.44-3.506
		c0.92,0.79,1.703,1.801,2.807,2.292c0.716,0.316,1.901-0.125,2.875-0.229c-0.486-3.102,2.292-3.07,5.113-3.274
		c-2.348-2.815-0.062-3.933,2.087-4.873c2.552-1.12-0.453,22.193-9.83,15.213C304.028,256.323,304.493,254.914,304.493,253.444
		C303.467,253.854,304.493,254.914,304.493,253.444z"/>
	<path fill-rule="evenodd" clip-rule="evenodd" d="M255.062,243.83c2.087,0.833,4.356,1.447,6.207,2.562
		c2.117,1.275-3.11,6.641-4.749,6.82c-2.833,0.305-5.764,0.146-8.635-0.06c-1.421-0.103-1.777-0.979-0.976-2.105
		c0.426-0.598,0.807-1.275,0.948-1.956c0.943-4.576,1.424-4.924,6.861-4.656C254.833,244.233,254.948,244.033,255.062,243.83
		C257.15,244.663,254.948,244.033,255.062,243.83z"/>
	<path fill-rule="evenodd" clip-rule="evenodd" d="M157.211,246.258c-0.456-1.115-0.805-1.968-1.153-2.822
		c1.092-0.303,2.163-0.763,3.28-0.868c1.278-0.12,2.701-0.172,3.875,0.188c1.964,0.598,3.185,2.138,2.493,3.771
		c-0.454,1.071-2.224,1.739-3.659,2.365c-1.523,1.979-6.446,8.996-8.388,0.838C153.099,247.376,155.265,246.816,157.211,246.258
		C156.756,245.143,155.265,246.816,157.211,246.258z"/>
	<path fill-rule="evenodd" clip-rule="evenodd" d="M141.822,248.281c-0.122,0.02-12.611,2.939-8.922-2.423
		c2.345-3.408,2.06-1.583,5.904-2.897c4.748-1.65,6.418,1.46,8.45,3.959c0.957,1.178,0.197,2.566-1.587,2.464
		C144.108,249.293,142.604,248.521,141.822,248.281C139.184,248.693,142.604,248.521,141.822,248.281z"/>
	<path fill-rule="evenodd" clip-rule="evenodd" d="M15.378,252.433c1.794,0.2,3.325,0.232,4.745,0.583
		c2.622,0.65,2.68,3.868-0.066,4.148c-0.257,0.027-16.439,1.792-14.089-1.163C7.784,253.716,12.521,253.204,15.378,252.433
		C17.172,252.633,15.041,252.523,15.378,252.433z"/>
	<path fill-rule="evenodd" clip-rule="evenodd" d="M719.486,146.303c1.785,0,3.579-0.105,5.346,0.048
		c2.444,0.334,2.919,1.281,1.429,2.842c-0.265,0.405-0.869,0.658-1.096,1.068c-1.621,2.958-3.884-0.378-6.606-0.568
		c-3.14,0.883-5.747,0.371-7.82-1.529c0.849-0.595,1.631-1.58,2.567-1.7c2.018-0.264,4.117-0.082,6.181-0.082
		C719.486,146.355,719.486,146.33,719.486,146.303C721.271,146.303,719.486,146.33,719.486,146.303z"/>
	<path fill-rule="evenodd" clip-rule="evenodd" d="M410.639,253.946c2.084,0.808,4.237,1.513,6.205,2.488
		c0.523,0.26,0.931,1.697,0.614,1.989c-1.106,1.025-2.46,1.938-3.92,2.552c-1.424,0.598-6.699-4.51-7.463-5.122
		c1.264-1.093,2.712-1.582,4.343-1.468C410.492,254.24,410.566,254.094,410.639,253.946
		C412.723,254.754,410.566,254.094,410.639,253.946z"/>
	<path fill-rule="evenodd" clip-rule="evenodd" d="M169.572,159.798c0.57,0.434,1.339,1.019,2.108,1.602
		c-1.615,1.497-3.338,2.899-5.169,4.207c-1.693,4.51-7.819-2.684-4.995-3.665C163.938,161.103,166.511,160.573,169.572,159.798
		C170.142,160.231,166.511,160.573,169.572,159.798z"/>
	<path fill-rule="evenodd" clip-rule="evenodd" d="M206.297,247.738c-2.923-1.154-5.521-2.322-8.198-3.851
		c1.119-2.65,3.025-3.305,5.718-1.968c2.136,1.09,3.842,2.533,5.117,4.331C208.072,246.737,207.21,247.224,206.297,247.738
		C205.089,247.261,207.21,247.224,206.297,247.738z"/>
	<path fill-rule="evenodd" clip-rule="evenodd" d="M707.514,252.267c0.518,0.291,1.467,0.824,2.417,1.358
		c-1.257,1.261-2.7,2.334-4.334,3.226c-1.562,0.261-3.215,0.241-4.812,0.131C696.93,256.714,706.114,252.398,707.514,252.267
		C708.031,252.558,705.717,252.436,707.514,252.267z"/>
	<path fill-rule="evenodd" clip-rule="evenodd" d="M189.006,245.425c-3.578,2.354-5.842,4.894-9.202,0.753
		c-0.657-0.81,3.59-3.745,5.355-3.393C186.313,243.015,187.217,244.143,189.006,245.425
		C186.765,246.898,187.217,244.143,189.006,245.425z"/>
	<path fill-rule="evenodd" clip-rule="evenodd" d="M126.522,250.773c-1.708-1.188-3.02-2.101-4.332-3.016
		c1.496-1.192,2.993-2.387,4.49-3.582c1.31,1.252,2.62,2.506,3.931,3.758C129.408,248.769,128.208,249.604,126.522,250.773
		C124.814,249.586,128.208,249.604,126.522,250.773z"/>
	<path fill-rule="evenodd" clip-rule="evenodd" d="M178.247,247.668c-3.107,0.726-6.274-0.292-7.562-2.567
		c-0.744-1.686-0.098-2.521,1.937-2.508C175.076,242.711,177.973,245.393,178.247,247.668
		C175.14,248.394,177.973,245.393,178.247,247.668z"/>
	<path fill-rule="evenodd" clip-rule="evenodd" d="M728.231,247.541c1.562,1.072,3.447,1.767,3.464,2.492
		c0.045,1.98-2.173,2.113-3.946,2.19C721.832,252.477,726.718,248.636,728.231,247.541
		C729.793,248.613,726.776,248.593,728.231,247.541z"/>
	<path fill-rule="evenodd" clip-rule="evenodd" d="M782.733,179.611c-0.389-0.314-1.183-0.949-1.975-1.584
		c-0.235,0.184,5.637-5.78,6.617-1.83C787.746,177.702,785.36,179.603,782.733,179.611
		C782.345,179.297,785.36,179.603,782.733,179.611z"/>
	<path fill-rule="evenodd" clip-rule="evenodd" d="M424.27,264.188c-0.992-1.348-2.173-2.24-2.052-2.979
		c0.124-0.753,1.524-1.355,2.366-2.026c0.938,0.859,1.873,1.719,2.81,2.576C426.54,262.424,425.684,263.087,424.27,264.188
		C423.277,262.841,425.684,263.087,424.27,264.188z"/>
	<path fill-rule="evenodd" clip-rule="evenodd" d="M204.33,254.781c-1.824-1.671-1.526-2.987,0.891-3.948
		c3.795-0.803-0.313,4.543,0.1,3.99C204.991,254.809,204.661,254.796,204.33,254.781
		C203.908,254.023,204.661,254.796,204.33,254.781z"/>
	<path fill-rule="evenodd" clip-rule="evenodd" d="M694.233,253.946c-1.058-0.858-1.655-1.343-2.253-1.828
		c-4.015,2.492,7.034-3.715,4.732-0.692C696.093,252.241,695.272,252.946,694.233,253.946
		C693.176,253.088,695.272,252.946,694.233,253.946z"/>
	<path fill-rule="evenodd" clip-rule="evenodd" d="M60.186,241.91c-1.779,3.322-3.603,3.985-5.471,1.985
		c1.144-0.93,2.246-1.907,3.478-2.747C58.386,241.018,59.169,241.508,60.186,241.91C58.607,243.126,59.169,241.508,60.186,241.91z"
		/>
	<path fill-rule="evenodd" clip-rule="evenodd" d="M192.768,247.293c-1.089,0.743-1.801,1.229-2.512,1.715
		c-0.489-0.683-3.057-4.014,0.477-3.78C191.356,245.272,191.887,246.343,192.768,247.293
		C191.678,248.036,191.887,246.343,192.768,247.293z"/>
	<path fill-rule="evenodd" clip-rule="evenodd" d="M706.749,262.903c-0.211-0.544,1.333-5.845,2.789-3.747
		C710.157,260.818,709.229,262.066,706.749,262.903C705.853,260.586,707.96,261.831,706.749,262.903z"/>
	<path fill-rule="evenodd" clip-rule="evenodd" d="M749.696,236.975c-1.547,1.291-2.813,1.233-3.797-0.173
		c0.15-0.657,0.672-1.362,1.297-1.771c0.208-0.137,1.181,0.564,1.805,0.883C749.233,236.268,749.465,236.62,749.696,236.975
		C748.877,237.291,749.465,236.62,749.696,236.975z"/>
	<path fill-rule="evenodd" clip-rule="evenodd" d="M211.502,224.107c-2.829,0.923-4.405,0.037-2.435-2.246
		c0.575,0.401,1.15,0.801,1.725,1.202C211.028,223.412,211.266,223.76,211.502,224.107
		C210.738,224.356,211.266,223.76,211.502,224.107z"/>
	<path fill-rule="evenodd" clip-rule="evenodd" d="M43.986,179.521c-1.591-1.397-1.423-2.522,0.506-3.365
		C45.915,177.344,45.746,178.465,43.986,179.521C43.425,178.492,44.755,178.597,43.986,179.521z"/>
	<path fill-rule="evenodd" clip-rule="evenodd" d="M108.494,193.732c-1.403,1.68-2.798,1.778-4.184,0.3
		C105.375,192.378,106.769,192.279,108.494,193.732C107.326,194.428,107.195,193.218,108.494,193.732z"/>
	<path fill-rule="evenodd" clip-rule="evenodd" d="M161.363,205.158c-0.875,0.833-1.495,1.925-2.125,1.928
		c-4.087,1.247-6.308,0.646-6.663-1.801c0.751-0.656,1.594-1.472,2.558-1.661c1.336-0.261,2.836-0.133,4.215,0.074
		C159.969,203.791,160.467,204.481,161.363,205.158C160.488,205.991,160.467,204.481,161.363,205.158z"/>
	<path fill-rule="evenodd" clip-rule="evenodd" d="M158.216,213.937c-1.94,0.839-3.101,1.557-4.383,1.785
		c-0.495,0.088-1.264-0.933-1.909-1.445c1.086-0.854,2.077-1.851,3.331-2.452C155.556,211.682,156.735,212.854,158.216,213.937
		C156.276,214.775,156.735,212.854,158.216,213.937z"/>
</g>
</svg>
