<?xml version="1.0" encoding="utf-8"?>
<!-- Generator: Adobe Illustrator 16.0.0, SVG Export Plug-In . SVG Version: 6.00 Build 0)  -->
<!DOCTYPE svg PUBLIC "-//W3C//DTD SVG 1.1//EN" "http://www.w3.org/Graphics/SVG/1.1/DTD/svg11.dtd">
<svg version="1.1" id="Layer_1" xmlns="http://www.w3.org/2000/svg" xmlns:xlink="http://www.w3.org/1999/xlink" x="0px" y="0px"
	 width="256px" height="256px" viewBox="0 -112 256 256" enable-background="new 0 -112 256 256" xml:space="preserve">
<g>
	<path fill="#3C3F42" d="M88.891,49.25h35.992l9.727,32.25h30.555L126.168-44.285H88.891L50.383,81.5h29.496L88.891,49.25z
		 M106.199-23.035h0.367c1.848,7.527,14.234,50.957,14.234,50.957H92.957C92.957,27.922,104.332-15.508,106.199-23.035z"/>
	<rect x="176.266" y="-9.719" fill="#3C3F42" width="28.414" height="91.219"/>
	<path fill="#3C3F42" d="M190.297-20.945c9.383,0,15.32-6.375,15.32-14.18c-0.219-8.227-5.938-14.379-15.094-14.379
		c-9.164,0-15.164,6.152-14.969,14.379C175.359-27.32,181.359-20.945,190.297-20.945z"/>
	<path fill="#3C3F42" d="M0-112v256h256v-256H0z M240.164,128.164H15.836V-96.164h224.328V128.164z"/>
</g>
</svg>
