<?xml version="1.0" encoding="utf-8"?>
<!-- Generator: Adobe Illustrator 16.0.0, SVG Export Plug-In . SVG Version: 6.00 Build 0)  -->
<!DOCTYPE svg PUBLIC "-//W3C//DTD SVG 1.1//EN" "http://www.w3.org/Graphics/SVG/1.1/DTD/svg11.dtd">
<svg version="1.1" id="ps_x5F_cc_x5F_app_x5F_RGB.svg"
	 xmlns="http://www.w3.org/2000/svg" xmlns:xlink="http://www.w3.org/1999/xlink" x="0px" y="0px" width="256px" height="256px"
	 viewBox="0 0 256 256" enable-background="new 0 0 256 256" xml:space="preserve">
<g>
	<path fill="#3C3F42" d="M216.75,181.988c-0.561-4.146-0.561-8.01-0.561-11.114V63.457c0-1.961-1.291-3.94-4.174-3.94h-18.921
		c-2.303,0-4.176,1.873-4.176,4.175V91.04c-0.941-0.028-1.894-0.028-3.11-0.028c-29.168,0-49.539,21.29-49.539,51.773
		c-0.002,16.006,4.545,29.126,13.146,37.94c8.156,8.357,19.765,12.775,33.569,12.775c10.763,0,21.612-2.458,31.429-7.133
		c2.181-1.091,2.363-2.625,2.363-3.978v-0.202L216.75,181.988z M169.52,121.503c3.78-4.565,9.168-6.978,15.581-6.978
		c1.447,0,2.674,0.102,3.701,0.31v53.836c-1.44,0.32-3.21,0.495-5.109,0.495c-13.261,0-20.27-9.448-20.27-27.322
		C163.423,133.354,165.53,126.32,169.52,121.503z"/>
	<path fill="#3C3F42" d="M102.57,123.755l30.269-58.134c0.832-1.497,0.884-3.079,0.143-4.339c-0.693-1.179-1.99-1.882-3.469-1.882
		H110.59c-2.825,0-3.961,1.82-4.66,2.94l-0.098,0.156l-0.078,0.167c-1.951,4.189-3.927,8.396-5.909,12.614
		c-4.334,9.224-8.791,18.707-13.02,28.123c-4.406-9.644-8.992-19.246-13.451-28.584c-1.948-4.08-3.899-8.166-5.842-12.267
		c-0.771-2.089-2.417-3.148-4.893-3.148H42.428c-1.565,0-3.018,0.881-3.699,2.245c-0.646,1.292-0.534,2.786,0.291,4.053
		l30.358,60.029L38,186.077c-0.872,1.243-1.047,2.762-0.445,4.048c0.645,1.378,2.027,2.2,3.697,2.2h19.509
		c2.001,0,3.526-0.885,4.661-2.705l0.084-0.135l0.069-0.144c6.61-13.632,13.374-28.469,19.815-42.808
		c6.268,13.266,13.356,28.192,20.403,42.728c1.089,2.172,2.726,3.183,5.149,3.183h20.45c1.489,0,2.794-0.751,3.491-2.01
		c0.728-1.312,0.663-2.923-0.166-4.334L102.57,123.755z"/>
</g>
<g>
	<path fill="#3C3F42" d="M0,0v256h256V0H0z M240.164,240.164H15.836V15.836h224.328V240.164z"/>
</g>
</svg>
