<?xml version="1.0" encoding="utf-8"?>
<!-- Generator: Adobe Illustrator 16.0.0, SVG Export Plug-In . SVG Version: 6.00 Build 0)  -->
<!DOCTYPE svg PUBLIC "-//W3C//DTD SVG 1.1//EN" "http://www.w3.org/Graphics/SVG/1.1/DTD/svg11.dtd">
<svg version="1.1" id="Layer_1" xmlns="http://www.w3.org/2000/svg" xmlns:xlink="http://www.w3.org/1999/xlink" x="0px" y="0px"
	 width="256px" height="256px" viewBox="0 -112 256 256" enable-background="new 0 -112 256 256" xml:space="preserve">
<g>
	<rect x="62.039" y="-42.996" fill="#3C3F42" width="27.781" height="122.457"/>
	<path fill="#3C3F42" d="M140.023,81.5c11.414,0,22.172-5.125,27.789-15.078h0.406l1.219,13.039h24.523
		c-0.305-5.945-0.727-16.539-0.727-26.555v-102.41h-27.617v48.141h-0.336c-3.984-6.176-12.531-10.012-23.469-10.012
		c-21.25,0-40,17.27-39.75,47.266C102.062,63.5,118.914,81.5,140.023,81.5z M149.078,9.734c8.547,0,14.5,6.191,16.125,13.594
		c0.25,1.469,0.414,3.508,0.414,4.969v11.578c0,2.359-0.164,4.398-0.727,6.359c-1.625,7.82-7.992,13.266-15.984,13.266
		c-11.484,0-18.895-9.453-18.895-24.508C130.012,20.977,136.516,9.734,149.078,9.734z"/>
	<path fill="#3C3F42" d="M0-112v256h256v-256H0z M240.164,128.164H15.836V-96.164h224.328V128.164z"/>
</g>
</svg>
