<?xml version="1.0" encoding="utf-8"?>
<!-- Generator: Adobe Illustrator 16.0.0, SVG Export Plug-In . SVG Version: 6.00 Build 0)  -->
<!DOCTYPE svg PUBLIC "-//W3C//DTD SVG 1.1//EN" "http://www.w3.org/Graphics/SVG/1.1/DTD/svg11.dtd">
<svg version="1.1" id="Layer_1" xmlns="http://www.w3.org/2000/svg" xmlns:xlink="http://www.w3.org/1999/xlink" x="0px" y="0px"
	 width="256px" height="256px" viewBox="0 -112 256 256" enable-background="new 0 -112 256 256" xml:space="preserve">
<g>
	<path fill="#3C3F42" d="M169.578,61.344c-8.586,0-19.578-3.828-24.898-7.016l-5.148,20.688c7.031,3.828,17.875,6.484,30.047,6.484
		c26.578,0,40.312-12.727,40.312-30.086c-0.203-13.664-7.609-22.641-25.297-28.68c-11.375-4.027-14.953-6.309-14.953-10.672
		c0-4.742,3.969-7.605,10.984-7.605c7.992,0,15.938,3.062,20.156,5.344l5.133-19.973c-5.711-2.863-15.398-5.328-26.266-5.328
		c-23.008,0-37.836,13.133-37.836,30.426c-0.203,11.059,7.211,21.527,26.469,27.965c10.781,3.641,13.641,5.906,13.641,10.656
		C181.93,58.305,178.281,61.344,169.578,61.344z"/>
	<path fill="#3C3F42" d="M74.789,33.781c2.66,0.391,6.105,0.516,9.867,0.516c17.109,0,31.793-4.156,41.613-13.445
		c7.668-7.223,11.832-17.891,11.832-30.426c0-12.551-5.461-23.219-13.715-29.66c-8.523-6.891-21.254-10.27-39.148-10.27
		c-17.676,0-30.223,1.168-39.129,2.664V79.625h28.676V33.781H74.789z M74.836-26.484c2.031-0.582,6.062-1.164,11.902-1.164
		c14.496,0,22.637,7.004,22.703,18.773c0,13.148-9.57,20.938-24.969,20.938c-4.16,0-7.156-0.18-9.637-0.715V-26.484z"/>
	<path fill="#3C3F42" d="M0-112v256h256v-256H0z M240.164,128.164H15.836V-96.164h224.328V128.164z"/>
</g>
</svg>
