<?xml version="1.0" encoding="utf-8"?>
<!-- Generator: Adobe Illustrator 16.0.0, SVG Export Plug-In . SVG Version: 6.00 Build 0)  -->
<!DOCTYPE svg PUBLIC "-//W3C//DTD SVG 1.1//EN" "http://www.w3.org/Graphics/SVG/1.1/DTD/svg11.dtd">
<svg version="1.1" id="Capa_1" xmlns="http://www.w3.org/2000/svg" xmlns:xlink="http://www.w3.org/1999/xlink" x="0px" y="0px"
	 width="256px" height="256px" viewBox="0 0 256 256" enable-background="new 0 0 256 256" xml:space="preserve">
<g>
	<g>
		<path fill="#3C3F42" d="M227.176,199.215L165.5,95.439V43.71c8.729-3.096,15-11.433,15-21.21C180.5,10.094,170.406,0,158,0H98
			C85.593,0,75.5,10.094,75.5,22.5c0,9.777,6.271,18.114,15,21.21v51.729L28.83,199.207c-7.042,11.737-7.221,25.857-0.477,37.77
			C35.098,248.889,47.297,256,60.986,256h134.028c13.689,0,25.888-7.111,32.633-19.023
			C234.39,225.066,234.213,210.951,227.176,199.215z M98,15h60c4.136,0,7.5,3.364,7.5,7.5S162.136,30,158,30H98
			c-4.136,0-7.5-3.364-7.5-7.5S93.864,15,98,15z M104.447,101.332c0.689-1.16,1.053-2.483,1.053-3.832V45h45v15H143
			c-4.143,0-7.5,3.358-7.5,7.5s3.357,7.5,7.5,7.5h7.5v15H143c-4.143,0-7.5,3.358-7.5,7.5s3.357,7.5,7.5,7.5h10.732l32.9,55.357
			c-5.576,2.85-13.094,5.643-21.133,5.643c-17.484,0-32.369-12.975-32.518-13.106c0,0-0.001-0.001-0.002-0.001
			C132.069,152.081,113.711,136,90.5,136c-2.293,0-4.607,0.16-6.936,0.471L104.447,101.332z M214.594,229.586
			c-4.047,7.146-11.367,11.414-19.58,11.414H60.986c-8.213,0-15.533-4.268-19.58-11.414c-4.047-7.148-3.94-15.619,0.302-22.689
			l30.75-51.74C78.676,152.399,84.738,151,90.5,151c17.484,0,32.37,12.976,32.503,13.093C123.775,164.783,142.195,181,165.5,181
			c11.125,0,21.119-3.644,28.815-7.715l19.977,33.611c0.005,0.01,0.011,0.019,0.017,0.027
			C218.533,213.967,218.641,222.438,214.594,229.586z"/>
	</g>
</g>
<g>
	<g>
		<circle fill="#3C3F42" cx="82.94" cy="188.5" r="7.5"/>
	</g>
</g>
<g>
	<g>
		<circle fill="#3C3F42" cx="172.939" cy="203.5" r="7.5"/>
	</g>
</g>
<g>
	<g>
		<circle fill="#3C3F42" cx="127.94" cy="218.5" r="7.5"/>
	</g>
</g>
</svg>
