<?xml version="1.0" encoding="utf-8"?>
<!-- Generator: Adobe Illustrator 16.0.0, SVG Export Plug-In . SVG Version: 6.00 Build 0)  -->
<!DOCTYPE svg PUBLIC "-//W3C//DTD SVG 1.1//EN" "http://www.w3.org/Graphics/SVG/1.1/DTD/svg11.dtd">
<svg version="1.1" id="Capa_1" xmlns="http://www.w3.org/2000/svg" xmlns:xlink="http://www.w3.org/1999/xlink" x="0px" y="0px"
	 width="256px" height="256px" viewBox="0 0 256 256" enable-background="new 0 0 256 256" xml:space="preserve">
<g>
	<g>
		<path fill="#3C3F42" d="M218.429,37.507C194.236,13.314,162.141,0,127.936,0c-34.206,0-66.3,13.314-90.493,37.507
			c-46.762,46.762-50.009,121.614-8.064,172.11c-4.113,8.28-10.716,17.914-20.513,22.731c-4.708,2.327-7.36,7.36-6.549,12.556
			c0.812,5.196,4.817,9.256,10.013,10.067c2.436,0.379,5.899,0.758,10.121,0.758c11.312,0,27.981-2.652,45.03-14.938
			C86.478,251.021,107.261,256,127.881,256c33.123,0,65.921-12.827,90.601-37.507c24.193-24.192,37.508-56.288,37.508-90.493
			C255.99,93.794,242.621,61.7,218.429,37.507z M208.092,208.156C171.559,244.688,115,251.941,70.512,225.8
			c-2.923-1.731-6.549-1.19-8.876,1.136c-0.216,0.109-0.433,0.271-0.595,0.434c-14.667,11.365-29.064,13.747-38.589,13.747h-0.054
			c10.987-8.011,17.915-19.917,21.974-29.172c0.649-1.569,0.758-3.193,0.379-4.709c-0.162-1.461-0.758-2.923-1.786-4.113
			C3.345,158.363,5.402,90.168,47.726,47.844c44.218-44.218,116.147-44.218,160.311,0C252.31,92.062,252.31,163.938,208.092,208.156
			z"/>
		<circle fill="#3C3F42" cx="127.936" cy="128" r="8.984"/>
		<circle fill="#3C3F42" cx="174.265" cy="128" r="8.984"/>
		<circle fill="#3C3F42" cx="81.606" cy="128" r="8.984"/>
	</g>
</g>
</svg>
