<?xml version="1.0" encoding="utf-8"?>
<!-- Generator: Adobe Illustrator 16.0.0, SVG Export Plug-In . SVG Version: 6.00 Build 0)  -->
<!DOCTYPE svg PUBLIC "-//W3C//DTD SVG 1.1//EN" "http://www.w3.org/Graphics/SVG/1.1/DTD/svg11.dtd">
<svg version="1.1" id="Layer_1" xmlns="http://www.w3.org/2000/svg" xmlns:xlink="http://www.w3.org/1999/xlink" x="0px" y="0px"
	 width="1224px" height="792px" viewBox="0 0 1224 792" enable-background="new 0 0 1224 792" xml:space="preserve">
<g id="surface1">
	<path fill="#3C3F42" d="M268.979,712.638H612v-26.393H268.979c-21.858,0-39.58-17.721-39.58-39.579V66.169
		c0-21.864,17.721-39.579,39.58-39.579h580.495c21.868,0,39.581,17.715,39.581,39.579v303.439h26.393V66.169
		c-0.044-36.414-29.555-65.921-65.974-65.964H268.979c-36.408,0.043-65.918,29.55-65.964,65.964v580.497
		C203.061,683.08,232.57,712.587,268.979,712.638z"/>
	<path fill="#3C3F42" d="M255.791,52.981h26.381v26.382h-26.381V52.981z"/>
	<path fill="#3C3F42" d="M308.558,52.981h26.392v26.382h-26.392V52.981z"/>
	<path fill="#3C3F42" d="M361.331,52.981h26.388v26.382h-26.388V52.981z"/>
	<path fill="#3C3F42" d="M255.791,105.748h606.878v26.392H255.791V105.748z"/>
	<path fill="#3C3F42" d="M391.585,162.388l-33.511,33.511c-28.326-18.753-66.258-13-87.756,13.31
		c-21.495,26.306-19.567,64.625,4.454,88.644c24.017,24.026,62.34,25.954,88.649,4.456c26.305-21.493,32.062-59.433,13.306-87.751
		l33.508-33.511L391.585,162.388z M321.749,290.45c-21.855,0-39.576-17.718-39.576-39.576c0-21.861,17.721-39.576,39.576-39.576
		c5.886,0.02,11.676,1.369,16.957,3.952l-26.279,26.282l18.651,18.657l26.298-26.267c2.583,5.277,3.936,11.068,3.956,16.95
		C361.331,272.732,343.616,290.45,321.749,290.45z"/>
	<path fill="#3C3F42" d="M427.298,211.298h224.278v26.382H427.298V211.298z"/>
	<path fill="#3C3F42" d="M427.298,264.068h92.351v26.382h-92.351V264.068z"/>
	<path fill="#3C3F42" d="M546.035,264.068h184.699v26.382H546.035V264.068z"/>
	<path fill="#3C3F42" d="M677.964,211.298h131.933v26.382H677.964V211.298z"/>
	<path fill="#3C3F42" d="M391.585,320.704l-33.511,33.511c-28.326-18.753-66.258-13-87.756,13.311
		c-21.495,26.31-19.567,64.625,4.454,88.648c24.017,24.021,62.34,25.948,88.649,4.451c26.305-21.497,32.062-59.424,13.306-87.752
		l33.508-33.512L391.585,320.704z M321.749,448.771c-21.855,0-39.576-17.723-39.576-39.579c0-21.862,17.721-39.583,39.576-39.583
		c5.886,0.022,11.676,1.375,16.957,3.958l-26.279,26.289l18.651,18.649l26.298-26.27c2.583,5.282,3.936,11.071,3.956,16.955
		C361.331,431.049,343.616,448.771,321.749,448.771z"/>
	<path fill="#3C3F42" d="M427.298,369.608h224.278v26.388H427.298V369.608z"/>
	<path fill="#3C3F42" d="M427.298,422.386h92.351v26.386h-92.351V422.386z"/>
	<path fill="#3C3F42" d="M546.035,422.386h105.541v26.386H546.035V422.386z"/>
	<path fill="#3C3F42" d="M677.964,369.608h52.771v26.388h-52.771V369.608z"/>
	<path fill="#3C3F42" d="M391.585,479.021l-33.511,33.512c-28.326-18.753-66.258-12.999-87.756,13.31
		c-21.495,26.31-19.567,64.625,4.454,88.649c24.017,24.022,62.34,25.944,88.649,4.45c26.305-21.497,32.062-59.427,13.306-87.756
		l33.508-33.509L391.585,479.021z M321.749,607.087c-21.855,0-39.576-17.722-39.576-39.579c0-21.86,17.721-39.579,39.576-39.579
		c5.886,0.021,11.676,1.369,16.957,3.955l-26.279,26.288l18.651,18.65l26.298-26.27c2.583,5.281,3.936,11.074,3.956,16.954
		C361.331,589.365,343.616,607.087,321.749,607.087z"/>
	<path fill="#3C3F42" d="M427.298,527.929h171.509v26.393H427.298V527.929z"/>
	<path fill="#3C3F42" d="M427.298,580.701h92.351v26.386h-92.351V580.701z"/>
	<path fill="#3C3F42" d="M546.035,580.701h52.771v26.386h-52.771V580.701z"/>
	<path fill="#3C3F42" d="M823.094,791.795c109.299,0,197.894-88.608,197.894-197.898c0-109.301-88.595-197.899-197.894-197.899
		c-109.301,0-197.898,88.6-197.898,197.899C625.323,703.137,713.846,791.663,823.094,791.795z M823.094,422.386
		c94.717,0,171.51,76.786,171.51,171.511c0,94.724-76.793,171.508-171.51,171.508c-94.728,0-171.518-76.784-171.518-171.508
		C651.688,499.219,728.409,422.491,823.094,422.386z"/>
	<path fill="#3C3F42" d="M742.616,601.188l-23.618,11.792l26.389,52.772c1.893,3.796,5.502,6.452,9.692,7.129
		c0.682,0.105,1.361,0.162,2.046,0.173c3.496,0,6.852-1.393,9.332-3.865l158.311-158.316l-18.649-18.657L760.736,637.589
		L742.616,601.188z"/>
</g>
</svg>
