<?xml version="1.0" encoding="utf-8"?>
<!-- Generator: Adobe Illustrator 16.0.0, SVG Export Plug-In . SVG Version: 6.00 Build 0)  -->
<!DOCTYPE svg PUBLIC "-//W3C//DTD SVG 1.1//EN" "http://www.w3.org/Graphics/SVG/1.1/DTD/svg11.dtd">
<svg version="1.1" id="Capa_1" xmlns="http://www.w3.org/2000/svg" xmlns:xlink="http://www.w3.org/1999/xlink" x="0px" y="0px"
	 width="256px" height="256px" viewBox="0 0 256 256" enable-background="new 0 0 256 256" xml:space="preserve">
<g>
	<g>
		<path fill="#3C3F42" d="M220.215,13.488H35.785C18.498,13.488,0,22.902,0,49.273v123.651c0,26.371,18.498,35.785,35.785,35.785
			h68.267v22.792H92.71c-3.04,0-5.505,2.466-5.505,5.505c0,3.041,2.465,5.506,5.505,5.506h72.67c3.041,0,5.506-2.465,5.506-5.506
			c0-3.039-2.465-5.505-5.506-5.505h-13.433v-22.792h68.267c26.371,0,35.785-18.498,35.785-35.785V49.273
			C256,22.902,237.502,13.488,220.215,13.488z M140.938,231.501h-25.875v-22.792h25.875V231.501L140.938,231.501z M244.989,172.924
			c0,7.432-2.423,24.774-24.774,24.774H35.785c-7.433,0-24.774-2.423-24.774-24.774v-7.873h233.979V172.924z M244.989,154.096
			H11.011V49.493c0-22.352,17.342-24.774,24.774-24.774h184.43c7.433,0,24.774,2.422,24.774,24.774V154.096z"/>
	</g>
</g>
<g>
	<g>
		<path fill="#3C3F42" d="M217.249,39.473c-2.431-1.826-5.882-1.336-7.708,1.094c-0.002,0.003-0.004,0.005-0.006,0.008h0.275
			l-41.07,55.054l-19.269-25.049c-1.003-1.306-2.538-2.094-4.185-2.147c-1.639-0.046-3.213,0.64-4.294,1.872l-31.381,35.675
			L86.6,66.67c-0.981-1.655-2.755-2.678-4.68-2.697c-1.932-0.011-3.73,0.992-4.734,2.643L39.198,128
			c-1.955,2.328-1.651,5.801,0.677,7.756s5.801,1.652,7.756-0.677c0.395-0.47,0.707-1.001,0.926-1.573L81.59,79.663l22.021,37.932
			c1.535,2.625,4.907,3.507,7.532,1.972c0.499-0.292,0.948-0.66,1.332-1.091l32.041-35.84l19.654,25.545
			c1.125,1.273,2.71,2.045,4.404,2.147c1.714-0.017,3.321-0.831,4.35-2.202l45.42-60.944C220.17,44.75,219.68,41.299,217.249,39.473
			z"/>
	</g>
</g>
</svg>
