<?xml version="1.0" encoding="utf-8"?>
<!-- Generator: Adobe Illustrator 16.0.0, SVG Export Plug-In . SVG Version: 6.00 Build 0)  -->
<!DOCTYPE svg PUBLIC "-//W3C//DTD SVG 1.1//EN" "http://www.w3.org/Graphics/SVG/1.1/DTD/svg11.dtd">
<svg version="1.1" id="Layer_1" xmlns="http://www.w3.org/2000/svg" xmlns:xlink="http://www.w3.org/1999/xlink" x="0px" y="0px"
	 width="256px" height="256px" viewBox="0 0 256 256" enable-background="new 0 0 256 256" xml:space="preserve">
<g>
	<path fill="#3C3F42" d="M250.723,116.566L139.418,5.266c-6.408-6.412-16.803-6.412-23.219,0L93.089,28.38l29.317,29.319
		c6.814-2.302,14.628-0.757,20.058,4.674c5.461,5.464,6.993,13.344,4.633,20.183l28.258,28.255
		c6.838-2.356,14.722-0.832,20.184,4.636c7.629,7.628,7.629,19.992,0,27.625c-7.635,7.635-19.998,7.635-27.635,0
		c-5.738-5.743-7.158-14.176-4.248-21.246L137.3,95.473v69.35c1.859,0.921,3.615,2.148,5.165,3.693
		c7.629,7.629,7.629,19.991,0,27.632c-7.63,7.625-20,7.625-27.624,0c-7.63-7.641-7.63-20.003,0-27.632
		c1.885-1.884,4.069-3.31,6.398-4.264v-69.99c-2.33-0.953-4.508-2.367-6.398-4.264c-5.78-5.776-7.169-14.258-4.205-21.355
		L81.731,39.736L5.41,116.051c-6.41,6.417-6.41,16.812,0,23.223l111.31,111.302c6.408,6.41,16.8,6.41,23.218,0L250.723,139.79
		C257.136,133.377,257.136,122.976,250.723,116.566z"/>
</g>
</svg>
