<?xml version="1.0" encoding="utf-8"?>
<!-- Generator: Adobe Illustrator 16.0.0, SVG Export Plug-In . SVG Version: 6.00 Build 0)  -->
<!DOCTYPE svg PUBLIC "-//W3C//DTD SVG 1.1//EN" "http://www.w3.org/Graphics/SVG/1.1/DTD/svg11.dtd">
<svg version="1.1" id="Capa_1" xmlns="http://www.w3.org/2000/svg" xmlns:xlink="http://www.w3.org/1999/xlink" x="0px" y="0px"
	 width="1224px" height="792px" viewBox="0 0 1224 792" enable-background="new 0 0 1224 792" xml:space="preserve">
<g>
	<g>
		<path fill="#3C3F42" d="M772.532,127.03L684.982,5.442c-3.374-4.686-8.795-7.464-14.57-7.464c-5.772,0-11.195,2.778-14.567,7.464
			l-87.55,121.588c-2.201,3.055-3.384,6.725-3.384,10.49v2.868v582.621c0,37.045,30.139,67.186,67.185,67.186h76.637
			c37.048,0,67.186-30.141,67.186-67.186V140.388v-2.868C775.916,133.755,774.732,130.083,772.532,127.03z M670.412,46.658
			l54.562,75.776h-109.12L670.412,46.658z M600.817,158.341h85.242v465.028h-31.302V280.437c0.003-9.917-8.036-17.956-17.95-17.956
			c-9.915,0-17.955,8.038-17.955,17.954v342.934h-18.035V158.341L600.817,158.341z M740.009,723.007
			c0,17.246-14.03,31.276-31.278,31.276h-76.636c-17.244,0-31.276-14.03-31.276-31.276v-63.731h139.19V723.007z M740.009,623.369
			h-18.038V158.341h18.038V623.369z"/>
	</g>
</g>
<g>
	<g>
		<path fill="#3C3F42" d="M654.406,204.827c-0.234-1.131-0.575-2.263-1.024-3.357c-0.448-1.078-1.005-2.119-1.65-3.088
			c-0.646-0.988-1.399-1.903-2.228-2.729c-0.825-0.826-1.742-1.58-2.729-2.245c-0.969-0.646-2.012-1.185-3.105-1.634
			c-1.077-0.449-2.206-0.808-3.355-1.042c-2.316-0.449-4.704-0.449-7.021,0c-1.129,0.234-2.26,0.593-3.354,1.042
			c-1.079,0.449-2.12,0.988-3.09,1.634c-0.986,0.665-1.902,1.418-2.729,2.245c-0.825,0.826-1.579,1.741-2.243,2.729
			c-0.646,0.969-1.203,2.01-1.652,3.088c-0.447,1.094-0.788,2.226-1.021,3.357c-0.234,1.167-0.342,2.352-0.342,3.519
			c0,4.722,1.921,9.354,5.264,12.693c3.336,3.34,7.967,5.261,12.69,5.261c1.167,0,2.354-0.126,3.501-0.359
			c1.149-0.233,2.28-0.575,3.355-1.023c1.096-0.449,2.139-1.005,3.105-1.652c0.986-0.646,1.903-1.4,2.729-2.226
			c0.827-0.826,1.581-1.742,2.228-2.729c0.646-0.969,1.203-2.01,1.65-3.106c0.449-1.077,0.79-2.207,1.024-3.357
			c0.232-1.149,0.355-2.333,0.355-3.501C654.763,207.179,654.64,205.993,654.406,204.827z"/>
	</g>
</g>
<g>
	<g>
		<path fill="#3C3F42" d="M327.012,334.224l-0.005-2.735c0.002-14.15,11.514-25.661,25.663-25.661c0.252,0,0.506-0.006,0.759-0.016
			l54.688-2.315c31.935-0.224,57.846-26.273,57.846-58.262c0-32.126-26.136-58.261-58.261-58.261H285.514
			c-12.325,0-22.354-10.029-22.354-22.355c0-5.964,2.352-11.564,6.622-15.768c4.095-4.034,9.449-6.242,15.104-6.242
			c0.208,0,0.419,0.006,0.628,0.006l106.909-0.004c39.875,0,72.313-32.441,72.313-72.316s-32.44-72.316-72.315-72.316H270.806
			c-9.914,0-17.954,8.038-17.954,17.954c0,9.917,8.04,17.954,17.954,17.954h121.615c20.076,0,36.408,16.333,36.408,36.409
			c0,20.075-16.333,36.407-36.407,36.41l-106.781,0.003c-15.379-0.212-29.997,5.672-41.049,16.554
			c-11.182,11.009-17.34,25.694-17.34,41.359c0,32.126,26.138,58.264,58.262,58.264h122.185c12.326,0,22.354,10.027,22.354,22.354
			c0,12.327-10.027,22.356-22.354,22.356c-0.253,0-0.506,0.005-0.76,0.016l-54.682,2.314c-33.761,0.221-61.156,27.754-61.156,61.603
			l0.004,2.708c-77.967,8.95-138.721,75.342-138.721,155.668v143.888c0,86.409,70.3,156.709,156.709,156.709
			c86.409,0,156.708-70.3,156.708-156.709v-143.89C465.802,409.552,405.014,343.143,327.012,334.224z M188.293,489.901
			c0-60.514,44.719-110.774,102.847-119.472v146.435H188.293V489.901z M429.895,633.789c0,66.61-54.189,120.802-120.8,120.802
			c-66.61,0-120.801-54.19-120.801-120.802v-81.016h241.603v81.016H429.895z M429.895,516.864H327.047V370.43
			c58.129,8.697,102.847,58.958,102.847,119.472L429.895,516.864L429.895,516.864z"/>
	</g>
</g>
<g>
	<g>
		<path fill="#3C3F42" d="M219.279,12.417c-0.233-1.131-0.575-2.261-1.023-3.357c-0.449-1.077-1.006-2.118-1.652-3.087
			c-0.645-0.987-1.398-1.904-2.224-2.729c-3.34-3.339-7.972-5.26-12.694-5.26c-4.721,0-9.353,1.921-12.693,5.26
			c-0.825,0.826-1.579,1.742-2.226,2.729c-0.663,0.969-1.203,2.011-1.652,3.087c-0.466,1.096-0.806,2.227-1.042,3.357
			c-0.233,1.167-0.34,2.352-0.34,3.519s0.108,2.352,0.34,3.501c0.234,1.149,0.575,2.28,1.04,3.357
			c0.449,1.096,0.99,2.137,1.652,3.106c0.646,0.987,1.4,1.903,2.226,2.729c0.827,0.827,1.742,1.581,2.731,2.227
			c0.969,0.646,2.01,1.203,3.087,1.652c1.095,0.449,2.227,0.79,3.376,1.024c1.148,0.233,2.334,0.358,3.5,0.358
			c4.722,0,9.354-1.92,12.694-5.26c0.826-0.825,1.58-1.741,2.224-2.729c0.646-0.97,1.203-2.011,1.652-3.106
			c0.449-1.077,0.79-2.208,1.023-3.357c0.233-1.149,0.359-2.333,0.359-3.501S219.513,13.584,219.279,12.417z"/>
	</g>
</g>
<g>
	<g>
		<path fill="#3C3F42" d="M1071.479,177.121c-1.983-42.365-23.325-63.334-40.476-80.181c-18.553-18.23-29.753-29.234-19.178-65.297
			c4.788-16.327-1.806-24.9-6.166-28.557c-5.423-4.55-15.103-8.381-30.435-0.792c-19.864,9.835-50.021,38.75-73.325,70.31
			c-21.4,28.979-46.493,72.373-44.52,114.543c1.479,31.533,14.849,60.448,36.674,80.786c-10.786,14.557-17.181,32.555-17.181,52.022
			c0,12.351,2.518,24.123,7.096,34.809v350.855c0,42.703,34.741,77.443,77.444,77.443c42.699,0,77.441-34.74,77.441-77.443V366.357
			c8.37-13.481,13.15-29.393,13.15-46.403c0.002-19.234-6.246-37.026-16.797-51.487
			C1059.557,245.868,1073.136,212.53,1071.479,177.121z M1002.948,705.616c0.003,22.903-18.63,41.536-41.533,41.536
			c-22.904,0-41.536-18.633-41.536-41.536V395.451c9.324,5.46,19.807,9.289,31.119,11.036c0.907,0.14,1.823,0.21,2.738,0.21h21.41
			c0.918,0,1.834-0.07,2.737-0.21c1.185-0.185,2.361-0.396,3.534-0.626c0.749-0.146,1.487-0.315,2.229-0.479
			c0.319-0.071,0.641-0.14,0.959-0.214c6.446-1.506,12.582-3.694,18.343-6.483V705.616z M988.709,365.528
			c-0.076,0.038-0.15,0.078-0.223,0.115c-0.519,0.276-1.039,0.538-1.568,0.797c-0.249,0.122-0.501,0.239-0.754,0.357
			c-0.402,0.189-0.807,0.373-1.213,0.55c-0.383,0.167-0.769,0.326-1.153,0.483c-0.313,0.128-0.627,0.258-0.942,0.38
			c-0.479,0.186-0.965,0.357-1.448,0.527c-0.253,0.088-0.501,0.18-0.755,0.264c-0.547,0.181-1.099,0.352-1.65,0.514
			c-0.21,0.063-0.42,0.129-0.631,0.19c-0.604,0.171-1.213,0.323-1.821,0.47c-0.173,0.041-0.341,0.09-0.514,0.129
			c-0.785,0.183-1.573,0.346-2.366,0.489h-18.445c-0.017-0.003-0.035-0.007-0.053-0.01c-0.868-0.157-1.725-0.344-2.576-0.544
			c-0.341-0.082-0.68-0.169-1.019-0.258c-0.508-0.132-1.015-0.27-1.518-0.416c-0.424-0.124-0.85-0.246-1.27-0.381
			c-0.318-0.101-0.632-0.215-0.948-0.322c-20.484-7.009-35.054-26.669-35.054-48.909c0-16.65,7.926-31.477,20.192-40.931
			c0.474-0.364,0.952-0.718,1.436-1.064c0.826-0.592,1.67-1.161,2.532-1.706c0.377-0.239,0.754-0.476,1.138-0.704
			c1.189-0.709,2.41-1.374,3.659-1.987c0.122-0.061,0.243-0.126,0.366-0.185c0.725-0.348,1.455-0.681,2.199-0.997
			c0.121-0.052,0.245-0.097,0.366-0.147c1.29-0.537,2.605-1.019,3.944-1.451c0.415-0.132,0.83-0.258,1.248-0.38
			c0.906-0.268,1.824-0.508,2.753-0.727c0.708-0.165,1.418-0.321,2.135-0.456c0.486-0.093,0.974-0.184,1.464-0.262
			c1.122-0.178,2.257-0.325,3.4-0.429c0.308-0.029,0.621-0.049,0.932-0.072c1.29-0.095,2.586-0.162,3.896-0.162
			c1.328,0,2.641,0.071,3.945,0.167c0.311,0.024,0.622,0.042,0.929,0.071c1.146,0.105,2.28,0.256,3.405,0.436
			c0.508,0.083,1.013,0.174,1.518,0.271c0.722,0.137,1.438,0.298,2.152,0.467c0.936,0.222,1.862,0.469,2.778,0.741
			c0.381,0.113,0.763,0.232,1.14,0.354c1.289,0.417,2.555,0.881,3.795,1.393c0.184,0.076,0.368,0.147,0.55,0.225
			c2.176,0.929,4.272,2.006,6.284,3.212c0.444,0.268,0.883,0.547,1.32,0.83c0.812,0.521,1.606,1.061,2.387,1.625
			c0.544,0.395,1.082,0.8,1.614,1.219c12.063,9.465,19.839,24.162,19.839,40.65C1016.105,339.31,1005.074,356.718,988.709,365.528z
			 M1008.443,244.247c-0.392-0.226-0.799-0.418-1.189-0.639c-0.938-0.528-1.889-1.036-2.848-1.529
			c-0.49-0.252-0.977-0.513-1.472-0.755c-3.197-1.57-6.506-2.942-9.907-4.12c-0.188-0.064-0.375-0.127-0.562-0.192
			c-1.703-0.577-3.426-1.11-5.174-1.582c-0.007-0.001-0.014-0.003-0.022-0.007c-3.538-0.957-7.163-1.69-10.863-2.199
			c-0.339-0.046-0.677-0.086-1.015-0.129c-1.431-0.18-2.869-0.323-4.315-0.431c-0.436-0.033-0.864-0.072-1.298-0.099
			c-1.766-0.106-3.541-0.178-5.334-0.178c-1.772,0-3.529,0.069-5.278,0.174c-0.42,0.025-0.835,0.064-1.255,0.095
			c-1.435,0.106-2.858,0.246-4.273,0.421c-0.332,0.041-0.663,0.081-0.995,0.128c-5.479,0.741-10.798,1.992-15.909,3.704
			c-0.146,0.048-0.289,0.097-0.433,0.146c-1.62,0.552-3.223,1.145-4.798,1.787c-0.132,0.053-0.265,0.103-0.396,0.156
			c-1.645,0.681-3.268,1.401-4.86,2.176c-0.347,0.168-0.685,0.356-1.029,0.528c-1.09,0.547-2.169,1.113-3.229,1.705
			c-0.312,0.173-0.635,0.321-0.942,0.498c-16.512-14.049-26.702-35.162-27.792-58.438c-1.206-25.739,13.882-60.966,41.395-96.648
			c13.789-17.886,27.076-31.389,37.592-40.564c-2.979,38.354,16.99,57.976,33.604,74.297c15.264,14.997,28.445,27.947,29.77,56.248
			C1036.822,204.67,1026.598,228.804,1008.443,244.247z"/>
	</g>
</g>
</svg>
