<?xml version="1.0" encoding="utf-8"?>
<!-- Generator: Adobe Illustrator 16.0.0, SVG Export Plug-In . SVG Version: 6.00 Build 0)  -->
<!DOCTYPE svg PUBLIC "-//W3C//DTD SVG 1.1//EN" "http://www.w3.org/Graphics/SVG/1.1/DTD/svg11.dtd">
<svg version="1.1" id="Capa_1" xmlns="http://www.w3.org/2000/svg" xmlns:xlink="http://www.w3.org/1999/xlink" x="0px" y="0px"
	 width="1224px" height="792px" viewBox="0 0 1224 792" enable-background="new 0 0 1224 792" xml:space="preserve">
<g>
	<g>
		<g>
			<path fill="#3C3F42" d="M1044.05,91.705h-1.389c0-51.41-40.295-91.705-91.705-91.705H272.892
				c-51.41,0-91.705,40.295-91.705,91.705v427.958c0,51.41,40.295,91.705,91.705,91.705H518.83l-20.842,97.264h-94.485
				c-8.336,0-13.895,5.558-13.895,13.895v55.579c0,8.336,5.558,13.895,13.895,13.895h416.842c8.337,0,13.896-5.559,13.896-13.895
				v-55.579c0-8.337-5.559-13.895-13.896-13.895h-93.094l-20.843-97.264h245.937c50.021,0,91.705-40.295,91.705-91.705V91.705z
				 M806.45,736.421v27.79H417.397v-27.79H806.45z M525.777,708.632l20.842-97.264h130.609l20.843,97.264H525.777z
				 M1014.871,519.663c0,34.737-29.179,63.916-63.915,63.916H272.892c-34.737,0-63.916-29.179-63.916-63.916v-47.242h805.895
				V519.663z M1014.871,444.632H208.977V91.705c0-34.737,29.179-63.916,63.916-63.916h678.064c34.736,0,63.915,29.179,63.915,63.916
				V444.632z"/>
			<circle fill="#3C3F42" cx="611.924" cy="528" r="27.789"/>
			<rect x="820.345" y="83.368" fill="#3C3F42" width="27.79" height="27.79"/>
			<rect x="875.924" y="83.368" fill="#3C3F42" width="27.79" height="27.79"/>
			<rect x="931.503" y="83.368" fill="#3C3F42" width="27.79" height="27.79"/>
			<rect x="875.924" y="138.947" fill="#3C3F42" width="27.79" height="27.79"/>
			<rect x="931.503" y="138.947" fill="#3C3F42" width="27.79" height="27.79"/>
			<rect x="681.397" y="361.263" fill="#3C3F42" width="277.896" height="27.79"/>
			<rect x="723.082" y="305.684" fill="#3C3F42" width="236.211" height="27.79"/>
			<rect x="764.766" y="250.105" fill="#3C3F42" width="194.527" height="27.789"/>
			<rect x="931.503" y="194.526" fill="#3C3F42" width="27.79" height="27.79"/>
			<path fill="#3C3F42" d="M618.871,195.916c-4.169-2.778-9.726-2.778-13.895,0l-62.526,31.958v-19.453
				c0-8.336-5.558-13.895-13.895-13.895h-70.863c1.39-4.168,1.39-9.727,1.39-13.895c0-54.19-43.074-97.264-97.263-97.264
				c-54.19,0-97.263,43.074-97.263,97.264c0,48.631,36.126,88.926,83.368,95.874v98.652c0,8.337,5.558,13.895,13.895,13.895h166.737
				c8.336,0,13.895-5.558,13.895-13.895v-19.453l62.526,31.958c2.778,1.389,4.169,1.389,6.947,1.389
				c8.337,0,13.895-5.558,13.895-13.895V208.421C625.818,204.253,623.04,198.695,618.871,195.916z M347.924,208.421v40.295
				c-37.516-6.947-62.526-44.463-54.189-81.979c6.947-31.958,34.737-55.579,68.084-55.579c38.906,0,69.474,30.569,69.474,69.474
				c0,4.168,0,9.726-1.389,13.895h-68.084C353.482,194.526,347.924,200.084,347.924,208.421z M417.397,222.316
				c-9.726,13.895-25.011,23.621-41.684,26.4v-26.4H417.397z M514.661,311.242l-38.906-19.453l38.906-19.453V311.242z
				 M514.661,241.769l-76.421,37.516c-4.169,2.779-6.947,6.947-6.947,12.505s2.778,9.726,6.947,12.505l76.421,37.516v19.453H375.713
				v-84.758c31.958-4.169,59.748-25.011,73.643-54.189h65.305V241.769z M598.029,352.927l-55.579-27.79v-66.695l55.579-27.79
				V352.927z"/>
		</g>
	</g>
</g>
</svg>
