<?xml version="1.0" encoding="utf-8"?>
<!-- Generator: Adobe Illustrator 16.0.0, SVG Export Plug-In . SVG Version: 6.00 Build 0)  -->
<!DOCTYPE svg PUBLIC "-//W3C//DTD SVG 1.1//EN" "http://www.w3.org/Graphics/SVG/1.1/DTD/svg11.dtd">
<svg version="1.1" xmlns="http://www.w3.org/2000/svg" xmlns:xlink="http://www.w3.org/1999/xlink" x="0px" y="0px" width="1224px"
	 height="792px" viewBox="0 0 1224 792" enable-background="new 0 0 1224 792" xml:space="preserve">
<g id="Layer_1">
	<path fill-rule="evenodd" clip-rule="evenodd" fill="#5AC9E9" d="M351.938,422.361c-0.208,0.085-0.454,0.125-0.663,0.166v-0.125
		c0.042-0.166,0.042-0.287,0.125-0.412C351.564,422.156,351.729,422.236,351.938,422.361z"/>
	<path fill-rule="evenodd" clip-rule="evenodd" fill="#5AC9E9" d="M351.938,422.361c-0.208,0.085-0.454,0.125-0.663,0.166v-0.125
		c0.042-0.166,0.042-0.287,0.125-0.412C351.564,422.156,351.729,422.236,351.938,422.361z"/>
	<path fill-rule="evenodd" clip-rule="evenodd" fill="#5AC9E9" d="M351.938,422.361c-0.208,0.085-0.454,0.125-0.663,0.166v-0.125
		c0.042-0.166,0.042-0.287,0.125-0.412C351.564,422.156,351.729,422.236,351.938,422.361z"/>
	<path fill-rule="evenodd" clip-rule="evenodd" fill="#5AC9E9" d="M986.338,449.009c14.314-11.835,25.156-26.522,33.847-42.741
		c15.517-29.045,21.513-59.952,17.956-92.761c-2.193-20.607-8.314-39.886-17.956-58.173c-7.159-13.53-16.384-25.487-26.812-36.577
		c-4.634-3.681-8.522-8.15-13.156-11.873c-31.321-25.116-67.028-36.825-107.038-35.666h-49.648c-12.703,0-25.447,0.041-38.146,0.041
		c-0.332-0.372-0.788-0.744-1.285-1.075c-6.91-1.283-13.859-0.249-20.768-0.58c-2.195-0.083-4.264,0.455-6.293,1.324
		c-2.977,0.083-5.954,0.208-8.937,0.291c-6.327,4.964-11.544,11.047-17.168,16.674c-2.028,1.159-3.806,2.648-5.423,4.262
		c-14.602,14.77-29.705,29.045-44.102,43.981c-4.098,4.22-8.938,7.821-11.876,13.158c-4.347,4.426-8.69,8.853-13.074,13.281
		c-0.291,6.041-1.16,12.039-1.531,18.039c-1.075,16.508-0.126,33.058,1.405,49.567c0,0.289,0.372,0.497,0.578,0.746
		c1.285,0.041,2.525,0.041,3.766,0.083c1.903,2.026,4.389,1.987,6.869,2.026c24.699,0,49.403,0,74.104-0.04
		c2.314,0,4.675,0.123,6.577-1.532c2.068-2.606,1.035-5.709,1.366-8.606c0-9.847-0.372-19.736,0.165-29.583
		c0.497-9.807,0.537-19.653,0.041-29.5v-0.497c4.304,1.654,8.897,0.083,13.28,0.661c7.075,0,14.109,0.042,21.186-0.041
		c1.49,0,3.103,0.207,4.509-0.497c32.231,0,64.462-0.124,96.693,0.125c11.96,0.123,22.842,4.592,32.438,11.791
		c17.585,11.958,27.27,28.467,28.796,49.692c1.576,17.501-3.018,33.183-13.652,47.167c-6.703,8.897-15.557,15.063-25.112,20.356
		c-11.628,4.761-23.668,6.331-36.247,6.041c-18.367-0.412-36.74,0-55.107,0.044c-26.357,0-52.754-0.044-79.11-0.084
		c-0.581-0.332-1.118-0.703-1.655-1.035c-3.848-1.737-6.664-5.75-11.585-5.086c-2.274-1.326-4.551-2.61-6.784-3.977
		c-1.49-0.949-2.731-1.034-3.811,0.542c-3.35,4.921-7.487,9.099-11.418,13.487c-0.869,0.743-1.943,1.155-2.771,2.069
		c-10.842,12.246-21.473,24.699-31.484,37.608c-0.913,1.28-2.444,2.194-2.153,4.098c-3.104,3.64-6.167,7.28-9.269,10.921
		c-0.207,0.457-0.166,0.91,0.044,1.366c0.04,0.081,0.081,0.165,0.121,0.206c-0.121,20.48,1.285,40.838,2.068,61.234
		c-0.496,0.375-0.95,0.869-1.321,1.531c-1.449,4.016-1.16,8.234-0.582,12.246c1.697,11.835,0.537,23.711,1.572,35.584
		c1.737,19.775-0.412,39.844,4.057,59.498c0.081,1.28,0.125,2.564,0.206,3.846c2.979,0.704,5.915,2.11,9.019,2.154
		c21.807,0.121,43.609,0.206,65.456-0.044c4.882-0.041,6.125-1.531,6.579-6.618c0.289-13.367,1.861-26.688,1.406-40.095
		c-0.041-1.155,0.125-2.315,0.25-3.435c1.24-9.059,0.868-18.122,0.287-27.221c-0.207-0.828-0.412-1.576-0.704-2.319
		c1.159-4.304,0-8.938,1.822-13.116c0.413-4.881,0.869-9.766,1.075-14.646c0.166-4.715,1.657-9.766-1.24-14.189
		c3.103,0.742,5.959,2.234,8.731,3.806c54.696,31.237,109.187,62.847,163.803,94.209c12.618,7.239,25.237,14.481,37.854,21.681
		c5.548,2.481,6.373,2.234,10.721-2.896c7.527-9.43,15.35-18.619,23.208-27.763c6.744-7.944,12.95-16.3,19.985-23.997
		c1.325-1.611,2.564-3.27,3.681-5.006c0.331-0.622,0.415-1.325,0.29-2.028c2.319-2.771-1.115-3.062-1.902-4.509
		c-0.456-1.16-1.035-2.194-2.195-2.771c-24.658-15.476-49.814-30.123-74.595-45.388c-1.657-0.703-3.313-1.491-4.841-2.484
		c-7.16-4.716-14.4-9.266-21.932-13.403c-5.916-3.972-12.246-7.24-18.203-11.132c1.321,0.333,2.731,0.372,4.178,0.206
		c7.16-0.949,14.355-1.736,21.266-4.053c8.36-1.078,15.972-4.428,23.71-7.531c1.2-0.496,2.274-1.281,2.731-2.646
		c0-0.209,0-0.416-0.04-0.582c1.445-0.452,2.978-0.742,4.258-1.445C961.392,468.125,974.753,459.891,986.338,449.009z
		 M789.767,262.408c-0.041,0-0.041,0-0.081,0c0.04-0.042,0.04-0.042,0.081-0.042C789.767,262.365,789.767,262.365,789.767,262.408z"
		/>
	<path fill-rule="evenodd" clip-rule="evenodd" fill="#5AC9E9" d="M789.767,262.365c0,0,0,0,0,0.042c-0.041,0-0.041,0-0.081,0
		C789.726,262.365,789.726,262.365,789.767,262.365z"/>
	<path fill-rule="evenodd" clip-rule="evenodd" fill="#5AC9E9" d="M555.172,325.256c18.122-20.771,36.533-41.252,54.363-62.271
		c3.188-2.938,6.045-6.123,8.65-9.556c3.391-4.469,2.732-6.58-2.816-8.068c-6.081-1.614-12.243-2.938-18.368-4.303
		c-5.624-1.366-11.172-2.897-16.841-4.138c-3.681-0.828-5.46-2.689-6.247-6.537c-1.697-8.607-3.268-17.211-5.212-25.734
		c-1.366-4.923-0.871-10.387-4.303-14.689c-1.366-2.068-0.414-4.881-2.608-7.158c-1.777,1.903-3.558,3.766-5.295,5.626
		c-1.82,0-3.02,1.159-4.137,2.4c-3.849,4.303-7.821,8.483-11.213,13.198c-1.82,3.229-4.84,5.38-7.2,8.152
		c-10.218,11.709-20.438,23.376-30.7,35.045c-13.199,15.019-26.356,30.038-39.554,45.056
		c-13.074,14.896-25.983,29.956-39.264,44.687c-4.841,5.998-10.221,11.583-15.267,17.459c-0.579-1.532-1.945-2.566-2.98-3.764
		c-10.095-11.503-20.853-22.384-31.071-33.762c-4.346-4.801-8.318-10.22-14.441-13.158c-0.083,0.083-0.166,0.125-0.249,0.208
		c-0.331-0.623-0.62-1.242-1.074-1.739c-21.185-22.879-42.41-45.759-63.594-68.681c-10.178-11.046-20.233-22.179-30.369-33.266
		c-1.656-1.78-3.311-3.518-5.006-5.297c-1.905-1.323-3.56-2.895-4.8-4.881c-1.737-2.814-3.269-3.352-5.958-0.622
		c-15.972,16.178-32.108,32.274-48.284,48.286c-2.028,1.986-2.068,2.938,0,4.881c2.481,2.317,4.426,5.172,6.618,7.82
		c0.415,2.523,1.823,4.509,3.478,6.413c4.592,5.42,9.144,10.923,13.652,16.384c21.805,26.439,43.775,52.712,65.663,79.069
		c1.324,1.531,2.358,3.806,4.883,3.681c-0.043,2.194,1.281,3.849,2.605,5.38c14.604,17.295,28.714,34.961,43.484,52.093
		c-4.84,3.971-8.275,9.309-12.495,13.898c-1.035,1.076-1.944,2.275-1.778,3.932c0.04,0.041,0.04,0.125,0.123,0.166
		c-3.558,0.828-4.883,3.892-6.412,6.744c-6.332,7.24-12.661,14.48-18.993,21.722c-6.247,6.994-12.496,14.024-18.743,21.019
		c-1.654,1.988-4.799,2.732-4.965,5.959c-5.998,6.91-11.999,13.819-18.039,20.729c-4.675,5.297-9.309,10.635-13.984,15.969
		c-3.6,3.931-8.606,6.621-10.552,12c-10.053,11.504-20.065,23.006-30.244,34.385c-2.068,2.314-1.862,3.887,0.247,5.75
		c2.234,1.982,4.346,4.053,5.877,6.662c0.621,2.646,2.274,4.631,4.055,6.658c8.44,9.516,16.673,19.201,25.237,28.632
		c4.469,4.966,7.862,11.132,14.234,14.194c1.447,1.446,2.606,3.682,5.212,1.943c2.069-2.274,4.097-4.594,6.124-6.869
		c13.115-15.059,26.314-30.037,39.389-45.1c7.363-8.481,15.184-16.55,21.928-25.528c4.386-4.881,8.897-9.642,13.2-14.562
		c7.861-9.063,15.639-18.166,23.417-27.226c8.729-9.847,18.164-19.075,25.942-29.751c2.317-2.314,4.675-4.59,7.035-6.908
		c3.31,4.182,6.826,8.154,10.964,11.543c2.069,0.583,3.518-0.537,4.717-1.982c2.772-3.436,6.041-6.332,8.936-9.642
		c5.629,6.206,11.338,12.372,16.964,18.534c0.454,1.697,1.903,2.691,2.98,3.891c13.238,15.1,26.52,30.203,39.8,45.262
		c17.13,19.613,34.26,39.186,51.348,58.794c8.026,9.188,15.97,18.372,23.916,27.601c1.446,1.446,2.606,3.682,5.213,1.943
		c3.103-1.24,5.543-3.309,7.283-6.206c14.604-15.64,28.257-32.106,42.366-48.163c1.492-1.984,3.723-3.475,3.807-6.287
		c0.045-0.291,0.045-0.578,0.045-0.869c-3.063-2.108-4.886-5.377-7.286-8.068c-12.99-14.688-25.693-29.625-38.769-44.227
		c-8.978-10.058-17.335-20.732-26.974-30.207c-7.406-8.607-14.647-17.334-22.219-25.775c-7.117-7.984-13.364-16.756-21.599-23.75
		c-0.123-0.578-0.249-1.16-0.372-1.777c-5.089-9.395-12.992-16.47-19.818-24.453c-0.289-0.332-0.58-0.537-0.912-0.703
		c6.455-6.785,12.413-13.945,18.578-21.02C515.989,369.94,535.643,347.64,555.172,325.256z"/>
	<path fill-rule="evenodd" clip-rule="evenodd" fill="#5AC9E9" d="M789.767,262.365c0,0,0,0,0,0.042c-0.041,0-0.041,0-0.081,0
		C789.726,262.365,789.726,262.365,789.767,262.365z"/>
	<path fill-rule="evenodd" clip-rule="evenodd" fill="#5AC9E9" d="M789.767,262.365c0,0,0,0,0,0.042c-0.041,0-0.041,0-0.081,0
		C789.726,262.365,789.726,262.365,789.767,262.365z"/>
	<g>
		<path fill-rule="evenodd" clip-rule="evenodd" fill="none" stroke="#B3509E" stroke-width="7" stroke-miterlimit="10" d="
			M973.926,440.734c14.314-11.835,25.156-26.521,33.847-42.74c15.515-29.046,21.511-59.954,17.956-92.763
			c-2.195-20.606-8.314-39.886-17.956-58.173c-7.16-13.529-16.384-25.487-26.813-36.577c-4.634-3.681-8.521-8.15-13.154-11.873
			c-31.323-25.116-67.03-36.825-107.039-35.666h-49.648c-12.703,0-25.447,0.041-38.146,0.041c-0.332-0.372-0.789-0.744-1.286-1.075
			c-6.909-1.283-13.858-0.249-20.769-0.58c-2.193-0.083-4.262,0.455-6.29,1.324c-2.978,0.083-5.956,0.208-8.938,0.291
			c-6.327,4.964-11.544,11.046-17.169,16.673c-2.027,1.16-3.806,2.648-5.422,4.263c-14.603,14.77-29.707,29.045-44.104,43.981
			c-4.096,4.22-8.937,7.821-11.874,13.158c-4.347,4.426-8.691,8.853-13.075,13.281c-0.29,6.04-1.16,12.039-1.531,18.039
			c-1.074,16.508-0.125,33.058,1.406,49.567c0,0.289,0.372,0.497,0.577,0.746c1.285,0.041,2.526,0.041,3.767,0.083
			c1.902,2.026,4.388,1.986,6.868,2.026c24.7,0,49.403,0,74.103-0.04c2.316,0,4.676,0.123,6.58-1.532
			c2.068-2.606,1.033-5.708,1.364-8.606c0-9.847-0.371-19.736,0.166-29.583c0.497-9.807,0.538-19.653,0.04-29.5v-0.497
			c4.303,1.654,8.897,0.083,13.281,0.661c7.075,0,14.109,0.042,21.185-0.041c1.491,0,3.104,0.207,4.509-0.497
			c32.231,0,64.463-0.124,96.693,0.125c11.961,0.123,22.842,4.592,32.438,11.791c17.584,11.958,27.27,28.467,28.797,49.692
			c1.576,17.501-3.018,33.183-13.652,47.167c-6.703,8.896-15.557,15.062-25.112,20.356c-11.629,4.76-23.669,6.332-36.247,6.041
			c-18.368-0.412-36.74,0-55.108,0.042c-26.356,0-52.753-0.042-79.109-0.083c-0.582-0.332-1.12-0.703-1.657-1.034
			c-3.846-1.738-6.662-5.752-11.584-5.089c-2.274-1.323-4.549-2.606-6.783-3.972c-1.492-0.952-2.731-1.034-3.811,0.538
			c-3.35,4.923-7.487,9.103-11.419,13.489c-0.868,0.744-1.943,1.156-2.772,2.069c-10.84,12.247-21.47,24.699-31.483,37.609
			c-0.912,1.281-2.444,2.193-2.153,4.097c-3.104,3.641-6.165,7.282-9.269,10.922c-0.206,0.456-0.166,0.909,0.044,1.365
			c0.041,0.081,0.081,0.166,0.122,0.206c-0.122,20.482,1.284,40.838,2.068,61.234c-0.497,0.375-0.95,0.869-1.321,1.531
			c-1.451,4.016-1.159,8.234-0.582,12.247c1.697,11.835,0.537,23.71,1.572,35.585c1.737,19.773-0.412,39.844,4.057,59.496
			c0.08,1.281,0.125,2.566,0.205,3.847c2.979,0.704,5.916,2.109,9.019,2.153c21.808,0.121,43.61,0.207,65.457-0.044
			c4.881-0.041,6.126-1.532,6.577-6.618c0.292-13.365,1.863-26.688,1.406-40.094c-0.039-1.156,0.125-2.316,0.251-3.436
			c1.241-9.059,0.868-18.121,0.287-27.221c-0.206-0.828-0.413-1.575-0.702-2.318c1.158-4.303,0-8.938,1.82-13.117
			c0.412-4.881,0.87-9.765,1.075-14.646c0.166-4.715,1.657-9.766-1.239-14.189c3.103,0.743,5.959,2.234,8.73,3.807
			c54.696,31.236,109.188,62.846,163.804,94.208c12.618,7.241,25.235,14.481,37.854,21.682c5.548,2.481,6.372,2.233,10.721-2.897
			c7.526-9.43,15.35-18.619,23.208-27.762c6.743-7.944,12.949-16.301,19.984-23.996c1.325-1.613,2.565-3.27,3.681-5.008
			c0.331-0.621,0.416-1.324,0.291-2.027c2.319-2.771-1.114-3.062-1.903-4.51c-0.456-1.159-1.034-2.193-2.193-2.771
			c-24.66-15.476-49.815-30.122-74.597-45.387c-1.656-0.704-3.313-1.492-4.84-2.485c-7.16-4.715-14.4-9.265-21.932-13.403
			c-5.916-3.971-12.248-7.24-18.203-11.131c1.321,0.332,2.731,0.372,4.178,0.206c7.16-0.95,14.355-1.737,21.265-4.052
			c8.36-1.08,15.973-4.43,23.711-7.533c1.199-0.496,2.274-1.279,2.731-2.646c0-0.21,0-0.416-0.041-0.583
			c1.446-0.451,2.979-0.743,4.26-1.445C948.979,459.85,962.341,451.615,973.926,440.734z M777.354,254.133c-0.04,0-0.04,0-0.08,0
			c0.04-0.042,0.04-0.042,0.08-0.042C777.354,254.09,777.354,254.09,777.354,254.133z"/>
		<path fill-rule="evenodd" clip-rule="evenodd" fill="none" stroke="#B3509E" stroke-width="7" stroke-miterlimit="10" d="
			M777.354,254.09c0,0,0,0,0,0.042c-0.04,0-0.04,0-0.08,0C777.313,254.09,777.313,254.09,777.354,254.09z"/>
		<path fill-rule="evenodd" clip-rule="evenodd" fill="none" stroke="#B3509E" stroke-width="7" stroke-miterlimit="10" d="
			M542.759,316.981c18.122-20.771,36.532-41.252,54.365-62.271c3.187-2.938,6.041-6.123,8.649-9.556
			c3.39-4.469,2.731-6.58-2.814-8.069c-6.083-1.614-12.247-2.938-18.37-4.303c-5.626-1.366-11.172-2.897-16.841-4.138
			c-3.681-0.828-5.461-2.689-6.247-6.537c-1.697-8.607-3.269-17.211-5.212-25.734c-1.366-4.923-0.871-10.387-4.303-14.689
			c-1.366-2.069-0.414-4.881-2.607-7.158c-1.778,1.903-3.558,3.766-5.296,5.626c-1.819,0-3.02,1.159-4.137,2.4
			c-3.849,4.303-7.821,8.483-11.212,13.198c-1.82,3.229-4.841,5.38-7.2,8.152c-10.219,11.709-20.439,23.376-30.7,35.045
			c-13.198,15.019-26.357,30.038-39.555,45.056c-13.073,14.896-25.983,29.956-39.263,44.687
			c-4.841,5.998-10.221,11.583-15.267,17.459c-0.58-1.532-1.946-2.566-2.98-3.764c-10.095-11.503-20.854-22.384-31.072-33.762
			c-4.346-4.801-8.317-10.22-14.441-13.158c-0.083,0.083-0.166,0.125-0.248,0.208c-0.332-0.622-0.62-1.242-1.075-1.739
			c-21.185-22.879-42.409-45.759-63.594-68.681c-10.178-11.047-20.233-22.179-30.368-33.266c-1.657-1.78-3.312-3.518-5.006-5.297
			c-1.905-1.323-3.56-2.895-4.8-4.881c-1.737-2.814-3.269-3.352-5.958-0.622c-15.973,16.178-32.108,32.274-48.284,48.286
			c-2.028,1.986-2.069,2.937,0,4.881c2.48,2.317,4.426,5.172,6.618,7.82c0.415,2.523,1.822,4.509,3.477,6.413
			c4.592,5.42,9.144,10.923,13.653,16.384c21.805,26.439,43.775,52.712,65.663,79.069c1.323,1.531,2.357,3.806,4.883,3.681
			c-0.042,2.194,1.28,3.849,2.606,5.38c14.604,17.295,28.713,34.961,43.484,52.092c-4.841,3.973-8.275,9.311-12.496,13.9
			c-1.034,1.074-1.943,2.274-1.777,3.93c0.04,0.041,0.04,0.126,0.123,0.166c-3.558,0.829-4.883,3.892-6.413,6.744
			c-6.332,7.24-12.661,14.48-18.993,21.723c-6.247,6.994-12.495,14.023-18.741,21.018c-1.655,1.988-4.801,2.732-4.966,5.961
			c-5.998,6.908-11.998,13.818-18.039,20.727c-4.675,5.297-9.309,10.635-13.984,15.969c-3.6,3.932-8.606,6.622-10.552,12
			c-10.052,11.504-20.065,23.008-30.243,34.385c-2.069,2.316-1.863,3.887,0.247,5.75c2.234,1.984,4.345,4.053,5.877,6.662
			c0.62,2.648,2.274,4.631,4.054,6.66c8.441,9.516,16.673,19.2,25.237,28.631c4.469,4.965,7.863,11.131,14.235,14.194
			c1.446,1.446,2.606,3.681,5.212,1.942c2.069-2.273,4.097-4.594,6.123-6.869c13.116-15.059,26.314-30.037,39.39-45.1
			c7.364-8.48,15.184-16.55,21.927-25.527c4.386-4.881,8.897-9.641,13.201-14.562c7.861-9.062,15.639-18.166,23.417-27.225
			c8.73-9.848,18.164-19.076,25.943-29.75c2.316-2.316,4.674-4.59,7.034-6.91c3.31,4.183,6.827,8.154,10.964,11.545
			c2.069,0.581,3.517-0.538,4.717-1.984c2.772-3.436,6.041-6.332,8.936-9.641c5.628,6.205,11.337,12.371,16.964,18.533
			c0.455,1.697,1.903,2.691,2.98,3.891c13.239,15.1,26.52,30.203,39.801,45.262c17.129,19.613,34.26,39.186,51.347,58.795
			c8.026,9.188,15.97,18.371,23.916,27.601c1.447,1.446,2.606,3.681,5.212,1.942c3.104-1.24,5.544-3.309,7.283-6.205
			c14.604-15.642,28.257-32.106,42.366-48.164c1.489-1.983,3.724-3.475,3.807-6.287c0.042-0.29,0.042-0.577,0.042-0.867
			c-3.062-2.109-4.883-5.379-7.283-8.07c-12.99-14.688-25.694-29.625-38.769-44.227c-8.978-10.058-17.336-20.732-26.975-30.207
			c-7.406-8.606-14.646-17.334-22.219-25.774c-7.117-7.985-13.363-16.757-21.598-23.751c-0.124-0.578-0.249-1.159-0.372-1.777
			c-5.089-9.394-12.992-16.469-19.819-24.453c-0.289-0.332-0.58-0.537-0.911-0.703c6.455-6.783,12.412-13.944,18.579-21.019
			C503.576,361.666,523.229,339.365,542.759,316.981z"/>
		<path fill-rule="evenodd" clip-rule="evenodd" fill="none" stroke="#B3509E" stroke-width="7" stroke-miterlimit="10" d="
			M777.354,254.09c0,0,0,0,0,0.042c-0.04,0-0.04,0-0.08,0C777.313,254.09,777.313,254.09,777.354,254.09z"/>
		<path fill-rule="evenodd" clip-rule="evenodd" fill="none" stroke="#B3509E" stroke-width="7" stroke-miterlimit="10" d="
			M777.354,254.09c0,0,0,0,0,0.042c-0.04,0-0.04,0-0.08,0C777.313,254.09,777.313,254.09,777.354,254.09z"/>
	</g>
</g>
<g id="Layer_2">
</g>
</svg>
