<?xml version="1.0" encoding="utf-8"?>
<!-- Generator: Adobe Illustrator 16.0.0, SVG Export Plug-In . SVG Version: 6.00 Build 0)  -->
<!DOCTYPE svg PUBLIC "-//W3C//DTD SVG 1.1//EN" "http://www.w3.org/Graphics/SVG/1.1/DTD/svg11.dtd">
<svg version="1.1" id="Layer_1" xmlns="http://www.w3.org/2000/svg" xmlns:xlink="http://www.w3.org/1999/xlink" x="0px" y="0px"
	 width="256px" height="256px" viewBox="0 -112 256 256" enable-background="new 0 -112 256 256" xml:space="preserve">
<g>
	<g>
		<path fill="#3C3F42" d="M110.227,25.062l-0.262,0.695c-0.457,1.211-1.082,2.25-1.859,3.078c-0.793,0.844-1.695,1.539-2.684,2.07
			c-0.996,0.539-2.047,0.922-3.121,1.156c-3.141,0.672-6.102,0.375-8.477-0.844c-1.562-0.789-2.902-1.867-3.977-3.203
			c-1.082-1.336-1.918-2.906-2.488-4.672s-0.863-3.633-0.863-5.566c0-1.719,0.254-3.477,0.746-5.227
			c0.492-1.73,1.25-3.301,2.258-4.672c0.996-1.352,2.293-2.465,3.852-3.309c2.293-1.242,5.367-1.594,8.844-0.949
			c1.098,0.203,2.176,0.566,3.203,1.078c1.016,0.512,1.953,1.207,2.793,2.07c0.832,0.855,1.508,1.957,2.016,3.281l0.289,0.75
			l13.199-9.387l-0.258-0.484c-2.051-3.879-5.203-7.035-9.379-9.383c-4.16-2.344-9.141-3.531-14.793-3.531
			c-4.723,0-8.988,0.867-12.684,2.574c-3.68,1.703-6.859,3.961-9.445,6.715c-2.586,2.75-4.582,5.906-5.93,9.371
			s-2.031,7.035-2.031,10.617c0,3.738,0.723,7.48,2.152,11.105c1.43,3.633,3.477,6.914,6.086,9.773s5.762,5.188,9.363,6.922
			c3.613,1.734,7.648,2.609,12,2.609c2.469,0,5.043-0.297,7.648-0.906c2.605-0.602,5.082-1.492,7.367-2.648
			c2.289-1.164,4.359-2.617,6.156-4.32c1.812-1.734,3.188-3.719,4.082-5.906l0.203-0.492L110.227,25.062z"/>
	</g>
</g>
<g>
	<g>
		<path fill="#3C3F42" d="M185.688,14.996V3.195h-10.133l3.734-14.855h-13.547l-3.648,14.855h-3.586l3.734-14.855h-13.547
			l-3.648,14.855h-12.07v11.801h9.18l-1.344,5.816h-11.977v12.609h8.914l-3.406,13.797h13.547l3.328-13.797h3.578l-3.406,13.797
			h13.547l3.328-13.797h13.281V20.812h-10.234l1.344-5.816H185.688z M157.859,20.812h-3.586l1.336-5.816h3.586L157.859,20.812z"/>
	</g>
</g>
<g>
	<g>
		<path fill="#3C3F42" d="M128-112C57.422-112,0-54.578,0,16s57.422,128,128,128S256,86.578,256,16S198.578-112,128-112z
			 M128,125.266C67.75,125.266,18.73,76.25,18.73,16S67.75-93.27,128-93.27S237.266-44.25,237.266,16S188.25,125.266,128,125.266z"
			/>
	</g>
</g>
</svg>
