<?xml version="1.0" encoding="utf-8"?>
<!-- Generator: Adobe Illustrator 16.0.0, SVG Export Plug-In . SVG Version: 6.00 Build 0)  -->
<!DOCTYPE svg PUBLIC "-//W3C//DTD SVG 1.1//EN" "http://www.w3.org/Graphics/SVG/1.1/DTD/svg11.dtd">
<svg version="1.1" id="Layer_1" xmlns="http://www.w3.org/2000/svg" xmlns:xlink="http://www.w3.org/1999/xlink" x="0px" y="0px"
	 width="256px" height="256px" viewBox="0 -112 256 256" enable-background="new 0 -112 256 256" xml:space="preserve">
<g id="XMLID_7_">
	<path id="XMLID_8_" fill="#3C3F42" d="M125.655-65.475c-11.884,8.36-25.353,17.834-32.57,33.509
		c-12.536,27.343,25.651,57.171,27.284,58.427c0.381,0.299,0.831,0.439,1.287,0.439c0.479,0,0.961-0.165,1.35-0.487
		c0.762-0.644,0.973-1.711,0.519-2.589c-0.138-0.268-13.843-26.893-13.336-45.994c0.181-6.652,9.493-14.199,19.348-22.189
		c9.028-7.32,19.263-15.612,25.243-25.314c13.148-21.362-1.459-42.363-1.607-42.57c-0.582-0.816-1.656-1.111-2.567-0.707
		c-0.91,0.4-1.422,1.389-1.209,2.371c0.023,0.137,2.865,14.027-5.039,28.332C141.099-76.334,133.947-71.303,125.655-65.475z"/>
	<path id="XMLID_9_" fill="#3C3F42" d="M175.722-56.055c0.849-0.632,1.091-1.786,0.581-2.704c-0.502-0.918-1.617-1.323-2.591-0.95
		c-2.024,0.765-49.442,19.046-49.442,41.13c0,15.224,6.504,23.27,11.248,29.141c1.869,2.303,3.47,4.293,4.003,5.993
		c1.492,4.897-2.04,13.735-3.531,16.734c-0.424,0.864-0.213,1.908,0.518,2.536c0.392,0.337,0.88,0.51,1.374,0.51
		c0.416,0,0.839-0.125,1.2-0.377c0.816-0.564,19.931-14.081,16.5-30.361c-1.272-6.186-4.318-10.707-7.001-14.698
		c-4.153-6.182-7.16-10.644-2.599-18.894C151.318-37.609,175.486-55.871,175.722-56.055z"/>
	<path id="XMLID_10_" fill="#3C3F42" d="M52.292,36.688c-0.816,2.433-0.432,4.843,1.107,6.985
		c5.141,7.135,23.351,11.061,51.274,11.061c0,0,0,0,0.005,0c3.783,0,7.777-0.071,11.867-0.221
		c44.646-1.594,61.209-15.501,61.892-16.091c0.738-0.644,0.942-1.719,0.479-2.59c-0.463-0.863-1.46-1.303-2.41-1.036
		c-15.73,4.285-45.086,5.809-65.455,5.809c-22.791,0-34.396-1.633-37.237-2.85c1.46-2.002,10.451-5.581,21.594-7.764
		c1.066-0.219,1.797-1.192,1.69-2.276c-0.104-1.082-1.012-1.907-2.095-1.907C88.469,25.817,55.714,26.335,52.292,36.688z"/>
	<path id="XMLID_11_" fill="#3C3F42" d="M201.688,22.362c-9.215,0-17.942,4.616-18.305,4.812c-0.855,0.454-1.287,1.438-1.051,2.37
		c0.235,0.935,1.074,1.594,2.04,1.594c0.195,0,19.639,0.156,21.405,11.271c1.562,9.592-18.407,25.118-26.225,30.298
		c-0.849,0.559-1.177,1.634-0.785,2.575c0.338,0.793,1.114,1.288,1.946,1.288c0.142,0,0.299-0.017,0.44-0.048
		c1.853-0.392,45.416-9.992,40.815-35.353C219.16,25.629,209.388,22.362,201.688,22.362z"/>
	<path id="XMLID_12_" fill="#3C3F42" d="M171.813,69.601c0.156-0.816-0.189-1.632-0.864-2.111l-10.439-7.315
		c-0.51-0.354-1.153-0.464-1.758-0.307c-0.103,0.024-11.021,2.896-26.885,4.655c-6.29,0.706-13.344,1.075-20.384,1.075
		c-15.855,0-26.221-1.861-27.731-3.227c-0.196-0.384-0.135-0.557-0.1-0.651c0.272-0.77,1.743-1.673,2.693-2.024
		c1.044-0.394,1.609-1.531,1.283-2.599c-0.325-1.068-1.424-1.696-2.511-1.437c-10.477,2.527-15.601,6.067-15.228,10.511
		c0.662,7.88,18.912,11.922,34.344,12.99c2.218,0.157,4.619,0.235,7.131,0.235c0,0,0,0,0.004,0c25.656,0,58.545-8.053,58.875-8.132
		C171.051,71.061,171.664,70.416,171.813,69.601z"/>
	<path id="XMLID_13_" fill="#3C3F42" d="M93.073,86.516c0.792-0.518,1.142-1.5,0.858-2.394c-0.277-0.902-1.122-1.492-2.067-1.477
		c-1.401,0.032-13.736,0.589-14.601,8.446c-0.263,2.339,0.408,4.489,1.998,6.374c4.427,5.242,16.382,8.367,36.542,9.528
		c2.383,0.142,4.805,0.221,7.199,0.221c25.623,0,42.893-8.022,43.614-8.368c0.699-0.33,1.16-1.02,1.201-1.789
		c0.039-0.777-0.347-1.508-1.005-1.916l-13.195-8.052c-0.464-0.284-1.012-0.378-1.538-0.268c-0.079,0.015-8.461,1.758-21.106,3.469
		c-2.395,0.329-5.394,0.486-8.909,0.486c-12.634,0-26.688-2.056-29.38-3.406C92.646,87.111,92.695,86.79,93.073,86.516z"/>
	<path id="XMLID_14_" fill="#3C3F42" d="M111.06,131.438c58.696-0.048,90.204-10.487,96.279-17.058
		c2.151-2.322,2.379-4.528,2.197-5.956c-0.454-3.54-3.673-5.707-4.034-5.942c-0.887-0.565-2.071-0.417-2.754,0.376
		s-0.699,1.955-0.017,2.74c0.369,0.479,0.589,1.271-0.494,2.355c-2.434,2.275-26.899,9.151-67.646,11.215
		c-5.586,0.291-11.437,0.433-17.402,0.44c-36.483,0-63.183-5-66.687-7.912c1.353-1.938,10.796-5.039,20.84-6.789
		c1.129-0.204,1.896-1.271,1.723-2.403c-0.178-1.137-1.225-1.914-2.366-1.773c-0.284,0.047-1.244,0.103-2.359,0.173
		c-16.57,1.005-35.723,3.267-36.723,11.806c-0.303,2.598,0.471,4.96,2.299,7.018C38.395,124.75,51.255,131.438,111.06,131.438
		L111.06,131.438z"/>
	<path id="XMLID_15_" fill="#3C3F42" d="M218.87,116.233c-0.832-0.385-1.813-0.197-2.426,0.479
		c-0.094,0.094-8.918,9.325-35.456,14.741c-10.156,2.032-29.223,3.061-56.676,3.061c-27.503,0-53.669-1.075-53.933-1.082
		c-1.091-0.063-2.028,0.737-2.177,1.812c-0.149,1.075,0.545,2.088,1.601,2.339c0.274,0.071,27.696,6.491,65.196,6.491
		c17.983,0,35.487-1.459,52.018-4.349c30.823-5.4,32.982-20.682,33.061-21.334C220.181,117.488,219.693,116.618,218.87,116.233z"/>
</g>
</svg>
