<?xml version="1.0" encoding="utf-8"?>
<!-- Generator: Adobe Illustrator 16.0.0, SVG Export Plug-In . SVG Version: 6.00 Build 0)  -->
<!DOCTYPE svg PUBLIC "-//W3C//DTD SVG 1.1//EN" "http://www.w3.org/Graphics/SVG/1.1/DTD/svg11.dtd">
<svg version="1.1" id="Layer_1" xmlns="http://www.w3.org/2000/svg" xmlns:xlink="http://www.w3.org/1999/xlink" x="0px" y="0px"
	 width="256px" height="256px" viewBox="0 0 256 256" enable-background="new 0 0 256 256" xml:space="preserve">
<g>
	<path fill-rule="evenodd" clip-rule="evenodd" fill="#3C3F42" d="M235.986,136.215c-21.666,8.998-43.654,8.927-65.308,0.926
		c-34.272-12.667-58.256-35.84-68.798-71.499c-4.876-16.496-4.126-32.961,1.365-49.509c-3.713,5.115-7.423,10.231-11.139,15.344
		c-12.492,17.188-16.03,36.37-11.706,56.872c7.432,35.239,29.276,59.094,61.312,73.646c24.65,11.196,50.02,12.531,75.436,1.312
		c16.035-7.077,25.384-20.587,34.435-34.503c0.072-0.107-0.355-0.538-0.688-1.021C245.907,130.545,241.311,134.005,235.986,136.215z
		"/>
	<path fill-rule="evenodd" clip-rule="evenodd" fill="#3C3F42" d="M146.168,48.706c6.993,30.269,38.787,53.354,69.719,50.644
		c17.547-1.537,32.876-11.999,39.275-26.964c-24.283,13.748-47.261,11.341-69.427-4.699c-22.031-15.943-31.422-37.033-26.043-65.762
		c-6.941,9.136-13.106,16.49-14.067,26.598c-0.942,5.405-0.923,10.811-0.012,16.218C145.792,46.064,145.869,47.411,146.168,48.706z"
		/>
	<path fill-rule="evenodd" clip-rule="evenodd" fill="#3C3F42" d="M153.181,217.825c-49.975-9.243-87.062-36.54-111.499-81.045
		c-8.245-15.015-12.312-31.36-14.916-48.14c0.01-6.555,0.021-13.11,0.032-19.664c2.089-10.34,4.066-20.704,7.778-30.651
		C16.877,58.597,2.7,80.427,1.368,108.27c-0.411-0.012-0.82-0.022-1.23-0.033c0,4.62,0,9.24,0,13.86
		c0.407-0.011,0.814-0.02,1.221-0.03c1.862,23.686,9.272,45.529,22.889,64.956c27.88,39.775,65.755,63.091,114.425,68.103
		c6.973,0,13.945,0,20.919,0.001c19.465-1.721,37.459-7.576,53.722-18.636c16.372-11.134,26.465-27.466,37.137-43.352
		c-2.91,1.727-5.369,3.889-8.025,5.77C215.4,218.025,185.407,223.785,153.181,217.825z"/>
</g>
</svg>
