<?xml version="1.0" encoding="utf-8"?>
<!-- Generator: Adobe Illustrator 16.0.0, SVG Export Plug-In . SVG Version: 6.00 Build 0)  -->
<!DOCTYPE svg PUBLIC "-//W3C//DTD SVG 1.1//EN" "http://www.w3.org/Graphics/SVG/1.1/DTD/svg11.dtd">
<svg version="1.1" id="Layer_1" xmlns="http://www.w3.org/2000/svg" xmlns:xlink="http://www.w3.org/1999/xlink" x="0px" y="0px"
	 width="256px" height="256px" viewBox="0 -112 256 256" enable-background="new 0 -112 256 256" xml:space="preserve">
<path fill="#3C3F42" d="M0-112v256h256v-256H0z M139.414,87.672c0,24.906-14.605,36.242-35.922,36.242
	c-19.262,0-30.414-9.969-36.086-21.977l19.582-11.852c3.777,6.703,7.215,12.375,15.48,12.375c7.902,0,12.891-3.094,12.891-15.117
	V5.543h24.055V87.672z M196.25,123.961c-22.336,0-36.766-10.648-43.828-24.602L171.969,88c5.156,8.422,11.859,14.609,23.734,14.609
	c9.961,0,16.328-4.984,16.328-11.867c0-8.242-6.539-11.164-17.516-15.969l-6.016-2.578c-17.359-7.398-28.891-16.664-28.891-36.242
	c0-18.047,13.75-31.781,35.234-31.781c15.297,0,26.297,5.324,34.219,19.266l-18.734,12.023c-4.125-7.398-8.578-10.305-15.484-10.305
	c-7.047,0-11.516,4.469-11.516,10.305c0,7.211,4.469,10.133,14.797,14.609l6.016,2.57c20.438,8.766,31.977,17.703,31.977,37.797
	C236.117,112.094,219.102,123.961,196.25,123.961z"/>
</svg>
