<?xml version="1.0" encoding="utf-8"?>
<!-- Generator: Adobe Illustrator 16.0.0, SVG Export Plug-In . SVG Version: 6.00 Build 0)  -->
<!DOCTYPE svg PUBLIC "-//W3C//DTD SVG 1.1//EN" "http://www.w3.org/Graphics/SVG/1.1/DTD/svg11.dtd">
<svg version="1.1" id="Capa_1" xmlns="http://www.w3.org/2000/svg" xmlns:xlink="http://www.w3.org/1999/xlink" x="0px" y="0px"
	 width="256px" height="256px" viewBox="0 114.606 256 256" enable-background="new 0 114.606 256 256" xml:space="preserve">
<g>
	<g>
		<path fill="#3C3F42" d="M250.042,330.017l-58.983-58.989c-8.789,13.669-20.42,25.294-34.088,34.083l58.988,58.988
			c9.417,9.415,24.686,9.415,34.083,0C259.459,354.699,259.459,339.431,250.042,330.017z"/>
		<path fill="#3C3F42" d="M192.829,210.469c0-53.244-43.169-96.415-96.414-96.415c-53.244,0-96.415,43.171-96.415,96.415
			c0,53.243,43.171,96.412,96.415,96.412C149.66,306.881,192.829,263.712,192.829,210.469z M96.416,282.776
			c-39.875,0-72.31-32.433-72.31-72.307s32.436-72.31,72.31-72.31c39.874,0,72.312,32.436,72.312,72.31
			S136.289,282.776,96.416,282.776z"/>
		<path fill="#3C3F42" d="M40.174,210.469h16.067c0-22.151,18.023-40.172,40.173-40.172v-16.069
			C65.408,154.228,40.174,179.461,40.174,210.469z"/>
	</g>
</g>
</svg>
