<?xml version="1.0" encoding="utf-8"?>
<!-- Generator: Adobe Illustrator 16.0.0, SVG Export Plug-In . SVG Version: 6.00 Build 0)  -->
<!DOCTYPE svg PUBLIC "-//W3C//DTD SVG 1.1//EN" "http://www.w3.org/Graphics/SVG/1.1/DTD/svg11.dtd">
<svg version="1.1" id="Layer_1" xmlns="http://www.w3.org/2000/svg" xmlns:xlink="http://www.w3.org/1999/xlink" x="0px" y="0px"
	 width="256px" height="256px" viewBox="0 16.5 256 256" enable-background="new 0 16.5 256 256" xml:space="preserve">
<g>
	<path fill="#3C3F42" d="M128,272.5c-3.529,0-6.824-0.94-9.882-2.588l-31.294-18.588c-4.706-2.59-2.353-3.53-0.941-4.001
		c6.353-2.117,7.53-2.589,14.118-6.354c0.706-0.471,1.647-0.235,2.353,0.235l24,14.354c0.941,0.471,2.117,0.471,2.824,0
		l93.883-54.354c0.941-0.471,1.412-1.411,1.412-2.588V90.146c0-1.176-0.471-2.118-1.412-2.588L129.177,33.44
		c-0.941-0.471-2.118-0.471-2.824,0L32.47,87.558c-0.941,0.471-1.412,1.647-1.412,2.588v108.471c0,0.941,0.47,2.117,1.412,2.588
		l25.647,14.823c13.882,7.06,22.588-1.176,22.588-9.411V99.558c0-1.411,1.177-2.823,2.824-2.823h12c1.412,0,2.824,1.177,2.824,2.823
		v107.06c0,18.589-10.118,29.412-27.765,29.412c-5.412,0-9.647,0-21.647-5.883l-24.706-14.118
		c-6.118-3.527-9.883-10.117-9.883-17.176V90.381c0-7.059,3.765-13.647,9.883-17.177l93.883-54.353
		c5.882-3.294,13.883-3.294,19.765,0l93.882,54.353c6.118,3.53,9.883,10.118,9.883,17.177v108.471
		c0,7.059-3.765,13.648-9.883,17.176l-93.882,54.354C134.823,271.794,131.294,272.5,128,272.5L128,272.5z M156.941,197.911
		c-41.177,0-49.647-18.823-49.647-34.823c0-1.412,1.176-2.823,2.824-2.823h12.235c1.412,0,2.588,0.94,2.588,2.353
		c1.882,12.471,7.294,18.588,32.236,18.588c19.765,0,28.235-4.471,28.235-15.059c0-6.117-2.354-10.588-33.177-13.647
		c-25.647-2.588-41.647-8.235-41.647-28.706c0-19.059,16-30.354,42.824-30.354c30.118,0,44.941,10.353,46.823,32.942
		c0,0.706-0.234,1.412-0.706,2.117c-0.47,0.471-1.176,0.941-1.881,0.941h-12.236c-1.176,0-2.354-0.941-2.588-2.118
		c-2.824-12.941-10.118-17.176-29.412-17.176c-21.647,0-24.235,7.53-24.235,13.177c0,6.823,3.059,8.941,32.234,12.706
		c28.941,3.764,42.589,9.177,42.589,29.413C203.766,186.147,186.823,197.911,156.941,197.911L156.941,197.911z"/>
</g>
</svg>
