<?xml version="1.0" encoding="utf-8"?>
<!-- Generator: Adobe Illustrator 16.0.0, SVG Export Plug-In . SVG Version: 6.00 Build 0)  -->
<!DOCTYPE svg PUBLIC "-//W3C//DTD SVG 1.1//EN" "http://www.w3.org/Graphics/SVG/1.1/DTD/svg11.dtd">
<svg version="1.1" id="Capa_1" xmlns="http://www.w3.org/2000/svg" xmlns:xlink="http://www.w3.org/1999/xlink" x="0px" y="0px"
	 width="256px" height="256px" viewBox="0 0 256 256" enable-background="new 0 0 256 256" xml:space="preserve">
<g>
	<path fill="#3C3F42" d="M66.133,72.533H121.6c2.359,0,4.267-1.907,4.267-4.267S123.959,64,121.6,64H66.133
		c-2.359,0-4.267,1.907-4.267,4.267S63.774,72.533,66.133,72.533z"/>
	<path fill="#3C3F42" d="M66.133,204.8H121.6c2.359,0,4.267-1.907,4.267-4.267s-1.907-4.267-4.267-4.267H66.133
		c-2.359,0-4.267,1.907-4.267,4.267S63.774,204.8,66.133,204.8z"/>
	<path fill="#3C3F42" d="M66.133,98.133h123.734c2.359,0,4.266-1.907,4.266-4.267s-1.906-4.267-4.266-4.267H66.133
		c-2.359,0-4.267,1.907-4.267,4.267S63.774,98.133,66.133,98.133z"/>
	<path fill="#3C3F42" d="M66.133,149.334h123.734c2.359,0,4.266-1.908,4.266-4.268s-1.906-4.267-4.266-4.267H66.133
		c-2.359,0-4.267,1.907-4.267,4.267S63.774,149.334,66.133,149.334z"/>
	<path fill="#3C3F42" d="M66.133,179.2h123.734c2.359,0,4.266-1.907,4.266-4.267s-1.906-4.268-4.266-4.268H66.133
		c-2.359,0-4.267,1.908-4.267,4.268S63.774,179.2,66.133,179.2z"/>
	<path fill="#3C3F42" d="M66.133,123.733h59.733c2.359,0,4.266-1.907,4.266-4.267s-1.907-4.267-4.266-4.267H66.133
		c-2.359,0-4.267,1.907-4.267,4.267S63.774,123.733,66.133,123.733z"/>
	<path fill="#3C3F42" d="M189.867,115.2H160c-2.359,0-4.267,1.907-4.267,4.267s1.907,4.267,4.267,4.267h29.867
		c2.359,0,4.266-1.907,4.266-4.267S192.227,115.2,189.867,115.2z"/>
	<path fill="#3C3F42" d="M139.904,116.438c-0.811,0.806-1.238,1.873-1.238,3.029c0,1.109,0.466,2.219,1.238,3.029
		c0.807,0.806,1.873,1.237,3.029,1.237c1.152,0,2.219-0.469,3.029-1.237c0.768-0.811,1.237-1.877,1.237-3.029
		c0-1.156-0.431-2.223-1.237-3.029C144.342,114.859,141.525,114.816,139.904,116.438z"/>
	<path fill="#3C3F42" d="M177.066,8.533h-25.6V4.267C151.467,1.907,149.56,0,147.2,0h-38.4c-2.359,0-4.267,1.907-4.267,4.267v4.267
		h-25.6H23.467V256h209.066V8.533H177.066z M142.934,8.533V12.8v8.534h-29.867V12.8V8.533H142.934z M104.533,17.067V25.6v4.267
		h4.267h38.4h4.267V25.6v-8.533H172.8v4.267v12.8H83.2v-12.8v-4.267H104.533z M74.667,38.4v4.267h4.267h98.133h4.268V38.4v-8.533
		H211.2v204.799H44.8V29.867h29.867V38.4z M224,247.467H32v-230.4h42.667v4.267h-38.4V243.2h183.467V21.333h-38.399v-4.267H224
		V247.467z"/>
</g>
</svg>
