<?xml version="1.0" encoding="utf-8"?>
<!-- Generator: Adobe Illustrator 16.0.0, SVG Export Plug-In . SVG Version: 6.00 Build 0)  -->
<!DOCTYPE svg PUBLIC "-//W3C//DTD SVG 1.1//EN" "http://www.w3.org/Graphics/SVG/1.1/DTD/svg11.dtd">
<svg version="1.1" id="Capa_1" xmlns="http://www.w3.org/2000/svg" xmlns:xlink="http://www.w3.org/1999/xlink" x="0px" y="0px"
	 width="1224px" height="792px" viewBox="0 0 1224 792" enable-background="new 0 0 1224 792" xml:space="preserve">
<g>
	<polygon fill="#3C3F42" points="549.976,123.376 674.024,148.187 674.024,166.987 702.649,166.987 702.649,124.72 521.35,88.46 
		521.35,166.987 549.976,166.987 	"/>
	<path fill="#3C3F42" d="M914.576,702.304l-45.518-333.795l-166.409-30.256v-45.072c18.403-20.673,29.034-46.581,30.387-74.313
		l30.685-30.684v-112.8C763.721,33.817,729.903,0,688.338,0H535.662c-41.565,0-75.382,33.817-75.382,75.383v112.814l30.986,30.897
		c2.31,27.64,13.3,52.765,30.083,72.422v46.734l-166.408,30.257l-45.519,333.797H124.395V792h975.211v-89.696H914.576z
		 M414.477,702.304h-65.379l65.379-37.359V702.304z M549.976,316.193c17.182,10.695,37.085,17.09,58.307,17.727
		c1.258,0.039,2.51,0.058,3.761,0.058c22.165,0,43.404-5.918,61.982-17.036v25.153l-62.023,37.214l-62.024-37.214v-25.901H549.976z
		 M612,419.855l28.625,38.168h-57.251L612,419.855z M675.639,458.023l69.175-83.009l48.145,8.754l-37.128,74.255H675.639z
		 M468.171,458.023l-37.129-74.256l48.145-8.754l69.176,83.01H468.171z M443.104,486.65h337.793v215.653H443.104V486.65z
		 M809.522,664.944l65.38,37.359h-65.38V664.944z M881.72,673.229l-72.197-41.258V458.023h-21.688l34.461-68.922l21.207,3.856
		L881.72,673.229z M712.453,369.131l-54.061,64.872l-25.42-33.895l58.108-34.865L712.453,369.131z M519.298,206.618l-30.392-30.304
		V75.383c0-25.781,20.976-46.756,46.756-46.756h152.676c25.781,0,46.756,20.975,46.756,46.756v100.945l-30.535,30.536v5.927
		c0,25.249-9.98,48.841-28.105,66.431c-18.118,17.58-42.04,26.831-67.313,26.086c-48.257-1.449-87.624-42.335-89.623-93.078
		L519.298,206.618z M532.92,365.243l58.106,34.865l-25.42,33.895l-54.061-64.872L532.92,365.243z M380.499,392.958l21.206-3.856
		l34.462,68.922h-21.69v173.948l-72.196,41.254L380.499,392.958z M1070.979,763.375H153.021v-32.444h152.5h108.956h14.313h366.421
		h14.312H918.48h152.498V763.375z"/>
	<rect x="550.931" y="580.164" fill="#3C3F42" width="122.139" height="28.626"/>
</g>
</svg>
