<?xml version="1.0" encoding="utf-8"?>
<!-- Generator: Adobe Illustrator 16.0.0, SVG Export Plug-In . SVG Version: 6.00 Build 0)  -->
<!DOCTYPE svg PUBLIC "-//W3C//DTD SVG 1.1//EN" "http://www.w3.org/Graphics/SVG/1.1/DTD/svg11.dtd">
<svg version="1.1" id="Capa_1" xmlns="http://www.w3.org/2000/svg" xmlns:xlink="http://www.w3.org/1999/xlink" x="0px" y="0px"
	 width="256px" height="256px" viewBox="0 -104.5 256 256" enable-background="new 0 -104.5 256 256" xml:space="preserve">
<g>
	<g id="Layer_1_65_">
		<g>
			<path fill="#3C3F42" d="M255.717,5.072c-0.884-1.893-2.784-3.104-4.882-3.104H234.88
				c-10.147-55.054-58.493-96.907-116.438-96.907C53.137-94.939,0-41.802,0,23.503C0,88.808,53.132,141.94,118.442,141.94
				c42.149,0,81.45-22.685,102.575-59.186c2.981-5.153,1.224-11.733-3.935-14.715c-5.148-2.981-11.729-1.229-14.699,3.924
				c-17.292,29.883-49.459,48.447-83.941,48.447c-53.433,0-96.907-43.47-96.907-96.897c0-53.435,43.474-96.907,96.907-96.907
				c46.025,0,84.58,32.279,94.408,75.367h-15.833c-2.098,0-3.993,1.211-4.888,3.104c-0.884,1.89-0.596,4.121,0.745,5.729
				l26.918,32.302c1.021,1.23,2.534,1.933,4.142,1.933c1.598,0,3.109-0.713,4.131-1.933l26.918-32.302
				C256.325,9.193,256.607,6.962,255.717,5.072z"/>
			<path fill="#3C3F42" d="M118.442-68.019c-5.949,0-10.768,4.821-10.768,10.768V8.08c-4.868,3.413-8.073,9.04-8.073,15.428
				c0,10.395,8.454,18.85,18.847,18.85c2.846,0,5.528-0.682,7.948-1.821l37.453,21.615c1.704,0.984,3.546,1.448,5.377,1.448
				c3.716,0,7.337-1.928,9.327-5.388c2.971-5.144,1.214-11.734-3.944-14.705l-37.49-21.644c-0.501-5.691-3.461-10.664-7.898-13.772
				v-65.342C129.209-63.193,124.383-68.019,118.442-68.019z M118.442,31.577c-4.453,0-8.073-3.625-8.073-8.068
				c0-4.448,3.626-8.073,8.073-8.073c4.448,0,8.074,3.625,8.074,8.073C126.516,27.952,122.89,31.577,118.442,31.577z"/>
		</g>
	</g>
</g>
</svg>
