<?xml version="1.0" encoding="utf-8"?>
<!-- Generator: Adobe Illustrator 16.0.0, SVG Export Plug-In . SVG Version: 6.00 Build 0)  -->
<!DOCTYPE svg PUBLIC "-//W3C//DTD SVG 1.1//EN" "http://www.w3.org/Graphics/SVG/1.1/DTD/svg11.dtd">
<svg version="1.1" id="Layer_2" xmlns="http://www.w3.org/2000/svg" xmlns:xlink="http://www.w3.org/1999/xlink" x="0px" y="0px"
	 width="528px" height="528px" viewBox="0 0 528 528" enable-background="new 0 0 528 528" xml:space="preserve">
<path fill="#828282" d="M427.88,0.024v52.2l-47.311,5.18l-46.02,5.03l-47.31,5.18l-43.15,4.72l-47.32,5.17l-49.53,5.42l-47.32,5.18
	v-40.77L427.88,0.024H48.51v291.57h379.37v8.66H48.51v82.621l51.41,34.619v-83.77h47.32v115.629l49.53,33.352v-148.98h47.32v180.84
	l19.92,13.41l23.23-15.641l47.31-31.85l46.02-30.99l47.311-31.85l51.61-34.75V34.555L427.88,0.024z M334.55,426.976l-36.04,24.26
	l-11.27,7.59v-125.1h47.31V426.976z M427.88,364.136l-36.04,24.26l-11.271,7.59v-62.26h47.311V364.136z M427.88,279.755H79.01v-8.67
	h348.87V279.755z M427.88,260.226H99.92V99.725l47.32-4.27v156.101h49.53V90.995l47.32-4.26v164.821h43.15V82.845l47.31-4.27
	v172.981h46.02V74.425l47.311-4.26V260.226z"/>
</svg>
