<?xml version="1.0" encoding="utf-8"?>
<!-- Generator: Adobe Illustrator 16.0.0, SVG Export Plug-In . SVG Version: 6.00 Build 0)  -->
<!DOCTYPE svg PUBLIC "-//W3C//DTD SVG 1.1//EN" "http://www.w3.org/Graphics/SVG/1.1/DTD/svg11.dtd">
<svg version="1.1" id="Capa_1" xmlns="http://www.w3.org/2000/svg" xmlns:xlink="http://www.w3.org/1999/xlink" x="0px" y="0px"
	 width="256px" height="256px" viewBox="0 -112 256 256" enable-background="new 0 -112 256 256" xml:space="preserve">
<g>
	<path fill="#3C3F42" d="M151.342-6.992c-7.515-0.603-15.247-0.908-23.105-0.908S112.649-7.594,105.127-7
		c-4.277,6.215-8.405,12.754-12.331,19.56c-3.929,6.805-7.529,13.646-10.77,20.456c3.236,6.817,6.841,13.666,10.77,20.468
		c3.926,6.802,8.054,13.345,12.331,19.56c7.522,0.595,15.251,0.899,23.109,0.899s15.591-0.305,23.105-0.907
		c4.273-6.207,8.405-12.75,12.335-19.552c3.928-6.801,7.528-13.647,10.768-20.464c-3.239-6.809-6.84-13.655-10.775-20.456
		C159.747,5.762,155.615-0.781,151.342-6.992z M128.236,56.41c-12.918,0-23.391-10.473-23.391-23.395
		c0-12.914,10.473-23.387,23.391-23.387c12.914,0,23.387,10.473,23.387,23.387C151.623,45.938,141.15,56.41,128.236,56.41z"/>
	<path fill="#3C3F42" d="M68.595-1.408C68.595-1.408,68.595-1.408,68.595-1.408c1.98,6.642,4.407,13.483,7.236,20.422
		c2.137-4.125,4.395-8.242,6.759-12.347c2.367-4.102,4.806-8.113,7.314-12.022v0c-0.001,0-0.003,0-0.004,0
		C82.474-4.334,75.341-3.016,68.595-1.408z"/>
	<path fill="#3C3F42" d="M68.595,67.455c6.746,1.604,13.879,2.927,21.306,3.944c0.001,0,0.003,0,0.004,0.001
		c0-0.001,0-0.001,0-0.001c-2.509-3.914-4.947-7.921-7.314-12.022c-2.364-4.102-4.622-8.227-6.759-12.351
		C73.002,53.969,70.579,60.81,68.595,67.455L68.595,67.455z"/>
	<path fill="#3C3F42" d="M57.223,1.681c-3.714,1.139-7.275,2.387-10.66,3.722C36.509,9.375,28.365,14.11,23.015,19.111
		c-4.942,4.606-7.447,9.286-7.447,13.912c0,4.618,2.504,9.299,7.447,13.908c5.351,5.002,13.494,9.737,23.548,13.713
		c3.385,1.331,6.946,2.583,10.66,3.718c0.001,0,0.002,0.001,0.004,0.001v-0.001c3.014-10.144,6.985-20.687,11.807-31.347
		C64.212,22.371,60.24,11.824,57.227,1.681c0,0,0,0,0-0.001C57.225,1.68,57.224,1.68,57.223,1.681z"/>
	<path fill="#3C3F42" d="M128.236,118.501c-3.186,2.982-6.391,5.745-9.588,8.289c-7.679,6.098-15.06,10.621-21.975,13.533
		c10.097,2.559,20.671,3.913,31.562,3.913c10.896,0,21.461-1.354,31.559-3.913c-6.92-2.912-14.292-7.436-21.979-13.533
		C134.623,124.246,131.426,121.491,128.236,118.501z"/>
	<path fill="#3C3F42" d="M166.564-5.356c2.513,3.91,4.947,7.921,7.318,12.022c2.362,4.098,4.615,8.22,6.75,12.334
		c2.832-6.936,5.258-13.77,7.245-20.408C181.131-3.016,173.992-4.334,166.564-5.356z"/>
	<path fill="#3C3F42" d="M166.573,71.398c7.425-1.018,14.561-2.341,21.305-3.944c-1.987-6.642-4.413-13.472-7.245-20.411
		c-2.135,4.121-4.388,8.235-6.75,12.334C171.512,63.479,169.078,67.484,166.573,71.398z"/>
	<path fill="#3C3F42" d="M63.48,89.934c-1.593,10.691-1.554,20.114,0.094,27.253c1.522,6.582,4.328,11.099,8.328,13.399
		c3.999,2.317,9.306,2.489,15.771,0.517c7.002-2.145,15.181-6.825,23.646-13.54c2.849-2.271,5.706-4.728,8.555-7.373
		c-7.283-7.687-14.425-16.39-21.242-25.892c-11.638-1.158-22.754-2.99-33.045-5.446C64.721,82.64,64.017,86.341,63.48,89.934z"/>
	<path fill="#3C3F42" d="M87.669-65.056c-2.97-0.912-5.701-1.366-8.175-1.366c-2.892,0-5.432,0.63-7.592,1.875
		c-4,2.309-6.806,6.821-8.328,13.404c-1.647,7.134-1.687,16.558-0.094,27.249c0.532,3.597,1.24,7.303,2.109,11.091
		c10.288-2.461,21.402-4.293,33.037-5.443c6.82-9.5,13.961-18.207,21.242-25.892c-2.845-2.653-5.702-5.115-8.551-7.377
		C102.85-58.234,94.675-62.919,87.669-65.056z"/>
	<path fill="#3C3F42" d="M184.566-64.547c-2.152-1.249-4.704-1.875-7.6-1.875c-2.466,0-5.197,0.454-8.171,1.366
		c-6.998,2.137-15.185,6.821-23.653,13.541c-2.841,2.262-5.698,4.72-8.547,7.369c7.279,7.686,14.425,16.401,21.242,25.899
		c11.631,1.15,22.745,2.982,33.045,5.443c0.861-3.788,1.565-7.494,2.105-11.091c1.589-10.695,1.558-20.115-0.094-27.249
		C191.368-57.729,188.566-62.238,184.566-64.547z"/>
	<path fill="#3C3F42" d="M142.31,85.409c-4.642,0.219-9.338,0.321-14.073,0.321s-9.436-0.103-14.073-0.321
		c4.595,5.917,9.307,11.443,14.069,16.476C132.995,96.845,137.707,91.326,142.31,85.409z"/>
	<path fill="#3C3F42" d="M128.236-112.236C57.414-112.236,0-54.822,0,16c0,42.25,20.429,79.725,51.947,103.081
		c-1.839-8.484-1.91-18.887-0.129-30.878c0.599-4.03,1.396-8.187,2.383-12.437c-4.18-1.276-8.171-2.661-11.967-4.164
		C17.438,61.818,3.78,48.106,3.78,33.016c0-15.082,13.658-28.787,38.454-38.575c3.796-1.495,7.795-2.888,11.971-4.16
		c-0.99-4.25-1.788-8.406-2.387-12.441c-3.914-26.377,1.119-45.052,14.19-52.601c13.07-7.541,31.762-2.563,52.64,14.014
		c3.197,2.536,6.402,5.307,9.588,8.289c3.186-2.982,6.387-5.753,9.58-8.289c20.882-16.577,39.573-21.555,52.644-14.014
		c13.071,7.549,18.104,26.224,14.19,52.597c-0.603,4.039-1.4,8.191-2.387,12.441c0,0.001-0.001,0.002-0.001,0.003
		c0,0,0.001,0,0.001,0c4.18,1.276,8.171,2.665,11.975,4.16c24.796,9.788,38.446,23.493,38.446,38.575
		c0,15.091-13.65,28.803-38.446,38.587c-3.804,1.503-7.795,2.888-11.975,4.164c0.986,4.242,1.784,8.406,2.387,12.437
		c1.777,11.999,1.714,22.394-0.133,30.894C236.036,95.725,256.473,58.25,256.473,16C256.473-54.822,199.055-112.236,128.236-112.236
		z"/>
	<path fill="#3C3F42" d="M114.155-19.362c4.642-0.215,9.346-0.325,14.081-0.325s9.439,0.11,14.073,0.325
		c-4.603-5.925-9.314-11.439-14.081-16.48C123.468-30.802,118.757-25.286,114.155-19.362z"/>
	<path fill="#3C3F42" d="M168.796,131.103c6.465,1.973,11.771,1.801,15.771-0.517c4-2.301,6.802-6.81,8.328-13.399
		c1.651-7.139,1.683-16.554,0.094-27.253c-0.54-3.593-1.244-7.295-2.105-11.083c-10.284,2.457-21.414,4.289-33.045,5.447
		c-6.817,9.494-13.963,18.213-21.242,25.892c2.849,2.646,5.706,5.103,8.547,7.373C153.611,124.285,161.79,128.958,168.796,131.103z"
		/>
	<path fill="#3C3F42" d="M233.454,46.932c4.938-4.609,7.443-9.29,7.443-13.908c0-4.626-2.505-9.306-7.443-13.912
		c-5.347-5.001-13.494-9.737-23.552-13.709c-3.381-1.334-6.942-2.579-10.66-3.722c0,0-0.001,0-0.001,0
		c-3.014,10.143-6.981,20.692-11.802,31.335c-0.001,0.001-0.001,0.003-0.002,0.004c0.001,0.001,0.001,0.003,0.002,0.004
		c4.821,10.652,8.789,21.195,11.803,31.339c3.718-1.135,7.279-2.387,10.66-3.718C219.96,56.669,228.107,51.934,233.454,46.932z"/>
</g>
</svg>
