<?xml version="1.0" encoding="utf-8"?>
<!-- Generator: Adobe Illustrator 16.0.0, SVG Export Plug-In . SVG Version: 6.00 Build 0)  -->
<!DOCTYPE svg PUBLIC "-//W3C//DTD SVG 1.1//EN" "http://www.w3.org/Graphics/SVG/1.1/DTD/svg11.dtd">
<svg version="1.1" id="Layer_1" xmlns="http://www.w3.org/2000/svg" xmlns:xlink="http://www.w3.org/1999/xlink" x="0px" y="0px"
	 width="256px" height="256px" viewBox="0 0 256 256" enable-background="new 0 0 256 256" xml:space="preserve">
<path fill-rule="evenodd" clip-rule="evenodd" fill="#3C3F42" d="M253.424,86.953c-18.224-16.869-36.374-33.817-54.26-51.04
	c-4.142-3.987-8.326-5.346-13.945-5.252c-19.099,0.319-38.206,0.123-57.31,0.123c-20.058,0-40.118,0.066-60.175-0.062
	c-3.55-0.022-6.243,0.799-8.916,3.342C40.133,51.833,21.349,69.5,2.415,87.005c-3.097,2.863-2.757,4.362-0.03,7.208
	c40.475,42.238,80.87,84.552,121.131,126.993c3.528,3.719,5.486,3.56,8.926-0.063c40.269-42.434,80.656-84.754,121.14-126.984
	C256.398,91.217,256.413,89.721,253.424,86.953z M194.05,82.788c0.034-12.134,0.014-24.269,0.014-38.614
	c15.892,14.997,30.424,28.711,46.336,43.727c-15.504,0-28.97-0.074-42.435,0.045C193.993,87.981,194.04,85.568,194.05,82.788z
	 M185.084,40.517c3.227,0.006,2.944,2.472,2.946,4.606c0.016,12.374,0.008,24.748,0.008,38.894
	c-17.434-14.8-33.507-28.447-51.256-43.514C154.326,40.502,169.705,40.485,185.084,40.517z M131.361,43.845
	c16.362,14.221,32.9,28.24,50.942,43.672c-36.911,0-71.792,0-108.583,0c7.631-6.591,13.976-12.114,20.368-17.585
	c9.788-8.38,19.636-16.693,29.397-25.109C125.976,42.675,127.967,40.895,131.361,43.845z M71.32,40.452
	c15.191,0.024,30.381,0.012,45.572,0.012c0.138,0.539,0.274,1.077,0.413,1.614c-16.117,13.678-32.234,27.355-49.556,42.055
	c0-14.469,0.021-27.46-0.018-40.451C67.724,41.143,69.077,40.448,71.32,40.452z M61.665,44.39c0,14.408-0.039,26.908,0.028,39.409
	c0.018,3.135-1.502,4.127-4.391,4.116c-13.241-0.051-26.482-0.023-41.863-0.023C31.487,72.791,45.918,59.208,61.665,44.39z
	 M111.108,194.543c-31.536-33.053-63.07-66.106-96.029-100.649c9.016,0,16.429-0.054,23.841,0.014
	c7.864,0.072,17.355-2.396,23.134,1.145c5.747,3.523,7.867,13.08,11.393,20.084c12.114,24.067,24.154,48.171,36.2,72.272
	c1.018,2.034,1.876,4.146,2.81,6.221C112.006,193.934,111.558,194.238,111.108,194.543z M127.976,209.731
	c-13.313-26.415-25.862-51.305-38.403-76.198c-5.797-11.507-11.447-23.09-17.433-34.499c-2.145-4.089-1.551-5.222,3.138-5.205
	c35.122,0.122,70.245,0.05,105.369,0.104c2.235,0.004,6.117-1.131,3.642,3.789C165.749,134.548,147.245,171.393,127.976,209.731z
	 M142.906,196.274c-0.374-3.608,1.386-5.439,2.4-7.466c14.849-29.63,29.846-59.188,44.594-88.867
	c2.142-4.309,4.448-6.375,9.645-6.196c13.044,0.447,26.116,0.148,40.937,0.148C207.38,128.625,175.405,162.174,142.906,196.274z"/>
</svg>
