<?xml version="1.0" encoding="utf-8"?>
<!-- Generator: Adobe Illustrator 16.0.0, SVG Export Plug-In . SVG Version: 6.00 Build 0)  -->
<!DOCTYPE svg PUBLIC "-//W3C//DTD SVG 1.1//EN" "http://www.w3.org/Graphics/SVG/1.1/DTD/svg11.dtd">
<svg version="1.1" id="Layer_1" xmlns="http://www.w3.org/2000/svg" xmlns:xlink="http://www.w3.org/1999/xlink" x="0px" y="0px"
	 width="216px" height="216px" viewBox="0 0 216 216" enable-background="new 0 0 216 216" xml:space="preserve">
<path fill-rule="evenodd" clip-rule="evenodd" fill="#747474" d="M119.197,214.357c-23.413,1.107-46.553-0.329-68.968-7.843
	c-7.75-2.598-15.223-5.85-21.236-11.689c-3.4-3.3-5.141-7.149-5.133-12.03c0.076-50.8,0.045-101.601,0.055-152.402
	c0-1.097,0.148-2.193,0.269-3.884c8.36,12.39,20.989,16.547,33.786,19.968c16.048,4.289,32.482,6.281,49.124,6.316
	c1.456,1.89,1.208,4.134,1.228,6.289c0.071,8.434,0.069,16.868,0.007,25.302c-0.026,3.519,0.258,6.956,1.458,10.279
	c-0.304,3.284-3.142,3.44-5.379,4.195c-10.06,3.398-14.744,11.028-15.916,20.952c-1.181,9.996,1.368,18.789,10.172,24.861
	c1.693,1.169,3.584,1.912,5.479,2.663c1.488,0.59,3.067,1.117,3.307,3.076c0.799,2.829,0.911,5.714,0.909,8.626
	c-0.008,14.506-0.038,29.01,0.01,43.516c0.023,7.023,0.671,7.741,7.59,9.106C117.527,211.969,119.234,212.117,119.197,214.357z"/>
<path fill-rule="evenodd" clip-rule="evenodd" fill="#898989" d="M119.197,214.357c-2.494-1.146-5.164-0.802-7.731-0.65
	c-3.963,0.233-5.361-1.329-5.335-5.305c0.126-19.449,0.038-38.897,0.025-58.348c2.698-2.814,5.031-1.437,7.238,0.683
	c3.394,3.258,5.924,7.414,10.175,9.767c2.044,0.28,4.084,1.384,6.074-0.032c-0.846-3.417-3.998-4.87-6.034-7.221
	c-3.708-4.28-3.691-5.409,0.863-8.451c12.41-8.288,14.979-28.544,5.08-39.721c-4.201-4.743-9.504-6.928-15.729-7.305
	c-1.895-0.114-4.268,0.471-5.042-2.274c-1.479-0.804-2.559-1.854-2.551-3.709c0.05-12.168,0.068-24.337,0.152-36.506
	c0.005-0.832,0.464-1.661,0.712-2.492c2.401-0.817,4.899-0.602,7.36-0.615c17.984-0.094,35.507-2.998,52.51-8.818
	c8.49-2.905,16.264-7.104,22.172-14.138c2.542,0.549,1.299,2.589,1.312,3.871c0.111,11.623,0.065,23.247,0.065,34.87
	c0,37.922-0.005,75.842,0.014,113.764c0.001,1.583-0.278,3.197,0.292,4.752c-1.236,6.301-5.824,9.933-10.813,13.01
	c-13.039,8.039-27.707,11.076-42.585,13.281C131.387,213.664,125.327,214.475,119.197,214.357z"/>
<path fill-rule="evenodd" clip-rule="evenodd" fill="#9D9D9D" d="M55.588,32.656c-4.651-1.454-8.937-3.575-12.271-7.216
	c-3.386-3.698-3.348-7.146,0.096-10.813c4.031-4.292,9.392-6.291,14.786-8.085c15.797-5.255,32.251-6.983,48.667-6.55
	c15.994,0.422,32.211,0.664,47.718,5.864c5.261,1.764,10.52,3.512,14.975,6.943c5.921,4.563,5.989,9.756,0.231,14.446
	c-3.082,2.51-6.591,4.256-10.401,5.389c-11.474-0.394-22.396-4.309-33.875-5.004c-19.504-1.18-38.866-1.062-57.98,3.427
	C63.569,31.988,59.56,32.059,55.588,32.656z"/>
<path fill-rule="evenodd" clip-rule="evenodd" fill="#767676" d="M55.588,32.656c6.59-3.8,14.058-4.652,21.311-5.715
	c23.295-3.412,46.591-3.231,69.721,1.598c4.37,0.914,8.835,1.731,12.77,4.095c-10.958,4.224-22.458,6.1-34.046,6.88
	c-20.493,1.379-40.956,1.092-61.034-4.124C61.365,34.625,58.493,33.574,55.588,32.656z"/>
<path fill-rule="evenodd" clip-rule="evenodd" fill="#7D7D7D" d="M190.818,186.479c-1.049-2.053-0.73-4.271-0.731-6.435
	c-0.015-48.003-0.007-96.007-0.025-144.01c-0.001-2.298,0.406-4.683-0.926-6.812c0.383-0.725,0.763-1.449,1.205-2.291
	c1.169,1.159,0.704,2.383,0.704,3.458c0.027,50.726,0.024,101.452,0.012,152.178C191.056,183.871,190.901,185.174,190.818,186.479z"
	/>
<path fill-rule="evenodd" clip-rule="evenodd" fill="#FEFEFE" d="M108.781,95.5c2.18,0.054,4.368,0.001,6.536,0.182
	c7.39,0.617,13.296,3.946,17.57,10.016c8.069,11.461,6.702,34.157-8.566,41.629c-2.189,1.072-1.967,1.993-0.386,3.422
	c3.235,2.923,6.418,5.906,9.547,8.943c0.972,0.943,2.66,1.464,2.367,3.334c-4.328,0.615-8.658,0.552-12.989,0.047
	c-4.293-1.891-6.329-6.107-9.36-9.271c-2.12-2.215-4.235-3.779-7.344-3.747c-13.78-3.6-20.489-13.11-20.069-28.451
	C86.466,107.722,94.46,98.528,108.781,95.5z"/>
<path fill-rule="evenodd" clip-rule="evenodd" fill="#FEFEFE" d="M46.745,136.127c4.994,3.123,9.311,5.188,14.311,4.941
	c3.018-0.148,5.986-0.763,6.965-4.146c1-3.452-1.231-5.472-3.88-7.003c-2.896-1.671-5.955-3.065-8.823-4.779
	c-7.083-4.232-9.957-10.353-8.422-17.585c1.316-6.201,7.525-11.14,15.14-11.822c4.353-0.39,8.734-0.457,13.02,0.702
	c2.939,0.794,5.086,8.313,3.045,10.577c-0.988,1.097-1.92,0.167-2.734-0.19c-3.144-1.381-6.413-1.865-9.805-1.671
	c-2.752,0.157-5.379,0.822-6.253,3.797c-0.913,3.104,0.687,5.381,3.293,6.901c3.265,1.907,6.704,3.525,9.914,5.516
	c7.007,4.343,9.531,9.744,8.101,16.804c-1.219,6.02-6.262,10.291-13.678,11.794c-5.101,1.033-10.119,0.681-15.162-0.351
	c-3.655-0.748-5.656-2.525-5.079-6.589C46.977,141.046,46.745,138.996,46.745,136.127z"/>
<path fill-rule="evenodd" clip-rule="evenodd" fill="#FEFEFE" d="M146.391,149.519c0.045-0.204,0.022-0.401-0.07-0.589
	c-0.811-4.012-0.317-8.067-0.344-12.1c-0.079-12.019-0.045-24.038-0.007-36.058c0.005-1.409-0.429-2.903,0.476-4.225
	c4.013,0,8.024,0.001,12.037,0.002c0.222,0.357,0.547,0.636,0.545,1.134c-0.075,13.855,0.306,27.713-0.208,41.567
	c4.213,1.519,8.572,0.548,12.856,0.681c6.232,0.194,6.238,0.065,6.22,6.22c-0.004,1.155-0.038,2.311-0.058,3.465
	c-0.878,1.155-2.137,0.64-3.217,0.646c-8.372,0.044-16.743,0.05-25.116-0.008C148.462,150.248,147.154,150.885,146.391,149.519z"/>
<path fill-rule="evenodd" clip-rule="evenodd" fill="#7D7D7D" d="M146.445,96.548c-0.041,17.46-0.083,34.921-0.125,52.382
	c-0.84-1.454-0.806-3.061-0.807-4.658c0-14.369,0.001-28.737,0-43.105C145.514,99.563,145.509,97.961,146.445,96.548z"/>
<path fill-rule="evenodd" clip-rule="evenodd" fill="#7D7D7D" d="M158.819,139.251c-0.112-14.233-0.225-28.468-0.337-42.701
	c0.79,1.112,0.996,2.381,0.996,3.708c-0.006,12.015,0.006,24.03-0.04,36.045C159.434,137.286,159.035,138.269,158.819,139.251z"/>
<path fill-rule="evenodd" clip-rule="evenodd" fill="#7D7D7D" d="M146.391,149.519c10.481,0.033,20.964,0.066,31.447,0.099
	c-1.198,0.969-2.618,1.1-4.08,1.1c-7.778-0.005-15.555-0.006-23.332-0.002C148.959,150.716,147.544,150.562,146.391,149.519z"/>
<path fill-rule="evenodd" clip-rule="evenodd" fill="#7D7D7D" d="M122.86,163.072c4.33-0.015,8.659-0.031,12.989-0.047
	C131.523,164.297,127.193,164.233,122.86,163.072z"/>
<path fill-rule="evenodd" clip-rule="evenodd" fill="#898989" d="M105.31,107.902c9.338-3.337,15.31-2.301,18.745,7.603
	c1.856,5.348,1.719,10.841-0.292,16.178c-2.864,7.597-10.186,10.409-17.627,6.851c-1.692-2.312-2.195-4.948-2.08-7.736
	C104.374,123.16,103.035,115.432,105.31,107.902z"/>
<path fill-rule="evenodd" clip-rule="evenodd" fill="#747474" d="M105.31,107.902c1.479,2.719,0.822,5.673,0.851,8.524
	c0.073,7.367-0.006,14.737-0.025,22.106C96.432,134.808,95.846,113.059,105.31,107.902z"/>
</svg>
