<?xml version="1.0" encoding="utf-8"?>
<!-- Generator: Adobe Illustrator 16.0.0, SVG Export Plug-In . SVG Version: 6.00 Build 0)  -->
<!DOCTYPE svg PUBLIC "-//W3C//DTD SVG 1.1//EN" "http://www.w3.org/Graphics/SVG/1.1/DTD/svg11.dtd">
<svg version="1.1" id="Layer_1" xmlns="http://www.w3.org/2000/svg" xmlns:xlink="http://www.w3.org/1999/xlink" x="0px" y="0px"
	 width="256px" height="256px" viewBox="0 128 256 256" enable-background="new 0 128 256 256" xml:space="preserve">
<g id="surface1">
	<path fill="#3C3F42" d="M230.806,298.241l17.562-17.564c11.119-11.116,11.121-29.208,0.002-40.33
		c-3.412-3.41-7.509-5.806-11.886-7.133c3.58-4.863,5.517-10.717,5.517-16.869c0-7.617-2.968-14.779-8.355-20.165
		c-5.384-5.386-12.546-8.354-20.165-8.354c-0.319,0-0.638,0.006-0.958,0.016c0.249-7.613-2.524-15.31-8.324-21.111
		c-5.799-5.797-13.506-8.574-21.107-8.322c0.01-0.317,0.016-0.639,0.016-0.958c0-7.619-2.967-14.779-8.353-20.165
		c-11.117-11.117-29.208-11.119-40.33,0l-6.071,6.071l-6.07-6.069c-5.385-5.388-12.548-8.355-20.167-8.355
		c-7.616,0-14.777,2.967-20.163,8.351c-5.801,5.801-8.568,13.5-8.316,21.119c-0.321-0.012-0.643-0.023-0.963-0.023
		c-7.617,0-14.779,2.965-20.169,8.351c-5.799,5.803-8.566,13.502-8.314,21.119c-0.323-0.012-0.645-0.023-0.967-0.023
		c-7.617,0-14.779,2.967-20.161,8.352c-5.388,5.385-8.355,12.548-8.355,20.167c0,6.15,1.935,12.004,5.517,16.865
		c-4.442,1.339-8.514,3.764-11.888,7.137c-11.091,11.095-11.117,29.129-0.075,40.252c0.027,0.028,0.055,0.057,0.083,0.086
		l17.587,17.583c0.023,0.025,0.049,0.052,0.074,0.076c1.056,1.058,2.184,2.017,3.367,2.884l-5.202,5.201
		c-5.059,5.059-7.636,11.951-7.254,19.407c0.364,7.158,3.445,13.979,8.67,19.203l29.748,29.751
		c5.52,5.517,12.766,8.275,20.015,8.275s14.497-2.759,20.014-8.275l13.827-13.83c6.309,1.354,12.735,2.041,19.167,2.041
		c6.426,0,12.854-0.684,19.16-2.037l13.824,13.826c5.519,5.517,12.765,8.275,20.014,8.275c7.247-0.002,14.497-2.759,20.014-8.275
		l29.75-29.751c11.034-11.034,12.288-27.736,2.793-37.233l-6.336-6.336l3.126-3.128C230.738,298.31,230.771,298.275,230.806,298.241
		z M92.838,148.17c2.479-2.479,5.775-3.844,9.281-3.844c3.506,0,6.803,1.365,9.282,3.844l23.555,23.555
		c5.118,5.12,5.118,13.448,0,18.565c-2.479,2.479-5.775,3.845-9.279,3.845h-0.002c-3.506-0.002-6.8-1.365-9.279-3.845
		c-0.004-0.004-0.008-0.008-0.01-0.01l-23.541-23.542c-0.02-0.02-0.037-0.039-0.059-0.057
		C87.72,161.557,87.738,153.269,92.838,148.17z M63.356,196.145c-5.082-5.122-5.071-13.424,0.033-18.528
		c2.481-2.479,5.78-3.844,9.286-3.844c3.501,0,6.794,1.363,9.273,3.841c0.002,0,0.004,0.001,0.004,0.003
		c0.01,0.008,0.018,0.016,0.025,0.024l23.528,23.528c0.014,0.015,0.031,0.031,0.047,0.046l5.846,5.847
		c2.479,2.479,3.847,5.775,3.847,9.283c0,3.506-1.365,6.802-3.845,9.279c-2.479,2.48-5.775,3.845-9.282,3.845
		c-3.505,0-6.802-1.365-9.279-3.845c-0.031-0.031-0.063-0.061-0.094-0.09l-5.771-5.774c-0.008-0.008-0.016-0.015-0.024-0.025
		L63.392,196.18l-0.002-0.002C63.378,196.166,63.366,196.154,63.356,196.145z M33.949,207.062c2.478-2.478,5.771-3.842,9.278-3.842
		c3.505,0,6.802,1.364,9.281,3.844l23.583,23.582c5.092,5.12,5.082,13.428-0.023,18.538c-2.479,2.478-5.778,3.843-9.283,3.843
		c-3.506,0-6.803-1.365-9.28-3.845c-0.031-0.029-0.061-0.061-0.092-0.09l-23.39-23.391c-0.025-0.025-0.051-0.053-0.075-0.077
		c-2.479-2.479-3.845-5.773-3.845-9.279C30.101,212.839,31.468,209.542,33.949,207.062z M19.301,269.874
		c-0.029-0.032-0.059-0.062-0.088-0.091c-5.107-5.118-5.104-13.438,0.01-18.551c2.479-2.479,5.775-3.844,9.282-3.844
		c3.505,0,6.804,1.365,9.283,3.846l17.666,17.665c5.118,5.117,5.118,13.445,0.002,18.562c-2.479,2.479-5.775,3.844-9.279,3.844
		h-0.002c-0.644,0-1.281-0.046-1.908-0.137c-0.047-0.01-0.094-0.016-0.141-0.023c-2.703-0.421-5.198-1.671-7.178-3.627
		c-0.02-0.021-0.041-0.041-0.061-0.062L19.301,269.874z M108.774,345.048c-0.066-0.019-0.131-0.026-0.195-0.042
		c-0.155-0.037-0.308-0.072-0.462-0.1c-0.114-0.02-0.227-0.033-0.343-0.05c-0.127-0.015-0.254-0.03-0.384-0.04
		c-0.135-0.012-0.271-0.018-0.405-0.021c-0.11-0.004-0.217-0.006-0.328-0.004c-0.145,0.002-0.288,0.011-0.431,0.022
		c-0.104,0.008-0.208,0.016-0.312,0.027c-0.141,0.015-0.28,0.037-0.419,0.061c-0.11,0.017-0.217,0.039-0.327,0.062
		c-0.127,0.028-0.253,0.057-0.378,0.093c-0.12,0.03-0.239,0.066-0.358,0.103c-0.112,0.038-0.219,0.077-0.329,0.116
		c-0.127,0.049-0.254,0.098-0.378,0.153c-0.1,0.042-0.2,0.09-0.298,0.137c-0.125,0.061-0.249,0.123-0.37,0.191
		c-0.101,0.056-0.198,0.114-0.296,0.175c-0.109,0.068-0.221,0.137-0.329,0.211c-0.11,0.076-0.217,0.157-0.323,0.239
		c-0.088,0.066-0.174,0.133-0.26,0.203c-0.125,0.106-0.245,0.217-0.363,0.329c-0.045,0.044-0.094,0.081-0.139,0.125l-16.865,16.865
		c-5.036,5.036-13.227,5.036-18.261,0l-29.749-29.747c-2.526-2.527-4.013-5.761-4.183-9.107c-0.155-3.05,0.827-5.797,2.768-7.736
		l10.627-10.629c0.162,0.002,0.325,0.012,0.489,0.012c0,0,0,0,0.002,0c7.614,0,14.775-2.967,20.162-8.354
		c8.244-8.245,10.369-20.321,6.385-30.549c5.351-1.128,10.269-3.771,14.229-7.729c4.522-4.526,7.206-10.208,8.046-16.103
		c2.299,0.59,4.687,0.897,7.121,0.897c0,0,0,0,0.002,0c7.615,0,14.775-2.965,20.163-8.351c5.386-5.386,8.353-12.548,8.353-20.165
		c0-2.43-0.305-4.814-0.891-7.109c6.071-0.862,11.681-3.646,16.093-8.063c11.119-11.117,11.119-29.208,0.002-40.328l-6.604-6.604
		l6.071-6.069c5.12-5.118,13.448-5.118,18.563-0.002c2.479,2.48,3.844,5.776,3.844,9.282s-1.365,6.802-3.844,9.281
		c-1.502,1.502-2.255,3.472-2.255,5.442c0,1.969,0.75,3.939,2.255,5.441c3.006,3.006,7.877,3.006,10.883,0
		c5.116-5.115,13.443-5.117,18.563,0c5.118,5.12,5.116,13.447-0.002,18.565c-1.502,1.502-2.254,3.472-2.254,5.44
		c0,1.97,0.75,3.939,2.254,5.441c3.006,3.006,7.877,3.006,10.883,0.002c2.479-2.48,5.778-3.844,9.284-3.847
		c3.505,0,6.802,1.365,9.279,3.845c2.481,2.481,3.847,5.777,3.847,9.283c0,3.459-1.33,6.714-3.747,9.18
		c-0.035,0.035-0.07,0.068-0.104,0.104l-11.036,11.039c-2.748,2.748-3.017,7.113-0.625,10.176l0.396,0.507
		c2.385,3.058,6.674,3.86,10.004,1.876c5.161-3.075,11.735-2.25,15.989,2.001c5.118,5.12,5.118,13.447,0,18.565l-17.664,17.662
		c-0.033,0.035-0.068,0.07-0.102,0.105l-37.916,37.916C162.783,344.499,134.799,351.998,108.774,345.048z M223.031,318.689
		c3.374,3.377,2.07,10.605-2.793,15.469l-29.75,29.747c-5.036,5.036-13.226,5.036-18.261,0l-8.187-8.186
		c10.641-4.542,20.386-11.098,28.649-19.36l24.004-24.006L223.031,318.689z"/>
</g>
</svg>
