<?xml version="1.0" encoding="utf-8"?>
<!-- Generator: Adobe Illustrator 16.0.0, SVG Export Plug-In . SVG Version: 6.00 Build 0)  -->
<!DOCTYPE svg PUBLIC "-//W3C//DTD SVG 1.1//EN" "http://www.w3.org/Graphics/SVG/1.1/DTD/svg11.dtd">
<svg version="1.1" id="Capa_1" xmlns="http://www.w3.org/2000/svg" xmlns:xlink="http://www.w3.org/1999/xlink" x="0px" y="0px"
	 width="256px" height="256px" viewBox="0 -54.041 256 256" enable-background="new 0 -54.041 256 256" xml:space="preserve">
<g>
	<g id="_x33_51._Repeat">
		<g>
			<path fill="#3C3F42" d="M162.295,168.929c-10.811,4.36-22.604,6.788-34.977,6.788c-25.172,0-47.938-9.958-64.84-26.041
				l7.739-4.59c5.437-3.216,5.386-8.343-0.111-11.442l-37.752-21.326c-5.497-3.107-10.056-0.448-10.186,5.938l-0.897,44.399
				c-0.125,6.391,4.17,8.963,9.6,5.739l10.706-6.334c21.479,22.855,51.885,37.226,85.732,37.226c12.293,0,24.121-1.937,35.236-5.47
				C186.225,187.505,174.445,163.944,162.295,168.929z M33.915,68.759c5.154-38.165,33.197-69.004,69.841-78.456v-24.283
				c-46.138,9.365-82.439,45.693-91.831,91.819C3.611,87.364,33.065,81.47,33.915,68.759z M114.16,10.657l38.354-22.966
				c5.574-3.341,5.588-8.785,0.024-12.15l-38.704-23.423c-5.565-3.36-10.061-0.823-10.029,5.684l0.204,47.125
				C104.036,11.432,108.583,13.998,114.16,10.657z M246.85,123.696l-20.09-11.892l12.213,7.056
				c3.942-11.761,6.161-24.306,6.161-37.399c0-35.714-15.912-67.709-41.022-89.312c-11.993-10.821-29.664,0.962-18.35,15.388
				c21.808,17.266,35.811,43.957,35.811,73.931c0,8.736-1.291,17.164-3.51,25.188l-10.369-6.133c-5.4-3.196-9.698-0.562-9.606,5.88
				l0.685,44.278c0.101,6.456,4.602,9.16,10.055,6.049l37.928-21.611C252.209,132.009,252.25,126.894,246.85,123.696z"/>
		</g>
	</g>
</g>
</svg>
