<?xml version="1.0" encoding="utf-8"?>
<!-- Generator: Adobe Illustrator 16.0.0, SVG Export Plug-In . SVG Version: 6.00 Build 0)  -->
<!DOCTYPE svg PUBLIC "-//W3C//DTD SVG 1.1//EN" "http://www.w3.org/Graphics/SVG/1.1/DTD/svg11.dtd">
<svg version="1.1" id="Capa_1" xmlns="http://www.w3.org/2000/svg" xmlns:xlink="http://www.w3.org/1999/xlink" x="0px" y="0px"
	 width="1224px" height="792px" viewBox="0 0 1224 792" enable-background="new 0 0 1224 792" xml:space="preserve">
<g>
	<g>
		<g>
			<path fill="#3C3F42" d="M496.922,114.001H83.665c-22.596,0-40.981,18.385-40.981,40.979v599.493
				c0,22.596,18.385,40.98,40.981,40.98h413.257c22.597,0,40.982-18.385,40.982-40.98V154.98
				C537.901,132.386,519.516,114.001,496.922,114.001z M504.547,754.474c0,4.206-3.421,7.626-7.628,7.626H83.665
				c-4.205,0-7.627-3.42-7.627-7.626V154.98c0-4.205,3.422-7.626,7.627-7.626h413.257c4.205,0,7.628,3.421,7.628,7.626v599.493
				H504.547z"/>
			<path fill="#3C3F42" d="M859.544,233.479H619.085c-22.598,0-40.983,18.385-40.983,40.982v475.803
				c0,22.597,18.385,40.981,40.983,40.981h240.463c22.597,0,40.98-18.385,40.98-40.981V274.458
				C900.524,251.862,882.139,233.479,859.544,233.479z M867.172,750.265L867.172,750.265c-0.001,4.208-3.425,7.628-7.629,7.628
				H619.085c-4.207,0-7.628-3.42-7.628-7.628V274.458c0-4.208,3.421-7.627,7.628-7.627h240.463c4.204,0,7.627,3.419,7.627,7.627
				v475.806H867.172z"/>
			<path fill="#3C3F42" d="M1140.334,393.58H972.636c-22.597,0-40.982,18.385-40.982,40.982v320.57
				c0,22.597,18.386,40.981,40.982,40.981h167.698c22.598,0,40.982-18.385,40.982-40.981V434.56
				C1181.313,411.962,1162.932,393.58,1140.334,393.58z M1147.961,755.129c0,4.208-3.424,7.63-7.629,7.63H972.633
				c-4.204,0-7.627-3.422-7.627-7.63V434.557c0-4.208,3.423-7.629,7.627-7.629h167.699c4.205,0,7.629,3.421,7.629,7.629V755.129z"/>
			<path fill="#3C3F42" d="M385.761,102.288c9.208,0,16.677-7.466,16.677-16.677V40.023c0-3.676,2.99-6.669,6.668-6.669h235.707
				c3.678,0,6.668,2.993,6.668,6.669v98.716l-18.226-18.227c-6.513-6.512-17.072-6.512-23.584,0c-6.515,6.516-6.515,17.072,0,23.586
				l46.695,46.696c0.099,0.1,0.202,0.2,0.304,0.297c3.215,3.058,7.353,4.588,11.485,4.588h0.004c0.05,0,0.104,0,0.156-0.002
				c0.081,0,0.16,0,0.243-0.003c0.08-0.001,0.163-0.004,0.243-0.008c0.051-0.002,0.104-0.002,0.154-0.007
				c0.053-0.002,0.104-0.007,0.156-0.009c0.086-0.005,0.17-0.009,0.254-0.016c0.012,0,0.023-0.002,0.035-0.002
				c0.122-0.009,0.246-0.02,0.367-0.031c0.005,0,0.012,0,0.017-0.002c3.112-0.304,6.154-1.481,8.732-3.529
				c0.014-0.012,0.025-0.02,0.038-0.029c0.067-0.053,0.133-0.109,0.2-0.163c0.035-0.031,0.073-0.06,0.108-0.091
				c0.076-0.064,0.151-0.129,0.228-0.193c0.064-0.056,0.126-0.111,0.188-0.167c0.033-0.029,0.064-0.058,0.098-0.088
				c0.073-0.067,0.147-0.136,0.221-0.205c0.018-0.018,0.037-0.033,0.056-0.051c0.093-0.089,0.184-0.178,0.275-0.27
				c0.007-0.004,0.012-0.011,0.019-0.016l44.471-44.471c6.513-6.517,6.513-17.073,0-23.587c-6.515-6.511-17.073-6.511-23.585,0
				l-16.003,16.003V40.023C684.831,17.954,666.877,0,644.809,0H409.106c-22.068,0-40.022,17.954-40.022,40.023v45.585
				C369.083,94.82,376.551,102.288,385.761,102.288z"/>
			<path fill="#3C3F42" d="M790.458,215.69c9.209,0,16.676-7.466,16.676-16.676v-45.586c0-3.677,2.992-6.669,6.67-6.669h197.905
				c3.68,0,6.669,2.993,6.669,6.669v156.531l-18.227-18.228c-6.514-6.512-17.073-6.512-23.584,0c-6.514,6.516-6.514,17.074,0,23.587
				l46.695,46.694c0.101,0.102,0.202,0.201,0.305,0.299c3.216,3.058,7.351,4.587,11.486,4.587h0.002c0.051,0,0.104,0,0.155-0.001
				c0.083,0,0.162,0,0.246-0.003c0.079-0.001,0.16-0.004,0.242-0.008c0.051-0.003,0.104-0.003,0.155-0.007
				c0.052-0.002,0.102-0.007,0.154-0.009c0.087-0.004,0.171-0.01,0.255-0.016c0.011,0,0.023-0.002,0.035-0.002
				c0.123-0.008,0.244-0.02,0.366-0.031c0.006,0,0.012,0,0.018-0.003c3.111-0.304,6.155-1.481,8.732-3.528
				c0.015-0.012,0.023-0.021,0.037-0.029c0.065-0.053,0.134-0.11,0.201-0.163c0.036-0.031,0.073-0.059,0.108-0.091
				c0.075-0.064,0.151-0.127,0.228-0.192c0.062-0.056,0.126-0.112,0.188-0.167c0.034-0.029,0.064-0.058,0.099-0.09
				c0.073-0.066,0.147-0.135,0.221-0.204c0.017-0.019,0.037-0.034,0.055-0.052c0.094-0.088,0.186-0.177,0.276-0.268
				c0.006-0.006,0.012-0.011,0.018-0.017l44.472-44.471c6.514-6.516,6.514-17.073,0-23.587c-6.514-6.51-17.073-6.51-23.586,0
				l-16.002,16.004V153.435c0-22.07-17.954-40.023-40.022-40.023H813.799c-22.068,0-40.023,17.954-40.023,40.023v45.585
				C773.779,208.225,781.246,215.69,790.458,215.69z"/>
			<path fill="#3C3F42" d="M463.587,166.771H116.706c-9.209,0-16.677,7.466-16.677,16.677V356.89
				c0,9.213,7.467,16.676,16.677,16.676h201.791c9.209,0,16.676-7.465,16.676-16.676c0-9.211-7.467-16.678-16.676-16.678H133.382
				V200.125h313.529v140.087h-61.705c-9.208,0-16.677,7.466-16.677,16.678c0,9.213,7.468,16.676,16.677,16.676h78.381
				c9.208,0,16.678-7.465,16.678-16.676V183.449C480.266,174.237,472.796,166.771,463.587,166.771z"/>
			<path fill="#3C3F42" d="M463.587,622.611H116.706c-9.209,0-16.677,7.465-16.677,16.677v84.496
				c0,9.212,7.467,16.677,16.677,16.677h346.882c9.208,0,16.678-7.465,16.678-16.677v-84.496
				C480.266,630.074,472.796,622.611,463.587,622.611z M446.911,707.107H133.382v-51.144h313.529V707.107L446.911,707.107z"/>
			<path fill="#3C3F42" d="M116.706,600.373H310.16c9.209,0,16.676-7.465,16.676-16.676V410.256c0-9.211-7.467-16.676-16.676-16.676
				H116.706c-9.209,0-16.677,7.465-16.677,16.676v173.441C100.029,592.906,107.495,600.373,116.706,600.373z M133.382,426.933h160.1
				v140.089h-160.1V426.933z"/>
			<path fill="#3C3F42" d="M463.587,393.58H361.302c-9.209,0-16.678,7.465-16.678,16.676v173.441
				c0,9.211,7.469,16.676,16.678,16.676h102.285c9.208,0,16.678-7.465,16.678-16.676V410.256
				C480.266,401.042,472.796,393.58,463.587,393.58z M446.911,567.021h-68.932V426.933h68.932V567.021z"/>
			<path fill="#3C3F42" d="M820.33,289.07H658.298c-14.793,0-26.827,12.033-26.827,26.827v50.852
				c0,14.792,12.035,26.826,26.827,26.826H820.33c14.793,0,26.826-12.033,26.826-26.826v-50.852
				C847.156,301.103,835.122,289.07,820.33,289.07z M813.804,360.226h-148.98v-37.802h148.98V360.226z"/>
			<path fill="#3C3F42" d="M818.269,413.593H660.355c-15.93,0-28.888,12.958-28.888,28.886v45.604
				c0,9.213,7.468,16.676,16.676,16.676c9.209,0,16.677-7.465,16.677-16.676v-41.139h148.98v260.162H664.82V554.79
				c0-9.212-7.468-16.679-16.677-16.679c-9.208,0-16.676,7.467-16.676,16.679v156.782c0,15.929,12.958,28.887,28.888,28.887h157.913
				c15.931,0,28.888-12.958,28.888-28.887V442.479C847.156,426.551,834.199,413.593,818.269,413.593z"/>
			<path fill="#3C3F42" d="M1094.129,449.17h-73.684c-18.308,0-33.203,14.894-33.203,33.203v67.012
				c0,18.308,14.894,33.202,33.203,33.202h73.684c18.308,0,33.202-14.894,33.202-33.202v-67.012
				C1127.331,464.063,1112.438,449.17,1094.129,449.17z M1093.979,549.231h-73.381v-66.707h73.381V549.231z"/>
			<path fill="#3C3F42" d="M1094.129,609.268h-73.684c-18.308,0-33.203,14.894-33.203,33.202v64.788
				c0,18.308,14.894,33.203,33.203,33.203h73.684c18.308,0,33.202-14.894,33.202-33.203V642.47
				C1127.331,624.161,1112.438,609.268,1094.129,609.268z M1093.979,707.107h-73.381v-64.483h73.381V707.107z"/>
		</g>
	</g>
</g>
</svg>
