<?xml version="1.0" encoding="utf-8"?>
<!-- Generator: Adobe Illustrator 16.0.0, SVG Export Plug-In . SVG Version: 6.00 Build 0)  -->
<!DOCTYPE svg PUBLIC "-//W3C//DTD SVG 1.1//EN" "http://www.w3.org/Graphics/SVG/1.1/DTD/svg11.dtd">
<svg version="1.1" id="Capa_1" xmlns="http://www.w3.org/2000/svg" xmlns:xlink="http://www.w3.org/1999/xlink" x="0px" y="0px"
	 width="1224px" height="792px" viewBox="0 0 1224 792" enable-background="new 0 0 1224 792" xml:space="preserve">
<g>
	<g>
		<path fill="#3C3F42" d="M862.8,0H361.2c-36.432,0.043-65.958,29.568-66,66v356.4c0.042,36.432,29.568,65.957,66,66h180.497
			l-18.85,66H480V580.8h264V554.4h-42.848l-18.85-66H862.8c36.433-0.043,65.957-29.568,66-66V66
			C928.757,29.568,899.232,0.043,862.8,0z M550.303,554.4l18.85-66h85.695l18.85,66H550.303z M902.4,422.4
			c0,21.87-17.729,39.6-39.601,39.6H361.2c-21.871,0-39.6-17.729-39.6-39.6V396h580.8V422.4z M902.4,369.6H321.6V66
			c0-21.871,17.729-39.6,39.6-39.6h501.6c21.871,0,39.601,17.729,39.601,39.6V369.6z"/>
	</g>
</g>
<g>
	<g>
		<path fill="#3C3F42" d="M717.6,607.2H348c-7.29,0-13.2,5.91-13.2,13.2V778.8c0,7.29,5.911,13.2,13.2,13.2h369.6
			c7.29,0,13.2-5.91,13.2-13.2V620.4C730.8,613.11,724.89,607.2,717.6,607.2z M704.4,765.6H361.2v-132h343.2V765.6z"/>
	</g>
</g>
<g>
	<g>
		<rect x="387.6" y="712.8" fill="#3C3F42" width="26.4" height="26.4"/>
	</g>
</g>
<g>
	<g>
		<rect x="387.6" y="660" fill="#3C3F42" width="26.4" height="26.4"/>
	</g>
</g>
<g>
	<g>
		<rect x="440.4" y="660" fill="#3C3F42" width="26.399" height="26.4"/>
	</g>
</g>
<g>
	<g>
		<rect x="493.2" y="660" fill="#3C3F42" width="26.399" height="26.4"/>
	</g>
</g>
<g>
	<g>
		<rect x="598.8" y="660" fill="#3C3F42" width="26.4" height="26.4"/>
	</g>
</g>
<g>
	<g>
		<rect x="546" y="660" fill="#3C3F42" width="26.4" height="26.4"/>
	</g>
</g>
<g>
	<g>
		<rect x="651.6" y="712.8" fill="#3C3F42" width="26.4" height="26.4"/>
	</g>
</g>
<g>
	<g>
		<rect x="651.6" y="660" fill="#3C3F42" width="26.4" height="26.4"/>
	</g>
</g>
<g>
	<g>
		<rect x="440.4" y="712.8" fill="#3C3F42" width="184.8" height="26.4"/>
	</g>
</g>
<g>
	<g>
		<path fill="#3C3F42" d="M823.2,607.2c-36.45,0-66,29.55-66,66V726c0,36.45,29.55,66,66,66s66-29.55,66-66v-52.8
			C889.2,636.75,859.65,607.2,823.2,607.2z M862.8,726c0,21.871-17.729,39.6-39.6,39.6c-21.871,0-39.601-17.729-39.601-39.6v-52.8
			c0-21.871,17.729-39.601,39.601-39.601c21.87,0,39.6,17.729,39.6,39.601V726z"/>
	</g>
</g>
<g>
	<g>
		<rect x="810" y="660" fill="#3C3F42" width="26.4" height="26.4"/>
	</g>
</g>
<g>
	<g>
		
			<rect x="515.857" y="198.23" transform="matrix(-0.2751 0.9614 -0.9614 -0.2751 983.517 -318.711)" fill="#3C3F42" width="192.107" height="26.388"/>
	</g>
</g>
<g>
	<g>
		<path fill="#3C3F42" d="M541.248,155.337l-16.896-20.275l-79.199,66c-5.599,4.669-6.353,12.992-1.684,18.592
			c0.51,0.61,1.072,1.175,1.684,1.683l79.199,66l16.896-20.275L474.219,211.2L541.248,155.337z"/>
	</g>
</g>
<g>
	<g>
		<path fill="#3C3F42" d="M780.531,202.746c-0.51-0.611-1.072-1.175-1.684-1.683l-79.199-66l-16.896,20.275l67.029,55.863
			l-67.029,55.862l16.896,20.275l79.199-66C784.446,216.668,785.2,208.346,780.531,202.746z"/>
	</g>
</g>
</svg>
