<?xml version="1.0" encoding="utf-8"?>
<!-- Generator: Adobe Illustrator 16.0.0, SVG Export Plug-In . SVG Version: 6.00 Build 0)  -->
<!DOCTYPE svg PUBLIC "-//W3C//DTD SVG 1.1//EN" "http://www.w3.org/Graphics/SVG/1.1/DTD/svg11.dtd">
<svg version="1.1" id="Layer_1" xmlns="http://www.w3.org/2000/svg" xmlns:xlink="http://www.w3.org/1999/xlink" x="0px" y="0px"
	 width="1632px" height="1218.312px" viewBox="0 0 1632 1218.312" enable-background="new 0 0 1632 1218.312" xml:space="preserve">
<g id="Layer_1_1_">
	<g>
		<polygon fill="#FFFFFF" stroke="#000000" stroke-miterlimit="10" points="2221.241,-1779.535 2286.335,-1692.098 
			2244.311,-1657.332 2132.863,-1775.749 		"/>
		<polyline fill="#FFFFFF" stroke="#000000" stroke-miterlimit="10" points="2406.223,-1820.239 2445.594,-1870.069 
			2437.996,-1882.19 2391.55,-1839.879 		"/>
		<polyline fill="#FFFFFF" stroke="#000000" stroke-miterlimit="10" points="2304.299,-1949.401 2361.602,-1976.821 
			2371.729,-1966.723 2320.219,-1930.759 		"/>
		<polygon fill="#FFFFFF" stroke="#000000" stroke-miterlimit="10" points="2124.073,-1655.671 2067.633,-1609.567 
			2068.098,-1932.852 2124.053,-1978.747 		"/>
		<polygon fill="#FFFFFF" stroke="#000000" stroke-miterlimit="10" points="2026.718,-1602.091 2345.244,-1859.559 
			2375.482,-1819.067 2406.193,-1820.187 2365.141,-1875.155 2438.092,-1943.263 2427.617,-1956.529 2348.824,-1897.172 
			2304.27,-1949.351 2296.39,-1919.647 2329.223,-1881.208 2014.493,-1617.774 		"/>
		<path fill="#FFFFFF" stroke="#000000" stroke-miterlimit="10" d="M2124.073-1978.747h69.686
			c56.069,0,104.504,45.461,104.504,101.525c0,56.076-48.435,101.528-104.504,101.528h-60.927l57.193-50.306
			c30.48,0,51.331-25.349,51.331-52.412c0-28.793-23.084-54.189-46.108-54.189l-127.149-0.25L2124.073-1978.747z"/>
		<polygon fill="#FFFFFF" stroke="#000000" stroke-miterlimit="10" points="2124.073,-1655.671 1952.909,-1837.662 
			1911.538,-1803.699 2067.633,-1609.567 		"/>
		<line fill="none" stroke="#00AEEF" stroke-miterlimit="10" x1="1848.043" y1="-1751.397" x2="2170.681" y2="-2017.155"/>
		<line fill="none" stroke="#00AEEF" stroke-miterlimit="10" x1="2011.797" y1="-1563.574" x2="2482.01" y2="-1950.889"/>
		<line fill="none" stroke="#00AEEF" stroke-miterlimit="10" x1="2063.051" y1="-1506.83" x2="2532.378" y2="-1893.414"/>
		<line fill="none" stroke="#00AEEF" stroke-miterlimit="10" x1="1954.216" y1="-1630.244" x2="2423.938" y2="-2017.155"/>
		<line fill="none" stroke="#00AEEF" stroke-miterlimit="10" x1="1992.393" y1="-1586.682" x2="2462.113" y2="-1973.592"/>
		<line fill="none" stroke="#00AEEF" stroke-miterlimit="10" x1="1905.023" y1="-1851.215" x2="2171.803" y2="-1546.796"/>
		<line fill="none" stroke="#00AEEF" stroke-miterlimit="10" x1="2024.841" y1="-1947.306" x2="2290.492" y2="-1644.173"/>
	</g>
	<g>
		<polygon points="3176.783,-1803.707 3218.111,-1837.633 3389.306,-1655.693 3332.868,-1609.585 		"/>
		<polygon points="3333.025,-1720.933 3360.949,-1691.258 3389.299,-1715.511 3389.283,-1929.217 3333.324,-1929.15 		"/>
		<polygon points="3389.306,-1676.842 3380.98,-1669.968 3389.306,-1661.123 		"/>
		<polygon points="3401.652,-1771.993 3455.303,-1771.993 3425.584,-1746.563 		"/>
		<polygon points="3446.621,-1724.209 3496.758,-1765.648 3551.527,-1692.078 3509.543,-1657.354 		"/>
		<polygon points="3455.26,-1826.024 3398.15,-1775.716 3459.659,-1775.724 3474.311,-1776.858 3490.969,-1780.758 
			3505.801,-1786.807 3516.297,-1792.799 3525.676,-1799.623 3534.025,-1807.182 3541.85,-1815.995 3547.759,-1824.256 
			3553.188,-1833.789 3557.986,-1845.094 3560.801,-1854.581 3562.549,-1863.763 3563.494,-1877.241 3562.207,-1892.957 
			3557.413,-1910.965 3549.023,-1928.21 3539.84,-1940.944 3524.105,-1956.11 3512.721,-1963.904 3497.626,-1971.333 
			3480.823,-1976.441 3466.88,-1978.466 3460.664,-1978.751 3389.306,-1978.767 3333.331,-1932.874 3389.306,-1932.94 
			3434.121,-1932.754 3461.484,-1932.754 3471.569,-1930.87 3482.653,-1925.555 3491.324,-1916.846 3497.609,-1908.23 
			3502.992,-1897.753 3505.688,-1888.199 3506.544,-1876.391 3504.844,-1864.937 3501.006,-1854.664 3495.035,-1845.216 
			3485.438,-1835.875 3476.398,-1830.528 3467.953,-1827.575 		"/>
		<polygon points="3304.87,-1638.366 3317.663,-1622.468 3293.998,-1602.914 3281.607,-1618.461 		"/>
		<polygon opacity="0.9" enable-background="new    " points="3378.428,-1672.687 3363.504,-1688.541 3461.061,-1772.016 
			3477.641,-1773.616 3492.213,-1777.239 3505.525,-1782.524 3516.566,-1788.54 3527.672,-1796.432 3539.566,-1807.582 
			3550.203,-1821.158 3557.324,-1833.759 3561.998,-1845.298 3566.033,-1861.834 3593.451,-1885.298 3560.202,-1923.379 
			3567.761,-1953.166 3612.879,-1901.479 3691.015,-1961.691 3701.641,-1948.534 3629.432,-1879.639 3671.064,-1825.139 
			3640.386,-1823.664 3609.705,-1863.83 		"/>
		<polygon points="3571.215,-1954.863 3624.756,-1981.209 3634.979,-1971.237 3586.905,-1936.888 		"/>
		<polygon points="3658.941,-1847.15 3702.177,-1887.413 3709.905,-1875.379 3673.434,-1828.184 		"/>
	</g>
	<g>
		<g>
			<polygon opacity="0.7" fill="#FFFFFF" enable-background="new    " points="891.357,568.422 1047.195,777.751 946.587,860.982 
				678.23,575.607 			"/>
			<polygon opacity="0.9" fill="#4FC4CB" enable-background="new    " points="891.285,568.55 1047.124,777.881 946.515,861.104 
				678.156,575.735 			"/>
			
				<linearGradient id="SVGID_1_" gradientUnits="userSpaceOnUse" x1="178.5869" y1="924.7021" x2="178.5869" y2="1240.2466" gradientTransform="matrix(1 0 0 -1 684 1823.3125)">
				<stop  offset="0" style="stop-color:#4FC4CB;stop-opacity:0"/>
				<stop  offset="0.3897" style="stop-color:#4FC2C9;stop-opacity:0.3118"/>
				<stop  offset="0.5301" style="stop-color:#4DBDC4;stop-opacity:0.4241"/>
				<stop  offset="0.6302" style="stop-color:#4AB6BD;stop-opacity:0.5042"/>
				<stop  offset="0.7112" style="stop-color:#45ACB3;stop-opacity:0.569"/>
				<stop  offset="0.7805" style="stop-color:#3F9FA5;stop-opacity:0.6244"/>
				<stop  offset="0.8419" style="stop-color:#368E94;stop-opacity:0.6735"/>
				<stop  offset="0.8974" style="stop-color:#2B7A80;stop-opacity:0.7179"/>
				<stop  offset="0.9484" style="stop-color:#1D6468;stop-opacity:0.7587"/>
				<stop  offset="0.9939" style="stop-color:#05494D;stop-opacity:0.7951"/>
				<stop  offset="1" style="stop-color:#004549;stop-opacity:0.8"/>
			</linearGradient>
			<polygon opacity="0.6" fill="url(#SVGID_1_)" enable-background="new    " points="891.232,568.55 1047.07,777.881 
				946.457,861.104 678.104,575.735 			"/>
			
				<linearGradient id="SVGID_2_" gradientUnits="userSpaceOnUse" x1="383.6655" y1="951.2119" x2="166.0918" y2="1177.7029" gradientTransform="matrix(1 0 0 -1 684 1823.3125)">
				<stop  offset="0" style="stop-color:#4FC4CB;stop-opacity:0"/>
				<stop  offset="0.3897" style="stop-color:#4FC2C9;stop-opacity:0.3118"/>
				<stop  offset="0.5301" style="stop-color:#4DBDC4;stop-opacity:0.4241"/>
				<stop  offset="0.6302" style="stop-color:#4AB6BD;stop-opacity:0.5042"/>
				<stop  offset="0.7112" style="stop-color:#45ACB3;stop-opacity:0.569"/>
				<stop  offset="0.7805" style="stop-color:#3F9FA5;stop-opacity:0.6244"/>
				<stop  offset="0.8419" style="stop-color:#368E94;stop-opacity:0.6735"/>
				<stop  offset="0.8974" style="stop-color:#2B7A80;stop-opacity:0.7179"/>
				<stop  offset="0.9484" style="stop-color:#1D6468;stop-opacity:0.7587"/>
				<stop  offset="0.9939" style="stop-color:#05494D;stop-opacity:0.7951"/>
				<stop  offset="1" style="stop-color:#004549;stop-opacity:0.8"/>
			</linearGradient>
			<polygon opacity="0.6" fill="url(#SVGID_2_)" enable-background="new    " points="907.202,589.94 1047.124,777.881 
				946.515,861.104 788.461,693.172 			"/>
			<polygon fill="#FFFFFF" points="658.732,864.959 523.613,975.332 524.725,201.374 658.684,91.501 			"/>
			<polygon opacity="0.9" fill="#9E8082" enable-background="new    " points="658.732,864.959 523.613,975.332 524.725,201.374 
				658.732,91.501 			"/>
			
				<linearGradient id="SVGID_3_" gradientUnits="userSpaceOnUse" x1="73.1704" y1="1453.6064" x2="-224.4834" y2="1159.5178" gradientTransform="matrix(1 0 0 -1 684 1823.3125)">
				<stop  offset="0" style="stop-color:#9D8081;stop-opacity:0"/>
				<stop  offset="0.4048" style="stop-color:#9C8080;stop-opacity:0.3238"/>
				<stop  offset="0.5505" style="stop-color:#997D7E;stop-opacity:0.4404"/>
				<stop  offset="0.6545" style="stop-color:#937879;stop-opacity:0.5236"/>
				<stop  offset="0.7385" style="stop-color:#8A7172;stop-opacity:0.5908"/>
				<stop  offset="0.8106" style="stop-color:#7E6868;stop-opacity:0.6484"/>
				<stop  offset="0.8743" style="stop-color:#705B5C;stop-opacity:0.6994"/>
				<stop  offset="0.9319" style="stop-color:#5E4D4D;stop-opacity:0.7455"/>
				<stop  offset="0.9832" style="stop-color:#4B3C3D;stop-opacity:0.7865"/>
				<stop  offset="1" style="stop-color:#443536;stop-opacity:0.8"/>
			</linearGradient>
			<polygon opacity="0.6" fill="url(#SVGID_3_)" enable-background="new    " points="658.732,864.959 523.613,975.332 
				524.725,201.374 658.732,91.501 			"/>
			
				<linearGradient id="SVGID_4_" gradientUnits="userSpaceOnUse" x1="-92.8276" y1="1258.3828" x2="-92.8277" y2="1625.8752" gradientTransform="matrix(1 0 0 -1 684 1823.3125)">
				<stop  offset="0" style="stop-color:#9D8081;stop-opacity:0"/>
				<stop  offset="0.4048" style="stop-color:#9C8080;stop-opacity:0.3238"/>
				<stop  offset="0.5505" style="stop-color:#997D7E;stop-opacity:0.4404"/>
				<stop  offset="0.6545" style="stop-color:#937879;stop-opacity:0.5236"/>
				<stop  offset="0.7385" style="stop-color:#8A7172;stop-opacity:0.5908"/>
				<stop  offset="0.8106" style="stop-color:#7E6868;stop-opacity:0.6484"/>
				<stop  offset="0.8743" style="stop-color:#705B5C;stop-opacity:0.6994"/>
				<stop  offset="0.9319" style="stop-color:#5E4D4D;stop-opacity:0.7455"/>
				<stop  offset="0.9832" style="stop-color:#4B3C3D;stop-opacity:0.7865"/>
				<stop  offset="1" style="stop-color:#443536;stop-opacity:0.8"/>
			</linearGradient>
			<polygon opacity="0.6" fill="url(#SVGID_4_)" enable-background="new    " points="658.732,864.959 523.613,975.332 
				524.725,201.374 658.732,91.501 			"/>
			<g>
				<polyline opacity="0.9" fill="#FFFFFF" enable-background="new    " points="1336.105,466.142 1430.179,346.704 
					1411.946,317.713 1300.906,419.177 				"/>
				<polyline opacity="0.9" fill="#FFFFFF" enable-background="new    " points="1091.626,157.294 1228.708,91.442 
					1252.987,115.577 1129.802,201.865 				"/>
				<polyline opacity="0.9" fill="#C4A819" enable-background="new    " points="1336.033,466.267 1430.104,346.824 
					1411.876,317.836 1300.831,419.302 				"/>
				<polyline opacity="0.9" fill="#C4A819" enable-background="new    " points="1091.554,157.417 1228.635,91.564 
					1252.912,115.704 1129.73,201.99 				"/>
				
					<linearGradient id="SVGID_5_" gradientUnits="userSpaceOnUse" x1="883.7188" y1="1581.498" x2="612.6885" y2="1379.1796" gradientTransform="matrix(1 5.509040e-04 5.509040e-04 -1 692.9507 1821.2878)">
					<stop  offset="0" style="stop-color:#FFFFFF;stop-opacity:0"/>
					<stop  offset="0.2264" style="stop-color:#FDFDFC;stop-opacity:0.1132"/>
					<stop  offset="0.3626" style="stop-color:#F7F7F4;stop-opacity:0.1813"/>
					<stop  offset="0.475" style="stop-color:#ECEBE6;stop-opacity:0.2375"/>
					<stop  offset="0.5744" style="stop-color:#DDDCD1;stop-opacity:0.2872"/>
					<stop  offset="0.6652" style="stop-color:#C9C7B7;stop-opacity:0.3326"/>
					<stop  offset="0.7498" style="stop-color:#B1AE97;stop-opacity:0.3749"/>
					<stop  offset="0.8297" style="stop-color:#949070;stop-opacity:0.4148"/>
					<stop  offset="0.9057" style="stop-color:#736D44;stop-opacity:0.4528"/>
					<stop  offset="0.9761" style="stop-color:#4E4712;stop-opacity:0.4881"/>
					<stop  offset="1" style="stop-color:#403900;stop-opacity:0.5"/>
				</linearGradient>
				<polygon opacity="0.8" fill="url(#SVGID_5_)" enable-background="new    " points="1336.105,466.196 1430.183,346.767 
					1411.946,317.774 1300.906,419.244 1323.133,466.758 				"/>
				
					<linearGradient id="SVGID_6_" gradientUnits="userSpaceOnUse" x1="677.0444" y1="1843.8887" x2="416.4575" y2="1635.4192" gradientTransform="matrix(1 5.509040e-04 5.509040e-04 -1 692.9507 1821.2878)">
					<stop  offset="0" style="stop-color:#FFFFFF;stop-opacity:0"/>
					<stop  offset="0.2264" style="stop-color:#FDFDFC;stop-opacity:0.1132"/>
					<stop  offset="0.3626" style="stop-color:#F7F7F4;stop-opacity:0.1813"/>
					<stop  offset="0.475" style="stop-color:#ECEBE6;stop-opacity:0.2375"/>
					<stop  offset="0.5744" style="stop-color:#DDDCD1;stop-opacity:0.2872"/>
					<stop  offset="0.6652" style="stop-color:#C9C7B7;stop-opacity:0.3326"/>
					<stop  offset="0.7498" style="stop-color:#B1AE97;stop-opacity:0.3749"/>
					<stop  offset="0.8297" style="stop-color:#949070;stop-opacity:0.4148"/>
					<stop  offset="0.9057" style="stop-color:#736D44;stop-opacity:0.4528"/>
					<stop  offset="0.9761" style="stop-color:#4E4712;stop-opacity:0.4881"/>
					<stop  offset="1" style="stop-color:#403900;stop-opacity:0.5"/>
				</linearGradient>
				<polygon opacity="0.8" fill="url(#SVGID_6_)" enable-background="new    " points="1091.633,157.362 1228.711,91.508 
					1252.991,115.638 1129.802,201.922 1089.451,165.381 				"/>
				<polygon fill="#FFFFFF" points="428.354,989.78 1189.979,372.231 1262.518,469.06 1336.033,466.267 1237.554,334.822 
					1411.953,171.501 1386.822,139.779 1198.41,282.173 1091.554,157.417 1072.796,228.555 1151.542,320.458 399.027,952.279 				
					"/>
				<polygon opacity="0.9" fill="#D5B61C" enable-background="new    " points="428.351,989.78 1189.97,372.231 1262.518,469.06 
					1336.033,466.267 1237.554,334.822 1411.946,171.501 1386.815,139.778 1198.406,282.173 1091.554,157.417 1072.796,228.555 
					1151.542,320.458 399.027,952.279 				"/>
				
					<linearGradient id="SVGID_7_" gradientUnits="userSpaceOnUse" x1="-488.3604" y1="904.0537" x2="-168.6582" y2="904.0537" gradientTransform="matrix(1 5.509040e-04 5.509040e-04 -1 692.9507 1821.2878)">
					<stop  offset="0" style="stop-color:#FFFFFF;stop-opacity:0"/>
					<stop  offset="0.2264" style="stop-color:#FDFDFC;stop-opacity:0.1132"/>
					<stop  offset="0.3626" style="stop-color:#F7F7F4;stop-opacity:0.1813"/>
					<stop  offset="0.475" style="stop-color:#ECEBE6;stop-opacity:0.2375"/>
					<stop  offset="0.5744" style="stop-color:#DDDCD1;stop-opacity:0.2872"/>
					<stop  offset="0.6652" style="stop-color:#C9C7B7;stop-opacity:0.3326"/>
					<stop  offset="0.7498" style="stop-color:#B1AE97;stop-opacity:0.3749"/>
					<stop  offset="0.8297" style="stop-color:#949070;stop-opacity:0.4148"/>
					<stop  offset="0.9057" style="stop-color:#736D44;stop-opacity:0.4528"/>
					<stop  offset="0.9761" style="stop-color:#4E4712;stop-opacity:0.4881"/>
					<stop  offset="1" style="stop-color:#403900;stop-opacity:0.5"/>
				</linearGradient>
				<polyline opacity="0.8" fill="url(#SVGID_7_)" enable-background="new    " points="527.541,844.38 527.507,909.382 
					428.354,989.78 399.027,952.279 				"/>
				
					<linearGradient id="SVGID_8_" gradientUnits="userSpaceOnUse" x1="45.1938" y1="1109.5293" x2="-86.9674" y2="997.5504" gradientTransform="matrix(1 0.0094 0.0094 -1 672.0021 1821.1107)">
					<stop  offset="0" style="stop-color:#FFFFFF;stop-opacity:0"/>
					<stop  offset="0.2264" style="stop-color:#FDFDFC;stop-opacity:0.1132"/>
					<stop  offset="0.3626" style="stop-color:#F7F7F4;stop-opacity:0.1813"/>
					<stop  offset="0.475" style="stop-color:#ECEBE6;stop-opacity:0.2375"/>
					<stop  offset="0.5744" style="stop-color:#DDDCD1;stop-opacity:0.2872"/>
					<stop  offset="0.6652" style="stop-color:#C9C7B7;stop-opacity:0.3326"/>
					<stop  offset="0.7498" style="stop-color:#B1AE97;stop-opacity:0.3749"/>
					<stop  offset="0.8297" style="stop-color:#949070;stop-opacity:0.4148"/>
					<stop  offset="0.9057" style="stop-color:#736D44;stop-opacity:0.4528"/>
					<stop  offset="0.9761" style="stop-color:#4E4712;stop-opacity:0.4881"/>
					<stop  offset="1" style="stop-color:#403900;stop-opacity:0.5"/>
				</linearGradient>
				<polygon fill="url(#SVGID_8_)" points="610.959,841.716 577.156,802.721 709.542,691.567 745.144,732.912 				"/>
				
					<linearGradient id="SVGID_9_" gradientUnits="userSpaceOnUse" x1="96.4785" y1="1164.1484" x2="388.7514" y2="1402.4635" gradientTransform="matrix(1 5.509040e-04 5.509040e-04 -1 692.9507 1821.2878)">
					<stop  offset="0" style="stop-color:#FFFFFF;stop-opacity:0"/>
					<stop  offset="0.0632" style="stop-color:#E0DFD5;stop-opacity:0.0632"/>
					<stop  offset="0.1848" style="stop-color:#A8A48A;stop-opacity:0.1848"/>
					<stop  offset="0.2937" style="stop-color:#7B764F;stop-opacity:0.2937"/>
					<stop  offset="0.3858" style="stop-color:#5B5524;stop-opacity:0.3858"/>
					<stop  offset="0.4575" style="stop-color:#47410A;stop-opacity:0.4575"/>
					<stop  offset="0.5" style="stop-color:#403900;stop-opacity:0.5"/>
					<stop  offset="0.5431" style="stop-color:#453D00;stop-opacity:0.4569"/>
					<stop  offset="0.6089" style="stop-color:#534B0E;stop-opacity:0.3911"/>
					<stop  offset="0.6892" style="stop-color:#69602C;stop-opacity:0.3108"/>
					<stop  offset="0.781" style="stop-color:#887F54;stop-opacity:0.219"/>
					<stop  offset="0.8824" style="stop-color:#B7AF91;stop-opacity:0.1176"/>
					<stop  offset="0.9905" style="stop-color:#F5F3EF;stop-opacity:0.0095"/>
					<stop  offset="1" style="stop-color:#FFFFFF;stop-opacity:0"/>
				</linearGradient>
				<path opacity="0.8" fill="url(#SVGID_9_)" enable-background="new    " d="M1074.429,402.816
					c-0.018,31.355-6.573,68.434-6.573,68.434L838.897,656.896l-76.005-9.999l311.702-261.831
					C1074.595,385.066,1074.436,388.349,1074.429,402.816z"/>
			</g>
			<path opacity="0.9" fill="#FFFFFF" enable-background="new    " d="M658.732,91.501h166.83
				c134.233,0,250.188,108.834,250.188,243.054c0,134.249-115.954,243.062-250.188,243.062l-147.406-1.881L819.48,459.584
				c72.975,0,120.033-63.089,120.033-127.878c0-68.932-55.265-129.732-110.385-129.732l-304.405-0.6L658.732,91.501z"/>
			<path opacity="0.9" fill="#4FC4CB" enable-background="new    " d="M658.732,91.501h166.83
				c134.233,0,250.188,108.834,250.188,243.054c0,134.249-115.954,243.062-250.188,243.062l-147.406-1.881L819.48,459.584
				c72.975,0,120.033-63.089,120.033-127.878c0-68.932-55.265-129.732-110.385-129.732l-304.405-0.6L658.732,91.501z"/>
			<polygon fill="#FFFFFF" points="658.732,864.959 248.96,429.265 149.915,510.573 523.613,975.332 			"/>
			<polygon opacity="0.9" fill="#D63D3C" enable-background="new    " points="658.732,864.959 248.886,429.388 149.838,510.698 
				523.538,975.46 			"/>
		</g>
		<g>
			
				<line opacity="0.4" fill="none" stroke="#EC008C" stroke-width="1.8196" stroke-miterlimit="10" enable-background="new    " x1="0" y1="633.579" x2="771.395" y2="-1.819"/>
			
				<line opacity="0.4" fill="none" stroke="#EC008C" stroke-width="1.8196" stroke-miterlimit="10" enable-background="new    " x1="391.518" y1="1082.645" x2="1515.748" y2="156.614"/>
			
				<line opacity="0.4" fill="none" stroke="#EC008C" stroke-width="1.8196" stroke-miterlimit="10" enable-background="new    " x1="514.062" y1="1218.312" x2="1636.173" y2="294.032"/>
			
				<line opacity="0.4" fill="none" stroke="#EC008C" stroke-width="1.8196" stroke-miterlimit="10" enable-background="new    " x1="253.847" y1="925.062" x2="1376.904" y2="0"/>
			
				<line opacity="0.4" fill="none" stroke="#EC008C" stroke-width="1.8196" stroke-miterlimit="10" enable-background="new    " x1="345.123" y1="1027.395" x2="1468.178" y2="102.334"/>
			
				<line opacity="0.4" fill="none" stroke="#EC008C" stroke-width="1.8196" stroke-miterlimit="10" enable-background="new    " x1="136.239" y1="394.927" x2="774.077" y2="1122.759"/>
			
				<line opacity="0.4" fill="none" stroke="#EC008C" stroke-width="1.8196" stroke-miterlimit="10" enable-background="new    " x1="422.706" y1="165.183" x2="1057.849" y2="889.94"/>
		</g>
	</g>
</g>
<g id="Layer_2" display="none">
	<line display="inline" fill="none" stroke="#000000" stroke-miterlimit="10" x1="2194" y1="-1185.413" x2="2883" y2="-916.187"/>
	
		<line display="inline" fill="none" stroke="#000000" stroke-miterlimit="10" x1="3235.255" y1="-1334.272" x2="2687.157" y2="-992.916"/>
	
		<line display="inline" fill="none" stroke="#000000" stroke-miterlimit="10" x1="3235.098" y1="-1204.839" x2="2687" y2="-863.482"/>
	
		<line display="inline" fill="none" stroke="#000000" stroke-miterlimit="10" x1="3235.098" y1="-1235.038" x2="2687" y2="-893.682"/>
	
		<line display="inline" fill="none" stroke="#000000" stroke-miterlimit="10" x1="3235.098" y1="-1271.103" x2="2687" y2="-929.747"/>
	<line display="inline" fill="none" stroke="#000000" stroke-miterlimit="10" x1="2194" y1="-1035.897" x2="2883" y2="-766.671"/>
	<line display="inline" fill="none" stroke="#000000" stroke-miterlimit="10" x1="2194" y1="-1055.941" x2="2883" y2="-786.714"/>
	<line display="inline" fill="none" stroke="#000000" stroke-miterlimit="10" x1="2194" y1="-1078.36" x2="2883" y2="-809.133"/>
	<line display="inline" fill="none" stroke="#000000" stroke-miterlimit="10" x1="2194" y1="-1155.226" x2="2883" y2="-885.999"/>
	<line display="inline" fill="none" stroke="#000000" stroke-miterlimit="10" x1="2194" y1="-1102.763" x2="2883" y2="-833.537"/>
	<line display="inline" fill="none" stroke="#000000" stroke-miterlimit="10" x1="2687" y1="-1035.897" x2="2687" y2="-766.671"/>
	<line display="inline" fill="none" stroke="#000000" stroke-miterlimit="10" x1="2942" y1="-1213.3" x2="2942" y2="-944.073"/>
	<line display="inline" fill="none" stroke="#000000" stroke-miterlimit="10" x1="2982" y1="-1243.8" x2="2982" y2="-974.573"/>
	<line display="inline" fill="none" stroke="#000000" stroke-miterlimit="10" x1="2669" y1="-1035.897" x2="2669" y2="-766.671"/>
	<line display="inline" fill="none" stroke="#000000" stroke-miterlimit="10" x1="2659" y1="-1035.897" x2="2659" y2="-766.671"/>
	<line display="inline" fill="none" stroke="#000000" stroke-miterlimit="10" x1="2625" y1="-1068.897" x2="2625" y2="-799.671"/>
	<line display="inline" fill="none" stroke="#000000" stroke-miterlimit="10" x1="2522" y1="-1123.897" x2="2522" y2="-854.671"/>
	<line display="inline" fill="none" stroke="#000000" stroke-miterlimit="10" x1="2226" y1="-1241.187" x2="2226" y2="-977.187"/>
	<line display="inline" fill="none" stroke="#000000" stroke-miterlimit="10" x1="2244" y1="-1241.187" x2="2244" y2="-977.187"/>
	<line display="inline" fill="none" stroke="#000000" stroke-miterlimit="10" x1="2254" y1="-1241.187" x2="2254" y2="-977.187"/>
	<line display="inline" fill="none" stroke="#000000" stroke-miterlimit="10" x1="2274" y1="-1198.187" x2="2274" y2="-959.187"/>
	<line display="inline" fill="none" stroke="#000000" stroke-miterlimit="10" x1="2405" y1="-1214.511" x2="2405" y2="-945.284"/>
	
		<line display="inline" fill="none" stroke="#000000" stroke-miterlimit="10" x1="2456.5" y1="-1168.774" x2="2456.5" y2="-899.547"/>
</g>
<g id="Layer_3">
	<g>
		<rect x="828" y="-1296.76" fill="#4FC4CB" width="393.026" height="680.054"/>
		<rect x="1238.974" y="-1296.76" opacity="0.9" fill="#D63D3C" enable-background="new    " width="393.026" height="680.054"/>
		<text transform="matrix(1 0 0 1 1277.7373 -720.4727)" fill="#FFFFFF" font-family="'Montserrat-Regular'" font-size="19.991">RED</text>
		<text transform="matrix(1 0 0 1 1277.7373 -696.4834)" fill="#FFFFFF" font-family="'Montserrat-Regular'" font-size="19.991">213,61,59</text>
		<text transform="matrix(1 0 0 1 1277.7373 -672.4941)" fill="#FFFFFF" font-family="'Montserrat-Regular'" font-size="19.991">#d53d3b</text>
		<text transform="matrix(1 0 0 1 866.0488 -720.4727)" fill="#FFFFFF" font-family="'Montserrat-Regular'" font-size="19.991">BLUE</text>
		<text transform="matrix(1 0 0 1 866.0488 -696.4834)" fill="#FFFFFF" font-family="'Montserrat-Regular'" font-size="19.991">79,195,203</text>
		<text transform="matrix(1 0 0 1 866.0488 -672.4941)" fill="#FFFFFF" font-family="'Montserrat-Regular'" font-size="19.991">#4fc3cb</text>
		<rect x="828" y="-601.707" fill="#9D8081" width="804" height="97.946"/>
		<rect x="828" y="-485.707" fill="#D5B72A" width="804" height="97.946"/>
		<g>
			<text transform="matrix(1 0 0 1 867.0498 -571.6992)" fill="#FFFFFF" font-family="'Montserrat-Regular'" font-size="19.991">PURPLE</text>
			<text transform="matrix(1 0 0 1 867.0498 -547.7109)" fill="#FFFFFF" font-family="'Montserrat-Regular'" font-size="19.991">157,128,129</text>
			<text transform="matrix(1 0 0 1 867.0498 -523.7207)" fill="#FFFFFF" font-family="'Montserrat-Regular'" font-size="19.991">#9d8081</text>
		</g>
		<g>
			<text transform="matrix(1 0 0 1 867.0498 -455.6895)" fill="#FFFFFF" font-family="'Montserrat-Regular'" font-size="19.991">GOLD</text>
			<text transform="matrix(1 0 0 1 867.0498 -431.7002)" fill="#FFFFFF" font-family="'Montserrat-Regular'" font-size="19.991">213,182,28</text>
			<text transform="matrix(1 0 0 1 867.0498 -407.71)" fill="#FFFFFF" font-family="'Montserrat-Regular'" font-size="19.991">#d5b61c</text>
		</g>
		<text transform="matrix(1 0 0 1 177.9136 -1173.8086)" font-family="'Neris-Black'" font-size="107.4814">Neris - Black</text>
		<text transform="matrix(1 0 0 1 -1.7944 -1044.8311)" font-family="'Neris-SemiBold'" font-size="107.4814">Neris - SemiBold</text>
		<text transform="matrix(1 0 0 1 223.1606 -915.8535)" font-family="'Neris-Light'" font-size="107.4814">Neris - Light</text>
		<g>
			<path fill="#FFFFFF" d="M1559.898-1080.447c-13.351,8.318-248.317,154.657-248.317,154.657l-346.724-135.324l47.657-72.127
				c0,0,81.251-50.604,88.146-54.897c6.896-4.294,10.036-2.354,10.036,4.83v24.06c0,16.173,6.703,25.25,18.72,17.768
				c12.005-7.472,20.255-24.769,20.255-42.038v-35.142c0-33.336-20.255-48.837-38.975-37.188
				c-13.35,8.317-248.472,154.676-248.472,154.676v126.151l17.537,6.858l9.749,23.338L909-937.209l127.641,49.875l50.184-45.111
				l50.182,84.325l127.649,49.885l18.307,7.155l10.929-15.271l17.537,6.685l77.785-48.453l72.503-109.718
				c0,0,81.241-50.596,88.138-54.889c6.896-4.302,10.047-2.362,10.047,4.822v24.059c0,16.173,6.703,25.259,18.709,17.777
				c12.015-7.482,20.265-24.779,20.265-42.048v-35.142C1598.872-1076.595,1578.607-1092.096,1559.898-1080.447z M1036.007-929.007
				c0,9.95-4.562,11.852-13.638,8.308c-9.067-3.544-91.173-35.632-100.364-39.214c-9.192-3.592-13.639-9.739-13.639-18.978v-24.895
				l31.646-19.737l9.402-14.223c27.554,10.766,66.135,25.835,72.954,28.505c10.132,3.957,13.638,9.221,13.638,18.978
				L1036.007-929.007L1036.007-929.007z M1264.654-839.611c0,9.951-4.571,11.853-13.639,8.309
				c-9.075-3.544-91.183-35.623-100.373-39.214c-9.19-3.592-13.639-9.739-13.639-18.979v-61.255c0-9.259,3.486-12.274,13.647-8.308
				c10.15,3.966,90.23,35.257,100.364,39.224c10.123,3.948,13.638,9.21,13.638,18.968L1264.654-839.611L1264.654-839.611z"/>
			
				<linearGradient id="SVGID_10_" gradientUnits="userSpaceOnUse" x1="630.0669" y1="2682.1094" x2="909.5371" y2="2867.9426" gradientTransform="matrix(1 0 0 -1 684 1823.3125)">
				<stop  offset="0" style="stop-color:#49524E;stop-opacity:0.8"/>
				<stop  offset="1" style="stop-color:#C5E6DC;stop-opacity:0"/>
			</linearGradient>
			<path opacity="0.2" fill="url(#SVGID_10_)" enable-background="new    " d="M1311.424-799.669l77.788-48.448l72.501-109.72
				c0,0,81.246-50.601,88.143-54.895c6.896-4.296,10.041-2.354,10.041,4.829c0,7.186,0,16.567,0,24.061
				c0,16.172,6.701,25.25,18.713,17.77c12.014-7.481,20.263-24.777,20.263-42.044c0-11.477,0-28.488,0-35.142
				c0-33.337-20.263-48.838-38.976-37.184c-13.348,8.313-248.318,154.654-248.318,154.654L1311.424-799.669z"/>
			
				<linearGradient id="SVGID_11_" gradientUnits="userSpaceOnUse" x1="178.2285" y1="2983.7168" x2="465.6729" y2="2983.7168" gradientTransform="matrix(1 0 0 -1 684 1823.3125)">
				<stop  offset="0" style="stop-color:#49524E;stop-opacity:0.8"/>
				<stop  offset="1" style="stop-color:#C5E6DC;stop-opacity:0"/>
			</linearGradient>
			<path opacity="0.2" fill="url(#SVGID_11_)" enable-background="new    " d="M1149.673-1218.661v35.142
				c0,17.269-8.25,34.566-20.255,42.038c-12.016,7.482-18.72-1.594-18.72-17.768v-24.06c0-7.183-3.141-9.124-10.036-4.83
				c-6.896,4.293-88.146,54.898-88.146,54.898l-47.656,72.127l-102.631-40.059c0,0,235.121-146.359,248.471-154.676
				C1129.418-1267.498,1149.673-1251.998,1149.673-1218.661z"/>
			<g>
				<path opacity="0.9" fill="#D63D3C" stroke="#000000" stroke-miterlimit="10" enable-background="new    " d="M1137.007-950.748
					c0,9.269,0,52.021,0,61.257c0,9.236,4.448,15.38,13.64,18.971c9.19,3.591,91.297,35.674,100.369,39.22
					c9.072,3.544,13.639,1.637,13.639-8.312c0-9.951,0-51.502,0-61.256c0-9.755-3.511-15.014-13.639-18.97
					c-10.129-3.959-90.214-35.25-100.365-39.219C1140.495-963.025,1137.007-960.014,1137.007-950.748z"/>
				<path fill="#4FC4CB" stroke="#000000" stroke-miterlimit="10" d="M908.363-1040.146c0,9.268,0,52.021,0,61.256
					s4.447,15.38,13.639,18.971s91.298,35.674,100.369,39.221c9.073,3.543,13.639,1.636,13.639-8.312c0-9.949,0-51.502,0-61.257
					c0-9.755-3.51-15.012-13.639-18.97c-10.128-3.958-90.213-35.25-100.365-39.218
					C911.852-1052.423,908.363-1049.412,908.363-1040.146z"/>
			</g>
			
				<linearGradient id="SVGID_12_" gradientUnits="userSpaceOnUse" x1="178.2266" y1="2769.4385" x2="627.582" y2="2769.4385" gradientTransform="matrix(1 0 0 -1 684 1823.3125)">
				<stop  offset="0" style="stop-color:#C5E6DC;stop-opacity:0"/>
				<stop  offset="1" style="stop-color:#49524E;stop-opacity:0.8"/>
			</linearGradient>
			<path opacity="0.2" fill="url(#SVGID_12_)" enable-background="new    " d="M964.857-1061.113l-102.631-40.059v126.151
				l17.537,6.858l9.749,23.338L909-937.209l127.641,49.875l50.184-45.111l50.182,84.325l127.649,49.885l18.307,7.155l10.929-15.271
				l17.537,6.685l0.154-126.122L964.857-1061.113z M1036.007-929.007c0,9.95-4.562,11.852-13.638,8.308
				c-9.067-3.544-91.173-35.632-100.364-39.214c-9.192-3.592-13.639-9.739-13.639-18.978v-61.256c0-9.269,3.485-12.275,13.639-8.308
				c3.313,1.297,14.07,5.494,27.41,10.709c27.554,10.766,66.135,25.835,72.954,28.505c10.132,3.957,13.638,9.221,13.638,18.978
				V-929.007L1036.007-929.007z M1264.654-839.611c0,9.951-4.571,11.853-13.639,8.309c-9.075-3.544-91.183-35.623-100.373-39.214
				c-9.19-3.592-13.639-9.739-13.639-18.979v-61.255c0-9.259,3.486-12.274,13.647-8.308c10.15,3.966,90.23,35.257,100.364,39.224
				c10.123,3.948,13.638,9.21,13.638,18.968L1264.654-839.611L1264.654-839.611z"/>
		</g>
	</g>
</g>
</svg>
