<?xml version="1.0" encoding="utf-8"?>
<!-- Generator: Adobe Illustrator 16.0.0, SVG Export Plug-In . SVG Version: 6.00 Build 0)  -->
<!DOCTYPE svg PUBLIC "-//W3C//DTD SVG 1.1//EN" "http://www.w3.org/Graphics/SVG/1.1/DTD/svg11.dtd">
<svg version="1.1" xmlns="http://www.w3.org/2000/svg" xmlns:xlink="http://www.w3.org/1999/xlink" x="0px" y="0px"
	 width="806.238px" height="373.174px" viewBox="0 0 806.238 373.174" enable-background="new 0 0 806.238 373.174"
	 xml:space="preserve">
<g id="Layer_1">
	<g>
		<polygon fill="#FFFFFF" stroke="#000000" stroke-miterlimit="10" points="2221.241,-519.84 2286.335,-432.403 2244.311,-397.637 
			2132.863,-516.054 		"/>
		<polyline fill="#FFFFFF" stroke="#000000" stroke-miterlimit="10" points="2406.223,-560.544 2445.594,-610.375 
			2437.996,-622.495 2391.55,-580.184 		"/>
		<polyline fill="#FFFFFF" stroke="#000000" stroke-miterlimit="10" points="2304.299,-689.706 2361.601,-717.126 
			2371.728,-707.028 2320.219,-671.064 		"/>
		<polygon fill="#FFFFFF" stroke="#000000" stroke-miterlimit="10" points="2124.073,-395.976 2067.633,-349.872 2068.098,-673.157 
			2124.053,-719.052 		"/>
		<polygon fill="#FFFFFF" stroke="#000000" stroke-miterlimit="10" points="2026.718,-342.396 2345.244,-599.864 2375.482,-559.372 
			2406.193,-560.492 2365.141,-615.46 2438.092,-683.568 2427.617,-696.834 2348.824,-637.477 2304.27,-689.656 2296.39,-659.953 
			2329.223,-621.514 2014.493,-358.08 		"/>
		<path fill="#FFFFFF" stroke="#000000" stroke-miterlimit="10" d="M2124.073-719.052h69.686
			c56.069,0,104.504,45.461,104.504,101.525c0,56.076-48.435,101.528-104.504,101.528h-60.927l57.193-50.306
			c30.481,0,51.331-25.349,51.331-52.412c0-28.793-23.084-54.189-46.108-54.189l-127.15-0.25L2124.073-719.052z"/>
		<polygon fill="#FFFFFF" stroke="#000000" stroke-miterlimit="10" points="2124.073,-395.976 1952.909,-577.967 1911.538,-544.004 
			2067.633,-349.872 		"/>
		<line fill="none" stroke="#00AEEF" stroke-miterlimit="10" x1="1848.043" y1="-491.703" x2="2170.681" y2="-757.46"/>
		<line fill="none" stroke="#00AEEF" stroke-miterlimit="10" x1="2011.797" y1="-303.879" x2="2482.01" y2="-691.194"/>
		<line fill="none" stroke="#00AEEF" stroke-miterlimit="10" x1="2063.051" y1="-247.135" x2="2532.378" y2="-633.719"/>
		<line fill="none" stroke="#00AEEF" stroke-miterlimit="10" x1="1954.216" y1="-370.549" x2="2423.938" y2="-757.46"/>
		<line fill="none" stroke="#00AEEF" stroke-miterlimit="10" x1="1992.392" y1="-326.987" x2="2462.113" y2="-713.897"/>
		<line fill="none" stroke="#00AEEF" stroke-miterlimit="10" x1="1905.024" y1="-591.52" x2="2171.803" y2="-287.101"/>
		<line fill="none" stroke="#00AEEF" stroke-miterlimit="10" x1="2024.841" y1="-687.611" x2="2290.492" y2="-384.479"/>
	</g>
	<g>
		<polygon points="3176.783,-544.012 3218.111,-577.938 3389.306,-395.999 3332.868,-349.89 		"/>
		<polygon points="3333.025,-461.238 3360.949,-431.563 3389.299,-455.816 3389.283,-669.522 3333.324,-669.456 		"/>
		<polygon points="3389.306,-417.147 3380.981,-410.273 3389.306,-401.428 		"/>
		<polygon points="3401.652,-512.298 3455.303,-512.298 3425.584,-486.869 		"/>
		<polygon points="3446.621,-464.514 3496.758,-505.954 3551.527,-432.383 3509.543,-397.66 		"/>
		<polygon points="3455.26,-566.33 3398.151,-516.021 3459.659,-516.029 3474.311,-517.164 3490.969,-521.063 3505.801,-527.112 
			3516.297,-533.104 3525.676,-539.928 3534.026,-547.487 3541.85,-556.3 3547.759,-564.561 3553.188,-574.094 3557.986,-585.399 
			3560.801,-594.886 3562.549,-604.068 3563.494,-617.546 3562.207,-633.262 3557.413,-651.27 3549.023,-668.515 3539.84,-681.25 
			3524.105,-696.416 3512.721,-704.209 3497.626,-711.639 3480.823,-716.747 3466.88,-718.771 3460.664,-719.057 3389.306,-719.072 
			3333.331,-673.179 3389.306,-673.245 3434.121,-673.059 3461.484,-673.059 3471.569,-671.175 3482.653,-665.86 3491.324,-657.151 
			3497.609,-648.536 3502.992,-638.058 3505.688,-628.504 3506.544,-616.696 3504.844,-605.242 3501.006,-594.969 
			3495.035,-585.521 3485.437,-576.181 3476.399,-570.833 3467.953,-567.88 		"/>
		<polygon points="3304.87,-378.671 3317.663,-362.773 3293.998,-343.219 3281.607,-358.766 		"/>
		<polygon opacity="0.9" points="3378.428,-412.992 3363.504,-428.846 3461.06,-512.321 3477.641,-513.921 3492.213,-517.544 
			3505.526,-522.83 3516.566,-528.845 3527.672,-536.737 3539.566,-547.887 3550.203,-561.463 3557.324,-574.064 3561.998,-585.603 
			3566.033,-602.139 3593.451,-625.604 3560.202,-663.685 3567.761,-693.471 3612.879,-641.785 3691.015,-701.997 
			3701.641,-688.839 3629.432,-619.944 3671.064,-565.444 3640.386,-563.969 3609.705,-604.135 		"/>
		<polygon points="3571.215,-695.168 3624.756,-721.514 3634.979,-711.542 3586.905,-677.193 		"/>
		<polygon points="3658.942,-587.456 3702.177,-627.718 3709.905,-615.685 3673.433,-568.489 		"/>
	</g>
	<g>
		<g>
			<polygon opacity="0.7" fill="#FFFFFF" points="891.358,1828.117 1047.195,2037.446 946.587,2120.677 678.23,1835.302 			"/>
			<polyline opacity="0.9" fill="#FFFFFF" points="1333.384,1718.908 1426.335,1598.596 1407.833,1569.777 1297.746,1672.274 			"/>
			<polyline opacity="0.9" fill="#FFFFFF" points="1086.026,1412.36 1222.486,1345.229 1246.991,1369.136 1124.617,1456.572 			"/>
			<polygon opacity="0.9" fill="#4FC4CB" points="891.285,1828.245 1047.124,2037.576 946.515,2120.798 678.156,1835.43 			"/>
			<polyline opacity="0.9" fill="#C4A819" points="1333.312,1719.034 1426.262,1598.717 1407.764,1569.9 1297.673,1672.4 			"/>
			<polyline opacity="0.9" fill="#C4A819" points="1085.955,1412.483 1222.414,1345.352 1246.917,1369.264 1124.548,1456.698 			"/>
			
				<linearGradient id="SVGID_1_" gradientUnits="userSpaceOnUse" x1="1563.8037" y1="1502.9878" x2="1292.7751" y2="1705.3052" gradientTransform="matrix(1 -0.0088 0.0088 1 -4.3011 1.5062)">
				<stop  offset="0" style="stop-color:#FFFFFF;stop-opacity:0"/>
				<stop  offset="0.2264" style="stop-color:#FDFDFC;stop-opacity:0.1132"/>
				<stop  offset="0.3626" style="stop-color:#F7F7F4;stop-opacity:0.1813"/>
				<stop  offset="0.475" style="stop-color:#ECEBE6;stop-opacity:0.2375"/>
				<stop  offset="0.5744" style="stop-color:#DDDCD1;stop-opacity:0.2872"/>
				<stop  offset="0.6652" style="stop-color:#C9C7B7;stop-opacity:0.3326"/>
				<stop  offset="0.7498" style="stop-color:#B1AE97;stop-opacity:0.3749"/>
				<stop  offset="0.8297" style="stop-color:#949070;stop-opacity:0.4148"/>
				<stop  offset="0.9057" style="stop-color:#736D44;stop-opacity:0.4528"/>
				<stop  offset="0.9761" style="stop-color:#4E4712;stop-opacity:0.4881"/>
				<stop  offset="1" style="stop-color:#403900;stop-opacity:0.5"/>
			</linearGradient>
			<polygon opacity="0.8" fill="url(#SVGID_1_)" points="1333.384,1718.962 1426.34,1598.659 1407.833,1569.837 1297.746,1672.341 
				1320.417,1719.645 			"/>
			
				<linearGradient id="SVGID_2_" gradientUnits="userSpaceOnUse" x1="1357.1299" y1="1240.5962" x2="1096.5446" y2="1449.0645" gradientTransform="matrix(1 -0.0088 0.0088 1 -4.3011 1.5062)">
				<stop  offset="0" style="stop-color:#FFFFFF;stop-opacity:0"/>
				<stop  offset="0.2264" style="stop-color:#FDFDFC;stop-opacity:0.1132"/>
				<stop  offset="0.3626" style="stop-color:#F7F7F4;stop-opacity:0.1813"/>
				<stop  offset="0.475" style="stop-color:#ECEBE6;stop-opacity:0.2375"/>
				<stop  offset="0.5744" style="stop-color:#DDDCD1;stop-opacity:0.2872"/>
				<stop  offset="0.6652" style="stop-color:#C9C7B7;stop-opacity:0.3326"/>
				<stop  offset="0.7498" style="stop-color:#B1AE97;stop-opacity:0.3749"/>
				<stop  offset="0.8297" style="stop-color:#949070;stop-opacity:0.4148"/>
				<stop  offset="0.9057" style="stop-color:#736D44;stop-opacity:0.4528"/>
				<stop  offset="0.9761" style="stop-color:#4E4712;stop-opacity:0.4881"/>
				<stop  offset="1" style="stop-color:#403900;stop-opacity:0.5"/>
			</linearGradient>
			<polygon opacity="0.8" fill="url(#SVGID_2_)" points="1086.033,1412.428 1222.49,1345.294 1246.995,1369.197 1124.617,1456.628 
				1083.928,1420.467 			"/>
			<linearGradient id="SVGID_3_" gradientUnits="userSpaceOnUse" x1="862.5859" y1="2158.3052" x2="862.5859" y2="1842.7598">
				<stop  offset="0" style="stop-color:#4FC4CB;stop-opacity:0"/>
				<stop  offset="0.3897" style="stop-color:#4FC2C9;stop-opacity:0.3118"/>
				<stop  offset="0.5301" style="stop-color:#4DBDC4;stop-opacity:0.4241"/>
				<stop  offset="0.6302" style="stop-color:#4AB6BD;stop-opacity:0.5042"/>
				<stop  offset="0.7112" style="stop-color:#45ACB3;stop-opacity:0.569"/>
				<stop  offset="0.7805" style="stop-color:#3F9FA5;stop-opacity:0.6244"/>
				<stop  offset="0.8419" style="stop-color:#368E94;stop-opacity:0.6735"/>
				<stop  offset="0.8974" style="stop-color:#2B7A80;stop-opacity:0.7179"/>
				<stop  offset="0.9484" style="stop-color:#1D6468;stop-opacity:0.7587"/>
				<stop  offset="0.9939" style="stop-color:#05494D;stop-opacity:0.7951"/>
				<stop  offset="1" style="stop-color:#004549;stop-opacity:0.8"/>
			</linearGradient>
			<polygon opacity="0.6" fill="url(#SVGID_3_)" points="891.232,1828.245 1047.07,2037.576 946.457,2120.798 678.103,1835.43 			
				"/>
			<linearGradient id="SVGID_4_" gradientUnits="userSpaceOnUse" x1="1067.666" y1="2131.7944" x2="850.0923" y2="1905.3035">
				<stop  offset="0" style="stop-color:#4FC4CB;stop-opacity:0"/>
				<stop  offset="0.3897" style="stop-color:#4FC2C9;stop-opacity:0.3118"/>
				<stop  offset="0.5301" style="stop-color:#4DBDC4;stop-opacity:0.4241"/>
				<stop  offset="0.6302" style="stop-color:#4AB6BD;stop-opacity:0.5042"/>
				<stop  offset="0.7112" style="stop-color:#45ACB3;stop-opacity:0.569"/>
				<stop  offset="0.7805" style="stop-color:#3F9FA5;stop-opacity:0.6244"/>
				<stop  offset="0.8419" style="stop-color:#368E94;stop-opacity:0.6735"/>
				<stop  offset="0.8974" style="stop-color:#2B7A80;stop-opacity:0.7179"/>
				<stop  offset="0.9484" style="stop-color:#1D6468;stop-opacity:0.7587"/>
				<stop  offset="0.9939" style="stop-color:#05494D;stop-opacity:0.7951"/>
				<stop  offset="1" style="stop-color:#004549;stop-opacity:0.8"/>
			</linearGradient>
			<polygon opacity="0.6" fill="url(#SVGID_4_)" points="907.202,1849.635 1047.124,2037.576 946.515,2120.798 788.461,1952.867 			
				"/>
			<polygon fill="#FFFFFF" points="658.733,2124.654 523.613,2235.027 524.725,1461.069 658.684,1351.196 			"/>
			<polygon opacity="0.9" fill="#9E8082" points="658.733,2124.654 523.613,2235.027 524.725,1461.069 658.733,1351.196 			"/>
			<linearGradient id="SVGID_5_" gradientUnits="userSpaceOnUse" x1="757.1699" y1="1629.4028" x2="459.5165" y2="1923.491">
				<stop  offset="0" style="stop-color:#9D8081;stop-opacity:0"/>
				<stop  offset="0.4048" style="stop-color:#9C8080;stop-opacity:0.3238"/>
				<stop  offset="0.5505" style="stop-color:#997D7E;stop-opacity:0.4404"/>
				<stop  offset="0.6545" style="stop-color:#937879;stop-opacity:0.5236"/>
				<stop  offset="0.7385" style="stop-color:#8A7172;stop-opacity:0.5908"/>
				<stop  offset="0.8106" style="stop-color:#7E6868;stop-opacity:0.6484"/>
				<stop  offset="0.8743" style="stop-color:#705B5C;stop-opacity:0.6994"/>
				<stop  offset="0.9319" style="stop-color:#5E4D4D;stop-opacity:0.7455"/>
				<stop  offset="0.9832" style="stop-color:#4B3C3D;stop-opacity:0.7865"/>
				<stop  offset="1" style="stop-color:#443536;stop-opacity:0.8"/>
			</linearGradient>
			<polygon opacity="0.6" fill="url(#SVGID_5_)" points="658.733,2124.654 523.613,2235.027 524.725,1461.069 658.733,1351.196 			
				"/>
			<linearGradient id="SVGID_6_" gradientUnits="userSpaceOnUse" x1="591.1733" y1="1824.6245" x2="591.1733" y2="1457.132">
				<stop  offset="0" style="stop-color:#9D8081;stop-opacity:0"/>
				<stop  offset="0.4048" style="stop-color:#9C8080;stop-opacity:0.3238"/>
				<stop  offset="0.5505" style="stop-color:#997D7E;stop-opacity:0.4404"/>
				<stop  offset="0.6545" style="stop-color:#937879;stop-opacity:0.5236"/>
				<stop  offset="0.7385" style="stop-color:#8A7172;stop-opacity:0.5908"/>
				<stop  offset="0.8106" style="stop-color:#7E6868;stop-opacity:0.6484"/>
				<stop  offset="0.8743" style="stop-color:#705B5C;stop-opacity:0.6994"/>
				<stop  offset="0.9319" style="stop-color:#5E4D4D;stop-opacity:0.7455"/>
				<stop  offset="0.9832" style="stop-color:#4B3C3D;stop-opacity:0.7865"/>
				<stop  offset="1" style="stop-color:#443536;stop-opacity:0.8"/>
			</linearGradient>
			<polygon opacity="0.6" fill="url(#SVGID_6_)" points="658.733,2124.654 523.613,2235.027 524.725,1461.069 658.733,1351.196 			
				"/>
			<polygon fill="#FFFFFF" points="430.567,2251.012 1186.384,1626.369 1259.825,1722.513 1333.312,1719.034 1233.607,1588.515 
				1406.472,1423.571 1381.046,1392.084 1193.973,1536.235 1085.955,1412.483 1067.863,1483.793 1147.466,1574.957 
				400.892,2213.787 			"/>
			<polygon opacity="0.9" fill="#D5B61C" points="430.565,2251.012 1186.375,1626.369 1259.825,1722.513 1333.312,1719.034 
				1233.607,1588.515 1406.466,1423.571 1381.039,1392.084 1193.97,1536.235 1085.955,1412.483 1067.863,1483.793 
				1147.466,1574.957 400.892,2213.787 			"/>
			
				<linearGradient id="SVGID_7_" gradientUnits="userSpaceOnUse" x1="191.7227" y1="2180.4321" x2="511.4273" y2="2180.4321" gradientTransform="matrix(1 -0.0088 0.0088 1 -4.3011 1.5062)">
				<stop  offset="0" style="stop-color:#FFFFFF;stop-opacity:0"/>
				<stop  offset="0.2264" style="stop-color:#FDFDFC;stop-opacity:0.1132"/>
				<stop  offset="0.3626" style="stop-color:#F7F7F4;stop-opacity:0.1813"/>
				<stop  offset="0.475" style="stop-color:#ECEBE6;stop-opacity:0.2375"/>
				<stop  offset="0.5744" style="stop-color:#DDDCD1;stop-opacity:0.2872"/>
				<stop  offset="0.6652" style="stop-color:#C9C7B7;stop-opacity:0.3326"/>
				<stop  offset="0.7498" style="stop-color:#B1AE97;stop-opacity:0.3749"/>
				<stop  offset="0.8297" style="stop-color:#949070;stop-opacity:0.4148"/>
				<stop  offset="0.9057" style="stop-color:#736D44;stop-opacity:0.4528"/>
				<stop  offset="0.9761" style="stop-color:#4E4712;stop-opacity:0.4881"/>
				<stop  offset="1" style="stop-color:#403900;stop-opacity:0.5"/>
			</linearGradient>
			<polyline opacity="0.8" fill="url(#SVGID_7_)" points="528.391,2104.69 528.965,2169.69 430.567,2251.012 400.892,2213.787 			
				"/>
			<linearGradient id="SVGID_8_" gradientUnits="userSpaceOnUse" x1="727.1724" y1="1970.4976" x2="595.0112" y2="2082.4766">
				<stop  offset="0" style="stop-color:#FFFFFF;stop-opacity:0"/>
				<stop  offset="0.2264" style="stop-color:#FDFDFC;stop-opacity:0.1132"/>
				<stop  offset="0.3626" style="stop-color:#F7F7F4;stop-opacity:0.1813"/>
				<stop  offset="0.475" style="stop-color:#ECEBE6;stop-opacity:0.2375"/>
				<stop  offset="0.5744" style="stop-color:#DDDCD1;stop-opacity:0.2872"/>
				<stop  offset="0.6652" style="stop-color:#C9C7B7;stop-opacity:0.3326"/>
				<stop  offset="0.7498" style="stop-color:#B1AE97;stop-opacity:0.3749"/>
				<stop  offset="0.8297" style="stop-color:#949070;stop-opacity:0.4148"/>
				<stop  offset="0.9057" style="stop-color:#736D44;stop-opacity:0.4528"/>
				<stop  offset="0.9761" style="stop-color:#4E4712;stop-opacity:0.4881"/>
				<stop  offset="1" style="stop-color:#403900;stop-opacity:0.5"/>
			</linearGradient>
			<polygon fill="url(#SVGID_8_)" points="611.78,2101.246 577.614,2062.569 708.955,1950.182 744.941,1991.193 			"/>
			
				<linearGradient id="SVGID_9_" gradientUnits="userSpaceOnUse" x1="776.5625" y1="1920.3384" x2="1068.8368" y2="1682.0222" gradientTransform="matrix(1 -0.0088 0.0088 1 -4.3011 1.5062)">
				<stop  offset="0" style="stop-color:#FFFFFF;stop-opacity:0"/>
				<stop  offset="0.0632" style="stop-color:#E0DFD5;stop-opacity:0.0632"/>
				<stop  offset="0.1848" style="stop-color:#A8A48A;stop-opacity:0.1848"/>
				<stop  offset="0.2937" style="stop-color:#7B764F;stop-opacity:0.2937"/>
				<stop  offset="0.3858" style="stop-color:#5B5524;stop-opacity:0.3858"/>
				<stop  offset="0.4575" style="stop-color:#47410A;stop-opacity:0.4575"/>
				<stop  offset="0.5" style="stop-color:#403900;stop-opacity:0.5"/>
				<stop  offset="0.5431" style="stop-color:#453D00;stop-opacity:0.4569"/>
				<stop  offset="0.6089" style="stop-color:#534B0E;stop-opacity:0.3911"/>
				<stop  offset="0.6892" style="stop-color:#69602C;stop-opacity:0.3108"/>
				<stop  offset="0.781" style="stop-color:#887F54;stop-opacity:0.219"/>
				<stop  offset="0.8824" style="stop-color:#B7AF91;stop-opacity:0.1176"/>
				<stop  offset="0.9905" style="stop-color:#F5F3EF;stop-opacity:0.0095"/>
				<stop  offset="1" style="stop-color:#FFFFFF;stop-opacity:0"/>
			</linearGradient>
			<path opacity="0.8" fill="url(#SVGID_9_)" d="M1071.126,1658.032c0.275,31.354-5.934,68.492-5.934,68.492l-227.211,187.778
				l-76.095-9.288l309.24-264.733C1071.126,1640.281,1070.998,1643.565,1071.126,1658.032z"/>
			<path opacity="0.9" fill="#FFFFFF" d="M658.733,1351.196h166.83c134.233,0,250.187,108.834,250.187,243.054
				c0,134.249-115.954,243.062-250.187,243.062l-147.407-1.881l141.324-116.151c72.975,0,120.034-63.089,120.034-127.878
				c0-68.932-55.265-129.732-110.385-129.732l-304.405-0.6L658.733,1351.196z"/>
			<path opacity="0.9" fill="#4FC4CB" d="M658.733,1351.196h166.83c134.233,0,250.187,108.834,250.187,243.054
				c0,134.249-115.954,243.062-250.187,243.062l-147.407-1.881l141.324-116.151c72.975,0,120.034-63.089,120.034-127.878
				c0-68.932-55.265-129.732-110.385-129.732l-304.405-0.6L658.733,1351.196z"/>
			<polygon fill="#FFFFFF" points="658.733,2124.654 248.96,1688.959 149.915,1770.268 523.613,2235.027 			"/>
			<polygon opacity="0.9" fill="#D63D3C" points="658.733,2124.654 248.886,1689.083 149.838,1770.393 523.538,2235.155 			"/>
		</g>
		<g>
			
				<line opacity="0.4" fill="none" stroke="#EC008C" stroke-width="1.8196" stroke-miterlimit="10" x1="0" y1="1893.274" x2="771.394" y2="1257.875"/>
			
				<line opacity="0.4" fill="none" stroke="#EC008C" stroke-width="1.8196" stroke-miterlimit="10" x1="391.518" y1="2342.339" x2="1515.748" y2="1416.309"/>
			
				<line opacity="0.4" fill="none" stroke="#EC008C" stroke-width="1.8196" stroke-miterlimit="10" x1="514.063" y1="2478.007" x2="1636.173" y2="1553.727"/>
			
				<line opacity="0.4" fill="none" stroke="#EC008C" stroke-width="1.8196" stroke-miterlimit="10" x1="253.847" y1="2184.757" x2="1376.904" y2="1259.695"/>
			
				<line opacity="0.4" fill="none" stroke="#EC008C" stroke-width="1.8196" stroke-miterlimit="10" x1="345.123" y1="2287.089" x2="1468.178" y2="1362.029"/>
			
				<line opacity="0.4" fill="none" stroke="#EC008C" stroke-width="1.8196" stroke-miterlimit="10" x1="136.239" y1="1654.622" x2="774.077" y2="2382.454"/>
			
				<line opacity="0.4" fill="none" stroke="#EC008C" stroke-width="1.8196" stroke-miterlimit="10" x1="422.706" y1="1424.877" x2="1057.849" y2="2149.635"/>
		</g>
	</g>
</g>
<g id="Layer_2" display="none">
	<line display="inline" fill="none" stroke="#000000" stroke-miterlimit="10" x1="2194" y1="74.282" x2="2883" y2="343.508"/>
	
		<line display="inline" fill="none" stroke="#000000" stroke-miterlimit="10" x1="3235.255" y1="-74.578" x2="2687.157" y2="266.779"/>
	<line display="inline" fill="none" stroke="#000000" stroke-miterlimit="10" x1="3235.098" y1="54.856" x2="2687" y2="396.212"/>
	<line display="inline" fill="none" stroke="#000000" stroke-miterlimit="10" x1="3235.098" y1="24.657" x2="2687" y2="366.013"/>
	<line display="inline" fill="none" stroke="#000000" stroke-miterlimit="10" x1="3235.098" y1="-11.408" x2="2687" y2="329.948"/>
	<line display="inline" fill="none" stroke="#000000" stroke-miterlimit="10" x1="2194" y1="223.797" x2="2883" y2="493.024"/>
	<line display="inline" fill="none" stroke="#000000" stroke-miterlimit="10" x1="2194" y1="203.754" x2="2883" y2="472.98"/>
	<line display="inline" fill="none" stroke="#000000" stroke-miterlimit="10" x1="2194" y1="181.335" x2="2883" y2="450.562"/>
	<line display="inline" fill="none" stroke="#000000" stroke-miterlimit="10" x1="2194" y1="104.469" x2="2883" y2="373.696"/>
	<line display="inline" fill="none" stroke="#000000" stroke-miterlimit="10" x1="2194" y1="156.932" x2="2883" y2="426.158"/>
	<line display="inline" fill="none" stroke="#000000" stroke-miterlimit="10" x1="2687" y1="223.797" x2="2687" y2="493.024"/>
	<line display="inline" fill="none" stroke="#000000" stroke-miterlimit="10" x1="2942" y1="46.395" x2="2942" y2="315.622"/>
	<line display="inline" fill="none" stroke="#000000" stroke-miterlimit="10" x1="2982" y1="15.895" x2="2982" y2="285.122"/>
	<line display="inline" fill="none" stroke="#000000" stroke-miterlimit="10" x1="2669" y1="223.797" x2="2669" y2="493.024"/>
	<line display="inline" fill="none" stroke="#000000" stroke-miterlimit="10" x1="2659" y1="223.797" x2="2659" y2="493.024"/>
	<line display="inline" fill="none" stroke="#000000" stroke-miterlimit="10" x1="2625" y1="190.797" x2="2625" y2="460.024"/>
	<line display="inline" fill="none" stroke="#000000" stroke-miterlimit="10" x1="2522" y1="135.797" x2="2522" y2="405.024"/>
	<line display="inline" fill="none" stroke="#000000" stroke-miterlimit="10" x1="2226" y1="18.508" x2="2226" y2="282.508"/>
	<line display="inline" fill="none" stroke="#000000" stroke-miterlimit="10" x1="2244" y1="18.508" x2="2244" y2="282.508"/>
	<line display="inline" fill="none" stroke="#000000" stroke-miterlimit="10" x1="2254" y1="18.508" x2="2254" y2="282.508"/>
	<line display="inline" fill="none" stroke="#000000" stroke-miterlimit="10" x1="2274" y1="61.508" x2="2274" y2="300.508"/>
	<line display="inline" fill="none" stroke="#000000" stroke-miterlimit="10" x1="2405" y1="45.184" x2="2405" y2="314.411"/>
	<line display="inline" fill="none" stroke="#000000" stroke-miterlimit="10" x1="2456.5" y1="90.921" x2="2456.5" y2="360.147"/>
</g>
<g id="Layer_3">
	<g>
		<rect x="828" y="-37.065" fill="#4FC4CB" width="393.026" height="680.054"/>
		<rect x="1238.974" y="-37.065" opacity="0.9" fill="#D63D3C" width="393.026" height="680.054"/>
		<text transform="matrix(1 0 0 1 1277.7373 539.2222)"><tspan x="0" y="0" fill="#FFFFFF" font-family="'Montserrat-Regular'" font-size="19.991">RED</tspan><tspan x="0" y="23.989" fill="#FFFFFF" font-family="'Montserrat-Regular'" font-size="19.991">213,61,59</tspan><tspan x="0" y="47.979" fill="#FFFFFF" font-family="'Montserrat-Regular'" font-size="19.991">#d53d3b</tspan></text>
		<text transform="matrix(1 0 0 1 866.0488 539.2222)"><tspan x="0" y="0" fill="#FFFFFF" font-family="'Montserrat-Regular'" font-size="19.991">BLUE</tspan><tspan x="0" y="23.989" fill="#FFFFFF" font-family="'Montserrat-Regular'" font-size="19.991">79,195,203</tspan><tspan x="0" y="47.979" fill="#FFFFFF" font-family="'Montserrat-Regular'" font-size="19.991">#4fc3cb</tspan></text>
		<rect x="828" y="657.988" fill="#9D8081" width="804" height="97.946"/>
		<rect x="828" y="773.988" fill="#D5B72A" width="804" height="97.946"/>
		<g>
			<text transform="matrix(1 0 0 1 867.0498 687.9951)"><tspan x="0" y="0" fill="#FFFFFF" font-family="'Montserrat-Regular'" font-size="19.991">PURPLE</tspan><tspan x="0" y="23.989" fill="#FFFFFF" font-family="'Montserrat-Regular'" font-size="19.991">157,128,129</tspan><tspan x="0" y="47.979" fill="#FFFFFF" font-family="'Montserrat-Regular'" font-size="19.991">#9d8081</tspan></text>
		</g>
		<g>
			<text transform="matrix(1 0 0 1 867.0498 804.0059)"><tspan x="0" y="0" fill="#FFFFFF" font-family="'Montserrat-Regular'" font-size="19.991">GOLD</tspan><tspan x="0" y="23.989" fill="#FFFFFF" font-family="'Montserrat-Regular'" font-size="19.991">213,182,28</tspan><tspan x="0" y="47.979" fill="#FFFFFF" font-family="'Montserrat-Regular'" font-size="19.991">#d5b61c</tspan></text>
		</g>
		<text transform="matrix(1 0 0 1 177.9136 85.8857)"><tspan x="0" y="0" font-family="'Neris-Black'" font-size="107.4814">Neris - Black</tspan><tspan x="-179.708" y="128.978" font-family="'Neris-SemiBold'" font-size="107.4814">Neris - SemiBold</tspan><tspan x="45.247" y="257.955" font-family="'Neris-Light'" font-size="107.4814">Neris - Light</tspan></text>
		<g>
			<path fill="#FFFFFF" d="M1559.898,179.248c-13.35,8.318-248.317,154.657-248.317,154.657L964.858,198.582l47.657-72.127
				c0,0,81.251-50.605,88.146-54.898c6.896-4.294,10.036-2.353,10.036,4.83v24.06c0,16.173,6.704,25.25,18.72,17.768
				c12.005-7.472,20.255-24.769,20.255-42.038V41.034c0-33.336-20.255-48.837-38.975-37.188
				c-13.349,8.317-248.471,154.676-248.471,154.676v126.151l17.537,6.858l9.749,23.338L909,322.485l127.641,49.875l50.183-45.111
				l50.182,84.325l127.649,49.885l18.307,7.155l10.929-15.271l17.537,6.685l77.785-48.453l72.503-109.718
				c0,0,81.241-50.596,88.137-54.889c6.896-4.302,10.047-2.362,10.047,4.822v24.059c0,16.173,6.704,25.259,18.709,17.777
				c12.015-7.482,20.265-24.779,20.265-42.048v-35.142C1598.872,183.1,1578.607,167.599,1559.898,179.248z M1036.007,330.688
				c0,9.95-4.562,11.852-13.638,8.308c-9.067-3.544-91.173-35.632-100.364-39.214c-9.192-3.592-13.639-9.739-13.639-18.978v-24.895
				l31.646-19.737l9.402-14.223c27.554,10.766,66.135,25.835,72.954,28.505c10.132,3.957,13.638,9.221,13.638,18.978V330.688z
				 M1264.654,420.083c0,9.951-4.571,11.852-13.638,8.308c-9.076-3.544-91.183-35.623-100.374-39.214
				c-9.19-3.592-13.638-9.739-13.638-18.979v-61.255c0-9.259,3.486-12.274,13.647-8.308c10.151,3.966,90.231,35.257,100.364,39.224
				c10.123,3.948,13.638,9.21,13.638,18.968V420.083z"/>
			<linearGradient id="SVGID_10_" gradientUnits="userSpaceOnUse" x1="1314.0654" y1="400.8975" x2="1593.5349" y2="215.0648">
				<stop  offset="0" style="stop-color:#49524E;stop-opacity:0.8"/>
				<stop  offset="1" style="stop-color:#C5E6DC;stop-opacity:0"/>
			</linearGradient>
			<path opacity="0.2" fill="url(#SVGID_10_)" d="M1311.424,460.025l77.788-48.448l72.501-109.72c0,0,81.246-50.601,88.143-54.895
				c6.896-4.296,10.04-2.354,10.04,4.829c0,7.185,0,16.567,0,24.06c0,16.172,6.702,25.25,18.714,17.77
				c12.013-7.481,20.262-24.777,20.262-42.044c0-11.477,0-28.488,0-35.142c0-33.337-20.262-48.838-38.976-37.184
				c-13.347,8.313-248.318,154.654-248.318,154.654L1311.424,460.025z"/>
			<linearGradient id="SVGID_11_" gradientUnits="userSpaceOnUse" x1="862.2275" y1="99.2905" x2="1149.6729" y2="99.2905">
				<stop  offset="0" style="stop-color:#49524E;stop-opacity:0.8"/>
				<stop  offset="1" style="stop-color:#C5E6DC;stop-opacity:0"/>
			</linearGradient>
			<path opacity="0.2" fill="url(#SVGID_11_)" d="M1149.673,41.034v35.142c0,17.269-8.25,34.566-20.255,42.038
				c-12.016,7.482-18.72-1.594-18.72-17.768v-24.06c0-7.183-3.14-9.124-10.036-4.83c-6.896,4.293-88.146,54.898-88.146,54.898
				l-47.657,72.127l-102.631-40.059c0,0,235.122-146.359,248.471-154.676C1129.418-7.803,1149.673,7.697,1149.673,41.034z"/>
			<g>
				<path opacity="0.9" fill="#D63D3C" stroke="#000000" stroke-miterlimit="10" d="M1137.007,308.947c0,9.269,0,52.021,0,61.257
					s4.448,15.38,13.64,18.971c9.19,3.591,91.296,35.674,100.369,39.22c9.072,3.544,13.638,1.637,13.638-8.312
					c0-9.951,0-51.502,0-61.256c0-9.755-3.51-15.014-13.638-18.97c-10.129-3.959-90.214-35.25-100.366-39.219
					C1140.495,296.669,1137.007,299.681,1137.007,308.947z"/>
				<path fill="#4FC4CB" stroke="#000000" stroke-miterlimit="10" d="M908.363,219.549c0,9.268,0,52.021,0,61.256
					c0,9.235,4.448,15.38,13.639,18.971c9.191,3.591,91.298,35.674,100.369,39.221c9.073,3.543,13.639,1.636,13.639-8.313
					c0-9.949,0-51.502,0-61.257s-3.51-15.012-13.639-18.97c-10.128-3.958-90.213-35.25-100.365-39.218
					C911.852,207.272,908.363,210.283,908.363,219.549z"/>
			</g>
			<linearGradient id="SVGID_12_" gradientUnits="userSpaceOnUse" x1="862.2275" y1="313.5684" x2="1311.5811" y2="313.5684">
				<stop  offset="0" style="stop-color:#C5E6DC;stop-opacity:0"/>
				<stop  offset="1" style="stop-color:#49524E;stop-opacity:0.8"/>
			</linearGradient>
			<path opacity="0.2" fill="url(#SVGID_12_)" d="M964.858,198.582l-102.631-40.059v126.151l17.537,6.858l9.749,23.338L909,322.485
				l127.641,49.875l50.183-45.111l50.182,84.325l127.649,49.885l18.307,7.155l10.929-15.271l17.537,6.685l0.154-126.122
				L964.858,198.582z M1036.007,330.688c0,9.95-4.562,11.852-13.638,8.308c-9.067-3.544-91.173-35.632-100.364-39.214
				c-9.192-3.592-13.639-9.739-13.639-18.978v-61.256c0-9.269,3.486-12.275,13.639-8.308c3.313,1.297,14.07,5.494,27.41,10.709
				c27.554,10.766,66.135,25.835,72.954,28.505c10.132,3.957,13.638,9.221,13.638,18.978V330.688z M1264.654,420.083
				c0,9.951-4.571,11.852-13.638,8.308c-9.076-3.544-91.183-35.623-100.374-39.214c-9.19-3.592-13.638-9.739-13.638-18.979v-61.255
				c0-9.259,3.486-12.274,13.647-8.308c10.151,3.966,90.231,35.257,100.364,39.224c10.123,3.948,13.638,9.21,13.638,18.968V420.083z
				"/>
		</g>
	</g>
</g>
</svg>
