<?xml version="1.0" encoding="utf-8"?>
<!-- Generator: Adobe Illustrator 16.0.0, SVG Export Plug-In . SVG Version: 6.00 Build 0)  -->
<!DOCTYPE svg PUBLIC "-//W3C//DTD SVG 1.1//EN" "http://www.w3.org/Graphics/SVG/1.1/DTD/svg11.dtd">
<svg version="1.1" xmlns="http://www.w3.org/2000/svg" xmlns:xlink="http://www.w3.org/1999/xlink" x="0px" y="0px" width="804px"
	 height="909px" viewBox="0 0 804 909" enable-background="new 0 0 804 909" xml:space="preserve">
<g id="Layer_1">
	<g>
		<polygon fill="#FFFFFF" stroke="#000000" stroke-miterlimit="10" points="1393.241,-482.775 1458.335,-395.337 1416.311,-360.572 
			1304.863,-478.988 		"/>
		<polyline fill="#FFFFFF" stroke="#000000" stroke-miterlimit="10" points="1578.223,-523.479 1617.594,-573.309 1609.996,-585.43 
			1563.55,-543.119 		"/>
		<polyline fill="#FFFFFF" stroke="#000000" stroke-miterlimit="10" points="1476.299,-652.641 1533.601,-680.061 
			1543.728,-669.963 1492.219,-633.999 		"/>
		<polygon fill="#FFFFFF" stroke="#000000" stroke-miterlimit="10" points="1296.073,-358.911 1239.633,-312.807 1240.098,-636.092 
			1296.053,-681.987 		"/>
		<polygon fill="#FFFFFF" stroke="#000000" stroke-miterlimit="10" points="1198.718,-305.331 1517.244,-562.798 1547.482,-522.307 
			1578.193,-523.426 1537.141,-578.395 1610.092,-646.502 1599.617,-659.769 1520.824,-600.412 1476.27,-652.59 1468.39,-622.887 
			1501.223,-584.448 1186.493,-321.014 		"/>
		<path fill="#FFFFFF" stroke="#000000" stroke-miterlimit="10" d="M1296.073-681.987h69.686
			c56.069,0,104.504,45.461,104.504,101.525c0,56.076-48.435,101.528-104.504,101.528h-60.927l57.193-50.306
			c30.481,0,51.331-25.349,51.331-52.412c0-28.793-23.084-54.189-46.108-54.189l-127.15-0.25L1296.073-681.987z"/>
		<polygon fill="#FFFFFF" stroke="#000000" stroke-miterlimit="10" points="1296.073,-358.911 1124.909,-540.901 1083.538,-506.939 
			1239.633,-312.807 		"/>
		<line fill="none" stroke="#00AEEF" stroke-miterlimit="10" x1="1020.043" y1="-454.637" x2="1342.681" y2="-720.395"/>
		<line fill="none" stroke="#00AEEF" stroke-miterlimit="10" x1="1183.797" y1="-266.814" x2="1654.01" y2="-654.129"/>
		<line fill="none" stroke="#00AEEF" stroke-miterlimit="10" x1="1235.051" y1="-210.07" x2="1704.378" y2="-596.654"/>
		<line fill="none" stroke="#00AEEF" stroke-miterlimit="10" x1="1126.216" y1="-333.484" x2="1595.938" y2="-720.395"/>
		<line fill="none" stroke="#00AEEF" stroke-miterlimit="10" x1="1164.392" y1="-289.922" x2="1634.113" y2="-676.832"/>
		<line fill="none" stroke="#00AEEF" stroke-miterlimit="10" x1="1077.024" y1="-554.455" x2="1343.803" y2="-250.036"/>
		<line fill="none" stroke="#00AEEF" stroke-miterlimit="10" x1="1196.841" y1="-650.546" x2="1462.492" y2="-347.413"/>
	</g>
	<g>
		<polygon points="2348.783,-506.947 2390.111,-540.873 2561.306,-358.933 2504.868,-312.825 		"/>
		<polygon points="2505.025,-424.173 2532.949,-394.498 2561.299,-418.751 2561.283,-632.457 2505.324,-632.39 		"/>
		<polygon points="2561.306,-380.082 2552.981,-373.208 2561.306,-364.362 		"/>
		<polygon points="2573.652,-475.233 2627.303,-475.233 2597.584,-449.803 		"/>
		<polygon points="2618.621,-427.449 2668.758,-468.888 2723.527,-395.318 2681.543,-360.594 		"/>
		<polygon points="2627.26,-529.264 2570.151,-478.956 2631.659,-478.963 2646.311,-480.098 2662.969,-483.998 2677.801,-490.046 
			2688.297,-496.039 2697.676,-502.862 2706.026,-510.421 2713.85,-519.234 2719.759,-527.496 2725.188,-537.029 2729.986,-548.334 
			2732.801,-557.821 2734.549,-567.002 2735.494,-580.481 2734.207,-596.196 2729.413,-614.205 2721.023,-631.45 2711.84,-644.184 
			2696.105,-659.35 2684.721,-667.144 2669.626,-674.573 2652.823,-679.681 2638.88,-681.706 2632.664,-681.991 2561.306,-682.007 
			2505.331,-636.113 2561.306,-636.18 2606.121,-635.994 2633.484,-635.994 2643.569,-634.109 2654.653,-628.795 2663.324,-620.086 
			2669.609,-611.47 2674.992,-600.993 2677.688,-591.439 2678.544,-579.631 2676.844,-568.176 2673.006,-557.904 2667.035,-548.456 
			2657.437,-539.115 2648.399,-533.768 2639.953,-530.814 		"/>
		<polygon points="2476.87,-341.605 2489.663,-325.708 2465.998,-306.153 2453.607,-321.701 		"/>
		<polygon opacity="0.9" points="2550.428,-375.926 2535.504,-391.781 2633.06,-475.255 2649.641,-476.856 2664.213,-480.479 
			2677.526,-485.764 2688.566,-491.78 2699.672,-499.671 2711.566,-510.822 2722.203,-524.397 2729.324,-536.999 2733.998,-548.538 
			2738.033,-565.074 2765.451,-588.538 2732.202,-626.619 2739.761,-656.405 2784.879,-604.719 2863.015,-664.931 
			2873.641,-651.773 2801.432,-582.878 2843.064,-528.378 2812.386,-526.903 2781.705,-567.07 		"/>
		<polygon points="2743.215,-658.103 2796.756,-684.449 2806.979,-674.477 2758.905,-640.127 		"/>
		<polygon points="2830.942,-550.39 2874.177,-590.653 2881.905,-578.619 2845.433,-531.424 		"/>
	</g>
	<g>
		<g>
			<polygon opacity="0.7" fill="#FFFFFF" points="63.358,1865.182 219.195,2074.511 118.587,2157.743 -149.77,1872.368 			"/>
			<polyline opacity="0.9" fill="#FFFFFF" points="505.384,1755.973 598.335,1635.662 579.833,1606.842 469.746,1709.339 			"/>
			<polyline opacity="0.9" fill="#FFFFFF" points="258.026,1449.425 394.486,1382.294 418.991,1406.202 296.617,1493.637 			"/>
			<polygon opacity="0.9" fill="#4FC4CB" points="63.285,1865.31 219.124,2074.641 118.515,2157.864 -149.844,1872.496 			"/>
			<polyline opacity="0.9" fill="#C4A819" points="505.312,1756.099 598.262,1635.783 579.764,1606.965 469.673,1709.465 			"/>
			<polyline opacity="0.9" fill="#C4A819" points="257.955,1449.548 394.414,1382.417 418.917,1406.33 296.548,1493.763 			"/>
			
				<linearGradient id="SVGID_1_" gradientUnits="userSpaceOnUse" x1="735.8037" y1="1540.0532" x2="464.7751" y2="1742.3706" gradientTransform="matrix(1 -0.0088 0.0088 1 -4.6273 -5.7802)">
				<stop  offset="0" style="stop-color:#FFFFFF;stop-opacity:0"/>
				<stop  offset="0.2264" style="stop-color:#FDFDFC;stop-opacity:0.1132"/>
				<stop  offset="0.3626" style="stop-color:#F7F7F4;stop-opacity:0.1813"/>
				<stop  offset="0.475" style="stop-color:#ECEBE6;stop-opacity:0.2375"/>
				<stop  offset="0.5744" style="stop-color:#DDDCD1;stop-opacity:0.2872"/>
				<stop  offset="0.6652" style="stop-color:#C9C7B7;stop-opacity:0.3326"/>
				<stop  offset="0.7498" style="stop-color:#B1AE97;stop-opacity:0.3749"/>
				<stop  offset="0.8297" style="stop-color:#949070;stop-opacity:0.4148"/>
				<stop  offset="0.9057" style="stop-color:#736D44;stop-opacity:0.4528"/>
				<stop  offset="0.9761" style="stop-color:#4E4712;stop-opacity:0.4881"/>
				<stop  offset="1" style="stop-color:#403900;stop-opacity:0.5"/>
			</linearGradient>
			<polygon opacity="0.8" fill="url(#SVGID_1_)" points="505.384,1756.028 598.34,1635.724 579.833,1606.903 469.746,1709.407 
				492.417,1756.71 			"/>
			
				<linearGradient id="SVGID_2_" gradientUnits="userSpaceOnUse" x1="529.1299" y1="1277.6616" x2="268.5445" y2="1486.1299" gradientTransform="matrix(1 -0.0088 0.0088 1 -4.6273 -5.7802)">
				<stop  offset="0" style="stop-color:#FFFFFF;stop-opacity:0"/>
				<stop  offset="0.2264" style="stop-color:#FDFDFC;stop-opacity:0.1132"/>
				<stop  offset="0.3626" style="stop-color:#F7F7F4;stop-opacity:0.1813"/>
				<stop  offset="0.475" style="stop-color:#ECEBE6;stop-opacity:0.2375"/>
				<stop  offset="0.5744" style="stop-color:#DDDCD1;stop-opacity:0.2872"/>
				<stop  offset="0.6652" style="stop-color:#C9C7B7;stop-opacity:0.3326"/>
				<stop  offset="0.7498" style="stop-color:#B1AE97;stop-opacity:0.3749"/>
				<stop  offset="0.8297" style="stop-color:#949070;stop-opacity:0.4148"/>
				<stop  offset="0.9057" style="stop-color:#736D44;stop-opacity:0.4528"/>
				<stop  offset="0.9761" style="stop-color:#4E4712;stop-opacity:0.4881"/>
				<stop  offset="1" style="stop-color:#403900;stop-opacity:0.5"/>
			</linearGradient>
			<polygon opacity="0.8" fill="url(#SVGID_2_)" points="258.033,1449.494 394.49,1382.36 418.995,1406.262 296.617,1493.694 
				255.928,1457.533 			"/>
			<linearGradient id="SVGID_3_" gradientUnits="userSpaceOnUse" x1="34.5859" y1="2195.3706" x2="34.5859" y2="1879.8252">
				<stop  offset="0" style="stop-color:#4FC4CB;stop-opacity:0"/>
				<stop  offset="0.3897" style="stop-color:#4FC2C9;stop-opacity:0.3118"/>
				<stop  offset="0.5301" style="stop-color:#4DBDC4;stop-opacity:0.4241"/>
				<stop  offset="0.6302" style="stop-color:#4AB6BD;stop-opacity:0.5042"/>
				<stop  offset="0.7112" style="stop-color:#45ACB3;stop-opacity:0.569"/>
				<stop  offset="0.7805" style="stop-color:#3F9FA5;stop-opacity:0.6244"/>
				<stop  offset="0.8419" style="stop-color:#368E94;stop-opacity:0.6735"/>
				<stop  offset="0.8974" style="stop-color:#2B7A80;stop-opacity:0.7179"/>
				<stop  offset="0.9484" style="stop-color:#1D6468;stop-opacity:0.7587"/>
				<stop  offset="0.9939" style="stop-color:#05494D;stop-opacity:0.7951"/>
				<stop  offset="1" style="stop-color:#004549;stop-opacity:0.8"/>
			</linearGradient>
			<polygon opacity="0.6" fill="url(#SVGID_3_)" points="63.232,1865.31 219.07,2074.641 118.457,2157.864 -149.897,1872.496 			"/>
			<linearGradient id="SVGID_4_" gradientUnits="userSpaceOnUse" x1="239.666" y1="2168.8599" x2="22.0923" y2="1942.3689">
				<stop  offset="0" style="stop-color:#4FC4CB;stop-opacity:0"/>
				<stop  offset="0.3897" style="stop-color:#4FC2C9;stop-opacity:0.3118"/>
				<stop  offset="0.5301" style="stop-color:#4DBDC4;stop-opacity:0.4241"/>
				<stop  offset="0.6302" style="stop-color:#4AB6BD;stop-opacity:0.5042"/>
				<stop  offset="0.7112" style="stop-color:#45ACB3;stop-opacity:0.569"/>
				<stop  offset="0.7805" style="stop-color:#3F9FA5;stop-opacity:0.6244"/>
				<stop  offset="0.8419" style="stop-color:#368E94;stop-opacity:0.6735"/>
				<stop  offset="0.8974" style="stop-color:#2B7A80;stop-opacity:0.7179"/>
				<stop  offset="0.9484" style="stop-color:#1D6468;stop-opacity:0.7587"/>
				<stop  offset="0.9939" style="stop-color:#05494D;stop-opacity:0.7951"/>
				<stop  offset="1" style="stop-color:#004549;stop-opacity:0.8"/>
			</linearGradient>
			<polygon opacity="0.6" fill="url(#SVGID_4_)" points="79.202,1886.701 219.124,2074.641 118.515,2157.864 -39.539,1989.932 			
				"/>
			<polygon fill="#FFFFFF" points="-169.267,2161.719 -304.387,2272.092 -303.275,1498.134 -169.316,1388.261 			"/>
			<polygon opacity="0.9" fill="#9E8082" points="-169.267,2161.719 -304.387,2272.092 -303.275,1498.134 -169.267,1388.261 			"/>
			<linearGradient id="SVGID_5_" gradientUnits="userSpaceOnUse" x1="-70.8301" y1="1666.4683" x2="-368.4835" y2="1960.5564">
				<stop  offset="0" style="stop-color:#9D8081;stop-opacity:0"/>
				<stop  offset="0.4048" style="stop-color:#9C8080;stop-opacity:0.3238"/>
				<stop  offset="0.5505" style="stop-color:#997D7E;stop-opacity:0.4404"/>
				<stop  offset="0.6545" style="stop-color:#937879;stop-opacity:0.5236"/>
				<stop  offset="0.7385" style="stop-color:#8A7172;stop-opacity:0.5908"/>
				<stop  offset="0.8106" style="stop-color:#7E6868;stop-opacity:0.6484"/>
				<stop  offset="0.8743" style="stop-color:#705B5C;stop-opacity:0.6994"/>
				<stop  offset="0.9319" style="stop-color:#5E4D4D;stop-opacity:0.7455"/>
				<stop  offset="0.9832" style="stop-color:#4B3C3D;stop-opacity:0.7865"/>
				<stop  offset="1" style="stop-color:#443536;stop-opacity:0.8"/>
			</linearGradient>
			<polygon opacity="0.6" fill="url(#SVGID_5_)" points="-169.267,2161.719 -304.387,2272.092 -303.275,1498.134 -169.267,1388.261 
							"/>
			<linearGradient id="SVGID_6_" gradientUnits="userSpaceOnUse" x1="-236.8267" y1="1861.6899" x2="-236.8267" y2="1494.1974">
				<stop  offset="0" style="stop-color:#9D8081;stop-opacity:0"/>
				<stop  offset="0.4048" style="stop-color:#9C8080;stop-opacity:0.3238"/>
				<stop  offset="0.5505" style="stop-color:#997D7E;stop-opacity:0.4404"/>
				<stop  offset="0.6545" style="stop-color:#937879;stop-opacity:0.5236"/>
				<stop  offset="0.7385" style="stop-color:#8A7172;stop-opacity:0.5908"/>
				<stop  offset="0.8106" style="stop-color:#7E6868;stop-opacity:0.6484"/>
				<stop  offset="0.8743" style="stop-color:#705B5C;stop-opacity:0.6994"/>
				<stop  offset="0.9319" style="stop-color:#5E4D4D;stop-opacity:0.7455"/>
				<stop  offset="0.9832" style="stop-color:#4B3C3D;stop-opacity:0.7865"/>
				<stop  offset="1" style="stop-color:#443536;stop-opacity:0.8"/>
			</linearGradient>
			<polygon opacity="0.6" fill="url(#SVGID_6_)" points="-169.267,2161.719 -304.387,2272.092 -303.275,1498.134 -169.267,1388.261 
							"/>
			<polygon fill="#FFFFFF" points="-397.433,2288.078 358.384,1663.434 431.825,1759.579 505.312,1756.099 405.607,1625.581 
				578.472,1460.636 553.046,1429.15 365.973,1573.3 257.955,1449.548 239.863,1520.859 319.466,1612.022 -427.108,2250.852 			"/>
			<polygon opacity="0.9" fill="#D5B61C" points="-397.435,2288.078 358.375,1663.434 431.825,1759.579 505.312,1756.099 
				405.607,1625.581 578.466,1460.636 553.039,1429.15 365.97,1573.3 257.955,1449.548 239.863,1520.859 319.466,1612.022 
				-427.108,2250.852 			"/>
			
				<linearGradient id="SVGID_7_" gradientUnits="userSpaceOnUse" x1="-636.2773" y1="2217.4976" x2="-316.5727" y2="2217.4976" gradientTransform="matrix(1 -0.0088 0.0088 1 -4.6273 -5.7802)">
				<stop  offset="0" style="stop-color:#FFFFFF;stop-opacity:0"/>
				<stop  offset="0.2264" style="stop-color:#FDFDFC;stop-opacity:0.1132"/>
				<stop  offset="0.3626" style="stop-color:#F7F7F4;stop-opacity:0.1813"/>
				<stop  offset="0.475" style="stop-color:#ECEBE6;stop-opacity:0.2375"/>
				<stop  offset="0.5744" style="stop-color:#DDDCD1;stop-opacity:0.2872"/>
				<stop  offset="0.6652" style="stop-color:#C9C7B7;stop-opacity:0.3326"/>
				<stop  offset="0.7498" style="stop-color:#B1AE97;stop-opacity:0.3749"/>
				<stop  offset="0.8297" style="stop-color:#949070;stop-opacity:0.4148"/>
				<stop  offset="0.9057" style="stop-color:#736D44;stop-opacity:0.4528"/>
				<stop  offset="0.9761" style="stop-color:#4E4712;stop-opacity:0.4881"/>
				<stop  offset="1" style="stop-color:#403900;stop-opacity:0.5"/>
			</linearGradient>
			<polyline opacity="0.8" fill="url(#SVGID_7_)" points="-299.609,2141.755 -299.035,2206.755 -397.433,2288.078 
				-427.108,2250.852 			"/>
			<linearGradient id="SVGID_8_" gradientUnits="userSpaceOnUse" x1="-100.8276" y1="2007.563" x2="-232.9888" y2="2119.542">
				<stop  offset="0" style="stop-color:#FFFFFF;stop-opacity:0"/>
				<stop  offset="0.2264" style="stop-color:#FDFDFC;stop-opacity:0.1132"/>
				<stop  offset="0.3626" style="stop-color:#F7F7F4;stop-opacity:0.1813"/>
				<stop  offset="0.475" style="stop-color:#ECEBE6;stop-opacity:0.2375"/>
				<stop  offset="0.5744" style="stop-color:#DDDCD1;stop-opacity:0.2872"/>
				<stop  offset="0.6652" style="stop-color:#C9C7B7;stop-opacity:0.3326"/>
				<stop  offset="0.7498" style="stop-color:#B1AE97;stop-opacity:0.3749"/>
				<stop  offset="0.8297" style="stop-color:#949070;stop-opacity:0.4148"/>
				<stop  offset="0.9057" style="stop-color:#736D44;stop-opacity:0.4528"/>
				<stop  offset="0.9761" style="stop-color:#4E4712;stop-opacity:0.4881"/>
				<stop  offset="1" style="stop-color:#403900;stop-opacity:0.5"/>
			</linearGradient>
			<polygon fill="url(#SVGID_8_)" points="-216.22,2138.311 -250.386,2099.634 -119.045,1987.248 -83.059,2028.258 			"/>
			
				<linearGradient id="SVGID_9_" gradientUnits="userSpaceOnUse" x1="-51.4375" y1="1957.4038" x2="240.8368" y2="1719.0876" gradientTransform="matrix(1 -0.0088 0.0088 1 -4.6273 -5.7802)">
				<stop  offset="0" style="stop-color:#FFFFFF;stop-opacity:0"/>
				<stop  offset="0.0632" style="stop-color:#E0DFD5;stop-opacity:0.0632"/>
				<stop  offset="0.1848" style="stop-color:#A8A48A;stop-opacity:0.1848"/>
				<stop  offset="0.2937" style="stop-color:#7B764F;stop-opacity:0.2937"/>
				<stop  offset="0.3858" style="stop-color:#5B5524;stop-opacity:0.3858"/>
				<stop  offset="0.4575" style="stop-color:#47410A;stop-opacity:0.4575"/>
				<stop  offset="0.5" style="stop-color:#403900;stop-opacity:0.5"/>
				<stop  offset="0.5431" style="stop-color:#453D00;stop-opacity:0.4569"/>
				<stop  offset="0.6089" style="stop-color:#534B0E;stop-opacity:0.3911"/>
				<stop  offset="0.6892" style="stop-color:#69602C;stop-opacity:0.3108"/>
				<stop  offset="0.781" style="stop-color:#887F54;stop-opacity:0.219"/>
				<stop  offset="0.8824" style="stop-color:#B7AF91;stop-opacity:0.1176"/>
				<stop  offset="0.9905" style="stop-color:#F5F3EF;stop-opacity:0.0095"/>
				<stop  offset="1" style="stop-color:#FFFFFF;stop-opacity:0"/>
			</linearGradient>
			<path opacity="0.8" fill="url(#SVGID_9_)" d="M243.126,1695.097c0.275,31.354-5.934,68.492-5.934,68.492L9.981,1951.368
				l-76.095-9.288l309.24-264.733C243.126,1677.346,242.998,1680.63,243.126,1695.097z"/>
			<path opacity="0.9" fill="#FFFFFF" d="M-169.267,1388.261h166.83c134.233,0,250.187,108.834,250.187,243.054
				c0,134.249-115.954,243.062-250.187,243.062l-147.407-1.881L-8.52,1756.344c72.975,0,120.034-63.089,120.034-127.878
				c0-68.932-55.265-129.732-110.385-129.732l-304.405-0.6L-169.267,1388.261z"/>
			<path opacity="0.9" fill="#4FC4CB" d="M-169.267,1388.261h166.83c134.233,0,250.187,108.834,250.187,243.054
				c0,134.249-115.954,243.062-250.187,243.062l-147.407-1.881L-8.52,1756.344c72.975,0,120.034-63.089,120.034-127.878
				c0-68.932-55.265-129.732-110.385-129.732l-304.405-0.6L-169.267,1388.261z"/>
			<polygon fill="#FFFFFF" points="-169.267,2161.719 -579.04,1726.025 -678.085,1807.333 -304.387,2272.092 			"/>
			<polygon opacity="0.9" fill="#D63D3C" points="-169.267,2161.719 -579.114,1726.148 -678.162,1807.458 -304.462,2272.22 			"/>
		</g>
		<g>
			
				<line opacity="0.4" fill="none" stroke="#EC008C" stroke-width="1.8196" stroke-miterlimit="10" x1="-828" y1="1930.339" x2="-56.606" y2="1294.941"/>
			
				<line opacity="0.4" fill="none" stroke="#EC008C" stroke-width="1.8196" stroke-miterlimit="10" x1="-436.482" y1="2379.405" x2="687.748" y2="1453.375"/>
			
				<line opacity="0.4" fill="none" stroke="#EC008C" stroke-width="1.8196" stroke-miterlimit="10" x1="-313.937" y1="2515.073" x2="808.173" y2="1590.792"/>
			
				<line opacity="0.4" fill="none" stroke="#EC008C" stroke-width="1.8196" stroke-miterlimit="10" x1="-574.153" y1="2221.823" x2="548.904" y2="1296.76"/>
			
				<line opacity="0.4" fill="none" stroke="#EC008C" stroke-width="1.8196" stroke-miterlimit="10" x1="-482.877" y1="2324.155" x2="640.178" y2="1399.094"/>
			
				<line opacity="0.4" fill="none" stroke="#EC008C" stroke-width="1.8196" stroke-miterlimit="10" x1="-691.761" y1="1691.687" x2="-53.923" y2="2419.519"/>
			
				<line opacity="0.4" fill="none" stroke="#EC008C" stroke-width="1.8196" stroke-miterlimit="10" x1="-405.294" y1="1461.943" x2="229.849" y2="2186.701"/>
		</g>
	</g>
</g>
<g id="Layer_2" display="none">
	<line display="inline" fill="none" stroke="#000000" stroke-miterlimit="10" x1="1366" y1="111.347" x2="2055" y2="380.574"/>
	
		<line display="inline" fill="none" stroke="#000000" stroke-miterlimit="10" x1="2407.255" y1="-37.512" x2="1859.157" y2="303.844"/>
	<line display="inline" fill="none" stroke="#000000" stroke-miterlimit="10" x1="2407.098" y1="91.921" x2="1859" y2="433.278"/>
	<line display="inline" fill="none" stroke="#000000" stroke-miterlimit="10" x1="2407.098" y1="61.722" x2="1859" y2="403.079"/>
	<line display="inline" fill="none" stroke="#000000" stroke-miterlimit="10" x1="2407.098" y1="25.657" x2="1859" y2="367.014"/>
	<line display="inline" fill="none" stroke="#000000" stroke-miterlimit="10" x1="1366" y1="260.863" x2="2055" y2="530.089"/>
	<line display="inline" fill="none" stroke="#000000" stroke-miterlimit="10" x1="1366" y1="240.819" x2="2055" y2="510.046"/>
	<line display="inline" fill="none" stroke="#000000" stroke-miterlimit="10" x1="1366" y1="218.4" x2="2055" y2="487.627"/>
	<line display="inline" fill="none" stroke="#000000" stroke-miterlimit="10" x1="1366" y1="141.535" x2="2055" y2="410.761"/>
	<line display="inline" fill="none" stroke="#000000" stroke-miterlimit="10" x1="1366" y1="193.997" x2="2055" y2="463.224"/>
	<line display="inline" fill="none" stroke="#000000" stroke-miterlimit="10" x1="1859" y1="260.863" x2="1859" y2="530.089"/>
	<line display="inline" fill="none" stroke="#000000" stroke-miterlimit="10" x1="2114" y1="83.46" x2="2114" y2="352.687"/>
	<line display="inline" fill="none" stroke="#000000" stroke-miterlimit="10" x1="2154" y1="52.96" x2="2154" y2="322.187"/>
	<line display="inline" fill="none" stroke="#000000" stroke-miterlimit="10" x1="1841" y1="260.863" x2="1841" y2="530.089"/>
	<line display="inline" fill="none" stroke="#000000" stroke-miterlimit="10" x1="1831" y1="260.863" x2="1831" y2="530.089"/>
	<line display="inline" fill="none" stroke="#000000" stroke-miterlimit="10" x1="1797" y1="227.863" x2="1797" y2="497.089"/>
	<line display="inline" fill="none" stroke="#000000" stroke-miterlimit="10" x1="1694" y1="172.863" x2="1694" y2="442.089"/>
	<line display="inline" fill="none" stroke="#000000" stroke-miterlimit="10" x1="1398" y1="55.574" x2="1398" y2="319.574"/>
	<line display="inline" fill="none" stroke="#000000" stroke-miterlimit="10" x1="1416" y1="55.574" x2="1416" y2="319.574"/>
	<line display="inline" fill="none" stroke="#000000" stroke-miterlimit="10" x1="1426" y1="55.574" x2="1426" y2="319.574"/>
	<line display="inline" fill="none" stroke="#000000" stroke-miterlimit="10" x1="1446" y1="98.574" x2="1446" y2="337.574"/>
	<line display="inline" fill="none" stroke="#000000" stroke-miterlimit="10" x1="1577" y1="82.25" x2="1577" y2="351.476"/>
	<line display="inline" fill="none" stroke="#000000" stroke-miterlimit="10" x1="1628.5" y1="127.986" x2="1628.5" y2="397.213"/>
</g>
<g id="Layer_3">
	<g>
		<rect fill="#4FC4CB" width="393.026" height="680.054"/>
		<rect x="410.974" opacity="0.9" fill="#D63D3C" width="393.026" height="680.054"/>
		<text transform="matrix(1 0 0 1 449.7373 576.2876)"><tspan x="0" y="0" fill="#FFFFFF" font-family="'Montserrat-Regular'" font-size="19.991">RED</tspan><tspan x="0" y="23.989" fill="#FFFFFF" font-family="'Montserrat-Regular'" font-size="19.991">213,61,59</tspan><tspan x="0" y="47.979" fill="#FFFFFF" font-family="'Montserrat-Regular'" font-size="19.991">#d53d3b</tspan></text>
		<text transform="matrix(1 0 0 1 38.0488 576.2876)"><tspan x="0" y="0" fill="#FFFFFF" font-family="'Montserrat-Regular'" font-size="19.991">BLUE</tspan><tspan x="0" y="23.989" fill="#FFFFFF" font-family="'Montserrat-Regular'" font-size="19.991">79,195,203</tspan><tspan x="0" y="47.979" fill="#FFFFFF" font-family="'Montserrat-Regular'" font-size="19.991">#4fc3cb</tspan></text>
		<rect y="695.054" fill="#9D8081" width="804" height="97.946"/>
		<rect y="811.054" fill="#D5B72A" width="804" height="97.946"/>
		<g>
			<text transform="matrix(1 0 0 1 39.0498 725.0605)"><tspan x="0" y="0" fill="#FFFFFF" font-family="'Montserrat-Regular'" font-size="19.991">PURPLE</tspan><tspan x="0" y="23.989" fill="#FFFFFF" font-family="'Montserrat-Regular'" font-size="19.991">157,128,129</tspan><tspan x="0" y="47.979" fill="#FFFFFF" font-family="'Montserrat-Regular'" font-size="19.991">#9d8081</tspan></text>
		</g>
		<g>
			<text transform="matrix(1 0 0 1 39.0498 841.0713)"><tspan x="0" y="0" fill="#FFFFFF" font-family="'Montserrat-Regular'" font-size="19.991">GOLD</tspan><tspan x="0" y="23.989" fill="#FFFFFF" font-family="'Montserrat-Regular'" font-size="19.991">213,182,28</tspan><tspan x="0" y="47.979" fill="#FFFFFF" font-family="'Montserrat-Regular'" font-size="19.991">#d5b61c</tspan></text>
		</g>
		<text transform="matrix(1 0 0 1 -650.0864 122.9512)"><tspan x="0" y="0" font-family="'Neris-Black'" font-size="107.4814">Neris - Black</tspan><tspan x="-179.708" y="128.978" font-family="'Neris-SemiBold'" font-size="107.4814">Neris - SemiBold</tspan><tspan x="45.247" y="257.955" font-family="'Neris-Light'" font-size="107.4814">Neris - Light</tspan></text>
		<g>
			<path fill="#FFFFFF" d="M731.898,216.313c-13.35,8.318-248.317,154.657-248.317,154.657L136.858,235.647l47.657-72.127
				c0,0,81.251-50.605,88.146-54.898c6.896-4.294,10.036-2.353,10.036,4.83v24.06c0,16.173,6.704,25.25,18.72,17.768
				c12.005-7.472,20.255-24.769,20.255-42.038V78.099c0-33.336-20.255-48.837-38.975-37.188
				C269.35,49.229,34.228,195.588,34.228,195.588v126.151l17.537,6.858l9.749,23.338L81,359.551l127.641,49.875l50.183-45.111
				l50.182,84.325l127.649,49.885l18.307,7.155l10.929-15.271l17.537,6.685l77.785-48.453l72.503-109.718
				c0,0,81.241-50.596,88.137-54.889c6.896-4.302,10.047-2.362,10.047,4.822v24.059c0,16.173,6.704,25.259,18.709,17.777
				c12.015-7.482,20.265-24.779,20.265-42.048v-35.142C770.872,220.165,750.607,204.664,731.898,216.313z M208.007,367.753
				c0,9.95-4.562,11.852-13.638,8.308c-9.067-3.544-91.173-35.632-100.364-39.214c-9.192-3.592-13.639-9.739-13.639-18.978v-24.895
				l31.646-19.737l9.402-14.223c27.554,10.766,66.135,25.835,72.954,28.505c10.132,3.957,13.638,9.221,13.638,18.978V367.753z
				 M436.654,457.149c0,9.951-4.571,11.852-13.638,8.308c-9.076-3.544-91.183-35.623-100.374-39.214
				c-9.19-3.592-13.638-9.739-13.638-18.979v-61.255c0-9.259,3.486-12.274,13.647-8.308c10.151,3.966,90.231,35.257,100.364,39.224
				c10.123,3.948,13.638,9.21,13.638,18.968V457.149z"/>
			<linearGradient id="SVGID_10_" gradientUnits="userSpaceOnUse" x1="486.0654" y1="437.9629" x2="765.5349" y2="252.1302">
				<stop  offset="0" style="stop-color:#49524E;stop-opacity:0.8"/>
				<stop  offset="1" style="stop-color:#C5E6DC;stop-opacity:0"/>
			</linearGradient>
			<path opacity="0.2" fill="url(#SVGID_10_)" d="M483.424,497.091l77.788-48.448l72.501-109.72c0,0,81.246-50.601,88.143-54.895
				c6.896-4.296,10.04-2.354,10.04,4.829c0,7.185,0,16.567,0,24.06c0,16.172,6.702,25.25,18.714,17.77
				c12.013-7.481,20.262-24.777,20.262-42.044c0-11.477,0-28.488,0-35.142c0-33.337-20.262-48.838-38.976-37.184
				c-13.347,8.313-248.318,154.654-248.318,154.654L483.424,497.091z"/>
			<linearGradient id="SVGID_11_" gradientUnits="userSpaceOnUse" x1="34.2275" y1="136.356" x2="321.6729" y2="136.356">
				<stop  offset="0" style="stop-color:#49524E;stop-opacity:0.8"/>
				<stop  offset="1" style="stop-color:#C5E6DC;stop-opacity:0"/>
			</linearGradient>
			<path opacity="0.2" fill="url(#SVGID_11_)" d="M321.673,78.099v35.142c0,17.269-8.25,34.566-20.255,42.038
				c-12.016,7.482-18.72-1.594-18.72-17.768v-24.06c0-7.183-3.14-9.124-10.036-4.83c-6.896,4.293-88.146,54.898-88.146,54.898
				l-47.657,72.127L34.228,195.588c0,0,235.122-146.359,248.471-154.676C301.418,29.262,321.673,44.763,321.673,78.099z"/>
			<g>
				<path opacity="0.9" fill="#D63D3C" stroke="#000000" stroke-miterlimit="10" d="M309.007,346.012c0,9.269,0,52.021,0,61.257
					s4.448,15.38,13.64,18.971c9.19,3.591,91.296,35.674,100.369,39.22c9.072,3.544,13.638,1.637,13.638-8.312
					c0-9.951,0-51.502,0-61.256c0-9.755-3.51-15.014-13.638-18.97c-10.129-3.959-90.214-35.25-100.366-39.219
					C312.495,333.735,309.007,336.747,309.007,346.012z"/>
				<path fill="#4FC4CB" stroke="#000000" stroke-miterlimit="10" d="M80.363,256.615c0,9.268,0,52.021,0,61.256
					c0,9.235,4.448,15.38,13.639,18.971c9.191,3.591,91.298,35.674,100.369,39.221c9.073,3.543,13.639,1.636,13.639-8.313
					c0-9.949,0-51.502,0-61.257s-3.51-15.012-13.639-18.97c-10.128-3.958-90.213-35.25-100.365-39.218
					C83.852,244.337,80.363,247.348,80.363,256.615z"/>
			</g>
			<linearGradient id="SVGID_12_" gradientUnits="userSpaceOnUse" x1="34.2275" y1="350.6338" x2="483.5811" y2="350.6338">
				<stop  offset="0" style="stop-color:#C5E6DC;stop-opacity:0"/>
				<stop  offset="1" style="stop-color:#49524E;stop-opacity:0.8"/>
			</linearGradient>
			<path opacity="0.2" fill="url(#SVGID_12_)" d="M136.858,235.647L34.228,195.588v126.151l17.537,6.858l9.749,23.338L81,359.551
				l127.641,49.875l50.183-45.111l50.182,84.325l127.649,49.885l18.307,7.155l10.929-15.271l17.537,6.685l0.154-126.122
				L136.858,235.647z M208.007,367.753c0,9.95-4.562,11.852-13.638,8.308c-9.067-3.544-91.173-35.632-100.364-39.214
				c-9.192-3.592-13.639-9.739-13.639-18.978v-61.256c0-9.269,3.486-12.275,13.639-8.308c3.313,1.297,14.07,5.494,27.41,10.709
				c27.554,10.766,66.135,25.835,72.954,28.505c10.132,3.957,13.638,9.221,13.638,18.978V367.753z M436.654,457.149
				c0,9.951-4.571,11.852-13.638,8.308c-9.076-3.544-91.183-35.623-100.374-39.214c-9.19-3.592-13.638-9.739-13.638-18.979v-61.255
				c0-9.259,3.486-12.274,13.647-8.308c10.151,3.966,90.231,35.257,100.364,39.224c10.123,3.948,13.638,9.21,13.638,18.968V457.149z
				"/>
		</g>
	</g>
</g>
</svg>
